<?xml version="1.0" encoding="UTF-8"?>
<svg fill="currentColor" version="1.1" viewBox="0 0 2048 589" width="931" height="268" xmlns="http://www.w3.org/2000/svg">
<path fill="red" transform="translate(710,20)" d="m0 0h39l17 1 4 4 3 27 4 53 1 6 2 52 4 57 4 48 4 39 4 53 3 33 3 27 2 34 1 32-3 12-7 11-11 12-8 7-8 8-8 7-7 7-11 9-9 8-12 6-9 1-2 1h-133l-7-3-2-9-1-17-5-70-4-43-2-20-2-27-1-6h-346l-9-1-5-3-3-5v-6l9-13 7-8 6-5 4-5 11-9 5-6 8-6 10-10 11-7 12-6 7-2 19-2h182l33-1 8-4 12-12 6-5 6-7 6-5h2l2-4 9-8 5-5 9-11 4-10v-13l-1-6-2-33-1-8v-16l4-11 7-9 7-7 5-4 4-5 8-7 7-7 8-7 7-7 10-8 7-8 16-15 5-5 11-10 7-5 8-2z"/>
<path transform="translate(1341,311)" d="m0 0h132l19 1 18 3 10 3 11 8 7 8 7 14 1 5v23l-2 13-8 20-6 10-8 10-5 5-10 7-9 6 2 4 8 9 6 12 3 14v18l-2 12-1 10-3 24v15l-10 1h-61v-13l3-28 1-14v-14l-4-16-6-2-17-2-15-1h-22l-4 4-10 43-7 35-1 6-2 1h-72l1-9 5-19 8-36 6-29 8-33 6-31 8-34 8-39 6-23zm66 58-7 3-4 8-7 31v12l1 1h34l17-2 15-4 5-4 7-11 1-3v-19l-6-7-9-3-15-2z"/>
<path transform="translate(182,420)" d="m0 0h173l25 1 8 4 1 2v17l-5 12-6 11-9 11-8 10-5 5-9 10-47 47-9 7-10 8-10 6-12 4-13 2h-50l-154-1-4-1h-20l-6-4-2-4 7-12 10-13 15-14 14-13 11-9 4-5h2v-2l8-7 5-6 8-7 17-16 12-11 11-9 12-10 13-8 12-4z"/>
<path transform="translate(1097,311)" d="m0 0h200l-2 11-10 47-2 5-20 1h-81l-26 1-4 15-1 16v2h114l-5 19-4 22-2 14-1 2-3 1h-113l-3 10-2 10-1 15h125l1 2v7l-9 44-3 10-3 1h-199l1-9 5-27 11-48 5-26 10-44 5-24 8-33 6-34z"/>
<path transform="translate(1767,13)" d="m0 0h36l15 3 16 6 10 5 14 12 7 9 8 13 4 10 3 14 2 21v10l-2 22-4 19-8 22-9 19-10 15-8 11-16 17-9 7-10 7-21 11-17 6-20 4h-7l-4 1h-23l-3-1-12-1-16-4-14-7-14-9-13-17-8-20-4-17-1-6v-26l4-27 9-29 8-16 8-15 9-12 7-8 4-5h2l2-4 12-10 10-7 11-6 14-7 21-7zm3 60-14 3-13 5-10 8-8 10-7 11-4 8-7 19-6 24v8l-1 4 1 6 2 9 3 8 9 12 5 5 10 3 14 1 17-4 12-7 4-4v-2l4-2 6-7 10-18 5-13 4-19 2-17v-12l-3-16-6-11-7-6-10-4z"/>
<path transform="translate(1203,17)" d="m0 0h44l1 2-5 18-6 33-11 47-6 31-5 24-2 14 1 11 4 9 5 6 9 3h22l11-3 8-7 8-11 7-20 9-35 6-31 9-38 6-31 5-19 7-2 25-1 14 1h20l6-1-1 8-5 20-4 23-10 44-5 26-9 38-5 21-7 16-9 16-9 12-10 10-10 7-23 11-11 3-23 4h-9l-3 1h-32l-3-1-13-1-15-3-12-5-9-7-8-7-7-11-5-17-1-6v-23l4-23 8-37 7-33 7-30 7-36 5-17 1-1 7-1z"/>
<path transform="translate(1595,311)" d="m0 0h71l-2 11-7 32-6 29-9 37-7 36-3 18v14l4 11 4 6 6 3 11 2 13-1 12-3 13-12 9-17 6-20 5-25 7-30 4-17 5-28 10-42 2-4h71l-1 10-9 37-5 25-10 44-5 25-7 27-5 17-8 17-10 17-7 8-11 9-14 8-15 7-14 4-26 4-12 1h-15l-24-2-18-4-16-8-11-8-6-9-6-15-3-14v-21l4-26 8-37 9-37 7-37 6-25z"/>
<path transform="translate(1939,305)" d="m0 0h25l6 1 10 1 16 5 16 8 12 12 6 15 2 11 1 16-1 11-2 3-5-1-4-1h-19l-5 1h-30l-2-5-2-9-6-8-7-3-16-2-13 2-8 4-3 1-2 4-3 7 1 8 4 5 17 8 38 11 19 7 12 5 12 9 8 9 5 10 3 12-1 14-4 17-8 20-5 8-11 14-11 9-10 7-17 8-16 6-21 4-22 2h-15l-19-2-20-5-12-6-13-8-11-16-4-10-2-12v-29l3-1 24-1h47v11l3 12 6 7 7 4 10 2h12l11-3 10-5 5-5 4-6 2-6-1-8-4-6-12-6-21-7-20-6-29-12-10-6-12-12-4-11-1-6v-17l4-17 6-14 8-14 12-14 9-7 11-7 12-6 21-7 15-3z"/>
<path transform="translate(1030,17)" d="m0 0h25l10 1 4 7 3 30 4 30 4 38 6 39 1 10 3 24 5 43 2 8v7l3 10 1 5-3 3h-69l-6-1-1-26-1-7-1-1h-36l-40 1-8 8-10 25-4 1h-69l-1-5 6-9 8-14 9-17 9-15 8-13 5-8 6-12 7-11 6-12 10-16 8-15 8-14 18-32 11-19 6-11 9-16 5-9 5-5zm-20 88-6 9-8 16-9 16-8 16-7 16 1 5 6 1h35l4-2v-34l-2-30-2-10-2-3z"/>
<path transform="translate(565,20)" d="m0 0h53l6 3 3 3v8l-6 10-11 12-12 12-8 7-17 16-14 13-5 5-10 9-4 6-3 3-4 8v9l2 24 1 2v14l1 5v26l-3 9-10 10-11 5-12 3-26 2-59 2h-78l-26-3-6-3v-11l4-8 11-12 9-9 8-7 16-15 11-10 11-9 10-9 8-7 11-9 8-9 8-6 8-9 8-7 8-8 6-5 7-8 8-7 7-8 8-7 8-9 8-7 6-7 15-10 10-4 18-2z"/>
<path transform="translate(1029,310)" d="m0 0h49l-1 5-16 31-5 12-10 19-8 16-8 15-14 28-13 25-6 12-8 13-10 21-6 10-11 23-8 16-5 8-5 1h-79l-2-32-3-52-5-72-1-5-1-23-3-52v-18h72l1 1 1 16 3 92 1 16v14l3 12v3l3-3 7-15 5-12 8-16 5-13 8-15 8-18 8-15 10-23 9-19 4-5z"/>
<path transform="translate(1453,17)" d="m0 0 181 1v11l-8 37-3 15-68 1-4 13-10 46-5 25-13 55-6 35-3 13-4 2-12 1h-57l1-10 6-33 12-50 6-31 9-40 2-13 1-14h-64l-1-3 5-25 5-26 3-7 7-2z"/>
</svg>
