<?xml version="1.0" encoding="UTF-8"?>
<svg version="1.1" viewBox="0 0 2048 407" width="1779" height="354" xmlns="http://www.w3.org/2000/svg">
<path transform="translate(9,9)" d="m0 0h116l6 9 12 22 13 23 14 24 13 24 12 21 13 23 11 19 14 25 3 5-2 6-15 28-13 23-28 49-2 2-71 1h-44l1-5 14-24 16-28 14-25 13-23-1-6-14-24-26-46-14-25-16-29-26-46-11-19z" fill="#111"/>
<path transform="translate(205,99)" d="m0 0h114l9 15 30 54 14 25 4 7v10l-13 25-14 24-8 15-12 21-14 25-12 21-13 23-15 26-5 8h-117l6-12 13-22 44-77 14-25 14-24 12-22 5-9-1-5-13-23-16-28-14-25-12-21-2-5z" fill="#111"/>
<path transform="translate(950,118)" d="m0 0h12l16 2 15 5 11 6 10 9 7 10 5 13 2 10v18l-3 15-5 14-7 12-9 10-8 8-15 9-13 5-19 4h-24l-18-4-16-8-10-9-6-7-6-13-3-13v-19l3-16 6-15 8-12 9-10 8-7 14-8 16-6zm-6 30-13 4-10 6-8 7-7 11-4 10-2 9v16l3 10 7 9 5 4 9 4 9 2h14l13-3 13-7 10-10 6-10 4-13 1-6v-13l-4-13-9-10-10-5-8-2z" fill="#111"/>
<path transform="translate(1511,120)" d="m0 0h74l16 4 11 6 6 5 6 9 4 11 1 13-2 13-4 11-6 10-9 9-14 8-6 3 7 14 13 23 3 5v3h-34l-6-9-16-29-2-3h-28l-5 24-3 15-1 2h-33l-1-2 22-111zm29 27-2 6-8 41v4l9 1h19l15-2 9-4 8-7 4-10v-15l-4-7-5-4-9-3z" fill="#111"/>
<path transform="translate(1665,120)" d="m0 0h111l-2 13-3 13-1 1-76 1-6 31h67l-1 10-3 16-1 1h-68l-5 27-1 6 79 1-2 13-3 13-1 1h-112l-1-2 20-100z" fill="#111"/>
<path transform="translate(1068,120)" d="m0 0h110l-2 13-3 13-1 1-76 1-6 31h67l-1 10-3 16-1 1h-68l-5 27-1 6 79 1-2 13-3 13-1 1h-112l-1-2 20-100 9-44z" fill="#111"/>
<path transform="translate(1358,120)" d="m0 0h73l16 4 11 6 8 7 5 9 3 9 1 6v9l-3 15-8 16-10 10-11 7-14 5-11 2-47 1-7 37-2 4h-33l1-10 27-135zm28 27-10 50v1l29 1 15-2 10-5 8-9 2-7v-15l-3-6-6-5-8-3z" fill="#111"/>
<path transform="translate(481,120)" d="m0 0h34l6 22 18 74 12 50-1 1h-31l-3-3-6-27-69-1-2 5-15 25-2 1h-35l2-4 11-18 10-15 16-25 13-20 16-25 13-20zm10 34-17 28-15 25-1 3h46l-1-10-10-45z" fill="#111"/>
<path transform="translate(595,120)" d="m0 0h33l-1 9-15 76v15l3 9 5 5 8 4 5 1h13l12-4 9-8 7-14 5-21 14-70 1-2h33l-4 22-13 65-5 16-8 16-11 12-7 6-12 6-15 4-6 1h-21l-14-3-12-5-10-8-6-8-4-8-3-16 1-14 17-85z" fill="#111"/>
<path transform="translate(1195,120)" d="m0 0h36l10 19 14 28 7-6 9-11 11-12 9-11 6-7h39l-6 7-12 13-11 12-7 8-14 15-11 12-4 5 2 6 14 26 12 22 10 18v3h-35l-5-8-18-34-3-6-3 1-7 8-27 30-7 8-1 1h-40l6-8 13-13 7-8 15-16 12-13 15-16-1-6-12-22-15-29z" fill="#111"/>
<path transform="translate(1849,118)" d="m0 0h13l17 2 15 4 12 6-1 5-10 21h-3l-13-6-11-3-7-1h-13l-11 2-9 5-4 6v8l4 5 8 4 33 10 12 6 10 9 4 9 1 12-2 11-5 10-9 10-11 7-13 5-16 3h-25l-20-4-17-6-8-5 1-5 11-21 4 1 17 8 18 4h20l13-4 5-4 2-5v-6l-3-5-11-5-32-10-10-5-10-9-4-6-2-8v-12l4-13 6-9 7-7 14-8 14-4z" fill="#111"/>
<path transform="translate(1983,118)" d="m0 0h13l17 2 14 4 12 6 1 2-10 22-4 2-13-6-11-3-7-1h-14l-13 3-6 4-4 5-1 6 3 7 12 6 28 8 12 5 10 8 5 7 2 7v15l-3 10-6 10-10 9-14 7-16 4-6 1h-25l-21-4-16-6-9-6 8-16 5-9 6 2 12 6 15 4 6 1h20l13-4 5-5 2-5-1-7-4-4-16-6-30-10-9-6-8-8-4-10v-15l3-10 6-10 5-5 7-6 13-6 16-4z" fill="#111"/>
<path transform="translate(744,120)" d="m0 0h128l-5 26-1 1-46 1-20 100-4 18-1 1h-32l-1-2 23-117-1-1h-44l-1-4z" fill="#111"/>
<path transform="translate(697,339)" d="m0 0 6 1 15 26 5 8v2l3-3 14-24 5-9 6-1v52h-5l-1-1-1-36-10 17-8 13-2 1-4-4-15-26-1-1-1 36-1 1h-5z" fill="#111"/>
<path transform="translate(1125,339)" d="m0 0 29 1 8 5 4 8v8l-4 8-6 4 2 5 8 11v2h-6l-9-12-2-3-18-1v16h-6zm6 5v26h19l6-3 3-4 1-3v-7l-4-6-5-3z" fill="#111"/>
<path transform="translate(568,339)" d="m0 0h22l10 2 7 6 2 5v11l-4 6-5 4h-2l10 14 2 4h-7l-10-14v-2h-18l-1 16h-6zm6 5v26l5 1 15-1 7-4 2-4v-10l-4-6-5-2z" fill="#111"/>
<path transform="translate(1491,339)" d="m0 0h5v30l30-30h6l-2 4-13 13-5 6 2 4 12 14 8 9v2h-7l-9-10-9-11-3-2-9 9-1 14h-6v-51z" fill="#111"/>
<path transform="translate(1073,339)" d="m0 0h5v30l7-6 7-8 15-15 7-1-2 4-14 14-4 6 9 11 12 14 1 3h-7l-12-14-8-9-7 6-3 4-1 13h-5l-1-1v-50z" fill="#111"/>
<path transform="translate(622,339)" d="m0 0h5l1 1 1 28 22-22 5-6 2-1h6l-6 7-9 10-6 7 12 14 9 11 1 3h-6l-13-14-7-8h-3l-7 8-1 14h-6z" fill="#111"/>
<path transform="translate(1396,339)" d="m0 0h35l1 4-1 1h-29v18h26v4l-4 1h-22l-1 19h31l1 4-1 1h-36l-1-1v-50z" fill="#111"/>
<path transform="translate(1335,339)" d="m0 0h6l8 16 13 28 3 8h-6l-6-12v-2l-29 1-6 13h-6l3-9 16-34zm2 8-10 22v4h23l-3-9-8-17z" fill="#111"/>
<path transform="translate(1194,339)" d="m0 0h5l4 6 20 44v2h-6l-6-13-29-1-3 9-3 5h-6l2-5 15-33zm2 8-7 14-4 9v3h23l-1-6-9-20z" fill="#111"/>
<path transform="translate(1559,339)" d="m0 0h5l3 5 18 39 2 5v3h-5l-6-12v-2h-29l-2 6-4 8h-6l2-6 18-39 3-6zm2 8-8 16-3 7v3h23l-1-5-9-20z" fill="#111"/>
<path transform="translate(784,339)" d="m0 0h5l8 16 15 33v3h-6l-6-13h-28l-6 13h-6l1-5 16-34 6-12zm1 8-11 24v2h24l-3-9-8-17z" fill="#111"/>
<path transform="translate(1267,339)" d="m0 0h21l10 2 6 4 3 5 1 10-3 8-5 4-4 2-9 1h-14v16h-6zm6 5v26l5 1 14-1 6-3 3-4 1-9-2-5-5-4-2-1z" fill="#111"/>
<path transform="translate(970,339)" d="m0 0h5l5 8 15 33 4 9v2h-6l-6-13-29-1-3 9-3 5h-5l1-5 17-37zm2 8-6 12-5 11v3h24l-4-10-7-16z" fill="#111"/>
<path transform="translate(902,339)" d="m0 0h22l9 2 7 6 2 4v11l-3 6-6 5-3 1-22 1-1 16h-5l-1-1v-50zm5 5v26l1 1 19-1 7-4 2-4v-11l-4-5-5-2z" fill="#111"/>
<path transform="translate(493,339)" d="m0 0 28 1 8 4 4 6 1 10-3 7-5 5-5 2-21 1-1 16h-6zm6 5v27h9l13-2 6-5 1-3v-8l-3-5-3-3-3-1z" fill="#111"/>
<path transform="translate(1456,339)" d="m0 0h9l10 3 1 5-2 1-8-3h-12l-5 3-1 2v6l5 4 17 5 5 3 4 5v7l-4 7-10 4h-12l-10-4-3-2 2-5 8 4 3 1h13l5-3 1-2v-6l-6-4-17-5-5-3-3-6 1-9 5-5z" fill="#111"/>
<path transform="translate(434,339)" d="m0 0h5l1 32 3 10 6 4h12l5-3 3-4 1-5 1-34 6 1v31l-2 9-4 6-7 4-5 1h-9l-8-3-6-7-2-5z" fill="#111"/>
<path transform="translate(833,339)" d="m0 0h8l10 3 1 4-2 2-8-3h-12l-5 3-1 2v6l3 3 21 7 6 5 1 9-4 6-6 4-5 1h-11l-11-4-2-4 3-3 4 3 6 2h13l5-3 1-7-3-4-20-6-6-4-2-4v-7l4-7 6-3z" fill="#111"/>
<path transform="translate(401,339)" d="m0 0h7l10 3 2 1-1 5-9-3h-12l-5 3-1 1v7l3 3 21 7 5 4 2 5-1 7-5 6-9 3h-11l-11-4-2-2 1-4h3l5 3 4 1h13l5-3 1-7-4-4-21-7-5-5-1-2v-8l4-6 6-3z" fill="#111"/>
<path transform="translate(1024,339)" d="m0 0h17l1 4-1 1h-18v47h-5l-1-1v-46h-18v-4z" fill="#111"/>
<path transform="translate(1050,339)" d="m0 0h6v52h-6z" fill="#111"/>
<path transform="translate(1373,339)" d="m0 0h5l1 1v51h-6z" fill="#111"/>
<path transform="translate(547,339)" d="m0 0h5v52h-6v-51z" fill="#111"/>
<path transform="translate(675,339)" d="m0 0h5l1 1v50l-1 1h-5l-1-5z" fill="#111"/>
<path transform="translate(1229,383)" d="m0 0h5l2 4-4 14h-4l1-10-2-5z" fill="#111"/>
<path transform="translate(1449,325)" d="m0 0 6 1 4 4 5-2 4-3h4l-2 4-6 5h-8l-7-7z" fill="#111"/>
<path transform="translate(863,383)" d="m0 0h5l2 2-1 8-3 8h-4l1-11-1-5z" fill="#111"/>
</svg>
