<svg xmlns="http://www.w3.org/2000/svg" xmlns:xlink="http://www.w3.org/1999/xlink" width="424" zoomAndPan="magnify" viewBox="0 0 318 73.499998" height="98" preserveAspectRatio="xMidYMid meet" version="1.0"><defs><g/><clipPath id="7dc2ff4307"><path d="M 1.074219 0.800781 L 72.585938 0.800781 L 72.585938 72.316406 L 1.074219 72.316406 Z M 1.074219 0.800781 " clip-rule="nonzero"/></clipPath></defs><g clip-path="url(#7dc2ff4307)"><path fill="#141414" d="M 28.941406 34.066406 L 36.699219 19.4375 L 44.460938 34.066406 Z M 69.964844 34.066406 L 49.800781 34.066406 L 38.785156 13.296875 C 38.375 12.527344 37.574219 12.042969 36.699219 12.042969 C 35.828125 12.042969 35.027344 12.527344 34.617188 13.296875 L 15.785156 48.804688 L 19.953125 51.011719 L 26.4375 38.785156 L 46.960938 38.785156 L 53.445312 51.011719 L 57.613281 48.804688 L 52.300781 38.785156 L 67.519531 38.785156 C 66.308594 54.730469 52.949219 67.332031 36.699219 67.332031 C 19.660156 67.332031 5.792969 53.46875 5.792969 36.425781 C 5.792969 19.386719 19.660156 5.519531 36.699219 5.519531 C 46.242188 5.519531 55.101562 9.828125 61.007812 17.335938 L 64.714844 14.417969 C 57.90625 5.765625 47.695312 0.804688 36.699219 0.804688 C 17.058594 0.804688 1.074219 16.785156 1.074219 36.425781 C 1.074219 56.070312 17.058594 72.050781 36.699219 72.050781 C 56.34375 72.050781 72.324219 56.070312 72.324219 36.425781 C 72.324219 35.125 71.269531 34.066406 69.964844 34.066406 " fill-opacity="1" fill-rule="nonzero"/></g><g fill="#141414" fill-opacity="1"><g transform="translate(87.924372, 28.231319)"><g><path d="M 12.890625 -8.375 L 16.328125 -8.375 L 16.328125 -1.78125 C 15.441406 -1.113281 14.421875 -0.601562 13.265625 -0.25 C 12.109375 0.101562 10.941406 0.28125 9.765625 0.28125 C 8.078125 0.28125 6.5625 -0.078125 5.21875 -0.796875 C 3.875 -1.515625 2.816406 -2.507812 2.046875 -3.78125 C 1.285156 -5.0625 0.90625 -6.503906 0.90625 -8.109375 C 0.90625 -9.722656 1.285156 -11.164062 2.046875 -12.4375 C 2.816406 -13.71875 3.878906 -14.71875 5.234375 -15.4375 C 6.597656 -16.15625 8.128906 -16.515625 9.828125 -16.515625 C 11.253906 -16.515625 12.546875 -16.273438 13.703125 -15.796875 C 14.859375 -15.316406 15.832031 -14.617188 16.625 -13.703125 L 14.21875 -11.484375 C 13.050781 -12.703125 11.648438 -13.3125 10.015625 -13.3125 C 8.984375 -13.3125 8.0625 -13.09375 7.25 -12.65625 C 6.445312 -12.226562 5.820312 -11.617188 5.375 -10.828125 C 4.925781 -10.035156 4.703125 -9.128906 4.703125 -8.109375 C 4.703125 -7.109375 4.925781 -6.210938 5.375 -5.421875 C 5.820312 -4.640625 6.441406 -4.023438 7.234375 -3.578125 C 8.035156 -3.140625 8.945312 -2.921875 9.96875 -2.921875 C 11.050781 -2.921875 12.023438 -3.15625 12.890625 -3.625 Z M 12.890625 -8.375 "/></g></g></g><g fill="#141414" fill-opacity="1"><g transform="translate(108.110248, 28.231319)"><g><path d="M 12.265625 0 L 9.140625 -4.515625 L 5.6875 -4.515625 L 5.6875 0 L 1.921875 0 L 1.921875 -16.234375 L 8.953125 -16.234375 C 10.390625 -16.234375 11.632812 -15.992188 12.6875 -15.515625 C 13.75 -15.035156 14.566406 -14.351562 15.140625 -13.46875 C 15.710938 -12.59375 16 -11.550781 16 -10.34375 C 16 -9.132812 15.707031 -8.09375 15.125 -7.21875 C 14.550781 -6.34375 13.726562 -5.675781 12.65625 -5.21875 L 16.296875 0 Z M 12.203125 -10.34375 C 12.203125 -11.25 11.90625 -11.945312 11.3125 -12.4375 C 10.726562 -12.925781 9.867188 -13.171875 8.734375 -13.171875 L 5.6875 -13.171875 L 5.6875 -7.515625 L 8.734375 -7.515625 C 9.867188 -7.515625 10.726562 -7.757812 11.3125 -8.25 C 11.90625 -8.75 12.203125 -9.445312 12.203125 -10.34375 Z M 12.203125 -10.34375 "/></g></g></g><g fill="#141414" fill-opacity="1"><g transform="translate(127.461849, 28.231319)"><g><path d="M 12.609375 -3.484375 L 5.078125 -3.484375 L 3.640625 0 L -0.203125 0 L 7.03125 -16.234375 L 10.734375 -16.234375 L 18 0 L 14.046875 0 Z M 11.4375 -6.328125 L 8.859375 -12.546875 L 6.28125 -6.328125 Z M 11.4375 -6.328125 "/></g></g></g><g fill="#141414" fill-opacity="1"><g transform="translate(147.531852, 28.231319)"><g><path d="M 5.6875 -13.21875 L 5.6875 -8.921875 L 13.1875 -8.921875 L 13.1875 -5.90625 L 5.6875 -5.90625 L 5.6875 0 L 1.921875 0 L 1.921875 -16.234375 L 14.1875 -16.234375 L 14.1875 -13.21875 Z M 5.6875 -13.21875 "/></g></g></g><g fill="#141414" fill-opacity="1"><g transform="translate(164.658715, 28.231319)"><g><path d="M 1.921875 -16.234375 L 5.6875 -16.234375 L 5.6875 0 L 1.921875 0 Z M 1.921875 -16.234375 "/></g></g></g><g fill="#141414" fill-opacity="1"><g transform="translate(174.578355, 28.231319)"><g><path d="M 7.84375 -6.375 L 5.65625 -4.109375 L 5.65625 0 L 1.921875 0 L 1.921875 -16.234375 L 5.65625 -16.234375 L 5.65625 -8.65625 L 12.84375 -16.234375 L 17.015625 -16.234375 L 10.296875 -9 L 17.40625 0 L 13.03125 0 Z M 7.84375 -6.375 "/></g></g></g><g fill="#141414" fill-opacity="1"><g transform="translate(194.045829, 28.231319)"><g><path d="M 12.609375 -3.484375 L 5.078125 -3.484375 L 3.640625 0 L -0.203125 0 L 7.03125 -16.234375 L 10.734375 -16.234375 L 18 0 L 14.046875 0 Z M 11.4375 -6.328125 L 8.859375 -12.546875 L 6.28125 -6.328125 Z M 11.4375 -6.328125 "/></g></g></g><g fill="#141414" fill-opacity="1"><g transform="translate(214.115832, 28.231319)"><g/></g></g><g fill="#141414" fill-opacity="1"><g transform="translate(222.992628, 28.231319)"><g><path d="M 14.40625 0.28125 L 12.453125 -1.53125 C 10.910156 -0.320312 9.101562 0.28125 7.03125 0.28125 C 5.851562 0.28125 4.789062 0.09375 3.84375 -0.28125 C 2.90625 -0.664062 2.164062 -1.195312 1.625 -1.875 C 1.09375 -2.550781 0.828125 -3.316406 0.828125 -4.171875 C 0.828125 -5.179688 1.109375 -6.066406 1.671875 -6.828125 C 2.242188 -7.585938 3.15625 -8.316406 4.40625 -9.015625 C 3.820312 -9.617188 3.394531 -10.195312 3.125 -10.75 C 2.863281 -11.300781 2.734375 -11.867188 2.734375 -12.453125 C 2.734375 -13.242188 2.941406 -13.9375 3.359375 -14.53125 C 3.773438 -15.132812 4.363281 -15.601562 5.125 -15.9375 C 5.894531 -16.269531 6.785156 -16.4375 7.796875 -16.4375 C 9.203125 -16.4375 10.328125 -16.097656 11.171875 -15.421875 C 12.023438 -14.753906 12.453125 -13.847656 12.453125 -12.703125 C 12.453125 -11.867188 12.195312 -11.125 11.6875 -10.46875 C 11.1875 -9.820312 10.382812 -9.203125 9.28125 -8.609375 L 12.25 -5.84375 C 12.601562 -6.582031 12.867188 -7.425781 13.046875 -8.375 L 15.953125 -7.46875 C 15.640625 -6.03125 15.144531 -4.800781 14.46875 -3.78125 L 16.375 -2.015625 Z M 7.796875 -13.984375 C 7.253906 -13.984375 6.820312 -13.84375 6.5 -13.5625 C 6.1875 -13.28125 6.03125 -12.925781 6.03125 -12.5 C 6.03125 -12.175781 6.113281 -11.867188 6.28125 -11.578125 C 6.445312 -11.296875 6.78125 -10.914062 7.28125 -10.4375 C 8.070312 -10.851562 8.617188 -11.226562 8.921875 -11.5625 C 9.234375 -11.894531 9.390625 -12.253906 9.390625 -12.640625 C 9.390625 -13.035156 9.25 -13.359375 8.96875 -13.609375 C 8.695312 -13.859375 8.304688 -13.984375 7.796875 -13.984375 Z M 7.28125 -2.546875 C 8.40625 -2.546875 9.414062 -2.863281 10.3125 -3.5 L 6.40625 -7.171875 C 5.675781 -6.742188 5.15625 -6.328125 4.84375 -5.921875 C 4.53125 -5.523438 4.375 -5.070312 4.375 -4.5625 C 4.375 -3.957031 4.632812 -3.46875 5.15625 -3.09375 C 5.6875 -2.726562 6.394531 -2.546875 7.28125 -2.546875 Z M 7.28125 -2.546875 "/></g></g></g><g fill="#141414" fill-opacity="1"><g transform="translate(87.924372, 60.263411)"><g><path d="M 12.609375 -3.484375 L 5.078125 -3.484375 L 3.640625 0 L -0.203125 0 L 7.03125 -16.234375 L 10.734375 -16.234375 L 18 0 L 14.046875 0 Z M 11.4375 -6.328125 L 8.859375 -12.546875 L 6.28125 -6.328125 Z M 11.4375 -6.328125 "/></g></g></g><g fill="#141414" fill-opacity="1"><g transform="translate(107.994375, 60.263411)"><g><path d="M 12.265625 0 L 9.140625 -4.515625 L 5.6875 -4.515625 L 5.6875 0 L 1.921875 0 L 1.921875 -16.234375 L 8.953125 -16.234375 C 10.390625 -16.234375 11.632812 -15.992188 12.6875 -15.515625 C 13.75 -15.035156 14.566406 -14.351562 15.140625 -13.46875 C 15.710938 -12.59375 16 -11.550781 16 -10.34375 C 16 -9.132812 15.707031 -8.09375 15.125 -7.21875 C 14.550781 -6.34375 13.726562 -5.675781 12.65625 -5.21875 L 16.296875 0 Z M 12.203125 -10.34375 C 12.203125 -11.25 11.90625 -11.945312 11.3125 -12.4375 C 10.726562 -12.925781 9.867188 -13.171875 8.734375 -13.171875 L 5.6875 -13.171875 L 5.6875 -7.515625 L 8.734375 -7.515625 C 9.867188 -7.515625 10.726562 -7.757812 11.3125 -8.25 C 11.90625 -8.75 12.203125 -9.445312 12.203125 -10.34375 Z M 12.203125 -10.34375 "/></g></g></g><g fill="#141414" fill-opacity="1"><g transform="translate(127.345976, 60.263411)"><g><path d="M 9.6875 0.28125 C 8.039062 0.28125 6.546875 -0.078125 5.203125 -0.796875 C 3.867188 -1.515625 2.816406 -2.507812 2.046875 -3.78125 C 1.285156 -5.0625 0.90625 -6.503906 0.90625 -8.109375 C 0.90625 -9.722656 1.285156 -11.164062 2.046875 -12.4375 C 2.816406 -13.71875 3.867188 -14.71875 5.203125 -15.4375 C 6.546875 -16.15625 8.050781 -16.515625 9.71875 -16.515625 C 11.125 -16.515625 12.394531 -16.265625 13.53125 -15.765625 C 14.664062 -15.273438 15.617188 -14.566406 16.390625 -13.640625 L 13.984375 -11.40625 C 12.878906 -12.675781 11.519531 -13.3125 9.90625 -13.3125 C 8.894531 -13.3125 7.992188 -13.085938 7.203125 -12.640625 C 6.421875 -12.203125 5.804688 -11.585938 5.359375 -10.796875 C 4.921875 -10.015625 4.703125 -9.117188 4.703125 -8.109375 C 4.703125 -7.109375 4.921875 -6.210938 5.359375 -5.421875 C 5.804688 -4.640625 6.421875 -4.023438 7.203125 -3.578125 C 7.992188 -3.140625 8.894531 -2.921875 9.90625 -2.921875 C 11.519531 -2.921875 12.878906 -3.5625 13.984375 -4.84375 L 16.390625 -2.625 C 15.617188 -1.675781 14.660156 -0.953125 13.515625 -0.453125 C 12.367188 0.0351562 11.09375 0.28125 9.6875 0.28125 Z M 9.6875 0.28125 "/></g></g></g><g fill="#141414" fill-opacity="1"><g transform="translate(146.651234, 60.263411)"><g><path d="M 16.8125 -16.234375 L 16.8125 0 L 13.046875 0 L 13.046875 -6.65625 L 5.6875 -6.65625 L 5.6875 0 L 1.921875 0 L 1.921875 -16.234375 L 5.6875 -16.234375 L 5.6875 -9.828125 L 13.046875 -9.828125 L 13.046875 -16.234375 Z M 16.8125 -16.234375 "/></g></g></g><g fill="#141414" fill-opacity="1"><g transform="translate(167.694562, 60.263411)"><g><path d="M 1.921875 -16.234375 L 5.6875 -16.234375 L 5.6875 0 L 1.921875 0 Z M 1.921875 -16.234375 "/></g></g></g><g fill="#141414" fill-opacity="1"><g transform="translate(177.614203, 60.263411)"><g><path d="M 5.28125 -13.171875 L 0.09375 -13.171875 L 0.09375 -16.234375 L 14.234375 -16.234375 L 14.234375 -13.171875 L 9.046875 -13.171875 L 9.046875 0 L 5.28125 0 Z M 5.28125 -13.171875 "/></g></g></g><g fill="#141414" fill-opacity="1"><g transform="translate(194.254409, 60.263411)"><g><path d="M 14.484375 -3.015625 L 14.484375 0 L 1.921875 0 L 1.921875 -16.234375 L 14.1875 -16.234375 L 14.1875 -13.21875 L 5.65625 -13.21875 L 5.65625 -9.6875 L 13.1875 -9.6875 L 13.1875 -6.765625 L 5.65625 -6.765625 L 5.65625 -3.015625 Z M 14.484375 -3.015625 "/></g></g></g><g fill="#141414" fill-opacity="1"><g transform="translate(212.122852, 60.263411)"><g><path d="M 7.84375 -6.375 L 5.65625 -4.109375 L 5.65625 0 L 1.921875 0 L 1.921875 -16.234375 L 5.65625 -16.234375 L 5.65625 -8.65625 L 12.84375 -16.234375 L 17.015625 -16.234375 L 10.296875 -9 L 17.40625 0 L 13.03125 0 Z M 7.84375 -6.375 "/></g></g></g><g fill="#141414" fill-opacity="1"><g transform="translate(231.590325, 60.263411)"><g><path d="M 5.28125 -13.171875 L 0.09375 -13.171875 L 0.09375 -16.234375 L 14.234375 -16.234375 L 14.234375 -13.171875 L 9.046875 -13.171875 L 9.046875 0 L 5.28125 0 Z M 5.28125 -13.171875 "/></g></g></g><g fill="#141414" fill-opacity="1"><g transform="translate(248.230531, 60.263411)"><g><path d="M 9.140625 0.28125 C 6.816406 0.28125 5.007812 -0.359375 3.71875 -1.640625 C 2.425781 -2.929688 1.78125 -4.765625 1.78125 -7.140625 L 1.78125 -16.234375 L 5.546875 -16.234375 L 5.546875 -7.28125 C 5.546875 -4.375 6.75 -2.921875 9.15625 -2.921875 C 10.332031 -2.921875 11.226562 -3.269531 11.84375 -3.96875 C 12.46875 -4.675781 12.78125 -5.78125 12.78125 -7.28125 L 12.78125 -16.234375 L 16.484375 -16.234375 L 16.484375 -7.140625 C 16.484375 -4.765625 15.835938 -2.929688 14.546875 -1.640625 C 13.253906 -0.359375 11.453125 0.28125 9.140625 0.28125 Z M 4.859375 -20.25 L 13.4375 -20.25 L 13.4375 -18.203125 L 4.859375 -18.203125 Z M 4.859375 -20.25 "/></g></g></g><g fill="#141414" fill-opacity="1"><g transform="translate(268.81038, 60.263411)"><g><path d="M 12.265625 0 L 9.140625 -4.515625 L 5.6875 -4.515625 L 5.6875 0 L 1.921875 0 L 1.921875 -16.234375 L 8.953125 -16.234375 C 10.390625 -16.234375 11.632812 -15.992188 12.6875 -15.515625 C 13.75 -15.035156 14.566406 -14.351562 15.140625 -13.46875 C 15.710938 -12.59375 16 -11.550781 16 -10.34375 C 16 -9.132812 15.707031 -8.09375 15.125 -7.21875 C 14.550781 -6.34375 13.726562 -5.675781 12.65625 -5.21875 L 16.296875 0 Z M 12.203125 -10.34375 C 12.203125 -11.25 11.90625 -11.945312 11.3125 -12.4375 C 10.726562 -12.925781 9.867188 -13.171875 8.734375 -13.171875 L 5.6875 -13.171875 L 5.6875 -7.515625 L 8.734375 -7.515625 C 9.867188 -7.515625 10.726562 -7.757812 11.3125 -8.25 C 11.90625 -8.75 12.203125 -9.445312 12.203125 -10.34375 Z M 12.203125 -10.34375 "/></g></g></g><g fill="#141414" fill-opacity="1"><g transform="translate(288.16198, 60.263411)"><g><path d="M 12.609375 -3.484375 L 5.078125 -3.484375 L 3.640625 0 L -0.203125 0 L 7.03125 -16.234375 L 10.734375 -16.234375 L 18 0 L 14.046875 0 Z M 11.4375 -6.328125 L 8.859375 -12.546875 L 6.28125 -6.328125 Z M 11.4375 -6.328125 "/></g></g></g></svg>