<?xml version="1.0" encoding="utf-8"?>
<!-- Generator: Adobe Illustrator 24.2.0, SVG Export Plug-In . SVG Version: 6.00 Build 0)  -->
<svg version="1.1" id="Layer_1" xmlns="http://www.w3.org/2000/svg" xmlns:xlink="http://www.w3.org/1999/xlink" x="0px" y="0px"
	 viewBox="0 0 58.7 76.1" style="enable-background:new 0 0 58.7 76.1;" xml:space="preserve">
<style type="text/css">
	.st0{fill:#2054A4;}
</style>
<g>
	<g>
		<path class="st0" d="M7.7,15.4C3.5,15.4,0,11.9,0,7.7S3.5,0,7.7,0s7.7,3.5,7.7,7.7S11.9,15.4,7.7,15.4z M7.7,1C4,1,1,4,1,7.7
			s3,6.7,6.7,6.7s6.7-3,6.7-6.7S11.4,1,7.7,1z"/>
	</g>
	<g>
		<path class="st0" d="M7.7,33.7c-0.3,0-0.5-0.2-0.5-0.5V14.9c0-0.3,0.2-0.5,0.5-0.5s0.5,0.2,0.5,0.5v18.3C8.2,33.5,8,33.7,7.7,33.7
			z"/>
	</g>
	<g>
		<path class="st0" d="M11.6,76.1H3.8V36.4c0-2,1.7-3.7,3.7-3.7h0.3c2.1,0,3.8,1.7,3.8,3.8V76.1z M4.8,75.1h5.8V36.5
			c0-1.5-1.3-2.8-2.8-2.8H7.5c-1.5,0-2.7,1.2-2.7,2.7V75.1z"/>
	</g>
	<g>
		<path class="st0" d="M11.1,44.8H4.3c-0.3,0-0.5-0.2-0.5-0.5s0.2-0.5,0.5-0.5h6.8c0.3,0,0.5,0.2,0.5,0.5S11.4,44.8,11.1,44.8z"/>
	</g>
	<g>
		<path class="st0" d="M11.1,60.4H4.3c-0.3,0-0.5-0.2-0.5-0.5s0.2-0.5,0.5-0.5h6.8c0.3,0,0.5,0.2,0.5,0.5S11.4,60.4,11.1,60.4z"/>
	</g>
	<g>
		<path class="st0" d="M8.6,49.4H6.7c-0.3,0-0.5-0.2-0.5-0.5s0.2-0.5,0.5-0.5h1.9c0.3,0,0.5,0.2,0.5,0.5S8.9,49.4,8.6,49.4z"/>
	</g>
	<g>
		<path class="st0" d="M8.6,52.3H6.7c-0.3,0-0.5-0.2-0.5-0.5s0.2-0.5,0.5-0.5h1.9c0.3,0,0.5,0.2,0.5,0.5S8.9,52.3,8.6,52.3z"/>
	</g>
	<g>
		<path class="st0" d="M8.6,55.1H6.7c-0.3,0-0.5-0.2-0.5-0.5s0.2-0.5,0.5-0.5h1.9c0.3,0,0.5,0.2,0.5,0.5S8.9,55.1,8.6,55.1z"/>
	</g>
	<g>
		<path class="st0" d="M32.1,33.7c-0.3,0-0.5-0.2-0.5-0.5V19c-1-1.1-6.5-7.6-6.2-11.8c0.3-4.7,4.5-6.5,4.7-6.5h0.2H37
			c0.3,0,0.5,0.2,0.5,0.5S37.3,1.6,37,1.6h-6.6c-0.6,0.3-3.8,1.9-4,5.6c-0.3,4.1,6,11.2,6.1,11.2l0.1,0.1v14.6
			C32.6,33.5,32.4,33.7,32.1,33.7z"/>
	</g>
	<g>
		<path class="st0" d="M36,76.1h-7.8V36.4c0-2,1.7-3.7,3.7-3.7h0.3c2,0,3.7,1.7,3.8,3.8V76.1z M29.2,75.1H35V36.5
			c-0.1-1.6-1.3-2.8-2.8-2.8h-0.3c-1.5,0-2.7,1.2-2.7,2.7V75.1z"/>
	</g>
	<g>
		<path class="st0" d="M35.4,44.8h-6.7c-0.3,0-0.5-0.2-0.5-0.5s0.2-0.5,0.5-0.5h6.7c0.3,0,0.5,0.2,0.5,0.5S35.7,44.8,35.4,44.8z"/>
	</g>
	<g>
		<path class="st0" d="M35.4,60.4h-6.7c-0.3,0-0.5-0.2-0.5-0.5s0.2-0.5,0.5-0.5h6.7c0.3,0,0.5,0.2,0.5,0.5S35.7,60.4,35.4,60.4z"/>
	</g>
	<g>
		<path class="st0" d="M33,49.4h-1.9c-0.3,0-0.5-0.2-0.5-0.5s0.2-0.5,0.5-0.5H33c0.3,0,0.5,0.2,0.5,0.5S33.3,49.4,33,49.4z"/>
	</g>
	<g>
		<path class="st0" d="M33,52.3h-1.9c-0.3,0-0.5-0.2-0.5-0.5s0.2-0.5,0.5-0.5H33c0.3,0,0.5,0.2,0.5,0.5S33.3,52.3,33,52.3z"/>
	</g>
	<g>
		<path class="st0" d="M33,55.1h-1.9c-0.3,0-0.5-0.2-0.5-0.5s0.2-0.5,0.5-0.5H33c0.3,0,0.5,0.2,0.5,0.5S33.3,55.1,33,55.1z"/>
	</g>
	<g>
		<path class="st0" d="M53.9,33.7c-0.3,0-0.5-0.2-0.5-0.5V18.9L49,9.5l8.9-8.6c0.2-0.2,0.5-0.2,0.7,0s0.2,0.5,0,0.7l-8.3,8.2
			l4.2,9.1v14.4C54.4,33.5,54.2,33.7,53.9,33.7z"/>
	</g>
	<g>
		<path class="st0" d="M57.8,76.1H50V36.4c0-2,1.7-3.7,3.7-3.7H54c2.1,0,3.8,1.7,3.8,3.8V76.1z M51,75.1h5.8V36.5
			c0-1.5-1.3-2.8-2.8-2.8h-0.3c-1.5,0-2.7,1.2-2.7,2.7V75.1z"/>
	</g>
	<g>
		<path class="st0" d="M57.3,44.8h-6.8c-0.3,0-0.5-0.2-0.5-0.5s0.2-0.5,0.5-0.5h6.8c0.3,0,0.5,0.2,0.5,0.5S57.6,44.8,57.3,44.8z"/>
	</g>
	<g>
		<path class="st0" d="M57.3,60.4h-6.8c-0.3,0-0.5-0.2-0.5-0.5s0.2-0.5,0.5-0.5h6.8c0.3,0,0.5,0.2,0.5,0.5S57.6,60.4,57.3,60.4z"/>
	</g>
	<g>
		<path class="st0" d="M54.8,49.4h-1.9c-0.3,0-0.5-0.2-0.5-0.5s0.2-0.5,0.5-0.5h1.9c0.3,0,0.5,0.2,0.5,0.5S55.1,49.4,54.8,49.4z"/>
	</g>
	<g>
		<path class="st0" d="M54.8,52.3h-1.9c-0.3,0-0.5-0.2-0.5-0.5s0.2-0.5,0.5-0.5h1.9c0.3,0,0.5,0.2,0.5,0.5S55.1,52.3,54.8,52.3z"/>
	</g>
	<g>
		<path class="st0" d="M54.8,55.1h-1.9c-0.3,0-0.5-0.2-0.5-0.5s0.2-0.5,0.5-0.5h1.9c0.3,0,0.5,0.2,0.5,0.5S55.1,55.1,54.8,55.1z"/>
	</g>
</g>
</svg>
