<?xml version="1.0" encoding="utf-8"?>
<!-- Generator: Adobe Illustrator 24.2.0, SVG Export Plug-In . SVG Version: 6.00 Build 0)  -->
<svg version="1.1" id="Layer_1" xmlns="http://www.w3.org/2000/svg" xmlns:xlink="http://www.w3.org/1999/xlink" x="0px" y="0px"
	 viewBox="0 0 83 76.2" style="enable-background:new 0 0 83 76.2;" xml:space="preserve">
<style type="text/css">
	.st0{fill:#2054A4;}
</style>
<g>
	<g>
		<g>
			<path class="st0" d="M64.5,29.3L64.5,29.3c-0.3,0-0.5-0.3-0.5-0.5c0.1-1.1,0.2-2,0.4-2.9c0.2-1.2,0.4-2.4,0.4-4
				c0.3-9.3,0.1-13.1-3.6-15.9c-4-3.1-7.9-3.1-11.5-2.6c-4.2,0.6-8.6,3.1-8.6,3.1c-0.2,0.1-0.5,0.1-0.7-0.2
				c-0.1-0.2-0.1-0.5,0.2-0.7c0.2-0.1,4.6-2.7,9-3.3c3.7-0.5,8-0.6,12.3,2.8c4,3.1,4.3,7,4,16.7c-0.1,1.7-0.3,2.9-0.4,4.1
				c-0.1,0.9-0.3,1.7-0.4,2.8C65,29.1,64.8,29.3,64.5,29.3z"/>
		</g>
		<g>
			<path class="st0" d="M16.6,31c-0.2,0-0.4-0.1-0.5-0.4c-1.9-6.4-2.4-13.9-1.9-17.7c0.9-6.5,5.3-9.8,14-10.4
				c8-0.6,14.1,4.6,14.4,4.8c0.2,0.2,0.2,0.5,0,0.7c-0.2,0.2-0.5,0.2-0.7,0c-0.1-0.1-6-5.2-13.6-4.6C20.2,4,16.1,7.1,15.3,13
				c-0.5,3.7,0,11,1.9,17.3c0.1,0.3-0.1,0.5-0.3,0.6C16.7,31,16.7,31,16.6,31z"/>
		</g>
		<g>
			<path class="st0" d="M51.8,76.2c-2.8,0-3.1-5.4-3.4-10.6c-0.1-1.3-0.1-2.6-0.2-3.6c-0.4-5.2-1.7-11.3-2.5-13.6
				c-0.8-2.6-2.2-4.4-3.5-4.4c-0.3,0-0.5-0.2-0.5-0.5s0.2-0.5,0.5-0.5c2.1,0,3.7,2.6,4.5,5c0.8,2.3,2.1,8.6,2.5,13.8
				c0.1,1.1,0.2,2.3,0.2,3.7c0.2,4.1,0.5,9.7,2.4,9.7l0,0c2.4-0.1,5.6-13.2,6-19.3c0.2-2.8,0.2-5.6,0.1-8.2c-0.1-4-0.2-7.2,0.9-9
				c0.4-0.6,0.8-1.2,1.3-1.8c1.7-2.2,3.8-5,4-10.4c0-0.3,0.2-0.5,0.5-0.5s0.5,0.2,0.5,0.5c-0.2,5.7-2.5,8.6-4.2,10.9
				c-0.5,0.6-0.9,1.2-1.2,1.7c-0.9,1.5-0.8,4.7-0.7,8.4c0.1,2.6,0.2,5.4-0.1,8.3C58.6,59.3,55.9,76.1,51.8,76.2
				C51.9,76.2,51.9,76.2,51.8,76.2z"/>
		</g>
		<g>
			<path class="st0" d="M32.6,76.2C32.5,76.2,32.5,76.2,32.6,76.2c-3.8-0.1-7.4-13.8-7.8-18.3c-0.2-2.5-0.3-4.7-0.4-6.6
				c-0.1-3.4-0.2-6.1-1-8.4c-0.4-1-1.2-2-2.2-3.2c-1.9-2.3-4.2-5.1-5.1-9.5c-0.1-0.3,0.1-0.5,0.4-0.6c0.3,0,0.5,0.1,0.6,0.4
				c0.8,4.2,3.1,6.9,4.9,9.1c1.1,1.3,2,2.4,2.4,3.6c0.9,2.5,1,5.2,1.1,8.7c0.1,1.9,0.1,4.1,0.4,6.6c0.4,5.8,4.2,17.3,6.7,17.3l0,0
				c1.9,0,2.2-5.6,2.4-9.7c0.1-1.3,0.1-2.6,0.2-3.7c0.4-5.2,1.8-11.5,2.5-13.8c0.8-2.4,2.4-5,4.5-5c0.3,0,0.5,0.2,0.5,0.5
				S42.5,44,42.2,44c-1.3,0-2.7,1.7-3.5,4.4c-0.8,2.3-2.1,8.4-2.5,13.6c-0.1,1-0.2,2.3-0.2,3.6C35.7,70.8,35.4,76.2,32.6,76.2z"/>
		</g>
		<g>
			<path class="st0" d="M29.6,9.1c-0.3,0-0.5-0.2-0.5-0.5V0.5c0-0.3,0.2-0.5,0.5-0.5s0.5,0.2,0.5,0.5v8.1
				C30.1,8.9,29.9,9.1,29.6,9.1z"/>
		</g>
		<g>
			<path class="st0" d="M29.6,24.6c-0.3,0-0.5-0.2-0.5-0.5v-8c0-0.3,0.2-0.5,0.5-0.5s0.5,0.2,0.5,0.5v8
				C30.1,24.4,29.9,24.6,29.6,24.6z"/>
		</g>
		<g>
			<path class="st0" d="M41.4,12.8h-8c-0.3,0-0.5-0.2-0.5-0.5s0.2-0.5,0.5-0.5h8c0.3,0,0.5,0.2,0.5,0.5S41.7,12.8,41.4,12.8z"/>
		</g>
		<g>
			<path class="st0" d="M25.9,12.8h-8c-0.3,0-0.5-0.2-0.5-0.5s0.2-0.5,0.5-0.5h8c0.3,0,0.5,0.2,0.5,0.5S26.2,12.8,25.9,12.8z"/>
		</g>
		<g>
			<path class="st0" d="M29.5,17l-4.7-4.7l4.7-4.7l4.7,4.7L29.5,17z M26.2,12.2l3.3,3.3l3.3-3.3l-3.3-3.3L26.2,12.2z"/>
		</g>
		<g>
			<g>
				<path class="st0" d="M52.4,20.3c-0.3,0-0.5-0.2-0.5-0.5V15c0-0.3,0.2-0.5,0.5-0.5s0.5,0.2,0.5,0.5v4.8
					C52.9,20.1,52.7,20.3,52.4,20.3z"/>
			</g>
			<g>
				<path class="st0" d="M52.4,29.5c-0.3,0-0.5-0.2-0.5-0.5v-4.8c0-0.3,0.2-0.5,0.5-0.5s0.5,0.2,0.5,0.5V29
					C52.9,29.3,52.7,29.5,52.4,29.5z"/>
			</g>
			<g>
				<path class="st0" d="M59.4,22.5h-4.8c-0.3,0-0.5-0.2-0.5-0.5s0.2-0.5,0.5-0.5h4.8c0.3,0,0.5,0.2,0.5,0.5S59.7,22.5,59.4,22.5z"
					/>
			</g>
			<g>
				<path class="st0" d="M50.2,22.5h-4.8c-0.3,0-0.5-0.2-0.5-0.5s0.2-0.5,0.5-0.5h4.8c0.3,0,0.5,0.2,0.5,0.5S50.5,22.5,50.2,22.5z"
					/>
			</g>
			<g>
				<path class="st0" d="M52.4,25.1L49.3,22l3.1-3.1l3.1,3.1L52.4,25.1z M50.7,22l1.7,1.7l1.7-1.7l-1.7-1.7L50.7,22z"/>
			</g>
		</g>
	</g>
	<g>
		<path class="st0" d="M70.2,47.3c-0.8,0-1.7,0-2.6-0.1c-20.6-1.6-52-23.8-55.5-26.3C5.4,16.1-0.4,8.9,2.6,4.4
			c3.7-5.6,18.8-0.9,19.5-0.7l-0.3,1C21.6,4.6,6.7,0,3.4,5c-2.5,3.8,2.8,10.4,9.3,15.1c3.5,2.5,34.6,24.5,54.9,26.1
			c6.4,0.5,10.3-0.7,11.2-3.4c1.4-4.1-4.6-11.5-14.1-17.5l0.5-0.8c10.1,6.4,16,14.1,14.5,18.7C79.1,45.1,76.9,47.3,70.2,47.3z"/>
	</g>
	<g>
		<path class="st0" d="M10.1,47.5c-4.9,0-7-1.4-7.8-2.9C0.8,42.1,2.3,39,4,37c3.7-4.3,11.4-11,11.5-11.1l0.7,0.8
			c-0.2,0-7.9,6.7-11.5,10.9C3.1,39.5,2,42.1,3.1,44c0.9,1.5,4.1,3.8,15.5,1.4c18-3.8,39.9-17,49.9-24.1C77.3,15,80.8,9.9,79.1,5.7
			c-1.7-4.3-14.5-1.9-19.2-0.6l-0.3-1c0.7-0.2,18-4.7,20.4,1.2c1.9,4.8-1.6,10.1-11,16.8c-10,7.2-32,20.4-50.2,24.3
			C15.2,47.1,12.4,47.5,10.1,47.5z"/>
	</g>
	<g>
		<path class="st0" d="M39.1,38.4c-19.7,0-32.8-5.5-37.2-9.8c-1.4-1.3-2-2.7-1.9-3.9c0.4-5.9,13.9-10.4,14.4-10.5l0.3,1
			c-0.1,0-13.4,4.5-13.8,9.7c-0.1,0.9,0.5,2,1.7,3.1c4.8,4.7,21.7,11.4,46.6,9.1c22.5-2.1,29.5-6.8,31.7-9.5C82,26,82.1,25,82,24.7
			c-0.3-2.8-4.2-7.9-16.6-9.1l0.1-1C81.6,16,82.9,23.7,83,24.5c0.1,0.6,0,1.9-1.3,3.5c-2.8,3.4-10.6,7.9-32.3,9.9
			C45.8,38.2,42.4,38.4,39.1,38.4z"/>
	</g>
</g>
</svg>
