<?xml version="1.0" encoding="utf-8"?>
<!-- Generator: Adobe Illustrator 24.2.0, SVG Export Plug-In . SVG Version: 6.00 Build 0)  -->
<svg version="1.1" id="Layer_1" xmlns="http://www.w3.org/2000/svg" xmlns:xlink="http://www.w3.org/1999/xlink" x="0px" y="0px"
	 viewBox="0 0 92.6 76.2" style="enable-background:new 0 0 92.6 76.2;" xml:space="preserve">
<style type="text/css">
	.st0{fill:#2054A4;}
</style>
<g>
	<g>
		<path class="st0" d="M54.5,76.2L54.5,76.2c-2.5-0.1-3.9-0.8-5.3-1.5c-1.2-0.6-2.3-1.2-4.2-1.5c-1.5-0.2-2.8,0.3-4.2,0.9
			c-2.3,0.9-5,2-9.3,0.4c-6.7-2.5-7.6-13-8.4-21.5c-0.3-3.3-0.6-6.5-1.2-8.5c-2.1-7-21.3-6.2-21.5-6.2c-0.3,0-0.5-0.2-0.5-0.5
			s0.2-0.5,0.5-0.5c0.8,0,20.2-0.8,22.5,7c0.6,2.1,0.9,5.1,1.2,8.7c0.7,8.2,1.6,18.3,7.7,20.6c3.9,1.4,6.3,0.5,8.6-0.4
			c1.5-0.6,3-1.2,4.7-0.9c2,0.3,3.2,0.9,4.5,1.6s2.6,1.4,4.8,1.4c4.3,0.1,9.5-5,11.6-11.3c0.6-1.8,0.9-4.1,1.2-6.6
			c0.9-6.6,1.9-14.1,8.2-14.5C83.7,42.2,92,42,92.1,42c0.3,0,0.5,0.2,0.5,0.5S92.4,43,92.1,43c-0.1,0-8.4,0.2-16.6,0.8
			c-5.6,0.4-6.5,7.5-7.3,13.7c-0.3,2.5-0.7,4.9-1.3,6.8C64.8,71,59.3,76.2,54.5,76.2z"/>
	</g>
	<g>
		<path class="st0" d="M50.5,69.6c-0.7,0-1.4-0.1-1.9-0.4c-2.4-1.3-1-5.9-0.3-8.1c0.1-0.3,0.2-0.6,0.2-0.7c0-0.2,0.2-0.6,0.6-1.4
			c1.4-3.3,5.8-13.4,3-18.1c-0.8-1.5-2.3-2.3-4.4-2.5c-1.5-0.2-2.7,0.2-3.7,1c-3.4,2.9-4,11-4.5,17.6c-0.4,5.4-0.7,8.5-1.9,9.5
			c-0.3,0.3-0.7,0.4-1.1,0.3c-5-0.6-6.3-6.5-6.6-15.3c-0.3-7.3,2.1-14.9,3.7-19.8c0.6-1.8,1-3.2,1.2-4.1c0.3-1.4-0.2-2.5-0.9-4.1
			c-1-2.4-2.4-5.6-2.1-11.8c0.2-4,1.5-7,3.7-9c3.1-2.8,7.1-2.8,8.3-2.7c3.4,0.1,6,3.7,6.2,3.9C50.1,4,52,6.5,55.3,7
			c1.6,0.3,3.4-0.5,5.4-1.4c2.5-1,5-2.1,7.6-1.4c4.6,1.2,7.2,6,6.6,12C74.3,22,70.6,26.9,67.6,30c-1.6,1.6-2.2,6.4-3,12
			c-0.8,5.1-1.6,11-3.3,16.2c-2.6,7.7-6.4,10.2-8.4,10.9C52.1,69.4,51.3,69.6,50.5,69.6z M47.1,37.3c0.3,0,0.5,0,0.8,0
			c2.4,0.3,4.1,1.3,5.1,3c3,5.1-1.3,15.2-3,19c-0.2,0.6-0.5,1.1-0.5,1.2c0,0.2-0.1,0.5-0.2,0.8c-0.5,1.6-1.9,6-0.2,6.9
			c0.7,0.4,1.9,0.5,3.5-0.1c1.8-0.7,5.3-3,7.8-10.3c1.7-5.1,2.5-10.9,3.2-16.1c0.8-6,1.5-10.7,3.3-12.5c2.9-3,6.5-7.7,7.1-13.1
			c0.6-5.5-1.7-9.9-5.8-11c-2.3-0.6-4.7,0.4-7,1.4C59,7.5,57,8.3,55.1,8c-3.8-0.6-5.8-3.4-5.9-3.5l0,0c0,0-2.4-3.4-5.4-3.5
			c-1.1-0.1-4.7-0.1-7.6,2.5c-2.1,1.9-3.2,4.7-3.4,8.4c-0.3,6,1.1,9.1,2.1,11.3c0.7,1.7,1.3,3,0.9,4.7c-0.2,1-0.6,2.4-1.2,4.2
			c-1.6,4.9-4,12.4-3.7,19.5c0.4,9.9,2.1,13.9,5.8,14.3c0.1,0,0.2,0,0.3-0.1c1-0.8,1.2-4.7,1.5-8.8c0.5-6.7,1.1-15.1,4.9-18.3
			C44.4,37.7,45.7,37.3,47.1,37.3z"/>
	</g>
</g>
</svg>
