<?xml version="1.0" encoding="utf-8"?>
<!-- Generator: Adobe Illustrator 24.2.0, SVG Export Plug-In . SVG Version: 6.00 Build 0)  -->
<svg version="1.1" id="Layer_1" xmlns="http://www.w3.org/2000/svg" xmlns:xlink="http://www.w3.org/1999/xlink" x="0px" y="0px"
	 viewBox="0 0 42.4 75.6" style="enable-background:new 0 0 42.4 75.6;" xml:space="preserve">
<style type="text/css">
	.st0{fill:#2054A4;}
</style>
<g>
	<g>
		<g>
			<path class="st0" d="M34.6,33.2l-0.9-0.5c0.1-0.1,6.7-12.8,7.5-20.2C41.7,8.3,40.3,5.6,39,4c-1.4-1.7-3.3-2.8-5.2-3
				c-3.5-0.3-5.6,0.6-6.9,1.3c-0.2,0.1-0.4,0.2-0.6,0.3c-1.6,0.9-4.5,2.5-9.2,0.3c-3.6-1.7-8.9-3-12.4-1c-2.1,1.5-3.4,4-3.6,7.7
				c-0.8,11.5,7.6,22.9,7.7,23L8,33.2C7.6,32.7-0.7,21.4,0.1,9.5c0.3-4,1.7-6.9,4.3-8.3c3.8-2.2,9.4-1,13.4,0.9
				c4.2,2,6.7,0.6,8.2-0.3c0.2-0.1,0.5-0.2,0.6-0.3c1.4-0.8,3.7-1.8,7.5-1.4c2.1,0.2,4.3,1.4,5.9,3.3c1.4,1.7,2.9,4.7,2.4,9.2
				C41.3,20.2,34.9,32.7,34.6,33.2z"/>
		</g>
		<g>
			<path class="st0" d="M31.9,41.7H10.5c-1.9,0-3.4-1.5-3.4-3.4v-3.5c0-1.9,1.5-3.4,3.4-3.4h21.4c1.9,0,3.4,1.5,3.4,3.4v3.5
				C35.3,40.1,33.7,41.7,31.9,41.7z M10.5,32.4c-1.3,0-2.4,1.1-2.4,2.4v3.5c0,1.3,1.1,2.4,2.4,2.4h21.4c1.3,0,2.4-1.1,2.4-2.4v-3.5
				c0-1.3-1.1-2.4-2.4-2.4H10.5z"/>
		</g>
		<g>
			<path class="st0" d="M12,26.5c-0.1,0-0.2,0-0.3-0.1s-3-3-4.5-9.4C5.6,10.3,9,5.8,9.2,5.7c0.2-0.2,0.5-0.3,0.7-0.1
				c0.2,0.2,0.3,0.5,0.1,0.7c0,0-3.2,4.3-1.9,10.4c1.4,6.1,4.2,8.9,4.3,8.9c0.2,0.2,0.2,0.5,0,0.7C12.2,26.4,12.1,26.5,12,26.5z"/>
		</g>
		<g>
			<path class="st0" d="M12.6,39c-0.3,0-0.5-0.2-0.5-0.5v-3.6c0-0.3,0.2-0.5,0.5-0.5s0.5,0.2,0.5,0.5v3.6C13.1,38.7,12.8,39,12.6,39
				z"/>
		</g>
	</g>
	<g>
		<g>
			<polygon class="st0" points="31.1,50.8 11.3,50.8 9.8,45.7 10.7,45.4 12,49.8 30.4,49.8 31.5,45.4 32.4,45.7 			"/>
		</g>
		<g>
			<polygon class="st0" points="29.4,59.2 13.1,59.2 11.9,54.1 12.8,53.8 13.8,58.2 28.5,58.2 29.5,53.9 30.4,54.1 			"/>
		</g>
		<g>
			<polygon class="st0" points="27.6,67.1 14.7,67.1 13.8,62 14.7,61.8 15.6,66.1 26.7,66.1 27.5,61.8 28.4,61.9 			"/>
		</g>
		<g>
			<path class="st0" d="M11,48.5H7.2c-0.3,0-0.5-0.2-0.5-0.5s0.2-0.5,0.5-0.5H11c0.3,0,0.5,0.2,0.5,0.5S11.2,48.5,11,48.5z"/>
		</g>
		<g>
			<path class="st0" d="M35.2,48.5h-3.8c-0.3,0-0.5-0.2-0.5-0.5s0.2-0.5,0.5-0.5h3.8c0.3,0,0.5,0.2,0.5,0.5S35.4,48.5,35.2,48.5z"/>
		</g>
		<g>
			<path class="st0" d="M12.9,56.9H9.2c-0.3,0-0.5-0.2-0.5-0.5s0.2-0.5,0.5-0.5h3.7c0.3,0,0.5,0.2,0.5,0.5S13.1,56.9,12.9,56.9z"/>
		</g>
		<g>
			<path class="st0" d="M33.3,56.9h-3.8c-0.3,0-0.5-0.2-0.5-0.5s0.2-0.5,0.5-0.5h3.8c0.3,0,0.5,0.2,0.5,0.5S33.5,56.9,33.3,56.9z"/>
		</g>
		<g>
			<path class="st0" d="M14.8,65.5H11c-0.3,0-0.5-0.2-0.5-0.5s0.2-0.5,0.5-0.5h3.8c0.3,0,0.5,0.2,0.5,0.5S15,65.5,14.8,65.5z"/>
		</g>
		<g>
			<path class="st0" d="M31.4,65.5h-3.8c-0.3,0-0.5-0.2-0.5-0.5s0.2-0.5,0.5-0.5h3.8c0.3,0,0.5,0.2,0.5,0.5S31.6,65.5,31.4,65.5z"/>
		</g>
		<g>
			<path class="st0" d="M21.2,75.6c-3,0-5.4-2.4-5.4-5.4h1c0,2.4,2,4.4,4.4,4.4s4.4-2,4.4-4.4h1C26.6,73.1,24.1,75.6,21.2,75.6z"/>
		</g>
	</g>
</g>
</svg>
