<?xml version="1.0" encoding="utf-8"?>
<!-- Generator: Adobe Illustrator 24.2.0, SVG Export Plug-In . SVG Version: 6.00 Build 0)  -->
<svg version="1.1" id="Layer_1" xmlns="http://www.w3.org/2000/svg" xmlns:xlink="http://www.w3.org/1999/xlink" x="0px" y="0px"
	 viewBox="0 0 71.7 85.2" style="enable-background:new 0 0 71.7 85.2;" xml:space="preserve">
<style type="text/css">
	.st0{fill:#2054A4;}
</style>
<path class="st0" d="M71.1,47.6c0,0-3.5,0.5-7.6-2.8S56,41,52.9,43.1c0-0.1,0-0.2,0.1-0.2c0.4-1,1.1-1.9,1.9-2.9
	c1.7-2.2,3.9-5,4.2-10.1c0.2-7.1-2.9-11.1-8.7-11.4c-5.1,0.4-9.2,4.4-10,5.2c-1.5-0.8-3.1-1.7-4.1-2.4c-0.8-0.4-1.4-0.8-2.1-1.2
	c2.6-4.4,5.7-6.5,6.7-7.1l0.9,0.9c0.5,0.5,1.2,0.8,1.9,0.8s1.4-0.3,1.9-0.8l7.3-7.3c0.5-0.5,0.7-1.1,0.7-1.9s-0.3-1.4-0.7-1.9
	l-2.2-2.2c-1-1-2.7-1-3.7,0L39.5,8c-1,1-1,2.7,0,3.7l0.5,0.5c-1.2,0.8-4.2,3-6.8,7.3c-2.9-1.8-5.4-3.1-10-2.4
	c-6.6,1-10,6.6-9.2,15.1c0.4,4.6,1.9,7.1,3.2,9.2c0.2,0.3,0.4,0.6,0.6,0.9c-2.8-1.4-6-0.6-9.6,2.3c-4.1,3.3-7.6,2.8-7.6,2.8
	C0.3,47.5,0.1,47.7,0,48s0.1,0.5,0.4,0.6c0,0,0.3,0,0.8,0c1.3,0,4.3-0.4,7.6-3c4-3.2,7-3.6,9.9-1.3c0.4,1,0.7,2.2,0.8,3.6
	c0.1,1.7,0,3.9-0.2,6.5c-0.3,6.2-0.7,14,1.2,20.1c2.6,8.3,4.8,10.9,9.3,10.6c0.4,0,0.8-0.2,1.1-0.6c1.5-1.8,0.9-8.1-0.1-16.1
	c-0.5-3.8-0.9-7.4-0.6-8.5c0.9-2.9,2-4.6,5.7-4.7c1.8-0.1,3.2,0.8,3.9,1.6c1.3,1.3,2,3.2,1.9,4.9c0,0.7-0.3,2.2-0.7,4.2
	c-1.7,9.6-3,18.4,0,19.3c0.3,0.1,0.6,0.1,0.9,0.1c0.9,0,1.9-0.4,2.9-1.1c3.9-2.8,7.9-10.3,8-19.4c0.1-5.4-0.1-9.6-0.3-13
	c-0.2-3.1-0.3-5.4-0.1-7.1c0.1,0,0.1,0,0.1-0.1c3-2.5,6-2.2,10.2,1.1c3.4,2.7,6.3,3,7.6,3c0.4,0,0.7,0,0.8,0c0.3,0,0.5-0.3,0.4-0.6
	C71.6,47.7,71.4,47.6,71.1,47.6z M40.3,8.7l7.3-7.3C47.9,1.1,48.3,1,48.7,1s0.8,0.1,1.1,0.4L52,3.6c0.3,0.3,0.5,0.7,0.5,1.1
	S52.3,5.6,52,5.8l-7.3,7.3c-0.6,0.7-1.7,0.7-2.3,0L40.3,11C39.7,10.4,39.7,9.3,40.3,8.7z M52,64.7c-0.1,8.8-3.9,16-7.6,18.6
	c-1.1,0.8-2.1,1.1-2.9,0.8c-2.4-0.8-0.3-13,0.7-18.2c0.4-2,0.6-3.5,0.7-4.3c0.1-1.9-0.7-4.1-2.2-5.6c-0.9-0.9-2.3-1.9-4.4-1.9
	c-0.1,0-0.2,0-0.3,0c-4.3,0.2-5.7,2.2-6.7,5.5c-0.3,1.2,0,4.1,0.6,8.9c0.7,5.8,1.7,13.7,0.3,15.3C30,84,29.9,84,29.8,84
	c-3.5,0.3-5.6-1.1-8.3-9.8c-1.8-5.9-1.5-13.6-1.2-19.7c0.1-2.6,0.2-4.8,0.2-6.6c0-1.4-0.3-2.6-0.7-3.6c0.1-0.2,0-0.4-0.2-0.5
	c0,0-0.1,0-0.1-0.1c-0.4-0.9-0.9-1.7-1.4-2.6c-1.3-2.1-2.7-4.4-3.1-8.8c-0.7-8,2.3-13.2,8.4-14.1c4.3-0.7,6.5,0.6,9.4,2.3
	c-0.7,1.3-1.4,2.7-1.9,4.4c-0.7,1.9-1.4,5-2.1,8.5c-0.2,0-0.4-0.1-0.7-0.1c-0.9,0-1.5,0.2-1.9,0.7c-0.9,1-0.9,2.7-0.8,4.9v0.8
	c0.1,3.4-0.3,8.9-1.2,12.2c-0.6,2.4-1,18.6,0,19.9c0.2,0.2,0.4,0.2,0.5,0.2c0.7,0,0.7-0.6,0.8-3.2c0.2-6.2,0.8-20.8,10.3-21.1
	c2.1-0.1,3.8,0.6,5.2,1.9c4.4,4.2,4.6,14.3,4.6,19.1c0,2.7,0.1,3.3,0.7,3.3h0.3l0.1-0.2c0.5-0.5,0.5-3.7-0.2-17.8
	c-0.3-5.8-0.5-11.7-0.4-12.6l0.1-0.3c0.4-1.8,1.1-4.9-0.2-6.6c-0.5-0.7-1.3-1.1-2.4-1.1c-2.3-0.1-3.9,1.3-5.2,2.5
	c-1,0.9-1.8,1.7-2.7,1.7c-1,0-2.2-1-3.4-1.9c-0.9-0.7-1.8-1.4-2.7-1.9c0.7-3.6,1.4-6.7,2-8.5c0.5-1.6,1.2-2.9,1.9-4.2
	c0.7,0.4,1.4,0.8,2.1,1.2c0.3,0.2,7.5,4.6,9.9,5c0.3,0,0.5-0.1,0.6-0.4c0-0.3-0.1-0.5-0.4-0.6c-0.9-0.2-2.6-1-4.5-2
	c1.1-1,4.8-4.4,9.1-4.7c6.6,0.3,7.9,5.8,7.7,10.4c-0.3,4.8-2.3,7.3-4,9.5c-0.8,1.1-1.6,2-2,3.2c-0.8,1.9-0.6,4.8-0.4,9.2
	C51.9,55.1,52.1,59.3,52,64.7z M45.6,53.9c0.1,1.3,0.1,2.6,0.2,3.9c-0.7-3.5-1.9-7-4.1-9.1c-1.6-1.5-3.6-2.2-5.9-2.2
	c-4.8,0.2-7.6,3.5-9.1,7.7c0.8-6.1,1.8-13.5,2.9-19.5c0.8,0.4,1.5,1,2.3,1.6c1.4,1.1,2.7,2.1,4.1,2.1c1.2,0,2.3-0.9,3.4-1.9
	c1.3-1.2,2.6-2.4,4.5-2.3c0.7,0,1.3,0.3,1.6,0.7c1,1.3,0.3,4.2,0,5.8L45.4,41C45.1,42,45.3,46.6,45.6,53.9z M24.6,62.8
	c0-4.5,0.2-9.4,0.6-10.8c0.9-3.5,1.3-9,1.2-12.4v-0.8c-0.1-1.9-0.1-3.5,0.5-4.1c0.3-0.3,0.7-0.4,1.2-0.4c0.2,0,0.3,0,0.5,0.1
	C26.9,43.8,25.3,56.6,24.6,62.8z"/>
</svg>
