<?xml version="1.0" encoding="utf-8"?>
<!-- Generator: Adobe Illustrator 24.2.0, SVG Export Plug-In . SVG Version: 6.00 Build 0)  -->
<svg version="1.1" id="Layer_1" xmlns="http://www.w3.org/2000/svg" xmlns:xlink="http://www.w3.org/1999/xlink" x="0px" y="0px"
	 viewBox="0 0 75.1 55.1" style="enable-background:new 0 0 75.1 55.1;" xml:space="preserve">
<style type="text/css">
	.st0{fill:#2054A4;}
</style>
<g>
	<path class="st0" d="M69.4,29.9c-0.2-0.9-1-3.3-4.5-3.3c-3.2,0-4.2,2.3-4.4,3.8c-2.3,0.2-4.9,0.4-7.8,0.6c-0.2-0.9-1-3.3-5.1-3.3
		c-4,0-4.9,2.7-5.1,3.8c-1.7,0-3.4,0.1-5.2,0.1c-1.9,0-3.7,0-5.5-0.1c-0.2-1.1-1.2-3.8-5.1-3.8c-4.2,0-4.9,2.6-5.1,3.4
		c-2.9-0.2-5.5-0.4-7.7-0.5c-0.1-1.5-1.1-4-4.4-4c-4,0-4.4,2.7-4.4,3.1c-0.8-0.1-1.2-0.1-1.3-0.1c-1.2,0-1.7,1.1-1.7,3.9
		c0,3.2,2.2,5.8,2.6,6.3c-0.1,1.6,0.1,3.2,0.1,4.4v0.2c0.3,2.1,1.6,7.6,4.8,7.8c0.1,0,0.3,0,0.4,0c2.4,0,3.5-1.9,3.6-2.2
		c0,0,0-0.1,0.1-0.1c0,2.5,1,3.4,6.3,3.4c1.6,0,2.9-0.4,3.7-1.3c0.2-0.2,0.3-0.4,0.5-0.6c0.2,0.9,0.6,1.6,1.1,2.2
		c1.3,1.3,3.3,1.4,5.5,1.4c0.2,0,0.4,0,0.5,0h0.6c4,0,5.3-1.4,5.7-2.2c0.2,0.3,0.4,0.6,0.6,0.8c1.3,1.3,3.3,1.4,5.5,1.4
		c0.2,0,0.4,0,0.5,0h0.6c4.6,0,5.6-1.8,5.8-2.6c0-0.1,0.1-0.3,0.1-0.6c0,0.1,0.1,0.1,0.1,0.2c0.8,0.9,2.1,1.3,3.7,1.3
		c5.3,0,6.3-0.9,6.3-3.4c0-0.2,0-0.3,0-0.5c0.1,0.2,0.1,0.4,0.2,0.6c0.1,0.2,1.1,2.2,3.6,2.2c0.1,0,0.2,0,0.4,0
		c3.2-0.2,4.5-5.7,4.8-7.9v-0.2c0.1-1.2,0.2-2.9,0.1-4.6c0.3-0.4,1.6-1.9,2.2-3.2c0.5-1,1.4-3.6-0.2-5.9
		C71.7,30.1,70.9,29.9,69.4,29.9z M64.9,27.6c2.6,0,3.3,1.6,3.4,2.3c-1.6,0.1-3.8,0.2-6.8,0.5C61.7,29.5,62.3,27.6,64.9,27.6z
		 M47.7,28.7c3.2,0,3.9,1.7,4.1,2.4c-2.6,0.2-5.3,0.3-8.2,0.4C43.8,30.6,44.7,28.7,47.7,28.7z M26.8,28.7c3,0,3.9,1.9,4.1,2.8
		c-2.9-0.1-5.6-0.2-8.2-0.3C22.9,30.6,23.5,28.7,26.8,28.7z M9.6,27.6c2.7,0,3.2,2,3.4,2.9c-3-0.2-5.3-0.5-6.8-0.7l0,0
		C6.2,29.7,6.2,27.6,9.6,27.6z M12.9,49.6L12.9,49.6c0,0.1-0.9,1.8-3,1.7c-2.1-0.2-3.5-4.2-3.8-6.9v-0.2c-0.2-1.9-0.5-6.5,0.9-8
		c0.3-0.3,0.6-0.5,1.1-0.5c1.2,0,2.5,0.7,3.6,1.9c1.3,1.4,2.2,3.3,2.1,4.6v0.5h0.1C13.7,44.1,13.6,48.4,12.9,49.6z M23.1,51.4
		c-0.6,0.6-1.6,1-3,1c-5.3,0-5.3-0.9-5.3-2.4c-0.1-2.2-0.1-3.7-0.1-5.1c0-1.7,0.3-7.4,4-7.4c0.9,0,1.7,0.4,2.4,1.2
		c2,2.2,2.9,6.8,2.8,7.9c0,0.2,0,0.6,0,0.9C24,48.7,24.1,50.4,23.1,51.4z M36.8,52.3c-0.1,0.3-0.7,1.8-4.8,1.8h-0.6
		c-2.3,0-4.2,0-5.3-1.1c-0.8-0.8-1.1-2.1-1.1-4.1c0-0.2,0.4-11.4,6.1-11.4c1.2,0,2.1,0.4,3,1.2c2.8,2.8,2.7,9.2,2.7,9.3
		C36.9,49.5,36.9,51.8,36.8,52.3z M49.7,52.3c-0.1,0.3-0.7,1.8-4.8,1.8h-0.6c-2.3,0-4.2,0-5.3-1.1c-0.8-0.8-1.1-2.1-1.1-4.1
		c0-0.2,0.4-11.4,6.1-11.4c1.2,0,2.1,0.4,3,1.2c2.8,2.8,2.7,9.2,2.7,9.3C49.8,49.5,49.8,51.8,49.7,52.3z M59.9,50
		c0,1.5,0,2.4-5.3,2.4c-1.4,0-2.4-0.3-3-1c-1-1-0.9-2.7-0.8-3.9c0-0.4,0-0.7,0-0.9c-0.1-1.1,0.8-5.7,2.9-7.9
		c0.7-0.8,1.5-1.1,2.3-1.1c3.7,0,4,5.7,4,7.4l0,0C60.1,46.5,60.1,48,59.9,50z M68.9,44.2v0.2c-0.3,2.8-1.7,6.8-3.8,7
		c-2.1,0.2-3-1.5-3-1.6l0,0c-0.7-1.3-0.8-5.8-0.7-7.4c-0.1-1.3,0.8-3.2,2.1-4.6c1.1-1.2,2.5-1.9,3.6-1.9c0.4,0,0.8,0.1,1.1,0.5
		C69.4,37.6,69.1,42.2,68.9,44.2z M71.3,36c-0.3,0.7-0.9,1.6-1.4,2.2c-0.2-1.1-0.5-2.1-1.1-2.8c-0.5-0.5-1.1-0.8-1.8-0.8
		c-1.5,0-3,0.8-4.4,2.3c-1.1,1.2-1.8,2.5-2.2,3.8c-0.6-2.2-1.8-4.2-4.5-4.2c-1.1,0-2.1,0.5-3.1,1.5c-1.3,1.4-2.2,3.7-2.7,5.7
		c-0.4-2-1.1-4.2-2.6-5.6c-1-1-2.3-1.5-3.7-1.5c-4,0-5.8,4.3-6.5,7.8c-0.4-2.1-1.1-4.7-2.7-6.3c-1-1-2.3-1.5-3.7-1.5
		c-4,0-5.7,4.2-6.5,7.7c-0.4-2-1.3-4.6-2.8-6.2c-0.9-1-2-1.5-3.1-1.5c-2.5,0-3.7,1.9-4.4,3.9c-0.4-1.2-1.1-2.4-2.1-3.4
		c-1.3-1.5-2.9-2.3-4.4-2.3c-0.7,0-1.3,0.3-1.8,0.8c-0.6,0.7-1,1.7-1.1,2.9c-0.7-1-1.8-2.8-1.8-4.9c0-1.3,0.1-2.9,0.7-2.9
		c0.1,0,0.7,0.1,1.5,0.2c4.1,0.5,16.5,1.8,32,1.8c9.4,0,17.7-0.7,23.8-1.2c4.9-0.4,9.5-0.8,10-0.3C72.5,33,71.7,35.2,71.3,36z"/>
	<path class="st0" d="M3.4,10.2c2.2,1.6,4.4,1.7,6.4,1.8c0.4,0,0.8,0,1.2,0.1c0.8,0,7.4,0,15.9,0c16.4,0,39.6,0,41.1,0
		c0.1,0,2.5,0.1,4.7-3.7c2-3.6,2.4-7.7,2.4-7.9c0-0.3-0.2-0.5-0.5-0.5s-0.5,0.2-0.5,0.5c0,0-0.3,4.1-2.2,7.5
		c-1.8,3.1-3.7,3.1-3.8,3.1c-0.5,0-54.6,0.1-57,0c-0.4,0-0.8-0.1-1.2-0.1c-2-0.1-4-0.2-5.9-1.6S1.2,2.5,1,0.5C1,0.2,0.7,0,0.5,0
		C0.2,0,0,0.3,0,0.5C0,0.9,0.8,8.3,3.4,10.2z"/>
	<path class="st0" d="M18,22c0-0.3-0.2-0.5-0.5-0.5S17,21.7,17,22v2.8c0,0.3,0.2,0.5,0.5,0.5s0.5-0.2,0.5-0.5V22z"/>
	<path class="st0" d="M18,17.1l2.1,2.2l0.5-0.5l-3.1-3.3l-3,3.3l0.5,0.5l2-2.2v2c0,0.3,0.2,0.5,0.5,0.5s0.5-0.2,0.5-0.5V17.1z"/>
	<path class="st0" d="M17.5,27.1c-0.3,0-0.5,0.2-0.5,0.5v1.5c0,0.3,0.2,0.5,0.5,0.5s0.5-0.2,0.5-0.5v-1.5
		C18,27.4,17.8,27.1,17.5,27.1z"/>
	<path class="st0" d="M37.9,22c0-0.3-0.2-0.5-0.5-0.5s-0.5,0.2-0.5,0.5v2.8c0,0.3,0.2,0.5,0.5,0.5s0.5-0.2,0.5-0.5V22z"/>
	<path class="st0" d="M37.9,17.1l2,2.2l0.6-0.5l-3.1-3.3l-3.1,3.3l0.6,0.5l2-2.2v2c0,0.3,0.2,0.5,0.5,0.5s0.5-0.2,0.5-0.5V17.1z"/>
	<path class="st0" d="M37.4,27.1c-0.3,0-0.5,0.2-0.5,0.5v1.5c0,0.3,0.2,0.5,0.5,0.5s0.5-0.2,0.5-0.5v-1.5
		C37.9,27.4,37.7,27.1,37.4,27.1z"/>
	<path class="st0" d="M57.8,22c0-0.3-0.2-0.5-0.5-0.5s-0.5,0.2-0.5,0.5v2.8c0,0.3,0.2,0.5,0.5,0.5s0.5-0.2,0.5-0.5V22z"/>
	<path class="st0" d="M57.8,17.1l2,2.2l0.5-0.5l-3-3.3l-3.1,3.3l0.5,0.5l2.1-2.2v2c0,0.3,0.2,0.5,0.5,0.5s0.5-0.2,0.5-0.5V17.1z"/>
	<path class="st0" d="M57.3,27.1c-0.3,0-0.5,0.2-0.5,0.5v1.5c0,0.3,0.2,0.5,0.5,0.5s0.5-0.2,0.5-0.5v-1.5
		C57.8,27.4,57.6,27.1,57.3,27.1z"/>
</g>
</svg>
