<?xml version="1.0" encoding="utf-8"?>
<!-- Generator: Adobe Illustrator 24.2.0, SVG Export Plug-In . SVG Version: 6.00 Build 0)  -->
<svg version="1.1" id="Layer_1" xmlns="http://www.w3.org/2000/svg" xmlns:xlink="http://www.w3.org/1999/xlink" x="0px" y="0px"
	 viewBox="0 0 79.7 76.1" style="enable-background:new 0 0 79.7 76.1;" xml:space="preserve">
<style type="text/css">
	.st0{fill:#2054A4;}
</style>
<g>
	<g>
		<path class="st0" d="M46.8,76.1c-0.3,0-0.7-0.1-1-0.2c-3.3-1.1-1.9-10.7,0-21.3c0.4-2.2,0.7-3.9,0.7-4.7c0.1-1.8-0.8-4-2.2-5.5
			c-0.9-0.9-2.3-1.9-4.4-1.8c-4.2,0.2-5.5,2.1-6.3,5.3c-0.3,1.1,0.2,5.2,0.7,9.5c0.9,7.4,1.9,15.7,0.1,17.9
			c-0.3,0.4-0.7,0.6-1.2,0.6c-4.9,0.2-7.4-2.6-10.2-11.8c-2.1-6.8-1.7-15.5-1.4-22.5c0.1-2.8,0.2-5.1,0.2-7.1
			c-0.1-3.2-1.2-5-2.5-7.1c-1.5-2.4-3.1-5.1-3.7-10.1c-0.5-5.5,0.6-10.2,3.1-13.2C20.5,2,23,0.7,25.8,0.5c3.7-0.3,5.9,1.1,8.1,2.4
			C35.7,4,37.4,5,40,5.1c5.8,0.3,7.5-2.1,8.2-3c0.9-1.3,2.4-2.4,3.5-2C52.3,0.5,53,1,52.9,2.8c-0.1,1.5-1.2,4.2-3.5,6.4
			c-1.8,1.7-4.9,3.6-9.4,3.4c-4.4-0.2-6.9-1.6-8.8-2.8c-1.7-1.1-3.1-1.9-5.3-1.6c-1.1,0.2-2,0.7-2.6,1.6c-1.7,2.6-1.3,7.4-0.6,10
			c0.4,1.4,1,2.8,1.6,4.2c1,2.2,2,4.3,1.6,6.1c-0.4,2.3-2.2,2.8-3.3,2.7c0.1,0.5,0.1,1.1,0.2,1.8c0.1,2-0.1,4.4-0.2,7.1
			c-0.3,6.9-0.7,15.5,1.4,22.1c3,9.6,5.4,11.2,9.2,11c0.1,0,0.3,0,0.5-0.3c1.6-1.8,0.5-10.7-0.3-17.1c-0.6-4.8-1-8.5-0.6-9.8
			c0.9-3.5,2.5-5.8,7.3-6.1c2.4-0.1,4.1,1.1,5.1,2.1c1.6,1.7,2.6,4.1,2.5,6.2c0,0.8-0.4,2.6-0.8,4.8c-1.1,6.2-3.4,19.3-0.7,20.2
			c0.8,0.3,2,0,3.2-0.9c4.1-2.9,8.3-10.9,8.5-20.8c0.1-5.9-0.2-10.5-0.4-14.3c-0.2-2.9-0.3-5.2-0.2-7c0,0-0.1,0.1-0.2,0.1
			c-0.5,0.3-1.1,0.3-1.7,0.1c-2.2-0.9-0.8-4.7,0.8-9.2c0.5-1.3,0.9-2.6,1.3-3.7c0.7-2.5,0.6-6.6,0.6-10c-0.1-4.5-0.1-6.5,1-6.8
			c0.5-0.1,1.1,0.1,1.7,0.6c1.4,1.5,3.2,5.1,3.1,11c-0.2,5.6-2.2,9.4-3.8,12.4c-0.5,1-1,1.9-1.4,2.7c0,0.2-0.2,0.8-0.4,1.4
			c-0.3,2-0.2,4.8,0,8.6s0.5,8.4,0.4,14.4c-0.1,10.2-4.6,18.5-8.9,21.6C48.8,75.7,47.8,76.1,46.8,76.1z M22.4,31.9
			C22.4,31.9,22.5,31.9,22.4,31.9c0.3,0,2.1,0.2,2.5-1.9c0.3-1.5-0.6-3.5-1.5-5.5c-0.6-1.4-1.3-2.9-1.7-4.4
			c-0.6-2.4-1.3-7.8,0.7-10.8c0.8-1.2,1.9-1.9,3.3-2.1c2.6-0.4,4.2,0.6,6,1.7c1.9,1.2,4.1,2.5,8.3,2.7s7-1.6,8.7-3.2
			c2-1.9,3.2-4.3,3.2-5.7c0-0.9-0.1-1.4-0.5-1.6C51,1,49.9,1.6,49,2.9c-0.7,1-2.7,3.7-9,3.4c-2.8-0.1-4.7-1.3-6.6-2.4
			c-2.1-1.3-4.1-2.5-7.5-2.2c-2.6,0.2-4.8,1.3-6.4,3.2c-2.4,2.8-3.4,7.2-2.9,12.4c0.5,4.8,2.1,7.4,3.5,9.7
			C21,28.5,21.9,30,22.4,31.9z M59.3,3.6C59.2,3.6,59.2,3.6,59.3,3.6C58.9,4,59,7,59,9.4c0.1,3.6,0.2,7.7-0.6,10.3
			c-0.4,1.2-0.8,2.5-1.3,3.8c-1.2,3.3-2.7,7.4-1.4,7.9c0.3,0.1,0.6,0.1,0.9,0c0.4-0.2,0.7-0.7,0.9-1.2c0.1-0.5,0.2-1,0.4-1.5
			c0.4-0.9,0.9-1.9,1.4-2.9c1.6-2.9,3.5-6.6,3.6-11.9c0.1-5.2-1.4-8.7-2.9-10C59.8,3.7,59.5,3.6,59.3,3.6z"/>
	</g>
	<g>
		<path class="st0" d="M51.7,61.4c-0.7,0-0.7-0.6-0.8-3.6c-0.1-5.4-0.3-16.6-5.2-21.3c-1.5-1.5-3.5-2.2-5.8-2.1
			C29.3,34.8,28.6,51,28.2,57.9c-0.1,2.9-0.2,3.5-0.9,3.5c-0.1,0-0.3,0-0.5-0.3c-1.1-1.5-0.7-19.4,0-22.1c1-3.8,1.5-9.8,1.4-13.6
			v-1.1c-0.1-2.3-0.1-4.1,0.8-5.1c0.5-0.5,1.2-0.7,2.1-0.7c1.6,0,3.2,1.3,4.7,2.5c1.4,1.1,2.8,2.2,4,2.2c1,0,1.9-0.9,3-1.9
			c1.5-1.4,3.3-3,5.8-2.8c1.1,0.1,1.9,0.4,2.5,1.2c1.4,1.7,0.8,4.8,0.4,6.8c-0.1,0.3-0.1,0.5-0.1,0.8c-0.2,1,0.1,7.6,0.4,14
			c0.7,15.5,0.7,19.2,0.1,19.8l0.1,0.3H51.7z M27.8,60.5L27.8,60.5L27.8,60.5z M31.3,19.6c-0.6,0-1.1,0.1-1.4,0.4
			c-0.7,0.7-0.6,2.3-0.5,4.4v1.1c0.1,3.8-0.4,10-1.4,13.8c-0.6,2.1-0.8,11.9-0.6,17.4C27.8,49,29,33.7,40,33.3
			c2.6-0.1,4.7,0.7,6.5,2.4c2.7,2.6,4.1,7,4.8,11.4c-0.1-1.9-0.2-3.9-0.2-5.7c-0.4-8.2-0.6-13.2-0.4-14.2c0-0.2,0.1-0.5,0.1-0.8
			c0.3-1.8,0.9-4.7-0.2-6c-0.4-0.5-1-0.8-1.8-0.8c-2.2-0.1-3.6,1.3-5.1,2.6c-1.2,1.1-2.3,2.1-3.7,2.1c-1.5,0-3.1-1.2-4.6-2.4
			C34,20.7,32.5,19.6,31.3,19.6z"/>
	</g>
	<g>
		<path class="st0" d="M1.3,35.6c-0.5,0-0.8-0.1-0.9-0.1C0.1,35.5,0,35.3,0,35s0.3-0.5,0.6-0.4c0,0,3.9,0.6,8.5-3.1
			c5-4,9-4.4,12.6-1.2c0.2,0.2,0.2,0.5,0,0.7s-0.5,0.2-0.7,0c-3.2-2.8-6.7-2.5-11.4,1.2C6,35.2,2.8,35.6,1.3,35.6z"/>
	</g>
	<g>
		<path class="st0" d="M78.4,35.6c-1.5,0-4.7-0.4-8.4-3.4c-4.6-3.7-8.1-4.1-11.4-1.2c-0.2,0.2-0.5,0.2-0.7,0s-0.2-0.5,0-0.7
			c3.6-3.2,7.6-2.8,12.6,1.2c4.6,3.7,8.5,3.1,8.5,3.1c0.3,0,0.5,0.1,0.6,0.4c0,0.3-0.1,0.5-0.4,0.6C79.2,35.6,78.9,35.6,78.4,35.6z"
			/>
	</g>
	<g>
		<path class="st0" d="M55.2,17.3c-1.1,0-2.3-0.2-3.6-0.6c-2-0.7-3.2-2.7-3.5-4.4C47.8,11,48.2,9.8,49,9.1c0.6-0.5,1.4,0,2.6,0.7
			c1.3,0.8,3,1.8,4.7,1.6c1-0.1,1.8,0,2.3,0.5c0.7,0.6,0.7,1.8,0.7,2.7c-0.1,0.9-0.5,1.5-1.2,2C57.2,17.1,56.3,17.3,55.2,17.3z
			 M49.5,9.9c-0.5,0.4-0.7,1.2-0.5,2.2c0.3,1.4,1.3,3.1,2.9,3.6c2.4,0.8,4.4,0.8,5.5,0.1c0.4-0.3,0.7-0.7,0.7-1.2
			c0.1-1-0.1-1.7-0.4-1.9c-0.3-0.2-0.8-0.3-1.5-0.2c-2,0.3-3.9-0.9-5.3-1.7C50.4,10.3,49.7,9.9,49.5,9.9z M49.5,9.9L49.5,9.9
			L49.5,9.9L49.5,9.9z M49.2,9.5L49.2,9.5L49.2,9.5z"/>
	</g>
	<g>
		<path class="st0" d="M52,11.2c-0.2,0-0.4-0.1-0.5-0.3l-1.4-3.6c-0.1-0.3,0-0.5,0.3-0.6s0.5,0,0.6,0.3l1.4,3.6
			C52.5,10.9,52.4,11.1,52,11.2C52.1,11.2,52.1,11.2,52,11.2z"/>
	</g>
	<g>
		<path class="st0" d="M55,12.4c-0.2,0-0.4-0.1-0.5-0.3l-3-7.3c-0.1-0.3,0-0.5,0.3-0.7c0.3-0.1,0.5,0,0.7,0.3l3,7.3
			c0.1,0.3,0,0.5-0.3,0.7C55.1,12.4,55.1,12.4,55,12.4z"/>
	</g>
	<g>
		<path class="st0" d="M57.5,12.4c-0.2,0-0.4-0.1-0.5-0.3L52.7,1.4c-0.1-0.3,0-0.5,0.3-0.7c0.3-0.1,0.5,0,0.7,0.3L58,11.7
			c0.1,0.3,0,0.5-0.3,0.7C57.6,12.4,57.6,12.4,57.5,12.4z"/>
	</g>
	<g>
		<path class="st0" d="M58.3,8.4c-0.2,0-0.4-0.1-0.5-0.3l-2.7-6.8c-0.1-0.3,0-0.5,0.3-0.6s0.5,0,0.6,0.3l2.7,6.8
			C58.8,8.1,58.7,8.3,58.3,8.4C58.4,8.4,58.4,8.4,58.3,8.4z"/>
	</g>
	<g>
		<path class="st0" d="M60,3.9c-0.1,0-0.3-0.1-0.4-0.2c-2.9-3.6-7.4-2.5-7.5-2.5c-0.3,0.1-0.5-0.1-0.6-0.4s0.1-0.5,0.4-0.6
			c0.2-0.1,5.2-1.2,8.5,2.9c0.2,0.2,0.1,0.5-0.1,0.7C60.2,3.8,60.1,3.9,60,3.9z"/>
	</g>
</g>
</svg>
