<?xml version="1.0" encoding="utf-8"?>
<!-- Generator: Adobe Illustrator 24.2.0, SVG Export Plug-In . SVG Version: 6.00 Build 0)  -->
<svg version="1.1" id="Layer_1" xmlns="http://www.w3.org/2000/svg" xmlns:xlink="http://www.w3.org/1999/xlink" x="0px" y="0px"
	 viewBox="0 0 108.3 36.7" style="enable-background:new 0 0 108.3 36.7;" xml:space="preserve">
<style type="text/css">
	.st0{fill:#2054A4;}
</style>
<path class="st0" d="M108.2,13.1c-0.1-0.2-0.4-0.3-0.7-0.2c0,0-2.2,1.2-6.5,2.8c0-0.5,0-1.1-0.1-1.6c0.5-0.6,2.4-2.8,3.2-4.6
	c1.3-3.3,1.2-6.2-0.4-8.4c-0.9-1.2-5.1-0.9-15.5-0.1c-8.8,0.7-20.8,1.7-34.4,1.7c-22.4,0-40.3-1.9-46.2-2.6C6.3,0.1,5.7,0,5.5,0
	C4.2,0,3.3,0.9,3.3,5.5s3,8.3,3.8,9.1c0,0.5,0,1,0,1.5c-4.1-1.8-6.2-3.2-6.3-3.2c-0.2-0.2-0.5-0.1-0.7,0.1c-0.2,0.2-0.1,0.5,0.1,0.7
	c0.1,0.1,2.4,1.6,6.8,3.5c0,0.5,0,1,0.1,1.4v2.8c0,0.5,0.1,0.9,0.4,1.3c0.6,3.9,2.8,9.6,6.5,9.9c0.2,0,0.4,0,0.5,0
	c3.4,0,4.9-2.8,5-3.1c0.1-0.2,0.2-0.6,0.4-1v0.7c0.1,3.6,1.4,4.7,9,4.7c2.4,0,4.1-0.6,5.3-1.9c0.3-0.4,0.6-0.8,0.8-1.2
	c0.3,1.6,0.9,2.9,1.7,3.8c1.9,1.9,5,2,8.2,2c0.2,0,0.4,0,0.5,0H46c6.3,0,7.8-2.2,8.2-3.6v-0.1c0.3,0.6,0.6,1.1,1,1.5
	c1.9,2,5.2,2.1,8.6,2.1h0.9c6.3,0,7.8-2.2,8.2-3.6c0.1-0.3,0.1-1,0.1-1.7c0.1,0.2,0.3,0.4,0.5,0.6c1.2,1.2,2.9,1.9,5.3,1.9
	c7.6,0,8.9-1.2,8.9-4.8c0-0.6,0.1-1.2,0.1-1.8c0.2,0.9,0.4,1.7,0.7,2.2c0.1,0.3,1.6,3.1,5,3.1c0.2,0,0.4,0,0.5,0
	c4.1-0.3,6.4-7.4,6.7-11.2v-0.3c0.1-1.1,0.2-2.7,0.2-4.4c4.6-1.7,6.9-3,7-3C108.3,13.6,108.4,13.3,108.2,13.1z M91.3,15.9v3
	c-0.9,0.3-1.9,0.6-3,0.8c0-0.4,0-0.7,0-1h0.1v-0.5c-0.1-1.9,1.1-4.7,3-6.8c1.7-1.9,3.7-2.9,5.5-2.9c0.7,0,1.3,0.2,1.7,0.8
	c0.9,1,1.3,2.8,1.5,4.8c-0.5-0.5-1.1-0.8-1.9-0.8H94C92.5,13.3,91.3,14.5,91.3,15.9z M83.6,16.7h-4.2c-1.4,0-2.6,1.2-2.6,2.6v2.9
	c-1.2,0.2-2.3,0.4-3.5,0.5C73.7,20,75,15,77.6,12.5c1-1,2.1-1.5,3.2-1.5c0,0,0,0,0.1,0c3.3,0.1,5.3,3.1,5.9,9.1
	c-0.2,0-0.4,0.1-0.6,0.1v-1C86.2,17.9,85,16.7,83.6,16.7z M85.2,19.3v5.5c0,1-0.8,1.6-1.6,1.6h-4.2c-0.8,0-1.6-0.6-1.6-1.6v-5.5
	c0-0.8,0.6-1.6,1.6-1.6h4.2C84.4,17.7,85.2,18.3,85.2,19.3z M65.4,18.6h-4.2c-1.4,0-2.6,1.2-2.6,2.6v2.9c-1.2,0.1-2.5,0.1-3.8,0.2
	c0.7-4.9,2.7-13.2,8.8-13.2c1.8,0,3.3,0.6,4.5,1.9c2.4,2.5,3.3,6.8,3.7,9.9c-1.3,0.2-2.5,0.3-3.8,0.5v-2.2
	C68,19.8,66.8,18.6,65.4,18.6z M67,21.2v5.5c0,0.8-0.7,1.5-1.6,1.5h-4.2c-0.8,0-1.6-0.6-1.6-1.6v-5.4c0-0.8,0.6-1.6,1.6-1.6h4.2
	C66.2,19.6,67,20.2,67,21.2z M48.3,26.7c0,0.8-0.7,1.5-1.6,1.5h-4.2c-0.8,0-1.6-0.6-1.6-1.6v-5.4c0-0.8,0.6-1.6,1.6-1.6h4.2
	c0.8,0,1.6,0.6,1.6,1.6V26.7z M46.7,18.6h-4.2c-1.4,0-2.6,1.2-2.6,2.6V24c-1.3-0.1-2.5-0.2-3.7-0.4c0.8-5,2.9-12.5,8.7-12.5
	c1.8,0,3.3,0.6,4.5,1.9c2.8,2.9,3.6,8.3,3.8,11.3c-1.3,0-2.6,0.1-3.9,0.1v-3.2C49.3,19.8,48.1,18.6,46.7,18.6z M28.2,16.7H24
	c-1.4,0-2.6,1.2-2.6,2.6V21c-0.1,0-0.3-0.1-0.4-0.1c0.5-6.5,2.5-9.8,5.9-9.9c1.2,0,2.3,0.5,3.3,1.5c2.8,2.8,4.1,8.5,4.4,10.9
	c-1.3-0.2-2.6-0.3-3.8-0.5v-3.6C30.8,17.9,29.6,16.7,28.2,16.7z M29.8,19.3v5.5c0,0.9-0.7,1.6-1.6,1.6H24c-0.8,0-1.6-0.6-1.6-1.6
	v-5.5c0-0.8,0.6-1.6,1.6-1.6h4.2C29,17.7,29.8,18.3,29.8,19.3z M13.9,13.3H9.7c-0.6,0-1.1,0.2-1.6,0.5c0.2-1.9,0.6-3.6,1.4-4.5
	c0.5-0.5,1-0.8,1.7-0.8c1.8,0,3.7,1,5.5,2.9c1.9,2.1,3.2,4.9,3,6.8l-0.1,1.3l0.2-0.2c0,0.3,0,0.7,0,1.1c-1.1-0.3-2.3-0.6-3.3-0.9
	v-3.7C16.5,14.5,15.3,13.3,13.9,13.3z M8.4,22.3c-0.1-0.3-0.1-0.7-0.1-1V21c-0.1-0.7-0.1-1.5-0.2-2.5v-1.7l0,0v-1
	c0-0.8,0.6-1.6,1.6-1.6h4.2c0.8,0,1.6,0.6,1.6,1.6v5.5c0,1-0.8,1.6-1.6,1.6H9.7C9.2,23,8.7,22.8,8.4,22.3z M92.3,15.9
	c0-0.8,0.6-1.6,1.6-1.6h4.2c0.8,0,1.6,0.6,1.6,1.6v0.4c-0.1,0.1-0.1,0.3-0.1,0.5c0,0,0,0.1,0.1,0.1v4.5c-0.1,0.9-0.8,1.6-1.6,1.6
	h-4.2c-0.8,0-1.6-0.6-1.6-1.6V15.9z M4.3,5.5C4.3,1,5.2,1,5.5,1c0.2,0,1,0.1,2.1,0.2c5.9,0.6,23.8,2.6,46.3,2.6
	c13.6,0,25.6-1,34.5-1.7c7.2-0.6,14.1-1.2,14.6-0.4c1.4,1.9,1.4,4.4,0.3,7.4c-0.6,1.2-1.7,2.7-2.4,3.6c-0.2-1.6-0.7-3.1-1.6-4
	c-0.7-0.7-1.5-1.1-2.5-1.1c-2.1,0-4.3,1.1-6.2,3.2c-1.8,1.9-3,4.3-3.2,6.4c-1-4.7-3.1-7.1-6.4-7.2c-1.5,0-2.8,0.6-4,1.8
	c-2.4,2.3-3.7,6.4-4.3,9.4c-0.5-3-1.5-6.6-3.7-8.8c-1.4-1.5-3.2-2.2-5.2-2.2c-6.2,0-8.6,7.2-9.5,12.4c-0.4-3.2-1.4-7.6-3.9-10.3
	c-1.4-1.5-3.2-2.2-5.2-2.2c-6.1,0-8.5,6.8-9.5,12c-0.5-2.9-1.9-7.7-4.5-10.3c-1.2-1.2-2.5-1.8-4-1.8c-3.1,0.1-5.2,2.2-6.3,6.4
	c-0.4-1.8-1.5-3.9-3.1-5.6c-1.9-2.1-4.1-3.2-6.2-3.2c-1,0-1.8,0.4-2.5,1.1c-0.9,1-1.4,2.7-1.6,4.5C6.1,11.8,4.3,8.9,4.3,5.5z
	 M18.7,29.1L18.7,29.1c-0.1,0.2-1.3,2.8-4.6,2.5c-2.6-0.2-4.5-4.3-5.3-7.8C9,23.9,9.3,24,9.7,24h4.2c1.4,0,2.6-1.2,2.6-2.6v-0.7
	c1.1,0.3,2.2,0.6,3.3,0.9C19.7,24.2,19.4,27.7,18.7,29.1z M33.5,31.4c-1,1-2.5,1.5-4.6,1.5c-7.9,0-7.9-1.2-8-3.7V22v-0.1l0,0
	c0.2,0,0.3,0.1,0.5,0.1v2.8c0,1.4,1.2,2.6,2.6,2.6h4.2c1.5,0,2.6-1.1,2.6-2.6v-0.9c1.3,0.2,2.6,0.4,3.9,0.5c0,0.2,0,0.5,0,0.8
	C34.9,26.9,35,29.7,33.5,31.4z M53.3,32.9c-0.2,0.9-1.4,2.8-7.2,2.8h-0.6c-3.4,0-6.4,0-8.1-1.7c-1.2-1.2-1.7-3.2-1.6-6.2
	c0-0.1,0-1.4,0.3-3.2c1.2,0.1,2.5,0.3,3.8,0.4v1.6c0,1.4,1.2,2.6,2.6,2.6h4.2c1.5,0,2.6-1.1,2.6-2.5v-1.3c1.3,0,2.6,0,4-0.1
	c0,0.8,0,1.3,0,1.3C53.4,28.7,53.5,32.1,53.3,32.9z M72,32.9c-0.2,0.9-1.4,2.8-7.2,2.8h-0.9c-3.3,0-6.2-0.1-7.9-1.8
	c-1.1-1.2-1.7-3.2-1.6-6.1l0,0c0,0,0-1,0.2-2.5c1.3,0,2.6-0.1,3.9-0.2v1.5c0,1.4,1.2,2.6,2.6,2.6h4.2c1.4,0,2.6-1.1,2.6-2.5v-2.3
	c1.3-0.1,2.6-0.3,3.9-0.5c0.1,1.1,0.1,2,0.1,2.4c0,0.7,0,1.5,0.1,2.3C72.2,30.4,72.2,32.3,72,32.9z M86.8,29.1c0,2.5,0,3.8-7.9,3.8
	c-2.1,0-3.6-0.5-4.6-1.5c-0.8-0.8-1.1-1.9-1.2-2.9c0-0.9-0.1-1.6-0.1-1.8c0,0,0-0.2,0-0.3c0-0.4,0-0.7,0.1-1c0-0.4,0-0.7,0-1
	c0-0.1,0-0.3,0-0.6c1.2-0.2,2.5-0.3,3.7-0.5v1.6c0,1.4,1.2,2.6,2.6,2.6h4.2c1.4,0,2.6-1.2,2.6-2.6v-3.5c0.2-0.1,0.4-0.1,0.6-0.2
	c0,0.2,0,0.5,0,0.7V22C87,24.2,87,26.5,86.8,29.1z M94.1,31.6c-3.3,0.3-4.6-2.4-4.6-2.5l0,0c-0.8-1.5-1.1-5.5-1.1-8.3
	c1.1-0.3,2.1-0.5,3-0.8v1.4c0,1.4,1.2,2.6,2.6,2.6h4.2c0.5,0,1-0.1,1.3-0.4C98.7,27.1,96.7,31.4,94.1,31.6z"/>
</svg>
