<?xml version="1.0" encoding="utf-8"?>
<!-- Generator: Adobe Illustrator 24.2.0, SVG Export Plug-In . SVG Version: 6.00 Build 0)  -->
<svg version="1.1" id="Layer_1" xmlns="http://www.w3.org/2000/svg" xmlns:xlink="http://www.w3.org/1999/xlink" x="0px" y="0px"
	 viewBox="0 0 77.1 75.6" style="enable-background:new 0 0 77.1 75.6;" xml:space="preserve">
<style type="text/css">
	.st0{fill:#2054A4;}
</style>
<g>
	<g>
		<path class="st0" d="M34.2,44.1c-2.3,0-4.1-1.8-4.1-4.1s1.8-4.1,4.1-4.1s4.1,1.8,4.1,4.1S36.5,44.1,34.2,44.1z M34.2,36.9
			c-1.7,0-3.1,1.4-3.1,3.1c0,1.7,1.4,3.1,3.1,3.1s3.1-1.4,3.1-3.1C37.3,38.3,35.9,36.9,34.2,36.9z"/>
	</g>
	<g>
		<path class="st0" d="M34.2,49.9c-5.5,0-9.9-4.4-9.9-9.9s4.4-9.9,9.9-9.9s9.9,4.4,9.9,9.9S39.7,49.9,34.2,49.9z M34.2,31.1
			c-4.9,0-8.9,4-8.9,8.9s4,8.9,8.9,8.9s8.9-4,8.9-8.9S39.1,31.1,34.2,31.1z"/>
	</g>
	<g>
		<path class="st0" d="M34.2,56.2C25.3,56.2,18,48.9,18,40s7.3-16.2,16.2-16.2S50.4,31.1,50.4,40S43.1,56.2,34.2,56.2z M34.2,24.8
			C25.8,24.8,19,31.6,19,40s6.8,15.2,15.2,15.2S49.4,48.4,49.4,40S42.6,24.8,34.2,24.8z"/>
	</g>
	<g>
		<path class="st0" d="M34.1,74.1C15.3,74.1,0,58.8,0,40c0-6.6,1.9-13,5.5-18.5l0.1-0.2l56.6-0.6l0.2,0.2c3.8,5.7,5.8,12.3,5.8,19.1
			C68.2,58.8,52.9,74.1,34.1,74.1z M6.2,22.3C2.8,27.6,1,33.7,1,40c0,18.3,14.8,33.1,33.1,33.1S67.2,58.3,67.2,40
			c0-6.5-1.9-12.8-5.5-18.3L6.2,22.3z"/>
	</g>
	<g>
		<path class="st0" d="M76.7,75.6c-0.1,0-7.3-3.6-6.4-13.6c0.2-2.7,1.2-6.1,2.3-10.1c2.9-10.5,6.5-23.7-0.7-31.4
			c-9.7-10.5-29.3-2-29.5-1.9l-10.6,6.3L31.2,24l10.7-6.3c0.1,0,5.2-2.3,11.4-3.2c8.4-1.2,15,0.7,19.3,5.2
			c7.6,8.2,3.9,21.6,0.9,32.3c-1.1,3.9-2,7.3-2.3,9.9c-0.9,9.3,5.5,12.5,5.8,12.6L76.7,75.6z"/>
	</g>
	<g>
		<path class="st0" d="M6.5,21.9l-0.9-0.4C10.9,8.4,23.6,0,37.8,0c6.9,0,13.7,2.1,19.5,6l0.9,0.6L9.6,21.7l-0.3-1L55.8,6.2
			C50.4,2.8,44.2,1,37.8,1C24,1,11.7,9.2,6.5,21.9z"/>
	</g>
</g>
</svg>
