<?xml version="1.0" encoding="UTF-8"?>
<svg version="1.1" viewBox="0 0 1638 1395" width="1638" height="1395" xmlns="http://www.w3.org/2000/svg">
<path transform="translate(546,7)" d="m0 0h17l25 2 20 3 27 6 27 8 21 7 31 12 29 11 23 7 23 5 10 1h37l20-3 21-5 36-12 39-15 36-12 27-7 25-5 29-3h22l28 3 27 6 21 7 23 10 19 11 17 12 15 13 13 13 11 14 9 13 9 15 11 25 9 27 4 18 4 27 1 11v47l-3 31-7 36-5 19-12 36-10 25-16 33-8 16-12 25-13 32-9 28-7 30-6 39-3 39 17-5 22-5 13-2 17-1h11l22 2 18 3 27 7 28 11 25 12 23 13 17 9 23 13 29 15 29 13 30 11 21 7 30 7 24 4 4 3 1 9-5 5h-14l-27-4-28-7-30-10-25-10-22-10-23-13-20-11-23-13-22-12-26-13-21-8-21-7-20-4-17-2h-21l-22 3-26 6-16 6h-2l-3 80-2 23-4 31-3 22-6 37-8 40-10 42-8 27-14 41-8 20-10 24-10 21-10 18-10 16-8 10-9 10-7 7-14 10-12 5-8 2h-19l-10-3-10-7-8-9-10-19-7-21-7-26-10-50-6-40-8-64-4-28-8-46-8-36-7-25-10-30-9-21-11-20-12-16-9-10-12-9-12-6-13-3h-14l-12 3-16 8-11 8-11 11-7 10-8 13-12 25-10 28-8 27-6 25-8 41-6 38-7 56-6 50-7 41-8 36-7 22-5 13-7 12-9 10-10 7-11 4-8 1h-10l-15-3-16-7-13-10-11-12-13-19-6-9-10-17-11-21-11-26-10-27-10-30-10-35-9-40-8-45-5-31-6-52-3-43v-15l-1-8-1-36-16-6-20-5-18-3-14-1h-30l-25 5-24 8-25 11-37 19-23 13-25 14-18 10-16 8-19 9-20 8-27 9-26 6-25 4h-15l-5-3-1-2v-7l5-5 9-2 25-4 30-8 26-9 25-11 25-12 25-13 24-14 26-14 25-13 25-11 19-7 24-6 13-2 19-1h15l25 2 24 5 20 7-2-37-5-36-5-25-8-27-9-25-12-27-12-25-15-29-11-23-13-36-7-24-7-32-4-31-1-11v-40l3-31 5-27 6-21 9-24 11-22 9-14 9-12 11-13 8-8 8-7 12-10 17-11 24-13 15-6 23-7 30-6zm-8 22-25 3-22 5-24 8-16 8-18 10-16 12-10 9-14 14-13 18-9 15-7 15-8 21-6 23-5 27-2 22v40l3 29 6 31 10 36 11 29 13 29 28 56 10 24 6 17 8 26 7 33 5 34 2 23 4 104 3 45 2 15 2 23 2 10 4 30 7 38 9 41 11 40 11 33 11 28 9 20 8 16 10 18 10 15 11 13 5 6 9 7 13 7 9 2h10l12-5 3-2v-2l4-2 7-10 8-18 7-22 8-36 7-44 7-63 8-55 7-42 8-39 7-25 10-30 9-21 9-17 8-12 8-10 10-11 10-8 10-7 17-8 18-4h15l19 5 15 8 11 9 10 9 8 10 7 10 11 19 8 16 8 21 5 15 9 33 6 29 11 64 6 39 5 39 4 32 6 34 5 23 6 23 7 21 8 16 8 11 9 6 3 1h12l12-5 10-8 10-9 13-17 12-20 12-23 8-17 10-24 9-24 13-44 10-40 7-36 6-35 7-56 4-49 2-42 1-49 1-14 2-21 3-21 6-31 6-24 11-33 10-24 11-24 10-19 12-25 13-32 9-27 7-26 6-32 2-14 1-14v-39l-4-36-5-24-8-24-12-25-12-19-8-10-9-10-15-15-14-10-14-9-15-8-19-8-29-8-22-3-12-1h-31l-25 3-30 7-23 7-30 10-36 14-25 9-22 6-21 4-18 2h-28l-19-2-26-5-27-8-27-10-47-18-30-9-24-6-20-3-13-1z" fill="#4D8474"/>
<path transform="translate(568,1312)" d="m0 0h27l15 2 20 5 22 8 36 16 28 12 23 9 21 6 7 1h22l23-5 24-9 25-11 26-11 28-12 21-7 15-3 8-1h23l17 3 16 5 25 10 30 14 29 13 27 9 18 4 9 1h22l22-3 27-6h9l5 3 2 6-2 5-3 3-16 5-26 5-9 1h-40l-20-3-21-6-24-10-26-13-29-13-15-6-16-5-10-2h-25l-20 4-19 7-21 9-26 12-15 7-27 11-17 5-18 3h-37l-20-4-17-6-24-10-33-15-25-11-22-8-18-4-9-1h-16l-16 2-16 4-21 7-17 8-21 12-16 11-2 1h-7l-5-6v-7l3-5 18-13 21-12 19-9 23-7 18-4z" fill="#4C8373"/>
<path transform="translate(370,131)" d="m0 0 1 3-6 12-8 21-6 23-5 27-2 22v40l3 29 6 31 10 36 11 29 13 29 28 56 10 24 6 17 8 26 7 33 5 34 2 23 4 104 3 45 2 15 2 23 2 10 4 30 7 38 9 41 11 40 11 33 11 28 9 20 8 16 10 18 8 12-1 2-8-11-8-14-12-23-12-27-6-15-14-43-12-45-9-44-6-35-5-38-4-36-3-44-2-45-1-45-3-35-4-28-5-25-5-19-9-29-7-18-7-15-8-17-10-19-8-16-7-15-9-21-8-22-8-28-6-25-4-28-2-20v-34l3-29 5-26 5-19 7-19 8-17z" fill="#377060"/>
<path transform="translate(568,1312)" d="m0 0h27l15 2 20 5 22 8 36 16 28 12 23 9 21 6 7 1h22l23-5 24-9 25-11 26-11 28-12 21-7 15-3 8-1h23l17 3 16 5 25 10 30 14 29 13 27 9 18 4 9 1h22l17-1-4 2-4 1h-38l-23-5-18-6-20-8-16-8-25-11-15-7-25-9-19-4h-32l-17 4-27 9-15 7-26 11-16 7-11 5-13 5-8 3-13 4-14 3-8 1h-15l-25-5-22-8-19-8-13-6-16-7-25-11-19-7-14-4-16-3-17-1h-11l-19 2-22 5-18 6-15 7-14 8-6 3-9 6-4 3h-2v2l-5 3h-2l-1 3v9l2 1v2l12-2-3 3-2 1h-7l-5-6v-7l3-5 18-13 21-12 19-9 23-7 18-4z" fill="#377060"/>
<path transform="translate(741,711)" d="m0 0v3l-6 10-7 12-7 16-5 12-12 37-6 24-3 16-5 24-4 23-5 37-4 25-4 37-2 18-6 44-5 25-7 28-6 18-8 17-4 4 2-5 8-18 7-22 8-36 7-44 7-63 8-55 7-42 8-39 7-25 10-30 9-21 9-17 8-12z" fill="#387161"/>
<path transform="translate(1228,475)" d="m0 0 1 2-9 21-5 12-6 16-2 6-7 23-6 25-6 36-2 17-1 17-1 4-1 54-1 6-1 30-3 46-5 43-4 29-3 14h-1v-8l7-51 4-42 2-25 2-42 1-49 1-14 2-21 3-21 6-31 6-24 11-33 10-24z" fill="#397161"/>
<path transform="translate(752,729)" d="m0 0 1 2-13 25-6 15-7 19-8 26-6 24-7 36-7 40-8 64-6 50-7 41-8 36-7 22-5 13-7 12-9 10-2-1 7-7 8-14 6-15 5-15 7-30 7-36 6-45 8-69 6-38 8-43 4-18 5-20 8-26 4-12 10-22 3-7 9-16z" fill="#387060"/>
<path transform="translate(1270,672)" d="m0 0h10l29 3 18 4 28 9 15 7 8 3v2l5 1 14 7 22 12 13 8 11 6 23 13 23 12 28 12 21 8 29 9 27 6 22 3h12l-1 2h-14l-27-4-28-7-30-10-25-10-22-10-23-13-20-11-23-13-22-12-26-13-21-8-21-7-20-4-17-2h-21l-22 3-26 6-6 2-4-1 23-7 30-5z" fill="#387060"/>
<path transform="translate(587,29)" d="m0 0 16 2 18 4 36 11 28 10 41 16 15 5 8 2 18 5 15 3 16 2 24 1 31-3 25-5 21-6 37-14 23-9 36-12 7-2 4 1-51 17-36 14-25 9-22 6-21 4-18 2h-28l-19-2-26-5-27-8-27-10-47-18-30-9-24-6-18-3z" fill="#387060"/>
<path transform="translate(1270,655)" d="m0 0h11l22 2 18 3 27 7 28 11 25 12 23 13 17 9 23 13 29 15 29 13 30 11 21 7 30 7 24 4 4 3 1 9-1 2h-2l1-10-11-3-23-4-23-5-48-17-19-8-15-7-16-8-18-10-16-9-22-12-12-7-16-8-19-9-14-6-31-9-23-4-20-2h-28l1-2z" fill="#397161"/>
<path transform="translate(342,149)" d="m0 0 1 3-8 25-4 20-4 26-1 12v52l3 25 3 18 6 26 6 20 5 14 3 9 6 16 7 15 12 24v3h2l4 8 11 23 3 9-3-3-14-29-14-27-11-23-13-36-7-24-7-32-4-31-1-11v-40l3-31 5-27 6-21z" fill="#377060"/>
<path transform="translate(180,720)" d="m0 0 2 1-13 8-22 12-36 16-14 6-30 10-26 6-30 5-4 4 1 8 11 1 23-3 29-6 20-6 22-8 27-12 24-12 4-1-3 3-16 8-25 12-20 8-27 9-26 6-25 4h-15l-5-3-1-2v-7l5-5 9-2 25-4 30-8 26-9 25-11 25-12 25-13z" fill="#387161"/>
<path transform="translate(568,1329)" d="m0 0h30l22 5 25 10 27 12 19 8 14 7 13 5 19 7 16 4 10 1h27l20-3 21-6 20-8 9-4 3 1-20 9-19 7-16 4-13 2h-37l-20-4-17-6-24-10-33-15-25-11-22-8-18-4-9-1h-16l-16 2-16 4-21 7-12 6-4-1 17-8 24-8 14-3z" fill="#387060"/>
<path transform="translate(568,1312)" d="m0 0h27l15 2 20 5 22 8 36 16 28 12 23 9 3 2-8-1-13-5-17-7-13-6-16-7-25-11-19-7-14-4-16-3-17-1h-11l-19 2-22 5-18 6-15 7-14 8-6 3-9 6-4 3h-2v2l-5 3h-2l-1 3v9l2 1v2l12-2-3 3-2 1h-7l-5-6v-7l3-5 18-13 21-12 19-9 23-7 18-4z" fill="#377060"/>
<path transform="translate(1305,318)" d="m0 0h1v9l-7 32-13 40-11 27-16 33-8 16-12 25-13 32-9 28-7 30-6 39-1 7h-1v-11l2-18 5-25 6-25 11-33 9-21 9-20 8-16 9-17 13-28 6-15 7-19 7-22 7-27z" fill="#377060"/>
<path transform="translate(361,673)" d="m0 0h14l30 5 21 6 10 5 1 1 1 42 1 3 1 32 4 46 2 20 6 39 3 16 3 19 2 10 1 10-2-3-6-31-8-49-6-52-3-43v-15l-1-8-1-36-16-6-20-5-18-3-14-1-5-1z" fill="#3A7262"/>
<path transform="translate(462,834)" d="m0 0h2l2 9 4 30 7 38 9 41 11 40 11 33 11 28 9 20 8 16 10 18 8 12-1 2-8-11-8-14-12-23-12-27-6-15-14-43-12-45-9-44-6-35z" fill="#397262"/>
<path transform="translate(959,936)" d="m0 0h2l2 9 6 45 4 32 6 34 5 23 6 23 7 21 8 16 8 11 8 5 3 1h12l12-5 10-8 10-9v3l-8 8h-2v2l-6 4-10 6-7 2h-10l-9-4-6-5v-2h-2l-9-14-8-20-6-20-3-12-3-11-3-16-4-21-4-28-7-56z" fill="#397262"/>
<path transform="translate(947,966)" d="m0 0 2 2 4 33 3 23 4 25 4 21 3 13 6 25 10 30 6 12 6 9 5 6 10 6 11 3h9l14-2 11-5 6-2-4 4-12 5-8 2h-19l-10-3-10-7-8-9-10-19-7-21-7-26-10-50-6-40-3-25z" fill="#397262"/>
<path transform="translate(874,714)" d="m0 0 5 5 8 11 7 11 7 15 8 19 8 23 7 26 8 36 5 24 3 22 5 31 3 21v7l-2-2-4-26-4-28-8-46-8-36-7-25-10-30-9-21-11-20-11-15z" fill="#397262"/>
<path transform="translate(350,655)" d="m0 0h15l25 2 24 5 18 6 1 2-9-2-21-6-22-3-14-1h-29l-27 4-18 5-10 4-13 5-20 9-17 9-14 7-22 12-12 7-3-1 19-11 24-13 25-13 25-11 19-7 24-6 13-2z" fill="#387161"/>
<path transform="translate(1164,877)" d="m0 0 2 1-7 38-8 34-4 15-10 35-11 31-14 33-6 13-3 7h-2l-1 4-6 11-8 14-2-1 13-23 13-26 12-29 9-24 13-44 10-40 7-36z" fill="#387060"/>
<path transform="translate(1040,10)" d="m0 0h10v1l-23 4-30 7-35 11-29 11-26 10-29 10-29 6-18 2h-29v-1l28-1 26-4 21-5 36-12 39-15 36-12 27-7z" fill="#377060"/>
<path transform="translate(461,928)" d="m0 0 2 1 3 15 5 19 2 8 6 21 2 5 3 12 8 23 5 12 7 19 19 38 15 25 3 4-1 2-10-14-12-21-10-19-11-26-10-27-10-30-10-35-6-26z" fill="#387060"/>
<path transform="translate(1270,105)" d="m0 0 4 4 9 15 11 25 9 27 4 18 4 27 1 11v47l-3 31-2 7h-1l1-13 2-17v-57l-3-27-5-24-6-20-7-18-7-15-10-18z" fill="#376F5F"/>
<path transform="translate(1182,684)" d="m0 0h1v24l-1 6-1 30-3 46-5 43-4 29-3 14h-1v-8l7-51 4-42 2-25 3-65z" fill="#376F5F"/>
<path transform="translate(1250,109)" d="m0 0 4 3 4 7 9 14 6 13 8 20 7 26 3 17 2 21v60l-4 25h-1v-9l2-14 1-14v-39l-4-36-5-24-8-24-12-25-12-19z" fill="#366F5F"/>
<path transform="translate(675,954)" d="m0 0 1 4-2 18-4 38-5 35-5 25-7 28-6 18-8 17-4 4 2-5 8-18 7-22 8-36 7-44 6-55z" fill="#387060"/>
<path transform="translate(452,669)" d="m0 0h2l3 81 3 45 2 15 2 24h-2l-5-44-3-44-2-45z" fill="#356E5E"/>
<path transform="translate(546,7)" d="m0 0h17l25 2 2 2-24-1h-22l-23 2-26 5-15 5-13 4-17 7-16 9-10 6-2-1 14-9 19-10 15-6 23-7 30-6z" fill="#3A7262"/>
<path transform="translate(342,149)" d="m0 0 1 3-8 25-4 20-4 26-1 12v52l1 8-2 2-2-16v-40l3-31 5-27 6-21z" fill="#356E5E"/>
<path transform="translate(440,793)" d="m0 0h2l3 26 1 14 6 39 3 16 3 19 2 10 1 10-2-3-6-31-8-49-5-42z" fill="#397161"/>
<path transform="translate(874,714)" d="m0 0 5 5 8 11 7 11 7 15 8 19 8 23 7 26 1 7h-2l-7-26-11-33-9-21-11-20-11-15z" fill="#377060"/>
<path transform="translate(988,1103)" d="m0 0h2l8 22 8 16 8 10 10 5h12l12-5 10-8 10-9v3l-8 8h-2v2l-6 4-10 6-7 2h-10l-9-4-6-5v-2h-2l-9-14-8-20z" fill="#377060"/>
<path transform="translate(959,1312)" d="m0 0h23l8 1v2h-37l-17 4-27 9-15 7-4 1 4-4 21-9 21-7 15-3z" fill="#366E5E"/>
<path transform="translate(397,498)" d="m0 0 3 3 7 17 8 19 5 17 6 23 3 14v7l-2-2-5-25-8-27-9-25-8-18z" fill="#387060"/>
<path transform="translate(542,1133)" d="m0 0 5 5 10 13 11 9 9 6 17 6 6 1h17l8-2 9-4 5-2-5 5-13 5-8 1h-10l-15-3-16-7-13-10-11-12-6-9z" fill="#387161"/>
<path transform="translate(1105,29)" d="m0 0h9l28 6 17 5 15 6 23 13 13 9 1 2-5-2-10-7-20-11-19-8-29-8-22-3z" fill="#397161"/>
<path transform="translate(814,663)" d="m0 0h15l19 5 15 8 6 5-2 1-5-4-16-8-15-4h-20l-13 3-16 7-9 6-2-1 8-6 17-8z" fill="#397161"/>
<path transform="translate(752,729)" d="m0 0 1 2-13 25-6 15-7 19-8 26-1 4h-2l1-7 8-26 4-12 10-22 3-7 9-16z" fill="#376F5F"/>
<path transform="translate(652,1328)" d="m0 0 9 3 27 12 28 12 23 9 3 2-8-1-13-5-17-7-13-6-39-17z" fill="#387161"/>
<path transform="translate(1187,603)" d="m0 0 2 4-3 26-1 17-1 4-1 30-2 1v-26l1-14 2-21z" fill="#3D7565"/>
<path transform="translate(983,1142)" d="m0 0h2l4 8 6 9 5 6 10 6 11 3h9l14-2 11-5 6-2-4 4-12 5-8 2h-19l-10-3-10-7-8-9-7-13z" fill="#376F5F"/>
<path transform="translate(1164,877)" d="m0 0 2 1-7 38-8 34-3 9-2 1 4-18 7-30 6-32z" fill="#387161"/>
<path transform="translate(1270,655)" d="m0 0h11l22 2 18 3 9 2v2l-14-2-18-3-18-1h-24l1-2z" fill="#376F5F"/>
<path transform="translate(675,954)" d="m0 0 1 4-2 18-4 38-2 12h-1v-10l6-55z" fill="#356E5E"/>
<path transform="translate(1571,772)" d="m0 0 10 1 22 5 24 4 4 3 1 9-1 2h-2l1-10-11-3-23-4-23-5z" fill="#377060"/>
<path transform="translate(420,48)" d="m0 0 2 1-10 8-9 7-23 23-6 7v-3l12-14 8-8 8-7 12-10z" fill="#407868"/>
<path transform="translate(1250,109)" d="m0 0 4 3 4 7 9 14 6 13 6 15v5l-2-3-9-21-9-17-9-14z" fill="#397161"/>
<path transform="translate(482,1340)" d="m0 0 2 1-8 6-6 4-4 3h-2v2l-5 3h-2l-1 3v9l2 1v2l12-2-3 3-2 1h-7l-5-6v-7l3-5 18-13z" fill="#3A7262"/>
<path transform="translate(450,865)" d="m0 0h1l2 10 2 13 3 19 2 10 1 10-2-3-6-31-3-18z" fill="#366F5F"/>
<path transform="translate(1179,753)" d="m0 0h1l-2 37-2 14-2 1 1-17 3-34z" fill="#3B7363"/>
<path transform="translate(503,1017)" d="m0 0h2l13 34 6 14-2 1-9-20-6-15-4-12z" fill="#387060"/>
<path transform="translate(1211,70)" d="m0 0 5 2 14 12 8 8 7 8v2h2l2 6-5-5-12-13-13-13-8-6z" fill="#3A7262"/>
<path transform="translate(477,991)" d="m0 0 2 1 2 5 3 12 8 23 3 7v5l-2-2-13-37-3-10z" fill="#397262"/>
<path transform="translate(940,917)" d="m0 0h2l3 20 3 21v7l-2-2-4-26-2-14z" fill="#3E7666"/>
<path transform="translate(227,694)" d="m0 0m-2 1 2 1-9 6-12 6-21 12-3-1 19-11z" fill="#387060"/>
<path transform="translate(1196,560)" d="m0 0h2l-5 26-4 21h-1v-10l7-33z" fill="#397161"/>
<path transform="translate(1209,521)" d="m0 0 1 3-6 17-5 18-2 1 1-8 9-29z" fill="#366F5F"/>
<path transform="translate(378,460)" d="m0 0 4 2 4 9 11 24-1 2-18-36z" fill="#356E5E"/>
<path transform="translate(831,665)" d="m0 0h7l12 4 16 9 3 4-5-2-8-5-10-5-15-4z" fill="#387060"/>
<path transform="translate(934,880)" d="m0 0h2l5 31v6l-2-3-5-29z" fill="#376F5F"/>
<path transform="translate(1154,926)" d="m0 0h2l-1 7-4 17-3 9-2 1 4-18z" fill="#397262"/>
<path transform="translate(1250,109)" d="m0 0 4 3 4 7 9 14v3h-2l-9-16-6-9z" fill="#387060"/>
<path transform="translate(438,767)" d="m0 0h2l2 24-2 2-1-1-1-12z" fill="#3C7565"/>
<path transform="translate(1401,691)" d="m0 0 7 3 20 11v2l-6-2-10-6-11-6z" fill="#376F5F"/>
<path transform="translate(505,1328)" d="m0 0 2 1-8 5-14 8-2-1 3-3z" fill="#377060"/>
<path transform="translate(716,1356)" d="m0 0 5 1 21 8v1l-8-1-13-5-5-2z" fill="#397262"/>
<path transform="translate(411,532)" d="m0 0h2l7 22v3h-2l-7-22z" fill="#376F5F"/>
<path transform="translate(420,48)" d="m0 0 2 1-10 8-9 7-4 4-2-1 8-8z" fill="#377060"/>
<path transform="translate(732,772)" d="m0 0 1 2-6 16-2 6-2-2 6-19z" fill="#397161"/>
<path transform="translate(482,1340)" d="m0 0 2 1-8 6-6 4-4 3h-2v2l-2-1 5-5z" fill="#397161"/>
<path transform="translate(695,832)" d="m0 0h1l-1 9-3 12-2 1 2-13z" fill="#377060"/>
<path transform="translate(227,694)" d="m0 0m-2 1 2 1-9 6-10 5-3-1 18-10z" fill="#397161"/>
<path transform="translate(871,684)" d="m0 0 4 2 8 7 6 7v2h-2l-9-11-7-6z" fill="#397161"/>
<path transform="translate(486,17)" d="m0 0h2v2l-18 6h-5l3-2z" fill="#397262"/>
<path transform="translate(1509,748)" d="m0 0 9 3 10 5-3 1-16-7z" fill="#397161"/>
<path transform="translate(1068,1134)" d="m0 0v3l-8 8h-2v2l-6 2 5-5z" fill="#397161"/>
<path transform="translate(507,1072)" d="m0 0 2 1 4 7 2 5v3h-2l-6-13z" fill="#366F5F"/>
<path transform="translate(1288,206)" d="m0 0 3 3v20h-1z" fill="#427969"/>
<path transform="translate(1160,41)" d="m0 0 14 5 5 3-1 2-18-8z" fill="#377060"/>
<path transform="translate(680,1360)" d="m0 0 6 2 10 5-1 2-15-7z" fill="#377060"/>
<path transform="translate(530,1115)" d="m0 0 3 2 5 9 3 4-1 2-10-14z" fill="#377060"/>
<path transform="translate(374,406)" d="m0 0 2 3 6 14-3-1-4-8-2-6z" fill="#3A7262"/>
<path transform="translate(945,946)" d="m0 0h1l2 12v7l-2-2-1-4z" fill="#366F5F"/>
<path transform="translate(891,740)" d="m0 0 4 2 2 5 2 4-1 3-5-8z" fill="#366F5F"/>
<path transform="translate(983,1142)" d="m0 0h2l4 8 3 5-1 3-8-14z" fill="#356E5E"/>
<path transform="translate(1624,782)" d="m0 0 5 1 3 5v6l-1 2h-2l1-10-6-2z" fill="#397262"/>
<path transform="translate(675,954)" d="m0 0 1 4-1 11h-2v-8z" fill="#336B5B"/>
<path transform="translate(914,795)" d="m0 0 3 3 2 8v6l-2-4-3-9z" fill="#397161"/>
<path transform="translate(1239,95)" d="m0 0h2l4 5v2h2l2 6-5-5-5-6z" fill="#376F5F"/>
<path transform="translate(1184,642)" d="m0 0h1v8l-1 4h-2v-9z" fill="#397262"/>
</svg>
