<?xml version="1.0" encoding="utf-8"?>
<!-- Generator: Adobe Illustrator 24.2.0, SVG Export Plug-In . SVG Version: 6.00 Build 0)  -->
<svg version="1.1" id="Layer_1" xmlns="http://www.w3.org/2000/svg" xmlns:xlink="http://www.w3.org/1999/xlink" x="0px" y="0px"
	 viewBox="0 0 62.2 76.2" style="enable-background:new 0 0 62.2 76.2;" xml:space="preserve">
<style type="text/css">
	.st0{fill:#4C8558;}
</style>
<g>
	<path class="st0" d="M53.6,0h-45C3.9,0,0,3.9,0,8.6v59c0,4.7,3.9,8.6,8.6,8.6h45c4.7,0,8.6-3.9,8.6-8.6v-59C62.2,3.9,58.3,0,53.6,0
		z M61.2,67.6c0,4.2-3.4,7.6-7.6,7.6h-45c-4.2,0-7.6-3.4-7.6-7.6v-59C1,4.4,4.4,1,8.6,1h45c4.2,0,7.6,3.4,7.6,7.6
		C61.2,8.6,61.2,67.6,61.2,67.6z"/>
	<path class="st0" d="M54.5,20.5c0-0.8-0.3-1.6-0.9-2.2C51,15.6,42.7,15.1,31,15.1c-14.4,0-23.4,0.8-23.4,4.9v4.1
		c-0.1,1-0.1,2.3,0.1,3.8c0.2,1.8,1.3,5.5,3.6,5.7c0.1,0,0.1,0,0.2,0c1.4,0,2.1-0.8,2.5-1.3c0.3,1.4,1.2,1.9,4.6,1.9
		c1.2,0,2.2-0.3,2.8-1l0.1-0.1c0.2,0.6,0.4,1.1,0.8,1.5c1,1,2.6,1.1,4.4,1.1c0.1,0,0.1,0,0.2,0h0.2c2.7,0,3.7-0.9,4.1-1.5
		c0.1,0.2,0.2,0.3,0.3,0.4c1,1,2.6,1.1,4.4,1.1c0.1,0,0.1,0,0.2,0h0.2c3.6,0,4.2-1.5,4.3-2c0-0.1,0-0.2,0-0.4c0.6,0.6,1.6,1,2.8,1
		c3.6,0,4.4-0.5,4.6-2.1c0.3,0.4,1.1,1.5,2.7,1.5c0.1,0,0.1,0,0.2,0c2.2-0.1,3.4-3.9,3.6-5.7c0.2-1.9,0.2-3.4,0-4.6V20.5z M31,16.1
		c9.9,0,19.4,0.4,21.9,2.9c0.4,0.4,0.6,0.9,0.6,1.5v0.7c-0.3-0.3-0.7-0.4-1.2-0.4c-1.1,0-2.3,0.6-3.3,1.7c-0.7,0.7-1.1,1.6-1.4,2.4
		c-0.5-1.6-1.5-2.8-3.2-2.9c-2.3,0-3.6,2.7-4.2,4.9c-0.3-1.4-0.8-2.8-1.8-3.8c-0.7-0.8-1.7-1.1-2.7-1.1c-2.7,0-4,2.7-4.6,5.1
		c-0.3-1.4-0.8-2.9-1.8-3.9c-0.7-0.8-1.7-1.1-2.7-1.1c-2.8,0-4,2.7-4.7,5.1C21.3,24.9,20,22,17.6,22c-1.6,0.1-2.6,1.1-3.1,2.6
		c-0.3-0.7-0.7-1.4-1.3-2.1c-1-1.1-2.2-1.7-3.3-1.7c-0.5,0-0.9,0.2-1.3,0.5V20C8.6,16.6,19.9,16.1,31,16.1z M13.4,31.5L13.4,31.5
		c0,0.1-0.6,1.2-2,1.2c-1.3-0.1-2.4-2.9-2.7-4.9c-0.2-1.4-0.2-2.4-0.1-3.2c0-0.1,0-0.1,0-0.2v-0.3c0.1-1.2,0.4-1.7,0.6-2
		c0.2-0.2,0.4-0.3,0.7-0.3c0.8,0,1.7,0.5,2.5,1.4c0.9,1,1.5,2.3,1.4,3.1l-0.1,1.4l0.2-0.2C13.9,28.8,13.8,30.9,13.4,31.5z
		 M20.7,32.6c-0.4,0.5-1.1,0.7-2.1,0.7c-3.6,0-3.6-0.4-3.7-1.6v-3.5c0-0.9,0.1-5.1,2.7-5.2c2.5,0,3.6,5.4,3.6,6.3c0,0.1,0,0.3,0,0.5
		C21.3,30.6,21.4,31.9,20.7,32.6z M30.4,33.5c-0.1,0.4-0.9,1.2-3.3,1.2h-0.2c-1.7,0-3.1,0-3.9-0.8c-0.5-0.5-0.8-1.5-0.7-2.9
		c0-0.1,0.2-8,4.2-8c0.8,0,1.4,0.3,2,0.8c1.9,1.9,1.9,6.5,1.9,6.6C30.4,31.4,30.5,33.1,30.4,33.5z M39.6,33.5
		c-0.1,0.4-0.9,1.2-3.3,1.2h-0.2c-1.7,0-3.1,0-3.9-0.8c-0.5-0.5-0.8-1.5-0.7-2.9c0-0.1,0.2-8,4.2-8c0.8,0,1.4,0.3,2,0.8
		c1.9,1.9,1.9,6.5,1.9,6.6C39.6,31.4,39.7,33.1,39.6,33.5z M43.4,33.3c-1,0-1.7-0.2-2.1-0.7c-0.7-0.7-0.6-2-0.5-2.8
		c0-0.2,0-0.4,0-0.5c0-0.9,1.1-6.3,3.6-6.3c2.6,0.1,2.7,4.3,2.7,5.2v3.5C47,32.9,47,33.3,43.4,33.3z M53.5,27.8
		c-0.2,2-1.3,4.8-2.6,4.9c-1.4,0.1-2-1.1-2-1.1l0,0c-0.4-0.7-0.5-2.7-0.5-4l0.2,0.2l-0.1-1.4c-0.1-0.9,0.5-2.2,1.4-3.1
		c0.8-0.9,1.7-1.4,2.5-1.4c0.3,0,0.5,0.1,0.7,0.3c0.2,0.2,0.4,0.6,0.5,1.3v0.7c0,0.1,0.1,0.2,0.1,0.3C53.7,25.3,53.7,26.4,53.5,27.8
		z"/>
	<path class="st0" d="M54.5,48.3c-0.2-1.8-1.3-5.6-3.6-5.7c-1.7-0.1-2.6,1-2.9,1.5c-0.2-1.6-1-2.1-4.6-2.1c-1.2,0-2.2,0.3-2.8,1
		c0-0.2,0-0.4,0-0.5c-0.1-0.5-0.7-2-4.3-2h-0.2c-1.8,0-3.5,0-4.6,1.1c-0.1,0.1-0.2,0.3-0.3,0.4c-0.4-0.6-1.3-1.5-4.1-1.5h-0.2
		c-1.8,0-3.5,0-4.6,1.1c-0.4,0.4-0.7,0.9-0.8,1.5L21.4,43c-0.6-0.7-1.6-1-2.8-1c-3.4,0-4.3,0.5-4.6,1.9c-0.4-0.5-1.2-1.3-2.7-1.3
		c-2.2,0.2-3.3,4-3.5,5.7c-0.2,1.5-0.2,2.8-0.1,3.9v4.1c0,4.1,9,4.9,23.4,4.9c11.7,0,20-0.5,22.6-3.2c0.6-0.6,0.9-1.4,0.9-2.2v-2.9
		C54.7,51.8,54.7,50.3,54.5,48.3z M48.8,44.8L48.8,44.8c0-0.1,0.6-1.2,2-1.2c1.3,0.1,2.4,2.9,2.6,4.9c0.2,1.5,0.2,2.6,0.1,3.4
		c-0.1,0.1-0.1,0.2-0.1,0.3v0.7c-0.1,0.7-0.4,1.1-0.5,1.3c-0.2,0.2-0.4,0.3-0.7,0.3c-0.8,0-1.7-0.5-2.5-1.4c-0.9-1-1.5-2.3-1.4-3.1
		l0.1-1.4l-0.2,0.2C48.3,47.5,48.4,45.4,48.8,44.8z M41.3,43.7c0.4-0.5,1.1-0.7,2.1-0.7c3.6,0,3.6,0.4,3.7,1.6v3.5
		c0,0.9-0.1,5.1-2.7,5.2c-2.5,0-3.6-5.4-3.6-6.3c0-0.1,0-0.3,0-0.5C40.7,45.7,40.6,44.4,41.3,43.7z M32.2,42.3
		c0.8-0.8,2.2-0.8,3.9-0.8h0.2c2.4,0,3.2,0.8,3.3,1.2s0,2.1,0,3.1c0,0,0,4.6-1.9,6.6c-0.6,0.6-1.2,0.8-2,0.8c-4,0-4.2-7.9-4.2-8
		C31.5,43.8,31.7,42.8,32.2,42.3z M23,42.3c0.8-0.8,2.2-0.8,3.9-0.8h0.2c2.4,0,3.2,0.8,3.3,1.2c0.1,0.4,0,2.1,0,3.1
		c0,0,0,4.6-1.9,6.6c-0.6,0.6-1.2,0.8-2,0.8c-4,0-4.2-7.9-4.2-8C22.3,43.8,22.5,42.8,23,42.3z M18.6,43c1,0,1.7,0.2,2.1,0.7
		c0.7,0.7,0.6,2,0.5,2.8c0,0.2,0,0.4,0,0.5c0,0.9-1.1,6.3-3.6,6.3c-2.6-0.1-2.7-4.3-2.7-5.2v-3.5C15,43.4,15,43,18.6,43z M8.7,48.5
		c0.2-1.9,1.3-4.7,2.6-4.9h0.1c1.3,0,1.9,1.1,1.9,1.1l0,0c0.4,0.7,0.5,2.7,0.5,4l-0.2-0.2l0.1,1.4c0.1,0.9-0.5,2.2-1.4,3.2
		c-0.8,0.9-1.7,1.4-2.5,1.4c-0.3,0-0.5-0.1-0.7-0.3s-0.5-0.8-0.6-2v-0.3c0-0.1,0-0.1,0-0.2C8.5,50.9,8.5,49.8,8.7,48.5z M52.9,57.3
		c-2.5,2.6-12,2.9-21.9,2.9c-11.1,0-22.4-0.5-22.4-3.9V55c0.4,0.3,0.8,0.5,1.3,0.5c1.1,0,2.3-0.6,3.3-1.7c0.6-0.6,1-1.4,1.3-2.1
		c0.6,1.5,1.5,2.6,3.1,2.6c2.4,0,3.7-3,4.3-5.2c0.6,2.4,1.9,5.1,4.6,5.1c1.1,0,2-0.4,2.7-1.1c1-1,1.5-2.5,1.8-3.9
		c0.6,2.4,1.9,5.1,4.6,5.1c1.1,0,2-0.4,2.7-1.1c0.9-1,1.5-2.4,1.8-3.7c0.6,2.2,1.9,5,4.2,5c1.7-0.1,2.7-1.3,3.2-2.9
		c0.3,0.8,0.8,1.6,1.4,2.4c1,1.1,2.2,1.7,3.3,1.7c0.5,0,0.9-0.2,1.2-0.4v0.8C53.5,56.4,53.3,56.9,52.9,57.3z"/>
</g>
</svg>
