<?xml version="1.0" encoding="utf-8"?>
<!-- Generator: Adobe Illustrator 24.2.0, SVG Export Plug-In . SVG Version: 6.00 Build 0)  -->
<svg version="1.1" id="Layer_1" xmlns="http://www.w3.org/2000/svg" xmlns:xlink="http://www.w3.org/1999/xlink" x="0px" y="0px"
	 viewBox="0 0 56.5 85.1" style="enable-background:new 0 0 56.5 85.1;" xml:space="preserve">
<style type="text/css">
	.st0{fill:#2054A4;}
</style>
<g>
	<g>
		<path class="st0" d="M35.3,85.1c-0.4,0-0.8-0.1-1.1-0.2c-3.7-1.2-1.9-12.7,0.2-24.3c0.4-2.3,0.7-4.2,0.8-5c0.2-2-0.8-4.3-2.4-6
			c-1.4-1.5-3.2-2.3-5.1-2.2c-4.7,0.2-6.2,2.4-7.2,6c-0.4,1.3,0.2,5.8,0.8,10.6c1,8.3,2.2,17.7,0.1,20.2c-0.4,0.4-0.8,0.7-1.3,0.7
			c-5.5,0.3-8.1-2.7-11.5-13.1c-2.5-7.7-2-17.6-1.6-25.6c0.1-3,0.3-5.6,0.2-7.8c-0.1-3.5-1.4-5.6-2.8-8C2.6,27.7,0.8,24.7,0.2,19
			C-0.9,8.5,3.4,1.4,11.6,0.2c6.1-0.9,9.2,1,13.1,3.3c1,0.6,2,1.2,3.1,1.8c0.1,0,2.4,1.5,5.1,3c0,0,0-0.1,0.1-0.1
			c0.2-0.3,5.7-6.2,12.6-6.7C52.9,2,56.7,7,56.5,15.8c-0.5,6.4-3.2,9.9-5.3,12.7c-1,1.3-1.9,2.4-2.4,3.6c-0.9,2.1-0.7,5.6-0.4,10.9
			c0.3,4.3,0.6,9.7,0.4,16.5C48.5,71,43.5,80.5,38.7,83.8C37.5,84.7,36.3,85.1,35.3,85.1z M27.9,46.4c2.1,0,4,0.9,5.6,2.5
			c1.8,1.9,2.8,4.5,2.6,6.7c-0.1,0.9-0.4,2.8-0.8,5.1c-1.2,6.6-4,22.1-0.8,23.2c1,0.3,2.2,0,3.6-1c4.6-3.2,9.4-12.3,9.6-23.5
			c0.1-6.8-0.2-12.2-0.4-16.4c-0.3-5.4-0.5-9,0.5-11.3c0.6-1.3,1.5-2.6,2.5-3.8c2.2-2.8,4.7-6,5.1-12.1C55.6,10,54,3.1,45.6,2.6
			c-6,0.4-11,5.4-11.8,6.2c2.4,1.3,4.8,2.5,6,2.7c0.3,0,0.5,0.3,0.4,0.6s-0.3,0.5-0.6,0.4c-3-0.5-12-6-12.4-6.3
			c-1.1-0.6-2.1-1.2-3.1-1.8c-3.9-2.4-6.7-4.1-12.5-3.2C4.1,2.3,0.1,8.9,1.2,18.9c0.6,5.5,2.4,8.4,3.9,11c1.5,2.4,2.9,4.7,3,8.5
			c0.1,2.1-0.1,4.8-0.2,7.8C7.5,54.1,7,64,9.4,71.5c3.6,11,6.1,12.7,10.5,12.5c0.2,0,0.4-0.1,0.6-0.3c1.8-2.1,0.6-12.1-0.3-19.4
			c-0.6-5.3-1.2-9.5-0.7-11c1.1-3.9,2.9-6.5,8.2-6.8C27.7,46.4,27.8,46.4,27.9,46.4z"/>
	</g>
	<g>
		<circle class="st0" cx="17.7" cy="20.3" r="2.1"/>
	</g>
	<g>
		<circle class="st0" cx="37.5" cy="20.3" r="2.1"/>
	</g>
	<g>
		<path class="st0" d="M28.3,29c-4.3,0-6.4-3-6.5-3.1c-0.2-0.2-0.1-0.5,0.1-0.7s0.5-0.1,0.7,0.1c0.1,0.1,1.9,2.7,5.7,2.7
			c3.7,0,5.2-2.5,5.3-2.6c0.1-0.2,0.4-0.3,0.7-0.2c0.2,0.1,0.3,0.4,0.2,0.7C34.3,26,32.6,29,28.3,29z"/>
	</g>
</g>
</svg>
