<svg width="63" height="20" viewBox="0 0 63 20" fill="none" xmlns="http://www.w3.org/2000/svg">
<g clip-path="url(#clip0_0_1037)">
<path d="M62.0969 9.84297C62.0969 15.0244 58.6471 18.7422 53.5702 18.7422C48.7689 18.7422 45.2031 15.3285 45.2031 9.84297C45.2031 3.95258 49.4399 0.920898 53.7299 0.920898C57.8431 0.920898 62.0969 3.79292 62.0969 9.84297ZM57.9438 9.84297C57.9438 7.36821 56.7463 4.50189 53.6386 4.50189C50.8179 4.50189 49.3353 6.92343 49.3353 9.84297C49.3353 13.1236 51.1638 15.1879 53.6386 15.1879C56.7463 15.1879 57.9438 12.3481 57.9438 9.84297Z" fill="#1C2225"/>
<path d="M43.6809 17.1228C42.6659 17.8033 40.5276 18.7251 37.6118 18.7251C31.8849 18.7251 29.0547 14.7735 29.0547 9.94372C29.0547 4.5076 32.9018 0.920898 37.9292 0.920898C40.4173 0.920898 42.0158 1.33526 43.4319 2.03093L41.9797 5.38004C40.8982 4.92576 39.6532 4.65966 38.1782 4.65966C34.5459 4.65966 33.3123 6.8341 33.3123 9.83537C33.3123 13.0742 34.966 15.1765 37.8513 15.1765C38.8929 15.1765 39.6779 14.9522 39.9174 14.7963V11.7817H36.9922L36.996 8.3718H43.6809V17.1228Z" fill="#1C2225"/>
<path d="M24.1186 18.4457C23.5522 16.3701 22.598 14.7906 21.813 13.7813C21.1516 12.9298 20.6365 12.7473 20.6365 12.7473C20.1005 12.7625 19.7317 12.7625 19.2413 12.7378V18.4457H15.2422V1.37898C16.0842 1.24022 16.6868 1.16799 17.5725 1.08626C18.386 1.01023 19.3041 0.960815 20.3229 0.960815C21.6724 0.960815 22.8185 1.11097 23.7556 1.40749C24.7003 1.70401 25.4663 2.11266 26.0631 2.63157C26.6732 3.14857 27.1142 3.79102 27.3803 4.49809C27.6616 5.18806 27.8023 5.92365 27.8023 6.70865C27.8023 7.74076 27.5514 8.74625 27.0002 9.60158C26.5098 10.3638 25.6906 11.1431 24.839 11.681V11.757C26.7398 12.6257 27.8137 15.4236 28.8572 18.4457H24.1186ZM23.7917 6.80559C23.7917 6.08521 23.5294 5.50548 23.0143 5.11393C22.4973 4.70527 21.7845 4.5057 20.9235 4.49429C20.8266 4.49049 20.4559 4.49619 20.2335 4.5038C20.0111 4.5095 19.4238 4.56272 19.2413 4.59693V9.51415C19.5074 9.54456 20.0625 9.56927 20.511 9.56927C21.469 9.56927 22.3567 9.30506 22.9212 8.8679C23.4876 8.41362 23.7917 7.68374 23.7917 6.80559Z" fill="#1C2225"/>
<path d="M1.19141 14.3591V1.20215H12.9361L12.938 4.87058H5.19057V7.82243H11.7481L11.75 11.3065H5.19057V13.1502C5.19057 14.3097 5.87103 14.7981 6.75868 14.7981C8.55868 14.7981 13.2535 14.7981 13.2535 14.7981L13.2592 18.4457H5.24759C2.24632 18.4457 1.19141 17.06 1.19141 14.3591Z" fill="#1C2225"/>
</g>
<defs>
<clipPath id="clip0_0_1037">
<rect width="62" height="18.8906" fill="white" transform="translate(0.644531 0.38623)"/>
</clipPath>
</defs>
</svg>
