<svg width="60" height="34" viewBox="0 0 60 34" fill="none" xmlns="http://www.w3.org/2000/svg">
<g clip-path="url(#clip0_0_1017)">
<path d="M33.7342 7.22035C36.0664 5.09729 39.1671 3.8046 42.5681 3.81049C45.9514 3.81638 49.0345 5.10907 51.3519 7.2233L53.8371 4.49364C50.8631 1.78459 46.9143 0.129719 42.574 0.120885C38.2336 0.112051 34.2466 1.76398 31.2578 4.48186L33.7313 7.22035H33.7342Z" fill="#1C2225"/>
<path d="M51.3685 26.4428C49.0364 28.5658 45.9357 29.8585 42.5347 29.8526C39.1336 29.8467 36.0683 28.5541 33.7509 26.4398L31.2656 29.1695C34.2367 31.8785 38.1884 33.5363 42.5258 33.5452C46.8633 33.554 50.8532 31.9021 53.842 29.1842L51.3685 26.4457V26.4428Z" fill="#1C2225"/>
<path fill-rule="evenodd" clip-rule="evenodd" d="M32.8235 23.3774C33.1533 23.2184 33.4007 23.0034 33.5862 22.762C33.7511 22.547 33.8659 22.3114 33.9454 22.0818C34.0426 21.7932 34.0809 21.5134 34.0809 21.2985C34.0809 20.9716 34.0279 20.6595 33.9219 20.3768C33.8188 20.1059 33.6686 19.8615 33.4625 19.6554C33.2476 19.4375 32.9708 19.2608 32.6263 19.1371C32.3082 19.0252 31.9284 18.9605 31.4867 18.9605H30.1881V23.6306H31.5367C32.0697 23.6306 32.4879 23.5305 32.8206 23.3715M28.7718 17.5883H31.6516C32.2935 17.5883 32.8559 17.6972 33.3388 17.8916C33.8689 18.1036 34.3017 18.4157 34.6404 18.7867C34.9525 19.1313 35.1851 19.5229 35.3412 19.9381C35.509 20.3798 35.5885 20.845 35.5885 21.2985C35.5885 21.7755 35.4943 22.2496 35.3147 22.6883C35.138 23.1241 34.873 23.5276 34.5373 23.8691C34.1869 24.2254 33.754 24.517 33.2535 24.7172C32.7823 24.9027 32.2523 25.0087 31.6693 25.0087H28.7188V17.5853H28.7776L28.7718 17.5883Z" fill="#1C2225"/>
<path fill-rule="evenodd" clip-rule="evenodd" d="M4.96615 23.3774C5.29595 23.2184 5.5433 23.0034 5.72881 22.762C5.89371 22.547 6.00855 22.3114 6.08805 22.0818C6.18522 21.7932 6.2235 21.5134 6.2235 21.2985C6.2235 20.9716 6.1705 20.6595 6.06449 20.3768C5.96143 20.1059 5.81126 19.8615 5.60513 19.6554C5.39018 19.4375 5.11338 19.2608 4.76886 19.1371C4.45084 19.0252 4.07099 18.9605 3.6293 18.9605H2.33072V23.6336H3.67936C4.21233 23.6336 4.63047 23.5335 4.96321 23.3744M0.914361 17.5883H3.7942C4.43612 17.5883 4.99854 17.6972 5.48146 17.8916C6.00855 18.1036 6.44435 18.4157 6.78004 18.7867C7.09216 19.1313 7.32479 19.5229 7.48085 19.9381C7.6487 20.3798 7.7282 20.845 7.7282 21.2985C7.7282 21.7755 7.63397 22.2496 7.45435 22.6883C7.27768 23.1241 7.01266 23.5276 6.67697 23.8691C6.32656 24.2254 5.89371 24.517 5.39312 24.7172C4.92198 24.9027 4.39195 25.0087 3.80892 25.0087H0.855469V17.5853H0.914361V17.5883Z" fill="#1C2225"/>
<path fill-rule="evenodd" clip-rule="evenodd" d="M37.8841 25.0116H36.5237H36.4648V24.9527V17.6471V17.5883H36.5237H37.8841H37.943V17.6471V24.9527V25.0116H37.8841Z" fill="#1C2225"/>
<path fill-rule="evenodd" clip-rule="evenodd" d="M46.0167 17.6471V25.0116H44.6886C44.6474 25.0116 44.6121 24.994 44.5856 24.9675C44.5591 24.941 44.5414 24.9027 44.5414 24.8644V20.0264L42.757 22.2702L42.7393 22.2908H42.7128H42.3742H42.3477L42.33 22.2702L40.5456 20.0264V24.8644C40.5456 24.9056 40.5279 24.941 40.5014 24.9675C40.4749 24.994 40.4366 25.0116 40.3983 25.0116H39.0703V17.5883H40.2894C40.3129 17.5883 40.3336 17.5941 40.3542 17.603C40.3748 17.6118 40.3924 17.6265 40.4042 17.6442L42.545 20.2973L44.6945 17.6442C44.7093 17.6265 44.7269 17.6118 44.7446 17.603C44.7652 17.5941 44.7858 17.5883 44.8094 17.5883H46.0196V17.6471H46.0167Z" fill="#1C2225"/>
<path fill-rule="evenodd" clip-rule="evenodd" d="M27.7564 17.6471V22.0435C27.7564 22.4999 27.6857 22.9239 27.5444 23.3008C27.406 23.6689 27.1969 23.9957 26.9143 24.2637C26.6286 24.5376 26.2723 24.7496 25.8512 24.8909C25.439 25.0293 24.9679 25.1029 24.4349 25.1029H24.4319C24.0315 25.1029 23.6281 25.044 23.2541 24.9204C22.9007 24.8055 22.5709 24.6318 22.2853 24.3992C21.9761 24.1459 21.7229 23.822 21.5521 23.4245C21.3931 23.0564 21.3018 22.6294 21.3048 22.1436V17.5883H22.6328C22.674 17.5883 22.7093 17.6059 22.7358 17.6324C22.7623 17.6589 22.78 17.6972 22.78 17.7355V21.9286C22.78 22.1171 22.7859 22.279 22.8006 22.4145C22.8124 22.547 22.833 22.6559 22.8625 22.7502C22.889 22.8415 22.9214 22.9151 22.9655 22.9828C23.0067 23.0505 23.0627 23.1153 23.1304 23.186C23.3071 23.3626 23.5014 23.4922 23.7193 23.5776C23.9402 23.663 24.1816 23.7072 24.4555 23.7072C24.7853 23.7072 25.068 23.6571 25.3006 23.5806C25.5686 23.4893 25.7747 23.3597 25.9131 23.2184C25.9838 23.1477 26.0426 23.0682 26.0898 22.9798C26.1369 22.8915 26.1752 22.7914 26.2017 22.6824C26.2311 22.5705 26.2488 22.4469 26.2635 22.3114C26.2753 22.1789 26.2812 22.0317 26.2812 21.8727V17.7384C26.2812 17.6972 26.2988 17.6619 26.3253 17.6354C26.3518 17.6089 26.3901 17.5912 26.4284 17.5912H27.7564V17.6501V17.6471Z" fill="#1C2225"/>
<path fill-rule="evenodd" clip-rule="evenodd" d="M59.2851 22.9798C59.2851 23.2772 59.2232 23.5629 59.1084 23.822C58.9906 24.0811 58.8198 24.3137 58.599 24.511C58.3811 24.7024 58.1219 24.8497 57.8363 24.9498C57.5507 25.0499 57.2386 25.1029 56.9117 25.1029C56.4759 25.1029 56.0784 25.0499 55.7044 24.9351C55.3304 24.8232 54.9771 24.6524 54.6385 24.4198L54.559 24.3668L54.5324 24.3491V24.3196V22.6883C54.5324 22.653 54.5472 22.6235 54.5678 22.6C54.5913 22.5764 54.6208 22.5646 54.6561 22.5646C54.6767 22.5646 54.6944 22.5705 54.7121 22.5764C54.7297 22.5853 54.7445 22.597 54.7562 22.6118C54.8888 22.7855 55.1361 23.0682 55.4777 23.3037C55.8192 23.5393 56.258 23.7307 56.7851 23.7307C57.1031 23.7307 57.3357 23.6571 57.4977 23.5511C57.7038 23.4156 57.7921 23.2301 57.7921 23.0917C57.7921 22.8326 57.639 22.6177 57.4005 22.4174C57.1502 22.2113 56.8086 22.0228 56.4376 21.8197C55.5248 21.3161 54.4883 20.7478 54.4883 19.5876C54.4883 19.2755 54.5501 18.984 54.6738 18.7249C54.7945 18.4657 54.9771 18.239 55.2127 18.0506C55.4423 17.868 55.7132 17.7296 56.0224 17.6354C56.3287 17.5441 56.6732 17.494 57.0442 17.494C57.3593 17.494 57.6744 17.5382 57.9835 17.6265C58.2898 17.7149 58.5901 17.8444 58.8728 18.0152L58.9582 18.0682L58.9847 18.0859V19.5818C58.9847 19.6171 58.97 19.6465 58.9494 19.6701C58.9258 19.6936 58.8964 19.7084 58.861 19.7084C58.8493 19.7084 58.8345 19.7084 58.8228 19.7025C58.8228 19.7025 58.7992 19.6907 58.7874 19.6848H58.7845V19.6789C58.6579 19.5582 58.4164 19.355 58.1013 19.1813C57.7863 19.0076 57.3946 18.8662 56.9588 18.8662C56.6673 18.8662 56.4199 18.928 56.2462 19.037C56.0813 19.1401 55.9871 19.2843 55.9871 19.4522C55.9871 19.8909 56.5495 20.1795 57.2003 20.5122C57.6626 20.7508 58.1808 21.0158 58.5872 21.3956C58.9994 21.7814 59.2909 22.279 59.2909 22.9739" fill="#1C2225"/>
<path fill-rule="evenodd" clip-rule="evenodd" d="M50.3618 19.8527L49.6581 21.6224H51.0685L50.3648 19.8527H50.3618ZM50.8271 17.6177C50.8536 17.6354 50.8742 17.6589 50.886 17.6854L54.0809 24.9292L54.1162 25.0087H52.5762C52.5467 25.0087 52.5144 24.9969 52.4878 24.9793C52.4613 24.9616 52.4407 24.938 52.429 24.9086L51.5956 22.9593H49.1192L48.2859 24.9086C48.2741 24.9351 48.2535 24.9616 48.227 24.9793C48.2005 24.9969 48.171 25.0087 48.1387 25.0087H46.6016L46.634 24.9292C47.6528 22.5146 48.6716 20.1 49.6905 17.6854C49.7052 17.6531 49.7346 17.6001 49.8024 17.5912C49.8141 17.5883 49.8259 17.5853 49.8377 17.5853H50.7387C50.7682 17.5853 50.8006 17.5971 50.8271 17.6118V17.6177Z" fill="#1C2225"/>
<path fill-rule="evenodd" clip-rule="evenodd" d="M11.25 20.5447C11.4237 20.4917 11.5621 20.4151 11.6622 20.315C11.7299 20.2443 11.7829 20.1619 11.8153 20.0676C11.8507 19.9705 11.8654 19.8615 11.8625 19.7378C11.8595 19.5641 11.8242 19.358 11.6563 19.2019C11.4826 19.04 11.1675 18.9222 10.5992 18.9222H10.131V20.6271H10.5992C10.8524 20.6271 11.0704 20.6006 11.25 20.5476M17.578 19.8527L16.8771 21.6253H18.2788L17.578 19.8527ZM18.0461 17.6177C18.0726 17.6354 18.0933 17.6589 18.105 17.6854L21.2999 24.9292L21.3353 25.0087H19.7923C19.7629 25.0087 19.7305 24.9969 19.704 24.9793C19.6775 24.9616 19.6568 24.938 19.6451 24.9086L18.8117 22.9593H16.3353L15.502 24.9086C15.4902 24.9351 15.4667 24.9616 15.4431 24.9793C15.4166 24.9969 15.3872 25.0087 15.3548 25.0087H13.3819C13.3495 25.0087 13.3112 24.9969 13.2759 24.9793C13.2435 24.9616 13.2111 24.938 13.1934 24.9086L12.1834 23.4804C11.6917 22.7855 11.3442 22.4116 11.0645 22.2113C10.7906 22.017 10.5786 21.9934 10.3519 21.9934H10.131V24.8585C10.131 24.8998 10.1134 24.9351 10.0868 24.9616C10.0603 24.9881 10.0221 25.0058 9.98379 25.0058H8.55859V17.5853H10.7229C11.1263 17.5853 11.5003 17.6354 11.833 17.7296C12.1657 17.8268 12.4602 17.9681 12.7017 18.1566C12.952 18.3509 13.1434 18.5865 13.2729 18.8603C13.4025 19.1313 13.4673 19.4375 13.4673 19.7702C13.4673 20.1678 13.3701 20.5211 13.1816 20.8244C13.0079 21.1041 12.7547 21.3368 12.4308 21.5164C12.6869 21.7225 12.9107 21.961 13.1257 22.2349C13.3583 22.5293 13.5821 22.8621 13.8265 23.2272L13.8501 23.2625C13.9414 23.398 14.0209 23.5099 14.1004 23.6218C14.1622 23.7072 14.224 23.7896 14.2918 23.878L16.9036 17.6854C16.9154 17.6589 16.936 17.6324 16.9625 17.6148C16.989 17.5971 17.0185 17.5853 17.0509 17.5853H17.9519C17.9814 17.5853 18.0138 17.5971 18.0403 17.6118L18.0461 17.6177Z" fill="#1C2225"/>
<path fill-rule="evenodd" clip-rule="evenodd" d="M18.9896 16.3427H17.6292H17.5703V16.2838V8.9782V8.91931H17.6292H18.9896H19.0485V8.9782V16.2838V16.3427H18.9896Z" fill="#1C2225"/>
<path fill-rule="evenodd" clip-rule="evenodd" d="M50.7428 14.8615C51.0461 14.7437 51.317 14.57 51.5379 14.3521C51.7587 14.1342 51.9354 13.8721 52.0561 13.5777C52.1709 13.292 52.2357 12.974 52.2357 12.6324C52.2357 12.2879 52.1709 11.967 52.0561 11.6813C51.9354 11.3839 51.7587 11.1248 51.5379 10.9069C51.317 10.689 51.049 10.5182 50.7428 10.4004C50.4483 10.2856 50.1215 10.2238 49.7652 10.2238C49.4148 10.2238 49.0879 10.2856 48.7964 10.4004C48.4931 10.5182 48.2252 10.6919 48.0043 10.9069C47.7835 11.1248 47.6068 11.3839 47.4861 11.6813C47.3712 11.967 47.3064 12.2879 47.3064 12.6324C47.3064 12.974 47.3712 13.292 47.4861 13.5777C47.6068 13.8751 47.7835 14.1342 48.0043 14.3521C48.2252 14.57 48.4931 14.7437 48.7964 14.8615C49.0879 14.9764 49.4148 15.0382 49.7652 15.0382C50.1186 15.0382 50.4454 14.9764 50.7399 14.8615M48.181 9.11658C48.6551 8.93106 49.1881 8.828 49.7652 8.828C50.3512 8.828 50.89 8.93106 51.37 9.11658C51.8735 9.31092 52.3093 9.59949 52.6627 9.95579C53.0102 10.3033 53.2811 10.7155 53.4636 11.1719C53.6462 11.6254 53.7434 12.1201 53.7434 12.6324C53.7434 13.133 53.6491 13.6218 53.4666 14.0753C53.287 14.5229 53.0219 14.9351 52.6774 15.2855C52.3241 15.6477 51.8853 15.9422 51.373 16.1424C50.893 16.3309 50.3482 16.4369 49.7505 16.4369H49.7475C49.1674 16.4369 48.6345 16.3309 48.1604 16.1424C47.6598 15.9422 47.224 15.6507 46.8736 15.2885C46.5291 14.9381 46.2611 14.5258 46.0815 14.0753C45.8989 13.6248 45.8047 13.136 45.8047 12.6354C45.8047 12.126 45.9019 11.6313 46.0874 11.1808C46.2729 10.7243 46.5467 10.3121 46.8942 9.96168C47.2505 9.60538 47.6863 9.31681 48.1839 9.11952L48.181 9.11658Z" fill="#1C2225"/>
<path fill-rule="evenodd" clip-rule="evenodd" d="M24.4577 16.3427H20.0938V8.91931H24.5136V10.1472C24.5136 10.1884 24.496 10.2238 24.4694 10.2503C24.4429 10.2768 24.4047 10.2944 24.3634 10.2944H21.569V11.911H24.4106V13.1389C24.4106 13.1802 24.3929 13.2155 24.3664 13.242C24.3399 13.2685 24.3016 13.2862 24.2633 13.2862H21.5719V14.9646H24.6049V16.1925C24.6049 16.2337 24.5872 16.2691 24.5607 16.2956C24.5342 16.3221 24.496 16.3397 24.4577 16.3397" fill="#1C2225"/>
<path fill-rule="evenodd" clip-rule="evenodd" d="M31.285 10.2944H29.0294V16.3427H28.9705H27.6101H27.5512V16.2838V10.2944H25.2957C25.2544 10.2944 25.2191 10.2768 25.1926 10.2503C25.1661 10.2238 25.1484 10.1855 25.1484 10.1472V8.91931H31.4293V10.1472C31.4293 10.1884 31.4116 10.2238 31.3851 10.2503C31.3586 10.2768 31.3204 10.2944 31.2821 10.2944" fill="#1C2225"/>
<path fill-rule="evenodd" clip-rule="evenodd" d="M38.6578 8.9782V13.3745C38.6578 13.8309 38.5871 14.255 38.4458 14.6319C38.3074 14.9999 38.0983 15.3268 37.8156 15.5948C37.53 15.8686 37.1737 16.0806 36.7526 16.222C36.3404 16.3604 35.8663 16.434 35.3363 16.434H35.3333C34.9329 16.434 34.5294 16.3751 34.1555 16.2514C33.8021 16.1366 33.4723 15.9628 33.1867 15.7302C32.8775 15.477 32.6243 15.1531 32.4505 14.7555C32.2915 14.3875 32.2002 13.9605 32.2032 13.4746V8.91931H33.5312C33.5724 8.91931 33.6078 8.93698 33.6372 8.96348C33.6637 8.98998 33.6814 9.02826 33.6814 9.06654V13.2597C33.6814 13.4481 33.6873 13.6101 33.702 13.7455C33.7138 13.878 33.7344 13.987 33.7638 14.0812C33.7903 14.1725 33.8227 14.2461 33.8669 14.3138C33.9081 14.3816 33.9641 14.4464 34.0318 14.517C34.2085 14.6937 34.4028 14.8233 34.6207 14.9087C34.8416 14.9941 35.083 15.0382 35.3569 15.0382C35.6867 15.0382 35.9694 14.9882 36.202 14.9116C36.4699 14.8203 36.6761 14.6908 36.8145 14.5494C36.8851 14.4787 36.944 14.3992 36.9911 14.3109C37.0383 14.2226 37.0765 14.1224 37.103 14.0135C37.1325 13.9016 37.1501 13.7779 37.1649 13.6454C37.1766 13.51 37.1825 13.3627 37.1825 13.2067V9.07243C37.1825 9.03121 37.2002 8.99587 37.2267 8.96937C37.2532 8.94287 37.2915 8.9252 37.3298 8.9252H38.6578V8.98409V8.9782Z" fill="#1C2225"/>
<path fill-rule="evenodd" clip-rule="evenodd" d="M46.063 8.99882L43.0153 16.2544L42.9682 16.3662L42.9535 16.4016H42.4323L42.4176 16.3662L39.258 8.99882L39.2227 8.91931H40.6449C40.6744 8.91931 40.7009 8.92815 40.7244 8.94287C40.748 8.95759 40.7686 8.98115 40.7774 9.00471L42.6679 13.4246L44.5495 9.00765C44.5612 8.98115 44.5789 8.95759 44.6025 8.94287C44.626 8.92815 44.6525 8.91931 44.682 8.91931H46.0041H46.0895L46.0571 8.99882H46.063Z" fill="#1C2225"/>
<path fill-rule="evenodd" clip-rule="evenodd" d="M59.286 14.3109C59.286 14.6083 59.2242 14.894 59.1093 15.1531C58.9916 15.4122 58.8208 15.6448 58.5999 15.8392C58.382 16.0306 58.1229 16.1778 57.8373 16.2779C57.5516 16.378 57.2395 16.431 56.9127 16.431C56.4769 16.431 56.0793 16.378 55.7054 16.2632C55.3314 16.1513 54.978 15.9805 54.6394 15.7479L54.5599 15.6949L54.5334 15.6772V15.6478V14.0165C54.5334 13.9487 54.5894 13.8898 54.66 13.8898C54.6806 13.8898 54.6983 13.8957 54.716 13.9016C54.7336 13.9105 54.7484 13.9222 54.7601 13.937C54.9221 14.149 55.246 14.5141 55.7113 14.7703C56.0116 14.9352 56.3738 15.0559 56.7919 15.0559C57.11 15.0559 57.3426 14.9823 57.5045 14.8763C57.7107 14.7408 57.799 14.5553 57.799 14.4169C57.799 13.8898 57.1718 13.5453 56.4445 13.1449C55.991 12.8946 55.5081 12.6295 55.1341 12.2821C54.7543 11.9287 54.4922 11.4929 54.4922 10.9128C54.4922 10.6007 54.554 10.3092 54.6777 10.0501C54.7984 9.79094 54.981 9.5642 55.2166 9.37575C55.4462 9.19318 55.7171 9.05478 56.0263 8.96056C56.3326 8.86633 56.6771 8.81921 57.0481 8.81921C57.3632 8.81921 57.6783 8.86338 57.9845 8.95172C58.2907 9.04006 58.5911 9.16962 58.8738 9.34041L58.9592 9.39341L58.9857 9.41108V10.9069C58.9857 10.9423 58.9709 10.9717 58.9503 10.9953C58.9268 11.0188 58.8973 11.0306 58.862 11.0306C58.8502 11.0306 58.8355 11.0306 58.8237 11.0247C58.8119 11.0218 58.8002 11.013 58.7884 11.0071H58.7854V11.0012C58.6588 10.8804 58.4174 10.6773 58.1023 10.5035C57.7872 10.3298 57.3956 10.1885 56.9598 10.1885C56.6683 10.1885 56.4209 10.2503 56.2472 10.3592C56.0823 10.4623 55.9881 10.6066 55.9881 10.7744C55.9881 11.2132 56.5505 11.5018 57.2012 11.8345C57.6635 12.073 58.1818 12.338 58.5881 12.7179C59.0004 13.1036 59.2919 13.6013 59.2919 14.2962" fill="#1C2225"/>
<path fill-rule="evenodd" clip-rule="evenodd" d="M16.6164 16.3427H12.1523V8.91931H13.4804C13.5216 8.91931 13.5569 8.93698 13.5834 8.96348C13.6099 8.98998 13.6276 9.02826 13.6276 9.06654V14.9646H16.7636V16.1925C16.7636 16.2337 16.7459 16.2691 16.7194 16.2956C16.6929 16.3221 16.6547 16.3397 16.6164 16.3397V16.3427Z" fill="#1C2225"/>
</g>
<defs>
<clipPath id="clip0_0_1017">
<rect width="58.43" height="33.4214" fill="white" transform="translate(0.855469 0.12085)"/>
</clipPath>
</defs>
</svg>
