<?xml version="1.0" encoding="UTF-8"?>
<svg version="1.1" viewBox="0 0 2048 508" width="1003" height="249" xmlns="http://www.w3.org/2000/svg">
<path transform="translate(1780,2)" d="m0 0h28l21 2 22 4 25 7 25 10 23 12 15 10 12 9 13 11 13 12 7 8 12 14 16 24 11 20 10 24 6 19 5 22 3 22 1 10v26l-3 26-6 29-8 24-9 20-10 19-8 12-12 16-12 14-17 17-14 11-12 9-18 11-17 9-25 10-24 7-7 1-12-11-5-16 1-4 7-11 6-8h4l5-13 5-18 1-1 24-3 7-2v-20h37l4-4v-54l-14-8 3-12 6-5v-7l-6-14-2-37-6 1-10-19-6-12-12-48-4-8-23-14-4-3-1-22-7-15v-28l-4-5-6-3-4-1h-18l-14 9-5 4-1 2-1 19-2 7-4 5-3 21-1 3-28 13-7 6-9 11-13 17-11-2-2-1-1-7-5-12-7-1-1-3-9-140 1-5 20-8 23-7 20-4 15-2z" fill="#000"/>
<path transform="translate(1668,33)" d="m0 0h2l8 126v16l-4 4-5 12v10l4 11 4 6 5 4 16 252v17l-21-9-18-10-15-10-13-10-14-12-15-15-9-11-13-17-12-20-8-16-8-19-8-26-4-20-3-28v-26l3-28 6-27 8-24 9-20 9-17 12-18 10-13 9-10 7-8 8-8 8-7 18-14 19-12z" fill="#000"/>
<path transform="translate(101,136)" d="m0 0h12l16 2 17 5 16 8 11 8 9 9 6 9-2 4-19 14-6 4-8-10-10-9-14-7-10-3-16-1-16 3-16 8-12 11-9 14-5 13-3 15v20l3 15 5 13 6 10 9 10 8 6 12 6 11 3h22l14-4 12-7 6-5 7-10 5-12 3-14h-52l-1-1v-32h89l1 14v10l-2 19-4 16-6 14-7 11-11 12-10 8-16 8-14 4-11 2h-29l-16-3-17-6-14-8-11-9-7-7-10-14-8-17-4-15-2-12v-29l4-21 6-16 9-15 9-11 10-9 14-9 14-6 15-4z" fill="#000"/>
<path transform="translate(1171,195)" d="m0 0h15l13 3 13 7 6 5 3 4 1-15h33v138l-2 18-4 12-5 10-7 9-10 9-16 8-15 4-7 1h-23l-17-3-11-4-11-6-11-10-3-4 1-4 17-17 1-2 4 1 5 5 8 6 11 5 11 2h15l10-3 8-5 3-1 8-16 2-10v-10l-7 7-10 6-14 4h-21l-13-3-12-6-10-8-8-9-8-15-4-13-2-11v-23l4-18 5-12 7-11 11-11 13-8 16-5zm5 30-10 4-9 7-6 9-5 12-2 14 1 13 4 13 7 11 8 7 8 4 6 1h8l10-3 8-6 7-8 5-12 2-10v-18l-4-15-6-11-7-7-8-4-3-1z" fill="#000"/>
<path transform="translate(971,140)" d="m0 0h36l1 1v204l-1 1h-31l-1-1v-17l-8 9-11 7-11 4-5 1h-22l-16-4-12-6-13-11-9-13-6-14-3-13-1-9v-13l3-19 5-13 7-12 10-11 14-9 14-5 12-2h15l13 3 12 6 7 6zm-45 85-10 4-8 6-6 7-5 11-2 9v20l4 14 7 11 9 8 9 4 5 1h8l9-2 9-5 5-4 6-9 4-12 1-6v-20l-4-15-6-10-9-8-11-4z" fill="#000"/>
<path transform="translate(1351,195)" d="m0 0h18l16 3 16 7 10 8 7 7 8 13 6 18 2 16v17l-1 1h-113l5 13 6 9 10 7 11 4 6 1h12l15-3 12-5 11-8 4-2 14 24-6 7-13 8-16 6-15 3h-27l-15-3-15-6-10-7-7-6-8-11-5-10-4-13-2-14v-12l3-19 6-15 8-12 11-11 11-7 13-5zm1 30-11 4-9 6-6 7-5 10-1 7 3 1h75l1-3-4-12-7-9-8-6-9-4-4-1z" fill="#000"/>
<path transform="translate(366,195)" d="m0 0h17l16 3 12 5 11 7 11 11 8 14 5 15 2 13v22h-114l6 15 9 10 8 5 9 3 6 1h12l15-3 12-5 13-9h3l13 23-1 3-11 8-14 7-13 4-11 2h-27l-15-3-13-5-12-8-11-11-8-14-5-16-1-6v-27l4-16 8-16 7-9 7-7 11-7 11-5 12-3zm0 30-11 4-9 6-7 9-5 12 1 4h77l1-4-4-11-6-8-7-6-11-5-4-1z" fill="#000"/>
<path transform="translate(1764,213)" d="m0 0h2v41l-7 6-6 31-11 67-6 43v13l10 3 19 3 3 20 1 2 4 2 7 36v20l-5 8-13-1-27-5-15-4-2-1-4-58-12-189v-14l12 5 4 1h8l12-7 13-11 11-9z" fill="#000"/>
<path transform="translate(549,195)" d="m0 0h15l12 3 12 6 9 8 7 11 4 10 2 11v101l-1 1h-35l-1-1-1-97-4-11-6-7-9-4-4-1h-9l-10 3-8 6-7 14-1 5-1 92-1 1h-35l-1-146 1-1h32l1 17 8-9 10-6 10-4z" fill="#000"/>
<path transform="translate(692,195)" d="m0 0h19l18 3 13 5 11 7 8 8-1 4-11 10-11 9-3 1-5-6-10-6-11-4h-18l-9 3-5 4-1 8 5 6 11 4 35 7 14 5 11 6 8 8 5 10 2 15-2 12-6 12-10 10-12 7-17 5-6 1h-28l-20-4-14-6-11-8-8-9 1-4 13-11 11-9 4 2 4 5 12 8 14 5 6 1h10l12-3 7-5 2-4v-7l-3-5-8-5-16-4-22-4-18-6-10-6-8-8-4-8-1-4v-16l4-11 6-9 9-8 14-7 12-3z" fill="#000"/>
<path transform="translate(233,199)" d="m0 0h36l1 1-1 172-4 13-6 10-8 7-8 4-9 2h-16l-10-2-2-2v-30h15l8-4 3-7z" fill="#000"/>
<path transform="translate(1043,199)" d="m0 0h37v146l-1 1h-36z" fill="#000"/>
<path transform="translate(795,199)" d="m0 0h36v147h-36z" fill="#000"/>
<path transform="translate(245,131)" d="m0 0h13l8 5 6 7 2 6v8l-5 10-7 6-4 2h-13l-8-4-6-7-2-5v-12l4-8 7-6z" fill="#000"/>
<path transform="translate(1055,131)" d="m0 0h13l8 5 6 7 2 6v8l-3 7-7 8-7 3h-12l-8-4-5-6-3-6v-12l4-8 7-6z" fill="#000"/>
<path transform="translate(806,131)" d="m0 0h14l8 5 5 6 3 8-1 10-5 8-6 5-5 2h-12l-8-4-6-7-2-5v-12l4-8 7-6z" fill="#000"/>
<path transform="translate(1858,240)" d="m0 0 4 4 17 29-1 6 9 11 4 5v21l5 1 2 12-12 7-5 2-3-9-13-58-6-12z" fill="#000"/>
<path transform="translate(1916,346)" d="m0 0h1v41l-4-5-8-13 1-5z" fill="#000"/>
<path transform="translate(1883,347)" d="m0 0 3 3 9 17-5 10-5 8h-1l-1-14z" fill="#000"/>
<path transform="translate(1890,344)" d="m0 0h18l-2 6-6 11-4-5z" fill="#000"/>
<path transform="translate(1899,375)" d="m0 0 4 4 5 9h-16l2-5z" fill="#000"/>
</svg>
