<svg width="91" height="25" viewBox="0 0 91 25" fill="none" xmlns="http://www.w3.org/2000/svg">
<path d="M0 16.7987H90.9722V15.4442H0V16.7987Z" fill="#1C2225"/>
<path d="M3.15806 20.0775L1.98755 23.5373L0.81503 20.0775H0.0160654L1.6885 24.8316H2.28654L3.97206 20.0775H3.15806Z" fill="#1C2225"/>
<path d="M4.69407 24.8322H5.46387V20.0778H4.69407V24.8322Z" fill="#1C2225"/>
<path d="M6.81378 20.0775V24.8316H10.062V24.1844H7.58636V22.7554H9.69624V22.113H7.58636V20.7238H10.062V20.0775H6.81378Z" fill="#1C2225"/>
<path d="M14.1974 20.0775V23.4171L11.8483 20.0775H11.1404V24.8316H11.913V21.4862L14.2619 24.8316H14.9697V20.0775H14.1974Z" fill="#1C2225"/>
<path d="M19.3752 20.0775V23.4171L17.026 20.0775H16.3174V24.8316H17.0899V21.4862L19.4399 24.8316H20.1478V20.0775H19.3752Z" fill="#1C2225"/>
<path d="M22.7537 20.078L20.89 24.8321H21.7115L22.0606 23.8775H24.0654L24.4164 24.8321H25.2371L23.3754 20.078H22.7537ZM23.0811 21.152L23.8528 23.2623H22.289L23.0811 21.152Z" fill="#1C2225"/>
<path d="M27.7162 24.8322H28.4868V20.0778H27.7162V24.8322Z" fill="#1C2225"/>
<path d="M32.8921 20.0775V23.4171L30.5441 20.0775H29.8382V24.8316H30.6077V21.4862L32.9558 24.8316H33.6636V20.0775H32.8921Z" fill="#1C2225"/>
<path d="M36.3616 24.875C35.5979 24.875 35.0491 24.7062 34.5658 24.2444L35.0786 23.7711C35.4501 24.1204 35.8539 24.226 36.3763 24.226C37.0411 24.226 37.4255 23.9581 37.4255 23.4975C37.4255 23.2898 37.3638 23.116 37.2284 23.0027C37.0989 22.888 36.9697 22.8415 36.6707 22.8027L36.0715 22.7222C35.6538 22.6688 35.3284 22.5359 35.1058 22.3399C34.8559 22.1207 34.7333 21.8217 34.7333 21.4328C34.7333 20.605 35.3776 20.0376 36.4342 20.0376C37.1059 20.0376 37.5775 20.1958 38.0127 20.5781L37.5224 21.0321C37.2048 20.7508 36.8421 20.6633 36.4155 20.6633C35.8117 20.6633 35.4854 20.9845 35.4854 21.4064C35.4854 21.5792 35.5421 21.7334 35.6774 21.8481C35.8058 21.9537 36.0137 22.0343 36.2491 22.0673L36.8285 22.146C37.2999 22.2128 37.5647 22.3215 37.7765 22.501C38.0569 22.7279 38.1911 23.0706 38.1911 23.4779C38.1911 24.3522 37.4255 24.875 36.3616 24.875Z" fill="#1C2225"/>
<path d="M40.9918 24.8751C39.9555 24.8751 39.1701 24.2106 39.1701 23.2307V20.0772H39.9438V23.1957C39.9438 23.8321 40.3546 24.226 40.9918 24.226C41.6263 24.226 42.0467 23.8321 42.0467 23.1957V20.0772H42.8201V23.2307C42.8201 24.2106 42.027 24.8751 40.9918 24.8751Z" fill="#1C2225"/>
<path d="M46.0038 20.7241H44.8596V22.2133H46.0038C46.5157 22.2133 46.8675 21.94 46.8675 21.4721C46.8675 21.0035 46.5157 20.7241 46.0038 20.7241ZM46.895 24.8321L45.8273 22.8297H44.8596V24.8321H44.0909V20.078H46.0635C47.0245 20.078 47.639 20.6562 47.639 21.4656C47.639 22.1457 47.1979 22.5822 46.6263 22.7276L47.796 24.8321H46.895Z" fill="#1C2225"/>
<path d="M50.3725 21.1523L49.5793 23.2618H51.1439L50.3725 21.1523ZM51.7098 24.8324L51.3577 23.8767H49.3517L49.0029 24.8324H48.1812L50.0451 20.0783H50.6657L52.5313 24.8324H51.7098Z" fill="#1C2225"/>
<path d="M56.3929 24.8322L54.0437 21.4856V24.8322H53.2723V20.0778H53.9793L56.3301 23.4174V20.0778H57.0996V24.8322H56.3929Z" fill="#1C2225"/>
<path d="M60.0925 24.875C59.563 24.875 59.1081 24.6897 58.756 24.3657C58.2572 23.8982 58.265 23.3704 58.265 22.4543C58.265 21.5384 58.2572 21.0118 58.756 20.5412C59.1081 20.218 59.563 20.0376 60.0925 20.0376C60.7277 20.0376 61.1335 20.2491 61.514 20.5965L61.0001 21.0844C60.7364 20.8371 60.5149 20.6848 60.0925 20.6848C59.7934 20.6848 59.5216 20.7923 59.3413 20.9708C59.0942 21.226 59.0453 21.4988 59.0453 22.4543C59.0453 23.41 59.0942 23.6847 59.3413 23.9388C59.5216 24.1204 59.7934 24.226 60.0925 24.226C60.5149 24.226 60.7364 24.0717 61.0001 23.8253L61.514 24.3115C61.1335 24.6589 60.7277 24.875 60.0925 24.875Z" fill="#1C2225"/>
<path d="M62.5712 24.8322V20.0778H65.8191V20.7241H63.3399V22.1136H65.4544V22.7549H63.3399V24.185H65.8191V24.8322H62.5712Z" fill="#1C2225"/>
<path d="M71.6597 24.3256C71.302 24.6798 70.8324 24.8748 70.2763 24.8748C69.746 24.8748 69.2911 24.6905 68.9392 24.3662C68.439 23.8987 68.449 23.3698 68.449 22.4551C68.449 21.5382 68.439 21.0112 68.9392 20.5418C69.2911 20.2186 69.7313 20.0371 70.2763 20.0371C70.9666 20.0371 71.3537 20.237 71.8098 20.663L71.2892 21.152C70.9666 20.8503 70.7332 20.6853 70.2763 20.6853C69.9764 20.6853 69.696 20.7978 69.5176 20.9782C69.2694 21.2326 69.2197 21.4983 69.2197 22.4551C69.2197 23.4106 69.2694 23.6842 69.5176 23.9394C69.696 24.1198 69.9764 24.2246 70.2763 24.2246C70.6117 24.2246 70.8891 24.1063 71.088 23.8899C71.2745 23.6968 71.3382 23.432 71.3382 23.1352V22.875H70.2763V22.2629H72.1088V22.9749C72.1088 23.5921 71.9951 23.9898 71.6597 24.3256Z" fill="#1C2225"/>
<path d="M75.1467 20.7241H74.0037V22.2133H75.1467C75.6595 22.2133 76.0096 21.94 76.0096 21.4721C76.0096 21.0035 75.6595 20.7241 75.1467 20.7241ZM76.04 24.8321L74.9655 22.8297H74.0037V24.8321H73.233V20.078H75.2026C76.1675 20.078 76.7803 20.6562 76.7803 21.4656C76.7803 22.1457 76.3389 22.5822 75.7673 22.7276L76.939 24.8321H76.04Z" fill="#1C2225"/>
<path d="M80.3322 20.9782C80.1499 20.7975 79.8734 20.6842 79.5744 20.6842C79.2723 20.6842 78.9949 20.7975 78.8174 20.9782C78.5675 21.2323 78.5164 21.498 78.5164 22.4548C78.5164 23.4106 78.5675 23.6754 78.8174 23.9314C78.9949 24.1118 79.2723 24.2254 79.5744 24.2254C79.8734 24.2254 80.1499 24.1118 80.3322 23.9314C80.5812 23.6754 80.6313 23.4106 80.6313 22.4548C80.6313 21.498 80.5812 21.2323 80.3322 20.9782ZM80.9136 24.3662C80.5635 24.6902 80.1146 24.8756 79.5744 24.8756C79.0311 24.8756 78.5889 24.6902 78.2371 24.3662C77.738 23.8984 77.7449 23.3698 77.7449 22.4548C77.7449 21.539 77.738 21.0121 78.2371 20.5415C78.5889 20.2183 79.0311 20.0371 79.5744 20.0371C80.1146 20.0371 80.5635 20.2183 80.9136 20.5415C81.4155 21.0121 81.4028 21.539 81.4028 22.4548C81.4028 23.3698 81.4155 23.8984 80.9136 24.3662Z" fill="#1C2225"/>
<path d="M84.3065 24.8751C83.2721 24.8751 82.4878 24.2106 82.4878 23.2307V20.0772H83.2585V23.1957C83.2585 23.8321 83.672 24.226 84.3065 24.226C84.9407 24.226 85.3662 23.8321 85.3662 23.1957V20.0772H86.134V23.2307C86.134 24.2106 85.3437 24.8751 84.3065 24.8751Z" fill="#1C2225"/>
<path d="M89.2917 20.7241H88.1789V22.3096H89.2917C89.8281 22.3096 90.1927 22.0214 90.1927 21.517C90.1927 21.0181 89.8281 20.7241 89.2917 20.7241ZM89.3348 22.9633H88.1789V24.8321H87.4064V20.078H89.3348C90.328 20.078 90.9644 20.6911 90.9644 21.517C90.9644 22.3492 90.328 22.9633 89.3348 22.9633Z" fill="#1C2225"/>
<path d="M59.8366 8.57736C59.9169 8.39389 60.8857 6.1343 61.0013 5.85789C61.1258 6.12853 62.173 8.38812 62.2591 8.57736H59.8366ZM61.5005 3.78144H60.5375L56.8013 12.2137H58.2189C58.2189 12.2137 59.2541 9.87738 59.2963 9.78827H62.8297L63.9649 12.2137H65.3848L61.5005 3.78144ZM54.2356 7.28306C53.4492 6.85047 52.7758 6.48246 52.7758 5.83949C52.7758 5.30371 53.2963 4.93408 54.0514 4.93408C54.7384 4.93408 55.3945 5.2146 55.9993 5.7685L56.1268 5.88982V4.3326L56.0962 4.31307C55.4924 3.92423 54.819 3.7193 54.1503 3.7193C52.5296 3.7193 51.4788 4.61095 51.4788 5.9935C51.4788 7.24513 52.5835 7.88843 53.5581 8.45798C54.3904 8.94203 55.1766 9.39911 55.1766 10.148C55.1766 10.5237 54.819 11.1106 53.8621 11.1106C53.0415 11.1106 52.2856 10.7068 51.6689 9.94341L51.5308 9.77753V11.5248L51.5572 11.5492C52.2856 12.0759 53.0651 12.3262 53.9994 12.3262C55.4279 12.3262 56.4689 11.3513 56.4689 10.0152C56.4689 8.49676 55.2817 7.84964 54.2356 7.28306ZM48.7631 10.0842C48.5052 9.79873 43.0904 3.82713 43.0904 3.82713H42.0021V12.2137H43.3091V5.99846C43.5629 6.28556 48.907 12.2137 48.907 12.2137H50.0659V3.82713H48.7631V10.0842ZM37.0081 8.59386H40.5012V7.37714H37.0081V5.04191H40.6268V3.82713H35.6266V12.2137H40.7393V11.0039H37.0081V8.59386ZM31.7512 7.43928H30.4333V5.04191H31.797C33.0354 5.04191 33.1716 5.86641 33.1716 6.22644C33.1716 6.98523 32.6402 7.43928 31.7512 7.43928ZM31.797 3.82713H29.0549V12.2137H30.4333V8.65299H31.6345C33.4853 8.65299 34.5923 7.76436 34.5923 6.27208C34.5923 5.09031 33.8569 3.82713 31.797 3.82713ZM23.2461 7.1695C23.1324 7.03168 20.4489 3.82713 20.4489 3.82713H19.1864V12.2137H20.5648V5.9121C20.7727 6.16041 23.1069 8.99069 23.1069 8.99069H23.3825C23.3825 8.99069 25.7148 6.16041 25.9227 5.9121V12.2137H27.3011V3.82713H26.0502C26.0502 3.82713 23.3578 7.03168 23.2461 7.1695ZM13.3734 11.0883C11.5245 11.0883 10.1294 9.7718 10.1294 8.02345C10.1294 6.24484 11.4931 4.96024 13.3734 4.96024C15.2599 4.96024 16.6274 6.24484 16.6274 8.02345C16.6274 9.7718 15.2285 11.0883 13.3734 11.0883ZM13.3734 3.7193C10.7158 3.7193 8.71178 5.5716 8.71178 8.02345C8.71178 10.1131 10.3361 12.3262 13.3462 12.3262C16.4323 12.3262 18.0442 10.1637 18.0442 8.02345C18.0442 5.53088 16.0766 3.7193 13.3734 3.7193ZM4.8647 11.0883C2.87458 11.0883 1.48423 9.83093 1.48423 8.03392C1.48423 6.27979 2.91573 4.96024 4.81466 4.96024C5.78124 4.96024 6.67636 5.22037 7.71772 5.80729L7.83639 5.86835V4.42171L7.78913 4.40246C6.60577 3.92116 5.71871 3.7193 4.82551 3.7193C2.06755 3.7193 0.0635729 5.58315 0.0635729 8.1417C0.0635729 9.76107 1.33607 12.3262 4.75186 12.3262C6.22643 12.3262 7.16161 11.9558 7.87832 11.5919L7.92252 11.5704V10.0927L7.80303 10.1695C6.85591 10.7613 5.81373 11.0883 4.8647 11.0883Z" fill="#1C2225"/>
<path d="M70.3671 12.1764L70.8496 12.225C70.8496 12.225 78.2191 12.1832 78.8672 12.1783C76.1379 10.2311 72.2485 7.46876 71.977 7.34744C71.5966 7.1827 71.2017 7.09913 70.7987 7.09913C69.3516 7.09913 68.225 8.21488 68.225 9.64226C68.225 11.1024 69.2888 11.9698 70.3671 12.1764Z" fill="#1C2225"/>
<path d="M75.5441 2.81342C74.3766 1.98391 72.7873 2.23805 71.9294 3.3915C71.5578 3.88655 71.403 4.40248 71.403 4.89343C71.403 5.5774 71.7029 6.21217 72.1372 6.672L72.494 6.98525C72.494 6.98525 78.4747 11.1854 78.9982 11.5542C77.9736 8.41264 76.4923 3.94567 76.3423 3.69127C76.1394 3.33815 75.8715 3.04333 75.5441 2.81342Z" fill="#1C2225"/>
<path d="M78.8863 0.910779C77.5882 1.31342 77.0421 2.38159 77.0421 3.37336C77.0421 3.47619 77.048 3.57604 77.0588 3.67589L77.1589 4.1349C77.1589 4.1349 79.4147 10.9816 79.6117 11.5834C80.7 8.45827 82.2227 4.01057 82.2579 3.71657C82.2707 3.60328 82.2754 3.48665 82.2754 3.37336C82.2754 3.09199 82.2335 2.81341 82.1481 2.54359C81.7107 1.19707 80.2765 0.483917 78.8863 0.910779Z" fill="#1C2225"/>
<path d="M88.4204 7.09884C88.0214 7.09884 87.6262 7.18214 87.2193 7.35875C86.9723 7.46848 83.084 10.2316 80.3567 12.1788C81.0036 12.1829 88.3773 12.2245 88.3773 12.2245L88.8715 12.1711C89.9342 11.9692 91 11.101 91 9.64171C91 8.21459 89.8644 7.09884 88.4204 7.09884Z" fill="#1C2225"/>
<path d="M87.8174 4.89644C87.8174 4.40247 87.6642 3.88654 87.2938 3.39261C86.4339 2.23803 84.8468 1.9839 83.676 2.81341C83.3564 3.04332 83.084 3.33813 82.8634 3.71079C82.7164 3.97263 80.9928 9.19644 80.2183 11.5542C81.5064 10.6519 86.728 6.98524 86.728 6.98524L87.0968 6.65548C87.5242 6.20719 87.8174 5.57739 87.8174 4.89644Z" fill="#1C2225"/>
</svg>
