<svg width="117" height="40" viewBox="0 0 117 40" fill="none" xmlns="http://www.w3.org/2000/svg">
    <path d="M8.14084 39.7191L2.0313 34.0695V39.7191H0.078125V27.499H2.0313V33.0238L7.85958 27.499H10.3284L3.95323 33.5076L10.6097 39.7347H8.14084V39.7191Z" fill="black"/>
    <path d="M10.3752 33.6169C10.3752 29.8869 13.2034 27.2493 17.4692 27.2493C21.7349 27.2493 24.5319 29.8869 24.5319 33.6169C24.5319 37.3469 21.7349 39.9844 17.4692 39.9844C13.2034 39.9844 10.3752 37.3469 10.3752 33.6169ZM22.4693 33.6169C22.4693 31.0105 20.5005 29.0285 17.4536 29.0285C14.4066 29.0285 12.4378 31.0105 12.4378 33.6169C12.4378 36.2232 14.4222 38.2052 17.4536 38.2052C20.5005 38.1896 22.4693 36.2232 22.4693 33.6169Z" fill="black"/>
    <path d="M26.3445 27.499H28.282L35.4541 36.6289V27.499H37.4073V39.7191H35.376L28.2977 30.9481V39.7191H26.3445V27.499Z" fill="black"/>
    <path d="M39.4386 33.6793C39.4386 29.9025 42.2199 27.2493 46.47 27.2493C49.9701 27.2493 52.5483 29.3094 52.9858 32.0406H50.9702C50.5639 30.3082 48.7357 29.0285 46.3138 29.0285C43.4075 29.0285 41.4855 30.9325 41.4855 33.6169C41.4855 36.3012 43.4075 38.2052 46.3607 38.2052C48.7513 38.2052 50.5795 36.9099 50.9702 35.1775H52.9858C52.5327 37.9399 49.9233 39.9844 46.4075 39.9844C42.1887 39.9844 39.4386 37.3625 39.4386 33.6793Z" fill="black"/>
    <path d="M64.6424 37.8463V39.7347H54.4702V27.5146H64.3142V29.4031H56.3921V32.4776H63.533V34.288H56.3921V37.8619H64.6424V37.8463Z" fill="black"/>
    <path d="M66.6267 27.499H71.7675C74.8457 27.499 76.6895 28.6071 76.6895 30.8701C76.6895 33.3984 73.8925 34.1007 70.9549 34.1475L77.2832 39.7035H74.8457L68.5486 34.2099V39.7035H66.6111V27.499H66.6267ZM71.9862 32.5868C73.3769 32.5868 74.7207 32.0874 74.7207 30.9325C74.7207 29.8712 73.7831 29.2314 71.6893 29.2314H68.5486V32.5868H71.9862Z" fill="black"/>
    <path d="M78.6896 27.499H80.6271L87.7992 36.6289V27.499H89.7367V39.7191H87.7054L80.6271 30.9481V39.7191H78.674V27.499H78.6896Z" fill="black"/>
    <path d="M96.862 27.499H98.9714L104.784 39.7191H102.643L101.05 36.4573H94.7994L93.19 39.7191H91.0493L96.862 27.499ZM100.331 34.6313L97.9245 29.7776L95.4869 34.6313H100.331Z" fill="black"/>
    <path d="M105.018 35.7706H107.065C107.644 37.6902 109.394 38.2677 111.753 38.2677C113.659 38.2677 114.894 37.7058 114.894 36.6134C114.894 35.4429 113.456 35.0215 112.409 34.7718C111.456 34.5377 110.3 34.3504 108.94 33.929C107.159 33.3828 105.862 32.6336 105.862 30.8701C105.847 28.2013 108.675 27.2493 111.097 27.2493C114.472 27.2493 116.3 28.9349 116.378 31.3383H114.362C114.175 29.4031 112.331 28.9973 110.894 28.9973C109.956 28.9973 107.878 29.2002 107.878 30.6828C107.862 31.51 108.44 31.9157 109.675 32.2591C110.628 32.54 111.175 32.6493 112.331 32.9146C113.534 33.1643 116.737 33.6793 116.737 36.4417C116.753 38.8919 114.972 40 111.456 40C107.128 39.9844 105.253 38.1116 105.018 35.7706Z" fill="black"/>
    <path d="M111.769 0.0155945H94.4245C91.6431 0.0155945 89.3931 2.26296 89.3931 5.04096V17.62C89.3931 20.398 91.6431 22.6453 94.4245 22.6453H111.769C114.55 22.6453 116.8 20.398 116.8 17.62V5.04096C116.8 2.26296 114.55 0.0155945 111.769 0.0155945ZM112.362 16.746C112.362 17.6044 111.659 18.3067 110.8 18.3067H95.3776C94.5182 18.3067 93.8151 17.6044 93.8151 16.746V5.89932C93.8151 5.04096 94.5182 4.33865 95.3776 4.33865H110.8C111.659 4.33865 112.362 5.04096 112.362 5.89932V16.746Z" fill="black"/>
    <path d="M29.8289 0.0155945H27.2664H23.6725L0 22.6453H6.15642L11.0472 17.9633H27.2664V22.6453H31.6883V0.0155945H29.8289ZM15.6879 13.5466L27.282 2.46585V13.5466H15.6879Z" fill="black"/>
    <path d="M79.4865 13.453H80.674C84.4085 13.453 87.4398 10.4409 87.4398 6.72649C87.4398 3.0121 84.4085 0 80.674 0H68.5799H68.1112H64.1423V22.6297H68.5643V4.4167H80.674C81.9709 4.4167 83.0178 5.46235 83.0178 6.7421C83.0178 8.02185 81.9709 9.0675 80.674 9.0675H75.5801H73.8457H70.205L82.2522 22.6453H87.6273L79.4865 13.453Z" fill="black"/>
    <path d="M57.2671 9.08311H48.0012V13.4998H57.2671V16.746C57.2671 17.6044 56.5639 18.3067 55.7046 18.3067H40.2823C39.4229 18.3067 38.7197 17.6044 38.7197 16.746V5.89934C38.7197 5.04097 39.4229 4.33867 40.2823 4.33867H42.2354H55.7202H61.6578C61.3141 1.88841 59.2203 0 56.6733 0H39.3291C36.5478 0 34.2977 2.24737 34.2977 5.02536V17.6044C34.2977 20.3824 36.5478 22.6297 39.3291 22.6297H56.6577C59.439 22.6297 61.6891 20.3824 61.6891 17.6044V9.70737V9.0675H57.2671V9.08311Z" fill="black"/>
</svg>
