<?xml version="1.0" encoding="UTF-8"?>
<svg version="1.1" viewBox="0 0 2048 430" width="800" height="168" xmlns="http://www.w3.org/2000/svg">
<path transform="translate(169,50)" d="m0 0 7 6 38 38 4-2 42-42h2l8 16 8 13-2 4-36 36 6 7 63 63 4-2 36-36 14 8 16 9v3l-8 7-36 36 6 7 36 36 2 1v3l-23 13-7 4-38-38-4 2-67 67 6 7 32 32-2 5-13 23-1 3-4-2-42-42-4 2-42 42-3-3-11-20-4-6 2-4 35-35-1-4-67-67-4 2-36 36-14-8-16-9 2-4 41-41-1-4-4-3v-2h-2l-7-8-26-26-4-3v-2l21-11 10-6 38 38 4-2 67-67-6-7-32-32 2-5 10-17zm45 94-70 70 6 7 64 64 4-2 68-68-6-7-64-64z" fill="#484761"/>
<path transform="translate(1171,170)" d="m0 0h13l16 2 13 5 10 7 2 1 15-8 16-5 13-2h9l16 2 12 4 11 7 8 9 6 12 3 11 2 19v101l-1 1h-37l-1-98-2-14-4-11-7-6-8-3h-16l-13 4-7 4 3 12 1 14v97l-1 1h-37l-1-98-2-14-5-12-6-5-8-3h-19l-13 1v130l-1 1h-37v-157l15-4 27-4z" fill="#EB5E4F"/>
<path transform="translate(617,121)" d="m0 0h37l8 16 16 36 15 36 18 46 15 40 14 38v3h-42l-4-9-11-30-4-11h-89l-17 48-2 2h-40l1-5 15-42 15-40 15-38 15-36 14-32 9-20zm17 43-12 29-16 42-6 16v3h69l-2-9-17-45-14-35z" fill="#484761"/>
<path transform="translate(1670,96)" d="m0 0h5l1 234-3 2-31 6-22 2h-15l-15-2-16-5-11-6-11-9-9-11-8-16-4-15-1-5v-33l4-18 5-12 7-12 9-10 10-7 11-5 11-3 9-1h11l17 3 14 6-1-4v-27l1-46 20-4zm-71 107-11 4-8 6-6 10-4 11-2 13v14l3 16 7 14 9 9 10 5 10 2h15l15-2 1-3v-89l-5-4-13-5-5-1z" fill="#EB5D4E"/>
<path transform="translate(1427,170)" d="m0 0h23l17 4 13 7 10 9 7 9 6 12 4 15 2 15v24l-2 2h-105l3 13 6 11 2 4 18 9 13 2h15l15-2 15-4 4-1 1 1 4 25v5l-9 4-19 4-19 2h-12l-16-2-14-4-14-7-11-9-8-10-8-16-4-15-1-6v-31l4-18 6-14 8-12 5-6 10-8 16-8zm8 31-9 2-9 5-7 7-6 13-2 7v4h69v-8l-3-10-6-10-7-6-13-4z" fill="#EB5E4F"/>
<path transform="translate(1965,170)" d="m0 0h31l15 3 16 8 6 5 7 10 5 13 3 17v106l-22 4-26 3h-32l-16-3-13-5-9-7-6-7-5-10-3-14v-11l3-14 5-9 8-9 11-7 16-5 17-2h14l16 2 5 1-2-17-5-10-7-6-9-3h-26l-17 3-8 2-2-6-3-19v-6l6-2 20-4zm11 94-10 3-8 6-3 5-1 4v9l3 8 7 6 7 3 6 1h24l9-1 1-1v-41l-9-2z" fill="#EB5D4E"/>
<path transform="translate(997,170)" d="m0 0h30l18 4 13 7 8 7 7 11 4 13 2 17v102l-9 3-28 4-11 1h-32l-16-3-12-5-9-6-7-8-5-10-2-8-1-15 2-12 4-10 7-9 9-7 13-6 14-3 11-1h14l16 2 5 1-2-18-4-8-5-5-8-4-4-1h-26l-17 3-9 1-4-26v-4l14-4zm10 94-10 3-8 6-4 10 1 11 3 6 6 5 7 3 6 1h22l11-1 1-1v-41l-9-2z" fill="#484761"/>
<path transform="translate(869,125)" d="m0 0 3 1v48h57v31h-57l1 78 4 13 5 6 7 3 5 1h12l15-3 9-2 6 29-5 3-18 5-6 1h-27l-16-4-12-7-8-9-6-13-3-14-1-8v-152l5-2z" fill="#484761"/>
<path transform="translate(1846,170)" d="m0 0h26l16 3 13 4 1 3-7 27-1 2-11-3-9-2h-23l-12 4-9 7-6 9-4 10-2 10v22l4 16 5 9 6 7 10 5 6 2 8 1h14l14-2 11-3 3-1 2 8 3 18v6l-7 3-20 4-12 1h-12l-16-2-16-5-12-7-10-9-6-7-7-12-5-15-3-18v-19l3-18 6-16 9-14 9-10 10-7 14-7z" fill="#EB5E4F"/>
<path transform="translate(786,96)" d="m0 0h6v188l1 9 5 8 8 4 9 2 1 4-4 24-2 4-15-1-16-4-10-5-8-8-4-8-3-11-1-85v-114l4-2z" fill="#494862"/>
<path transform="translate(403,286)" d="m0 0h4l10 13 8 16 4 14 1 6v20l-3 15-6 15-8 12-11 12-13 9-12 6-13 4-13 2h-11l-19-4-13-5-13-8-9-8 4-10 8-16 4-7h2l7 9 10 7 11 5 4 1h19l12-4 11-7 8-8 7-14 2-9v-14l-3-11-5-10-9-10-5-3v-3l27-14z" fill="#EB5E4F"/>
<path transform="translate(332)" d="m0 0h27l18 5 14 7 14 11 8 9 7 11 6 13 3 11 1 7v20l-3 15-7 16-8 12-5 6-7-1-20-10-7-4 2-4 10-9 6-10 3-9 1-5v-14l-3-12-7-12-9-9-14-7-7-2h-18l-13 4-13 9-7 9h-2l-8-14-8-18 5-6 10-7 16-8z" fill="#EB5D4F"/>
<path transform="translate(24,286)" d="m0 0 6 1 25 13 2 4-6 4-7 8-7 14-2 9v13l3 11 5 10 9 10 9 6 10 4 4 1h19l14-5 11-8 6-7 1-2h2l12 22 4 9-2 4-8 7-14 8-18 6-12 2h-11l-20-4-15-6-13-9-9-8-9-12-8-16-4-14-1-4v-24l5-18 8-16 9-11z" fill="#EB5E4F"/>
<path transform="translate(71)" d="m0 0h27l20 6 14 8 10 8 2 4-9 19-7 12h-2l-7-9-8-6-10-5-8-2h-18l-12 4-11 7-7 7-8 16-2 9v12l3 12 5 10 9 10 5 4v2l-29 15-5-1-8-9-8-14-5-15-2-8v-24l5-18 8-16 11-14 12-10 10-6 16-6z" fill="#EB5D4F"/>
<path transform="translate(1712,174)" d="m0 0h38v162h-37l-1-1z" fill="#EB6152"/>
<path transform="translate(1723,104)" d="m0 0h16l8 5 5 6 2 5v14l-4 7-8 7-7 2h-9l-8-3-5-4-5-9v-14l4-8 7-6z" fill="#EB5E4F"/>
</svg>
