<svg width="110" height="105" viewBox="0 0 110 105" fill="none" xmlns="http://www.w3.org/2000/svg">
    <path d="M0 63.4408H8.70817C9.74223 63.4408 10.7243 63.5526 11.6478 63.7697C12.5712 63.9868 13.3712 64.3289 14.041 64.7763C14.7174 65.2303 15.2507 65.8026 15.6409 66.5066C16.0376 67.2105 16.2327 68.0461 16.2327 69.0066C16.2327 70.2237 15.9401 71.2566 15.3612 72.1053C14.7824 72.9539 13.9825 73.5921 12.968 74.0066C13.7549 74.1776 14.4443 74.4211 15.0361 74.7434C15.6279 75.0658 16.1222 75.4539 16.5124 75.9079C16.9091 76.3618 17.2017 76.875 17.3968 77.4474C17.5919 78.0263 17.6895 78.6711 17.6895 79.3816C17.6895 80.2829 17.5204 81.1053 17.1757 81.8487C16.831 82.5921 16.3108 83.2368 15.6084 83.7829C14.8995 84.3289 14.0085 84.7566 12.9354 85.0592C11.8559 85.3618 10.6007 85.5132 9.16992 85.5132H0V63.4276V63.4408ZM4.25979 72.6579H8.11636C9.40405 72.6579 10.3536 72.3947 10.9779 71.8684C11.6022 71.3421 11.9079 70.6645 11.9079 69.8224C11.9079 68.8816 11.5762 68.1842 10.9129 67.7303C10.2495 67.2829 9.33901 67.0526 8.17489 67.0526H4.25979V72.6579ZM4.25979 81.9079H9.04635C10.4966 81.9079 11.5827 81.6447 12.2981 81.1184C13.0135 80.5921 13.3712 79.8618 13.3712 78.9145C13.3712 78.454 13.2801 78.0395 13.1045 77.6711C12.9289 77.3026 12.6428 76.9934 12.2461 76.7434C11.8494 76.4934 11.3486 76.3026 10.7373 76.1776C10.1259 76.0526 9.38454 75.9868 8.51307 75.9868H4.25979V81.9079Z" fill="#1067B2"/>
    <path d="M24.8888 80.4605L22.7752 85.5263H18.1707L27.5943 63.3421H31.6069L41.063 85.5263H36.3675L34.2864 80.4605H24.8888ZM26.2546 76.9079H32.8816L29.5844 68.5395L26.2546 76.9079Z" fill="#1067B2"/>
    <path d="M58.1802 78.3553V63.4408H62.44V85.5263H58.4924L47.3259 70.4277V85.5263H43.0336V63.5H47.2023L58.1802 78.3553Z" fill="#1067B2"/>
    <path d="M77.7297 72.8158H87.2768V73.8553C87.2768 75.8684 87.0101 77.6382 86.4834 79.1579C85.9566 80.6776 85.2217 81.9408 84.2917 82.9474C83.3617 83.954 82.2366 84.7171 80.9359 85.2303C79.6287 85.7434 78.1914 86 76.6111 86C75.0307 86 73.5284 85.7039 72.1497 85.1184C70.7709 84.5329 69.5743 83.7237 68.5597 82.6974C67.5452 81.6711 66.7453 80.454 66.1665 79.0461C65.5876 77.6382 65.295 76.1184 65.295 74.4868C65.295 72.8553 65.5942 71.3684 66.199 69.9737C66.7973 68.5789 67.6297 67.3618 68.6898 66.3224C69.7499 65.2829 70.9986 64.4737 72.4358 63.8816C73.8796 63.2961 75.4274 63 77.0858 63C78.2239 63 79.3685 63.1316 80.5067 63.3947C81.6448 63.6579 82.6853 64.0724 83.6153 64.6382V69.3553C82.8284 68.6184 81.9049 68.0263 80.8448 67.5789C79.7848 67.1316 78.6272 66.9013 77.359 66.9013C76.2989 66.9013 75.3039 67.0987 74.3739 67.5C73.4439 67.9013 72.6309 68.4408 71.9481 69.1382C71.2652 69.8355 70.7189 70.6382 70.3157 71.5592C69.9125 72.4803 69.7109 73.4671 69.7109 74.5197C69.7109 75.5724 69.8995 76.625 70.2702 77.5526C70.6409 78.4868 71.1481 79.2961 71.792 79.9737C72.4358 80.6579 73.1902 81.1842 74.0617 81.5658C74.9332 81.9408 75.8632 82.1316 76.8582 82.1316C77.6906 82.1316 78.4776 82.0066 79.2385 81.7566C79.9929 81.5066 80.6627 81.125 81.2481 80.625C81.8269 80.125 82.2951 79.5066 82.6463 78.7829C82.9975 78.0592 83.1731 77.2237 83.1731 76.2829H77.7297V72.8158Z" fill="#1067B2"/>
    <path d="M93.8258 80.4605L91.7122 85.5263H87.1077L96.5313 63.3421H100.544L110 85.5263H105.304L103.223 80.4605H93.8258ZM95.1916 76.9079H101.819L98.5213 68.5395L95.1916 76.9079Z" fill="#1067B2"/>
    <path d="M0 93.3552H2.95961C3.44746 93.3552 3.88978 93.4133 4.29957 93.536C4.70286 93.6588 5.0476 93.8331 5.33381 94.0657C5.62001 94.2982 5.84117 94.5823 5.99728 94.9117C6.15339 95.2476 6.23145 95.6222 6.23145 96.0484C6.23145 96.5005 6.14689 96.8945 5.97126 97.2497C5.79564 97.5985 5.55497 97.8956 5.25575 98.1346C4.95003 98.38 4.59228 98.5608 4.18899 98.6835C3.7792 98.8062 3.34339 98.8708 2.87505 98.8708H1.1188V102.513H0V93.3552ZM2.84903 97.8891C3.56455 97.8891 4.11744 97.7341 4.52073 97.4177C4.91751 97.1012 5.11916 96.662 5.11916 96.1001C5.11916 95.5382 4.92402 95.0732 4.53374 94.7761C4.14346 94.4855 3.59056 94.3369 2.87505 94.3369H1.1188V97.8891H2.84903Z" fill="#222222"/>
    <path d="M8.30639 93.0064H7.25263V102.488H8.30639V93.0064Z" fill="#222222"/>
    <path d="M14.2712 101.855C13.972 102.113 13.6597 102.307 13.328 102.436C12.9963 102.565 12.606 102.63 12.1767 102.63C11.8645 102.63 11.5522 102.578 11.2465 102.475C10.9343 102.371 10.6611 102.223 10.4139 102.023C10.1667 101.822 9.9651 101.577 9.80899 101.286C9.65287 100.996 9.57482 100.653 9.57482 100.272C9.57482 99.8654 9.65938 99.5296 9.822 99.2648C9.98461 98.9935 10.1993 98.7804 10.4595 98.6189C10.7196 98.4575 11.0189 98.3412 11.3441 98.2766C11.6758 98.212 12.0011 98.1797 12.3198 98.1797C12.6905 98.1797 13.0483 98.212 13.3865 98.2766C13.7183 98.3412 14.0305 98.4575 14.3037 98.6189V98.3735C14.3037 97.8826 14.1281 97.5339 13.7768 97.3337C13.4256 97.1334 12.9767 97.0301 12.4239 97.0301C12.0076 97.0301 11.5913 97.0818 11.175 97.1786C10.7587 97.2755 10.3619 97.4435 9.98461 97.676V96.662C10.2773 96.5328 10.6481 96.4101 11.0774 96.2938C11.5132 96.1776 11.975 96.1194 12.4629 96.1194C12.8467 96.1194 13.2109 96.1711 13.5557 96.268C13.9004 96.3649 14.2126 96.5134 14.4793 96.7136C14.746 96.9139 14.9607 97.1593 15.1233 97.4564C15.2859 97.7535 15.364 98.1022 15.364 98.4962V102.488L14.2712 101.855ZM14.2972 99.536C14.0825 99.4133 13.8224 99.3035 13.5361 99.2002C13.2434 99.0968 12.8922 99.0452 12.4694 99.0452C12.2612 99.0452 12.0466 99.071 11.8254 99.1162C11.6043 99.1614 11.4091 99.2389 11.2335 99.3487C11.0579 99.4585 10.9148 99.6006 10.8042 99.7685C10.6936 99.9429 10.6351 100.156 10.6351 100.401C10.6351 100.634 10.6806 100.834 10.7782 101.002C10.8757 101.17 11.0058 101.312 11.1685 101.415C11.3311 101.525 11.5262 101.603 11.7344 101.661C11.949 101.719 12.1702 101.745 12.4043 101.745C12.8271 101.745 13.1979 101.667 13.5101 101.519C13.8158 101.37 14.0825 101.164 14.2972 100.905V99.5296V99.536Z" fill="#222222"/>
    <path d="M17.4649 102.003C17.0551 101.596 16.8535 100.976 16.8535 100.156V96.2293H17.9268V99.859C17.9268 100.201 17.9723 100.498 18.0634 100.731C18.1544 100.97 18.2715 101.157 18.4146 101.293C18.5577 101.428 18.7203 101.532 18.909 101.59C19.0976 101.648 19.2797 101.68 19.4619 101.68C19.644 101.68 19.8391 101.654 20.0408 101.596C20.2424 101.538 20.4311 101.441 20.6002 101.306C20.7693 101.17 20.9059 100.983 21.0165 100.744C21.1271 100.505 21.1791 100.208 21.1791 99.859V96.2293H22.2524V102.475L21.1596 101.687C20.9254 101.964 20.6392 102.191 20.314 102.358C19.9822 102.533 19.5855 102.617 19.1301 102.617C18.4341 102.617 17.8812 102.41 17.4714 102.003" fill="#222222"/>
    <path d="M24.9453 98.8514L27.3455 96.2486H28.718L25.8624 99.2002L28.8351 102.488H27.5146L24.9453 99.691V102.488H23.8785V93.0064H24.9453V98.8514Z" fill="#222222"/>
    <path d="M29.5766 93.6652C29.7327 93.5167 29.9149 93.4456 30.123 93.4456C30.3507 93.4456 30.5393 93.5167 30.6889 93.6652C30.8385 93.8138 30.9166 94.0011 30.9166 94.2336C30.9166 94.4338 30.8385 94.6082 30.6889 94.7632C30.5393 94.9182 30.3507 94.9957 30.123 94.9957C29.9149 94.9957 29.7327 94.9182 29.5766 94.7632C29.4205 94.6082 29.3424 94.4273 29.3424 94.2336C29.3424 94.0011 29.4205 93.8138 29.5766 93.6652ZM30.6694 102.488H29.6156V96.2422H30.6694V102.488Z" fill="#222222"/>
    <path d="M40.5239 102.488V98.8708C40.5239 98.225 40.4003 97.7535 40.1532 97.4628C39.906 97.1722 39.5612 97.0301 39.1189 97.0301C38.8587 97.0301 38.6246 97.0818 38.4229 97.1787C38.2148 97.2755 38.0457 97.4112 37.9156 97.5791C37.779 97.747 37.6814 97.9408 37.6098 98.1604C37.5383 98.38 37.5058 98.6189 37.5058 98.8644V102.481H36.4325V98.8644C36.4325 98.606 36.4065 98.367 36.3609 98.141C36.3154 97.9149 36.2374 97.7212 36.1268 97.5597C36.0162 97.3983 35.8731 97.2691 35.691 97.1722C35.5088 97.0753 35.2877 97.0301 35.0275 97.0301C34.7673 97.0301 34.5331 97.0818 34.338 97.1787C34.1364 97.2755 33.9672 97.4112 33.8371 97.5791C33.7006 97.747 33.603 97.9408 33.5314 98.1604C33.4599 98.38 33.4274 98.6189 33.4274 98.8644V102.481H32.3541V96.2486L33.3883 96.9849C33.616 96.6749 33.9022 96.4489 34.2599 96.3068C34.6177 96.1647 34.982 96.0936 35.3527 96.0936C35.7755 96.0936 36.1593 96.1841 36.4975 96.3649C36.8358 96.5457 37.096 96.8428 37.2651 97.2433C37.4667 96.8751 37.7594 96.5845 38.1432 96.3907C38.5335 96.1905 38.9563 96.0936 39.4181 96.0936C39.7954 96.0936 40.1141 96.1582 40.3873 96.2809C40.6605 96.4036 40.8882 96.578 41.0638 96.7976C41.2394 97.0172 41.376 97.2755 41.4606 97.5726C41.5451 97.8697 41.5907 98.1927 41.5907 98.535V102.475H40.5239V102.488Z" fill="#222222"/>
    <path d="M49.2531 100.628C49.084 101.028 48.8499 101.37 48.5506 101.667C48.2514 101.964 47.8937 102.197 47.4774 102.365C47.0611 102.533 46.6058 102.617 46.1179 102.617C45.6301 102.617 45.1942 102.533 44.7845 102.371C44.3747 102.21 44.0234 101.977 43.7177 101.687C43.4185 101.396 43.1843 101.047 43.0217 100.66C42.8591 100.266 42.7745 99.8396 42.7745 99.381C42.7745 98.9225 42.8591 98.4962 43.0217 98.0893C43.1843 97.6889 43.4185 97.3401 43.7177 97.043C44.0169 96.7459 44.3747 96.5134 44.7845 96.3455C45.1942 96.1776 45.6431 96.0936 46.1309 96.0936C46.6188 96.0936 47.0676 96.1776 47.4839 96.3455C47.9002 96.5134 48.2514 96.746 48.5506 97.0366C48.8499 97.3337 49.084 97.676 49.2531 98.07C49.4223 98.4704 49.5068 98.8966 49.5068 99.3552C49.5068 99.8138 49.4223 100.227 49.2531 100.628ZM48.2579 98.4445C48.1474 98.1539 47.9847 97.902 47.7831 97.6889C47.5815 97.4758 47.3343 97.3014 47.0546 97.1787C46.7749 97.056 46.4626 96.9914 46.1244 96.9914C45.7862 96.9914 45.4739 97.056 45.2007 97.1787C44.921 97.3014 44.6869 97.4693 44.4917 97.6824C44.2966 97.8956 44.147 98.141 44.0364 98.4316C43.9258 98.7223 43.8738 99.0323 43.8738 99.3552C43.8738 99.6781 43.9323 100.008 44.0494 100.292C44.1665 100.582 44.3226 100.834 44.5243 101.041C44.7259 101.254 44.9601 101.422 45.2398 101.538C45.5195 101.661 45.8187 101.719 46.1374 101.719C46.4561 101.719 46.7749 101.654 47.0546 101.532C47.3343 101.409 47.5815 101.235 47.7831 101.022C47.9847 100.808 48.1474 100.556 48.2579 100.272C48.3685 99.9881 48.4271 99.6846 48.4271 99.3681C48.4271 99.0517 48.3685 98.7287 48.2579 98.4445Z" fill="#222222"/>
    <path d="M58.88 101.855C58.5808 102.113 58.2686 102.307 57.9368 102.436C57.5986 102.565 57.2148 102.63 56.779 102.63C56.4668 102.63 56.1546 102.578 55.8489 102.475C55.5366 102.371 55.2634 102.223 55.0163 102.023C54.7691 101.822 54.5674 101.577 54.4113 101.286C54.2552 100.996 54.1772 100.653 54.1772 100.272C54.1772 99.8654 54.2617 99.5296 54.4243 99.2648C54.5869 98.9935 54.8016 98.7804 55.0618 98.6189C55.322 98.4575 55.6212 98.3412 55.9464 98.2766C56.2782 98.212 56.6034 98.1797 56.9221 98.1797C57.2929 98.1797 57.6506 98.212 57.9889 98.2766C58.3206 98.3412 58.6328 98.4575 58.906 98.6189V98.3735C58.906 97.8826 58.7304 97.5339 58.3792 97.3337C58.0279 97.1334 57.5791 97.0301 57.0262 97.0301C56.6099 97.0301 56.1936 97.0818 55.7773 97.1786C55.361 97.2755 54.9642 97.4435 54.5804 97.676V96.662C54.8797 96.5328 55.2439 96.4101 55.6732 96.2938C56.109 96.1776 56.5709 96.1194 57.0587 96.1194C57.4425 96.1194 57.8067 96.1711 58.1515 96.268C58.4962 96.3649 58.8085 96.5134 59.0752 96.7136C59.3418 96.9139 59.5565 97.1593 59.7191 97.4564C59.8817 97.7535 59.9598 98.1022 59.9598 98.4962V102.488L58.867 101.855H58.88ZM58.906 99.536C58.6914 99.4133 58.4312 99.3035 58.145 99.2002C57.8523 99.0968 57.501 99.0452 57.0782 99.0452C56.8701 99.0452 56.6554 99.071 56.4343 99.1162C56.2131 99.1614 56.0115 99.2389 55.8423 99.3487C55.6667 99.4585 55.5236 99.6006 55.413 99.7685C55.3025 99.9429 55.2439 100.156 55.2439 100.401C55.2439 100.634 55.2895 100.834 55.387 101.002C55.4846 101.17 55.6147 101.312 55.7773 101.415C55.9399 101.525 56.1285 101.603 56.3432 101.661C56.5579 101.719 56.779 101.745 57.0132 101.745C57.436 101.745 57.8067 101.667 58.119 101.519C58.4247 101.37 58.6914 101.164 58.906 100.905V99.5296V99.536Z" fill="#222222"/>
    <path d="M62.6007 98.8514L65.0009 96.2486H66.3734L63.5113 99.2002L66.4904 102.488H65.17L62.6007 99.691V102.488H61.5274V93.0064H62.6007V98.8514Z" fill="#222222"/>
    <path d="M71.3169 101.855C71.0177 102.113 70.7055 102.307 70.3737 102.436C70.0355 102.565 69.6517 102.63 69.2159 102.63C68.9037 102.63 68.5915 102.578 68.2858 102.475C67.9735 102.371 67.7003 102.223 67.4532 102.023C67.206 101.822 67.0043 101.577 66.8482 101.286C66.6921 100.996 66.6141 100.653 66.6141 100.272C66.6141 99.8654 66.6986 99.5296 66.8612 99.2648C67.0239 98.9935 67.2385 98.7804 67.4987 98.6189C67.7589 98.4575 68.0581 98.3412 68.3833 98.2766C68.7151 98.212 69.0403 98.1797 69.359 98.1797C69.7298 98.1797 70.0875 98.212 70.4258 98.2766C70.7575 98.3412 71.0697 98.4575 71.3429 98.6189V98.3735C71.3429 97.8826 71.1673 97.5339 70.8161 97.3337C70.4648 97.1334 70.016 97.0301 69.4631 97.0301C69.0468 97.0301 68.6305 97.0818 68.2142 97.1786C67.7979 97.2755 67.4011 97.4435 67.0173 97.676V96.662C67.3166 96.5328 67.6808 96.4101 68.1101 96.2938C68.5459 96.1776 69.0078 96.1194 69.4956 96.1194C69.8794 96.1194 70.2437 96.1711 70.5884 96.268C70.9331 96.3649 71.2454 96.5134 71.5121 96.7136C71.7787 96.9139 71.9934 97.1593 72.156 97.4564C72.3186 97.7535 72.3967 98.1022 72.3967 98.4962V102.488L71.3039 101.855H71.3169ZM71.3429 99.536C71.1283 99.4133 70.8681 99.3035 70.5819 99.2002C70.2892 99.0968 69.9379 99.0452 69.5151 99.0452C69.307 99.0452 69.0923 99.071 68.8712 99.1162C68.65 99.1614 68.4484 99.2389 68.2793 99.3487C68.1036 99.4585 67.9605 99.6006 67.8499 99.7685C67.7394 99.9429 67.6808 100.156 67.6808 100.401C67.6808 100.634 67.7264 100.834 67.8239 101.002C67.9215 101.17 68.0516 101.312 68.2142 101.415C68.3768 101.525 68.5655 101.603 68.7801 101.661C68.9948 101.719 69.2159 101.745 69.4501 101.745C69.8729 101.745 70.2437 101.667 70.5559 101.519C70.8616 101.37 71.1283 101.164 71.3429 100.905V99.5296V99.536Z" fill="#222222"/>
    <path d="M78.9013 101.493C78.6151 101.842 78.2964 102.113 77.9516 102.313C77.6069 102.513 77.1711 102.617 76.6572 102.617C76.2279 102.617 75.8311 102.539 75.4474 102.391C75.0701 102.242 74.7383 102.023 74.4586 101.738C74.179 101.454 73.9513 101.112 73.7887 100.712C73.6261 100.311 73.5415 99.8654 73.5415 99.3681C73.5415 98.8708 73.6261 98.4252 73.7887 98.0183C73.9513 97.6114 74.1724 97.2691 74.4521 96.9785C74.7318 96.6943 75.0571 96.4747 75.4278 96.3197C75.8051 96.1647 76.1954 96.0872 76.6182 96.0872C77.1516 96.0872 77.6134 96.197 78.0232 96.423C78.4265 96.6491 78.7647 96.9526 79.0314 97.3272V93H80.0982V102.468L78.8948 101.487L78.9013 101.493ZM74.7839 100.305C74.8945 100.595 75.0441 100.841 75.2392 101.047C75.4343 101.254 75.662 101.415 75.9222 101.532C76.1824 101.648 76.4686 101.706 76.7808 101.706C77.093 101.706 77.3857 101.648 77.6589 101.532C77.9321 101.415 78.1728 101.254 78.381 101.041C78.5891 100.828 78.7517 100.582 78.8753 100.292C78.9989 100.001 79.0574 99.6911 79.0574 99.3552C79.0574 99.0194 78.9924 98.7029 78.8688 98.4187C78.7452 98.1281 78.5761 97.8762 78.3679 97.6695C78.1598 97.4564 77.9191 97.2949 77.6459 97.1787C77.3727 97.0624 77.08 97.0043 76.7808 97.0043C76.4816 97.0043 76.2019 97.0624 75.9417 97.1722C75.675 97.282 75.4473 97.4435 75.2522 97.6502C75.0571 97.8568 74.901 98.1087 74.7904 98.3929C74.6798 98.6835 74.6213 99.0065 74.6213 99.3552C74.6213 99.704 74.6733 100.02 74.7839 100.305Z" fill="#222222"/>
    <path d="M85.3344 101.648C85.5426 101.596 85.7377 101.525 85.9133 101.435C86.089 101.344 86.2516 101.241 86.4012 101.131C86.5508 101.022 86.6809 100.905 86.8045 100.783V101.926C86.6744 102.029 86.5313 102.126 86.3687 102.21C86.206 102.294 86.0304 102.371 85.8483 102.436C85.6596 102.501 85.4645 102.552 85.2563 102.584C85.0482 102.617 84.827 102.636 84.5929 102.636C84.1245 102.636 83.6887 102.559 83.2985 102.397C82.9017 102.236 82.5569 102.016 82.2642 101.732C81.9715 101.448 81.7438 101.105 81.5812 100.711C81.4186 100.318 81.3341 99.8783 81.3341 99.4004C81.3341 98.9225 81.4056 98.5027 81.5487 98.0958C81.6918 97.6953 81.8934 97.3466 82.1536 97.0495C82.4138 96.7524 82.7326 96.5134 83.0968 96.3455C83.4676 96.1711 83.8839 96.0872 84.3457 96.0872C84.8075 96.0872 85.1978 96.1647 85.5556 96.3261C85.9068 96.4876 86.2125 96.7007 86.4662 96.9655C86.7199 97.2303 86.928 97.5468 87.0777 97.902C87.2273 98.2637 87.3313 98.6448 87.3834 99.0516L82.4919 100.234C82.6415 100.673 82.8952 101.034 83.2529 101.312C83.6107 101.59 84.079 101.732 84.6579 101.732C84.8986 101.732 85.1263 101.706 85.3344 101.654M82.4268 99.3875L86.3036 98.4058C86.193 98.0118 85.9654 97.676 85.6336 97.4047C85.3019 97.1334 84.8856 96.9978 84.3912 96.9978C84.0725 96.9978 83.7798 97.0624 83.5326 97.1916C83.2789 97.3207 83.0708 97.4951 82.9017 97.7083C82.7326 97.9214 82.6025 98.1668 82.5179 98.4445C82.4333 98.7223 82.3878 99.0064 82.3878 99.2971L82.4398 99.3875H82.4268Z" fill="#222222"/>
    <path d="M96.6655 102.488V98.8708C96.6655 98.225 96.5419 97.7535 96.2947 97.4628C96.0476 97.1722 95.7028 97.0301 95.2605 97.0301C95.0003 97.0301 94.7662 97.0818 94.5645 97.1787C94.3564 97.2755 94.1872 97.4112 94.0571 97.5791C93.9205 97.747 93.823 97.9408 93.7514 98.1604C93.6799 98.38 93.6474 98.6189 93.6474 98.8644V102.481H92.5741V98.8644C92.5741 98.606 92.5481 98.367 92.5025 98.141C92.457 97.9149 92.3789 97.7212 92.2684 97.5597C92.1578 97.3983 92.0147 97.2691 91.8326 97.1722C91.6504 97.0753 91.4293 97.0301 91.1691 97.0301C90.9089 97.0301 90.6747 97.0818 90.4796 97.1787C90.2779 97.2755 90.1088 97.4112 89.9787 97.5791C89.8421 97.747 89.7446 97.9408 89.673 98.1604C89.6015 98.38 89.5689 98.6189 89.5689 98.8644V102.481H88.4957V96.2486L89.5299 96.9849C89.7576 96.6749 90.0438 96.4489 90.4015 96.3068C90.7593 96.1647 91.1236 96.0936 91.4943 96.0936C91.9171 96.0936 92.3009 96.1841 92.6391 96.3649C92.9774 96.5457 93.2376 96.8428 93.4067 97.2433C93.6083 96.8751 93.901 96.5845 94.2848 96.3907C94.6751 96.1905 95.0979 96.0936 95.5597 96.0936C95.937 96.0936 96.2557 96.1582 96.5289 96.2809C96.8021 96.4036 97.0298 96.578 97.2054 96.7976C97.381 97.0172 97.5176 97.2755 97.6022 97.5726C97.6867 97.8697 97.7323 98.1927 97.7323 98.535V102.475H96.6655V102.488Z" fill="#222222"/>
    <path d="M99.352 93.6652C99.5081 93.5167 99.6902 93.4456 99.8984 93.4456C100.126 93.4456 100.315 93.5167 100.464 93.6652C100.614 93.8138 100.692 94.0011 100.692 94.2336C100.692 94.4338 100.614 94.6082 100.464 94.7632C100.315 94.9182 100.126 94.9957 99.8984 94.9957C99.6902 94.9957 99.5081 94.9182 99.352 94.7632C99.1959 94.6082 99.1178 94.4273 99.1178 94.2336C99.1178 94.0011 99.1959 93.8138 99.352 93.6652ZM100.445 102.488H99.391V96.2422H100.445V102.488Z" fill="#222222"/>
    <path d="M100.861 104.031C100.933 104.057 101.004 104.076 101.076 104.089C101.147 104.102 101.219 104.109 101.29 104.109C101.57 104.109 101.746 104.025 101.824 103.857C101.902 103.689 101.941 103.502 101.941 103.295V96.2487H102.995V102.972C102.995 103.25 102.982 103.508 102.949 103.754C102.916 103.999 102.851 104.212 102.747 104.399C102.643 104.587 102.494 104.735 102.299 104.839C102.103 104.948 101.843 105 101.511 105C101.381 105 101.264 104.994 101.16 104.974C101.056 104.955 100.959 104.935 100.861 104.91V104.031ZM101.856 93.6652C102.006 93.5167 102.194 93.4456 102.409 93.4456C102.611 93.4456 102.786 93.5167 102.949 93.6652C103.112 93.8138 103.19 94.0011 103.19 94.2336C103.19 94.4338 103.112 94.6082 102.949 94.7632C102.786 94.9182 102.604 94.9957 102.409 94.9957C102.188 94.9957 102.006 94.9182 101.856 94.7632C101.707 94.6082 101.629 94.4273 101.629 94.2336C101.629 94.0011 101.707 93.8138 101.856 93.6652Z" fill="#222222"/>
    <path d="M108.92 101.855C108.621 102.113 108.309 102.307 107.977 102.436C107.639 102.565 107.255 102.63 106.819 102.63C106.507 102.63 106.195 102.578 105.889 102.475C105.577 102.371 105.304 102.223 105.056 102.023C104.809 101.822 104.608 101.577 104.452 101.286C104.295 100.996 104.217 100.653 104.217 100.272C104.217 99.8654 104.302 99.5296 104.465 99.2648C104.627 98.9935 104.842 98.7804 105.102 98.6189C105.362 98.4575 105.661 98.3412 105.987 98.2766C106.318 98.212 106.644 98.1797 106.962 98.1797C107.333 98.1797 107.691 98.212 108.029 98.2766C108.361 98.3412 108.673 98.4575 108.946 98.6189V98.3735C108.946 97.8826 108.771 97.5339 108.419 97.3337C108.068 97.1334 107.619 97.0301 107.066 97.0301C106.65 97.0301 106.234 97.0818 105.818 97.1786C105.401 97.2755 105.004 97.4435 104.621 97.676V96.662C104.913 96.5328 105.284 96.4101 105.713 96.2938C106.149 96.1776 106.611 96.1194 107.099 96.1194C107.483 96.1194 107.847 96.1711 108.192 96.268C108.536 96.3649 108.849 96.5134 109.115 96.7136C109.382 96.9139 109.597 97.1593 109.759 97.4564C109.922 97.7535 110 98.1022 110 98.4962V102.488L108.907 101.855H108.92ZM108.946 99.536C108.732 99.4133 108.471 99.3035 108.185 99.2002C107.892 99.0968 107.541 99.0452 107.118 99.0452C106.91 99.0452 106.696 99.071 106.474 99.1162C106.253 99.1614 106.052 99.2389 105.883 99.3487C105.707 99.4585 105.564 99.6006 105.453 99.7685C105.343 99.9429 105.284 100.156 105.284 100.401C105.284 100.634 105.33 100.834 105.427 101.002C105.525 101.17 105.655 101.312 105.818 101.415C105.98 101.525 106.169 101.603 106.383 101.661C106.598 101.719 106.819 101.745 107.053 101.745C107.476 101.745 107.847 101.667 108.153 101.519C108.465 101.37 108.725 101.164 108.94 100.905V99.5296L108.946 99.536Z" fill="#222222"/>
    <path d="M60.0713 0C56.8991 0 54.325 2.57486 54.325 5.74792C54.325 6.84678 54.6305 7.86762 55.1635 8.74542C56.1711 10.397 57.9912 11.5023 60.0713 11.5023C61.9629 11.5023 63.6334 10.592 64.6865 9.18106C65.4015 8.22524 65.824 7.03535 65.824 5.74792C65.824 2.57486 63.2499 0 60.0778 0" fill="#FFDD00"/>
    <path d="M31.2685 8.73242C20.075 9.08353 11.8716 14.8184 8.67999 19.0384C12.7427 15.098 20.14 13.2904 24.8267 14.8184L24.6447 14.7859C27.2903 15.6182 28.7204 17.3868 28.7204 19.8706C28.7204 21.8148 27.6543 23.5053 26.0748 24.3896C26.0553 24.4026 25.9838 24.4352 25.9838 24.4352L26.2308 24.4482C30.508 24.6627 34.8242 24.2726 39.0493 23.2583C40.1934 22.9852 49.9958 20.4688 59.4083 17.2112C52.4074 12.4126 46.1737 8.26426 31.275 8.73242" fill="#FFDD00"/>
    <path d="M89.5176 15.9563C69.0742 14.3308 47.5452 27.3741 32.9131 28.7786C15.4078 30.4562 22.4736 18.089 22.4736 18.089C17.7999 15.6767 -1.14846 22.465 9.78502 36.113C11.4751 38.2198 15.1218 41.2303 21.401 42.4462C23.5591 42.8623 26.8678 43.1614 30.3584 42.8428C38.7893 42.082 51.2374 38.7659 68.6386 29.2077C70.6342 28.2064 72.4413 27.2831 74.0144 26.5028C81.4442 23.1152 87.9445 21.6522 93.5738 21.4442C98.7285 21.3791 102.596 22.2244 103.929 22.556C104.26 22.6406 104.436 22.6926 104.436 22.6926C101.017 18.8108 94.4253 16.34 89.5241 15.9498" fill="#56C6D0"/>
    <path d="M5.49484 23.2193C5.76135 22.7511 5.91085 22.2179 5.90435 21.6782C5.84585 17.959 -0.127914 18.2191 0.00209152 24.1621C0.145098 30.6447 6.8209 35.1117 6.8209 35.1117C2.90772 28.9412 4.7408 24.5587 5.49484 23.2193Z" fill="#56C6D0"/>
    <path d="M86.0529 24.7538C79.9557 26.2102 71.6678 30.1376 61.5663 35.5539C36.6897 48.9093 20.426 44.7869 20.426 44.7869C35.5847 51.8158 50.8149 48.9808 62.0669 44.0457C64.784 42.8558 67.2671 41.5424 69.4642 40.2159C75.5354 36.6332 80.8852 33.9933 85.5589 32.0622C90.7006 29.936 96.1089 28.538 101.634 27.9073C106.171 27.3936 109.512 27.3416 109.948 27.3351H110C104.254 23.3298 95.4913 22.504 86.0594 24.7538" fill="#1067B2"/>
</svg>