<svg width="120" height="106" viewBox="0 0 120 106" fill="none" xmlns="http://www.w3.org/2000/svg">
<path d="M8.29552 71.0738C10.4815 70.9803 12.6235 71.7112 14.3032 73.1238L12.8634 75.324C11.6531 74.3415 10.1509 73.796 8.59673 73.7748C7.85409 73.7264 7.10974 73.8381 6.41336 74.1025C5.71697 74.367 5.08457 74.778 4.55835 75.3082C4.03212 75.8383 3.62417 76.4755 3.36173 77.1771C3.09928 77.8787 2.98837 78.6287 3.03639 79.3769C3.00044 80.8668 3.54768 82.3112 4.55988 83.398C5.57209 84.4849 6.96802 85.1269 8.44613 85.1854C9.94964 85.1411 11.383 84.5348 12.4673 83.4844V81.5832H9.98832V79.0325H15.1089V87.5859H12.6194V86.0852H12.5697C11.2867 87.2385 9.62014 87.8635 7.90094 87.8363C6.82846 87.8421 5.76616 87.6267 4.77943 87.2033C3.79269 86.7799 2.90242 86.1575 2.16341 85.3744C1.42441 84.5914 0.852314 83.6642 0.482357 82.6499C0.112401 81.6357 -0.0475896 80.5559 0.012237 79.477C-0.00694034 78.3758 0.194212 77.2819 0.603696 76.2606C1.01318 75.2393 1.62261 74.3116 2.39564 73.5328C3.16866 72.754 4.08946 72.1399 5.1031 71.7274C6.11674 71.3148 7.20246 71.1122 8.29552 71.1315" fill="#4BC3DC"/>
<path d="M21.2566 71.3743H18.3273V87.6102H21.2566V71.3743Z" fill="#4BC3DC"/>
<path d="M24.9796 71.3743H30.1423C31.238 71.2937 32.3382 71.4489 33.3698 71.8295C34.173 72.2628 34.8429 72.9097 35.3066 73.6999C35.7704 74.49 36.0102 75.3932 35.9999 76.3111C35.9897 77.229 35.7298 78.1265 35.2485 78.9059C34.7673 79.6854 34.0831 80.3169 33.2704 80.7319C33.4841 80.9751 33.6677 81.2436 33.8171 81.5316L37.1439 87.5844H33.915L30.6875 81.5316H27.9088V87.5844H24.9796V71.3743ZM30.5399 78.9763C30.8804 79.0087 31.2237 78.9649 31.5455 78.8481C31.8672 78.7314 32.1594 78.5445 32.4012 78.3009C32.643 78.0573 32.8285 77.7629 32.9443 77.4387C33.0602 77.1146 33.1037 76.7686 33.0716 76.4256C33.0716 74.8248 32.4255 73.925 30.1423 73.925H27.9088V78.9763H30.5399Z" fill="#4BC3DC"/>
<path d="M39.7735 83.4283C40.877 84.4488 42.2988 85.0502 43.7947 85.1293C45.0356 85.1293 46.1275 84.4783 46.1275 83.1779C46.1275 80.2767 38.5325 80.7774 38.5325 75.7747C38.5325 73.0737 40.8654 71.0708 43.9438 71.0708C45.7099 71.0335 47.4271 71.6574 48.7631 72.8218L47.4724 75.2223C46.4688 74.3681 45.2113 73.8753 43.8986 73.8218C43.6113 73.7864 43.3199 73.8089 43.0413 73.8882C42.7628 73.9675 42.5027 74.1019 42.2763 74.2836C42.0498 74.4652 41.8616 74.6905 41.7225 74.9463C41.5835 75.202 41.4964 75.4831 41.4663 75.7731C41.4663 78.6744 49.0613 77.9233 49.0613 83.1263C49.0613 85.7271 47.1245 87.8772 43.7495 87.8772C42.7246 87.8969 41.7059 87.7127 40.7518 87.3352C39.7976 86.9576 38.9268 86.3942 38.1891 85.677L39.7735 83.4283Z" fill="#4BC3DC"/>
<path d="M55.462 73.925H50.1502V71.3743H63.6535V73.925H58.3913V87.6299H55.462V73.925Z" fill="#4BC3DC"/>
<path d="M65.3402 71.3743H68.2695V81.7774C68.3176 82.704 68.7185 83.5762 69.3887 84.2126C70.059 84.849 70.9469 85.2006 71.8679 85.1941C72.7888 85.1877 73.6718 84.8237 74.3332 84.178C74.9946 83.5323 75.3834 82.6545 75.4187 81.7273V71.3743H78.348V81.7774C78.348 85.4282 75.7169 87.8787 71.8449 87.8787C67.9728 87.8787 65.3417 85.4282 65.3417 81.7774L65.3402 71.3743Z" fill="#4BC3DC"/>
<path d="M89.1705 71.0738C91.3652 70.9967 93.503 71.7862 95.1284 73.274L93.7383 75.4742C92.5017 74.415 90.9422 73.8146 89.3196 73.7732C88.5897 73.7491 87.8629 73.8787 87.1856 74.1537C86.5083 74.4287 85.8954 74.8431 85.3861 75.3704C84.8768 75.8976 84.4823 76.5262 84.2279 77.2158C83.9734 77.9054 83.8646 78.641 83.9083 79.3754C83.8695 80.1182 83.9803 80.8613 84.234 81.5599C84.4877 82.2585 84.8792 82.8981 85.3848 83.4402C85.8903 83.9824 86.4996 84.4158 87.1758 84.7144C87.8521 85.013 88.5813 85.1707 89.3196 85.1778C91.0774 85.1138 92.7458 84.3807 93.9883 83.1263L95.5275 85.2765C94.7032 86.1307 93.7145 86.8064 92.6219 87.2622C91.5294 87.718 90.3559 87.9444 89.1735 87.9273C88.0723 87.9452 86.9786 87.7425 85.9558 87.3311C84.933 86.9196 84.0015 86.3076 83.2154 85.5306C82.4292 84.7535 81.8041 83.8268 81.3763 82.8044C80.9484 81.782 80.7264 80.6841 80.7231 79.5745C80.7198 78.4649 80.9353 77.3657 81.3571 76.3407C81.7788 75.3157 82.3985 74.3853 83.18 73.6035C83.9615 72.8217 84.8894 72.2041 85.9097 71.7865C86.93 71.3689 88.0225 71.1597 89.1238 71.1709L89.1705 71.0738ZM85.4008 67.2698H87.7834L88.925 69.121H88.9747L90.1163 67.2698H92.4989L90.3648 70.3713H87.4852L85.4008 67.2698Z" fill="#4BC3DC"/>
<path d="M100.638 71.3743H97.7083V87.6102H100.638V71.3743Z" fill="#4BC3DC"/>
<path d="M111.659 71.0799C112.753 71.0529 113.841 71.2484 114.859 71.6549C115.876 72.0613 116.802 72.6703 117.581 73.4454C118.359 74.2204 118.975 75.1457 119.39 76.1659C119.806 77.1861 120.013 78.2803 119.999 79.383C119.999 80.4865 119.784 81.5792 119.364 82.5987C118.945 83.6183 118.331 84.5446 117.556 85.3249C116.782 86.1053 115.863 86.7242 114.851 87.1465C113.839 87.5688 112.754 87.7862 111.659 87.7862C110.564 87.7862 109.479 87.5688 108.467 87.1465C107.455 86.7242 106.536 86.1053 105.761 85.3249C104.987 84.5446 104.372 83.6183 103.953 82.5987C103.534 81.5792 103.318 80.4865 103.318 79.383C103.305 78.2803 103.512 77.1861 103.927 76.1659C104.343 75.1457 104.958 74.2204 105.737 73.4454C106.516 72.6703 107.441 72.0613 108.459 71.6549C109.476 71.2484 110.565 71.0529 111.659 71.0799ZM111.659 85.1915C112.389 85.1725 113.108 85.0061 113.774 84.702C114.439 84.398 115.037 83.9626 115.532 83.4216C116.027 82.8805 116.41 82.2449 116.657 81.5522C116.904 80.8595 117.011 80.124 116.971 79.389C117.008 78.6646 116.898 77.9402 116.647 77.2601C116.397 76.5801 116.011 75.9588 115.513 75.4342C115.016 74.9097 114.418 74.4931 113.755 74.2098C113.092 73.9265 112.379 73.7826 111.659 73.7869C110.943 73.7952 110.235 73.9476 109.578 74.2352C108.921 74.5228 108.328 74.9398 107.833 75.4617C107.338 75.9836 106.952 76.5998 106.696 77.2743C106.441 77.9487 106.322 78.6677 106.347 79.389C106.292 80.8672 106.819 82.3073 107.814 83.3946C108.81 84.4819 110.192 85.1279 111.659 85.1915Z" fill="#4BC3DC"/>
<path d="M8.94463 59.0699C8.94463 59.0699 21.2566 39.7628 38.6319 38.0133C56.0072 36.2637 64.7935 43.5153 69.9578 45.4165C75.122 47.3178 85.1493 53.2189 91.6449 53.7196C99.886 54.3706 112.495 49.6682 112.495 49.6682C109.44 52.7283 105.815 55.1485 101.827 56.7893C97.839 58.43 93.5682 59.2588 89.2609 59.2277C75.3103 59.1776 69.3539 57.8772 56.4952 53.0762C43.6365 48.2753 34.6574 49.1311 28.0489 51.0263C21.4403 52.9215 8.94463 59.0699 8.94463 59.0699Z" fill="#4BC3DC"/>
<path d="M18.0788 57.6208C18.0788 57.6208 30.4405 50.7182 44.3896 52.4192C49.3618 53.3006 54.2116 54.7779 58.8356 56.8196C63.6366 58.8755 68.7656 60.0443 73.9774 60.2701C73.9774 60.2701 59.3823 63.5719 50.7933 62.1714C44.2405 61.1214 40.6666 58.0198 34.5596 57.07C29.0568 56.3268 23.4696 56.513 18.0276 57.6208" fill="#4BC3DC"/>
<path d="M30.192 96.2835H33.5671C35.2554 96.2835 36.4963 97.1833 36.4963 98.734C36.5124 99.1488 36.4142 99.5599 36.2127 99.922C36.0113 100.284 35.7143 100.583 35.3547 100.786C35.8208 100.938 36.2241 101.242 36.5022 101.648C36.7804 102.055 36.918 102.543 36.8939 103.036C36.8939 104.937 35.3548 105.787 33.6168 105.787H30.192V96.2835ZM33.5671 100.185C33.7254 100.192 33.8834 100.166 34.0312 100.108C34.1789 100.05 34.3131 99.9618 34.4251 99.8489C34.5372 99.736 34.6247 99.6008 34.6821 99.452C34.7394 99.3032 34.7654 99.1439 34.7584 98.9844C34.7738 98.8229 34.7535 98.66 34.6991 98.5073C34.6447 98.3547 34.5574 98.216 34.4436 98.1013C34.3297 97.9866 34.1921 97.8987 34.0406 97.8439C33.889 97.789 33.7273 97.7686 33.5671 97.7841H31.8803V100.185H33.5671ZM33.7177 104.336C33.9187 104.375 34.1258 104.369 34.3242 104.317C34.5225 104.266 34.7071 104.172 34.8649 104.04C35.0227 103.909 35.1498 103.744 35.237 103.557C35.3242 103.371 35.3694 103.167 35.3694 102.961C35.3694 102.754 35.3242 102.551 35.237 102.364C35.1498 102.177 35.0227 102.013 34.8649 101.881C34.7071 101.75 34.5225 101.655 34.3242 101.604C34.1258 101.553 33.9187 101.546 33.7177 101.585H31.8803V104.336H33.7177Z" fill="#4BC3DC"/>
<path d="M43.3986 103.386H40.0717L39.278 105.837H37.4903L40.8172 96.2774H42.6109L45.9378 105.837H44.1923L43.3986 103.386ZM41.7073 97.9344C41.6017 98.4415 41.469 98.9424 41.3097 99.4351L40.4663 101.986H42.9483L42.1049 99.4351C41.9588 98.8842 41.7073 97.9344 41.7073 97.9344Z" fill="#4BC3DC"/>
<path d="M47.617 103.385C48.2698 103.99 49.1134 104.344 49.9996 104.385C50.7436 104.385 51.3897 103.984 51.3897 103.235C51.3897 101.534 46.9212 101.834 46.9212 98.8827C46.9394 98.4879 47.0374 98.1009 47.2094 97.7456C47.3813 97.3903 47.6235 97.0741 47.9211 96.8165C48.2186 96.5589 48.5653 96.3653 48.9398 96.2475C49.3144 96.1298 49.7088 96.0904 50.099 96.1317C51.135 96.0849 52.1488 96.4432 52.9289 97.1317L52.1849 98.5322C51.6028 98.024 50.8696 97.7251 50.1005 97.6825C49.3068 97.6825 48.6607 98.1377 48.6607 98.8327C48.6607 100.534 53.1292 100.133 53.1292 103.184C53.1224 103.581 53.0341 103.971 52.8699 104.331C52.7057 104.691 52.4691 105.013 52.1751 105.276C51.8811 105.54 51.5361 105.739 51.1619 105.861C50.7877 105.983 50.3924 106.025 50.0011 105.986C49.3966 105.998 48.7957 105.89 48.2331 105.666C47.6706 105.443 47.1576 105.11 46.7239 104.685L47.617 103.385Z" fill="#4BC3DC"/>
<path d="M54.8656 96.2835H60.5254V97.7841H56.5539V100.285H59.7814V101.785H56.5539V104.336H60.7242V105.837H54.8656V96.2835Z" fill="#4BC3DC"/>
<path d="M64.2483 96.2835H62.5104V105.826H64.2483V96.2835Z" fill="#4BC3DC"/>
<path d="M66.5812 96.2835H68.3192L71.8931 101.785C72.1865 102.27 72.4516 102.771 72.6868 103.286H72.7365C72.7365 103.286 72.6371 102.386 72.6371 101.785V96.2835H74.3253V105.843H72.6371L69.0632 100.341C68.7696 99.8568 68.5046 99.3557 68.2695 98.8402H68.2198C68.2198 98.8402 68.3192 99.74 68.3192 100.341V105.843H66.5812V96.2835Z" fill="#4BC3DC"/>
<path d="M81.4761 103.386H78.1492L77.3555 105.837H75.5678L78.8947 96.2774H80.6884L84.0138 105.837H82.2261L81.4761 103.386ZM79.7848 97.9344C79.6792 98.4415 79.5465 98.9424 79.3872 99.4351L78.5438 101.986H81.0258L80.1824 99.4351C80.0363 98.8842 79.7848 97.9344 79.7848 97.9344Z" fill="#4BC3DC"/>
<path d="M85.6945 103.385C86.3473 103.99 87.1909 104.344 88.0771 104.385C88.8211 104.385 89.4672 103.984 89.4672 103.235C89.4672 101.534 84.9987 101.834 84.9987 98.8827C85.0169 98.4879 85.1149 98.1009 85.2869 97.7456C85.4588 97.3903 85.701 97.0741 85.9986 96.8165C86.2961 96.5589 86.6428 96.3653 87.0173 96.2475C87.3919 96.1298 87.7863 96.0904 88.1765 96.1317C89.2125 96.0849 90.2263 96.4432 91.0064 97.1317L90.2624 98.5322C89.6803 98.024 88.9471 97.7251 88.178 97.6825C87.3843 97.6825 86.7382 98.1377 86.7382 98.8327C86.7382 100.534 91.2067 100.133 91.2067 103.184C91.1999 103.581 91.1116 103.971 90.9474 104.331C90.7832 104.691 90.5466 105.013 90.2526 105.276C89.9586 105.54 89.6136 105.739 89.2394 105.861C88.8652 105.983 88.4699 106.025 88.0786 105.986C87.4741 105.998 86.8732 105.89 86.3106 105.666C85.7481 105.443 85.2351 105.11 84.8014 104.685L85.6945 103.385Z" fill="#4BC3DC"/>
<path d="M38.0867 22.7075C40.9166 26.4585 42.1079 29.3096 41.9588 31.66C41.8452 32.9916 41.4199 34.2771 40.7178 35.411C46.4387 34.9944 52.1858 35.6904 57.6458 37.4609C55.9977 33.542 55.0563 29.3584 54.8656 25.1065C54.9731 22.1812 55.3217 19.2699 55.9078 16.4028C56.0447 15.6977 56.0407 14.9722 55.8958 14.2688C55.751 13.5653 55.4684 12.898 55.0644 12.3059L52.3837 8.36073C52.3837 8.36073 51.59 13.013 49.0086 15.2633C46.4272 17.5135 43.9453 18.4149 36.5972 16.1631C32.1485 14.8246 27.5994 13.8518 22.9946 13.2543C22.9946 13.2543 35.2569 19.0066 38.0867 22.7075Z" fill="#4BC3DC"/>
<path d="M60.5751 38.6126C64.4472 40.2635 67.3267 42.0131 69.5105 42.8142C71.6943 43.6154 74.4805 45.0144 77.6025 46.465C76.7409 44.3251 76.3677 42.0175 76.5106 39.7127C76.4112 34.6113 78.9429 30.1093 82.3195 26.4084C87.1388 21.1067 101.035 16.9051 101.035 16.9051C95.5689 17.0382 90.1228 17.6239 84.7517 18.6561C75.6175 20.2069 71.2485 18.7563 67.9231 15.5546C64.5977 12.3529 65.6881 2.10005 65.6881 2.10005C65.6881 2.10005 57.5464 12.5032 57.7452 24.7089C57.8958 32.7616 59.7317 37.1135 60.5751 38.6688" fill="#4BC3DC"/>
<path d="M50.0493 8.15285C50.0493 9.57753 49.63 10.9702 48.8443 12.1548C48.0587 13.3393 46.9421 14.2625 45.6356 14.8077C44.3292 15.3528 42.8916 15.4954 41.5048 15.2173C40.1179 14.9393 38.844 14.2531 37.8443 13.2456C36.8445 12.2381 36.1637 10.9545 35.888 9.55715C35.6123 8.15981 35.7541 6.71149 36.2955 5.39534C36.8368 4.0792 37.7534 2.95435 38.9293 2.16306C40.1052 1.37177 41.4875 0.949576 42.9016 0.949876C44.7977 0.949876 46.6161 1.70876 47.9568 3.05958C49.2976 4.4104 50.0508 6.2425 50.0508 8.15285" fill="#4BC3DC"/>
<path d="M84.5529 8.30307C84.5529 9.94527 84.0696 11.5506 83.164 12.916C82.2585 14.2814 80.9714 15.3457 79.4656 15.9741C77.9597 16.6026 76.3027 16.767 74.7041 16.4466C73.1054 16.1262 71.637 15.3354 70.4845 14.1742C69.3319 13.013 68.547 11.5336 68.229 9.92292C67.9111 8.31228 68.0743 6.64281 68.698 5.12562C69.3218 3.60844 70.3781 2.31167 71.7333 1.39932C73.0885 0.486967 74.6819 0 76.3118 0C78.4975 0 80.5937 0.874785 82.1392 2.43191C83.6847 3.98904 84.5529 6.10096 84.5529 8.30307Z" fill="#4BC3DC"/>
<path d="M18.0788 57.6208C18.0788 57.6208 30.4405 50.7182 44.3895 52.4192C49.3617 53.3006 54.2115 54.7779 58.8356 56.8196C63.6365 58.8755 68.7655 60.0443 73.9774 60.2701C73.9774 60.2701 59.3822 63.5719 50.7932 62.1714C44.2404 61.1213 40.6666 58.0198 34.5595 57.0699C29.0568 56.3268 23.4696 56.5129 18.0276 57.6208" fill="#E6E318"/>
<path d="M38.0867 22.7075C40.9166 26.4585 42.1078 29.3096 41.9587 31.66C41.8452 32.9916 41.4199 34.2771 40.7178 35.411C46.4387 34.9944 52.1857 35.6904 57.6458 37.4609C55.9977 33.542 55.0562 29.3584 54.8656 25.1065C54.973 22.1812 55.3216 19.2699 55.9078 16.4028C56.0447 15.6977 56.0406 14.9722 55.8958 14.2687C55.751 13.5653 55.4683 12.898 55.0644 12.3059L52.3836 8.36073C52.3836 8.36073 51.5899 13.013 49.0086 15.2633C46.4272 17.5135 43.9452 18.4149 36.5972 16.1631C32.1485 14.8246 27.5993 13.8518 22.9945 13.2543C22.9945 13.2543 35.2568 19.0066 38.0867 22.7075Z" fill="#E6E318"/>
<path d="M50.0492 8.15285C50.0492 9.57753 49.6299 10.9702 48.8443 12.1548C48.0587 13.3393 46.942 14.2625 45.6356 14.8077C44.3291 15.3528 42.8916 15.4954 41.5047 15.2173C40.1179 14.9393 38.844 14.2531 37.8442 13.2456C36.8444 12.2381 36.1637 10.9545 35.888 9.55715C35.6123 8.15981 35.7541 6.71148 36.2954 5.39534C36.8368 4.07919 37.7533 2.95435 38.9292 2.16306C40.1051 1.37177 41.4875 0.949575 42.9015 0.949875C44.7976 0.949875 46.6161 1.70876 47.9568 3.05958C49.2975 4.4104 50.0508 6.2425 50.0508 8.15285" fill="#E6E318"/>
</svg>
