<svg width="168" height="36" viewBox="0 0 168 36" fill="none" xmlns="http://www.w3.org/2000/svg">
<path d="M165.286 0H101.343C95.8134 0 90.4849 2.25 86.5639 6.23864L75.002 18L86.5639 29.8636C90.3844 33.8523 95.7129 36 101.142 36H165.185C166.693 36 167.799 34.7727 167.799 33.2386V2.65909C167.9 1.22727 166.794 0 165.286 0ZM110.19 27H99.9355C98.4275 27 97.3215 25.7727 97.3215 24.3409V9H100.84V23.7273H110.19V27ZM117.228 27H113.609V9H117.128V27H117.228ZM138.341 24.75C138.341 25.9773 137.336 27 136.129 27C135.426 27 134.822 26.6932 134.32 26.0795L125.975 14.9318V27H122.456V11.25C122.456 10.0227 123.462 9 124.668 9C125.372 9 125.975 9.30682 126.478 9.92045L134.822 21.0682V9H138.341V24.75ZM155.031 27L148.697 19.6364H147.088V27H143.569V9H147.088V16.2614H148.797L154.629 9H159.052L151.612 17.7955L159.555 27H155.031Z" fill="#F8423A"/>
<path d="M63.5404 6.23864C59.6194 2.25 54.2908 0 48.6607 0H2.614C1.20646 0 0 1.22727 0 2.65909V33.2386C0 34.7727 1.20646 36 2.614 36H48.7612C54.1903 36 59.5189 33.75 63.3393 29.8636L75.0018 18L63.5404 6.23864ZM20.6104 27H11.3609C9.85278 27 8.74686 25.7727 8.74686 24.3409V9.10227H12.2657V23.7273H20.6104V27ZM28.8546 12.375V27H25.3357V12.375H18.298V9.10227H26.2406C27.7487 9.10227 28.8546 10.3295 28.8546 11.7614V12.375ZM35.9928 12.375H31.0664V9.10227H35.9928V12.375ZM45.6445 27.4091C40.7181 27.4091 36.395 23.9318 36.395 18.1023C36.395 12.6818 40.316 8.79545 45.7451 8.79545C48.5601 8.79545 50.8725 9.81818 52.4812 11.5568L49.9677 14.1136C48.9623 12.9886 47.5548 12.2727 45.7451 12.2727C42.5278 12.2727 40.2154 14.7273 40.2154 18.2045C40.2154 21.8864 42.6284 24.1364 45.7451 24.1364C48.6607 24.1364 50.2693 22.7045 50.772 20.1477H46.2478V17.1818H52.2801C53.386 17.1818 54.2908 18.2045 54.1903 19.3295C53.8887 22.1932 52.3806 27.4091 45.6445 27.4091Z" fill="black"/>
</svg>
