<svg xmlns="http://www.w3.org/2000/svg" width="390.424" height="53.13" viewBox="0 0 390.424 53.13"><g transform="translate(-528.576 -288.435)"><rect width="390.422" height="53.13" transform="translate(528.576 288.435)" fill="none"/><g transform="translate(528.576 288.43)"><path d="M228.8,22.72c2.5-1,2.5-2.24,2.19-3.52a11.452,11.452,0,0,0-11.54-9.92c-7.49,0-13.1,6.08-13.1,13.76,0,8.32,5.3,13.76,13.41,13.76,6.86,0,10.92-3.52,10.92-6.08,0-1.92-2.19-2.56-2.81-2.56-1.25,2.56-3.43,4.48-8.11,4.48a8.154,8.154,0,0,1-8.42-7.87v-.13a8.044,8.044,0,0,1,0-3.84c.62-4.48,3.74-7.36,8.11-7.36a6.573,6.573,0,0,1,6.86,5.76v.32c-4.37,1.92-12.16,1.92-13.1,1.92v3.2a38.73,38.73,0,0,0,15.59-1.92M371,28.8s-1.87.64-1.87,2.24c0,2.56,3.74,5.76,10.61,5.76s10.6-3.2,10.6-8.32c0-5.76-5.3-6.72-9.36-7.68s-6.24-1.6-6.24-3.84,1.88-3.52,5.62-3.52A8.389,8.389,0,0,1,387.55,17h.32c0,.32,1.87-.64,1.87-2.56,0-2.24-3.12-5.12-9.67-5.12s-10.29,3.2-10.29,8.32c0,5.44,5.3,6.72,9,7.36,4.05,1,6.55,1.6,6.55,4.16,0,2.24-1.87,3.52-5.61,3.52-4.06,0-6.87-1.6-8.43-3.84H371M356.36,9.28c-7.48,0-13.1,5.76-13.1,13.76s5.31,13.76,13.1,13.76,10.92-4.8,10.92-7a2.57,2.57,0,0,0-2.52-2.62,3.053,3.053,0,0,0-.6.06,7.78,7.78,0,0,1-7.8,5.12c-4.67,0-8.11-3.84-8.11-9.28s3.44-9.28,8.11-9.28a7.78,7.78,0,0,1,7.8,5.12c.31.32,3.12,0,3.12-2.24,0-2.56-3.43-7.36-10.92-7.36M334.53,33.6c0,2.24,1.25,2.56,2.5,2.56h.62c1.25,0,2.18-.32,2.18-2.56V12.16c0-1.92-.93-2.56-2.18-2.56H337a2.324,2.324,0,0,0-2.51,2.1,3.527,3.527,0,0,0,0,.46l.03,21.44Zm-.31-30.72a3.12,3.12,0,1,0,6.24.02h0c0-1.89-1.25-2.89-3.12-2.89s-3.12,1-3.12,2.88M307.09,33.61c0,2.24.93,2.56,2.18,2.56h.62c1.25,0,2.5-.32,2.5-2.56v-15a7.791,7.791,0,0,1,7.17-4.48c3.43,0,5.62,2.56,5.62,7V33.61c0,2.24.93,2.56,2.49,2.56h.62c1.25,0,2.19-.32,2.19-2.56V20.49c0-6.4-3.12-11.2-9.67-11.2a10.392,10.392,0,0,0-8.73,4.48c0-3.2-1.56-4.16-3.12-4.16-.94,0-1.87.32-1.87,1v23Zm-16.22-1.28c-5,0-8.74-3.84-8.74-9.28s3.75-9.28,8.74-9.28,8.42,3.84,8.42,9.28-3.74,9.28-8.42,9.28m0-23c-7.8,0-13.41,5.76-13.41,13.76s5.3,13.76,13.41,13.76,13.41-5.76,13.41-13.76-5.61-13.8-13.41-13.8M261.55,33.61c0,2.24.94,2.56,2.5,2.56h.31c1.56,0,2.49-.32,2.49-2.56v-9c0-6.08,1.56-10.24,5.62-10.24a5.607,5.607,0,0,1,3.43,1.28,3.544,3.544,0,0,0,1.56-2.88c0-2.24-1.56-3.52-4.37-3.52a6.071,6.071,0,0,0-6.24,4.8c0-3.52-1.87-4.48-3.43-4.48-.93,0-1.87.32-1.87,1ZM234.11,12.17c0-1.92.93-2.56,2.49-2.56h.31c1.56,0,2.5.64,2.5,2.56V25.01c0,4.48,2.18,7,5.92,7a7.778,7.778,0,0,0,7.18-4.48V12.16c0-1.92.93-2.56,2.18-2.56h.62a2.324,2.324,0,0,1,2.51,2.1,3.527,3.527,0,0,1,0,.46V35.52c0,.32-.94.64-1.87.64-1.87,0-3.43-.64-3.43-3.84a10.257,10.257,0,0,1-8.42,4.48c-6.86,0-10-4.8-10-11.2l.02-13.44Z" fill="#115194" fill-rule="evenodd"/><path d="M340.27,44.11c-2,0-3.3,1.14-3.3,3.44a3.133,3.133,0,0,0,2.92,3.33h.38a3.41,3.41,0,0,0,2.25-.74V48.52H340v-2h4.55v4.53A4.885,4.885,0,0,1,340.26,53c-4.06,0-5.6-2.81-5.6-5.49a5.24,5.24,0,0,1,4.93-5.52c.23-.01.46-.01.68,0a4.986,4.986,0,0,1,3.93,1.62l-1.46,1.38a3.683,3.683,0,0,0-2.47-.89Z" fill="#115194"/><path d="M353.17,52.76l-2.7-3.46h-1.7v3.46h-2.34V42.23h5a3.566,3.566,0,0,1,3.88,3.22c.01.11.02.22.02.33a3.164,3.164,0,0,1-2.44,3.31l2.89,3.49v.18h-2.61Zm-4.4-5.45h2.68A1.464,1.464,0,0,0,353,45.94v-.1a1.542,1.542,0,0,0-1.48-1.6h-2.75v3.07Z" fill="#115194"/><path d="M362.35,53c-3.37,0-5.69-2.09-5.69-5.52S359,42,362.35,42,368,44.06,368,47.49,365.72,53,362.35,53Zm0-8.93A3.3,3.3,0,0,0,359,47.32v.17a3.39,3.39,0,1,0,3.39-3.41h-.04Z" fill="#115194"/><path d="M379.23,48.12c0,3.19-1.84,4.89-4.71,4.89a4.539,4.539,0,0,1-4.89-4.16,4.451,4.451,0,0,1,0-.73V42.24H372v5.88c0,1.82,1,2.79,2.59,2.79s2.34-1.18,2.34-2.79V42.24h2.34l-.04,5.88Z" fill="#115194"/><path d="M383.77,52.76h-2.35V42.23h5a3.631,3.631,0,0,1,4,3.77c0,2.12-1.36,3.73-4,3.78H383.8Zm2.62-5.13a1.59,1.59,0,0,0,0-3.18h-2.62v3.18Z" fill="#115194"/><path d="M196.5,26.93c0-1,1.26-1.27,1.26,0,.31,2.23.94,8.6.94,9.55a.849.849,0,0,1-.55,1.07.84.84,0,0,1-1.02-.43c-.31-.32-5.64-6-6-6.37a1,1,0,0,0-1.25-.32c-.31,0-6,2.23-8.46,3.19-1.89.63-2.51-.64-1.57-1.91,1.25-1.91,4.7-7,5-7.33s.32-.63-.31-1.27a33.827,33.827,0,0,0-4.7-5.09c-.63-1-1.88-1.91-1.57-2.87a1.605,1.605,0,0,1,1.57-1.27c1.25.32,7.21,2.23,9.09,2.54.31,0,.63-.31.94-1.27,2.2-2.86,3.76-5.41,4.39-6.37,1.25-1.59,2.51-1.27,2.82.64a78.152,78.152,0,0,0,.63,8.91,1.3,1.3,0,0,0,.94,1.28,21.28,21.28,0,0,0,6,1.27v.32a10.42,10.42,0,0,0-.32,2.55c.32.31,0,.31,0,.31a33.377,33.377,0,0,1-8.15-2.54,2.225,2.225,0,0,1-1.25-1.59c0-.32-.32-5.1-.32-6.69-.94,1.59-3.13,5.09-3.45,5.41a1.761,1.761,0,0,1-2.37.72.914.914,0,0,1-.13-.08,46.652,46.652,0,0,1-5.33-1.59c.62,1.27,3.45,4.14,3.76,4.77a1.767,1.767,0,0,1,.94,1.59c0,.32-.63,1-.94,1.28-.31.63-3.14,4.14-4.08,5.41,1.57-.64,6-2.55,6.9-2.86a1.387,1.387,0,0,1,1.87.61v.02c1.26,1.28,4.4,4.46,5.01,5.73l-.32-7.32" fill="#fbcd09" fill-rule="evenodd"/><path d="M0,9.67v6.56H11.37V36.04h8.08V16.23H30.82V9.67Z" fill="#115194"/><path d="M63.5,24.28c0,3.82-.81,5.28-4.63,5.28H48.52c-3.82,0-4.62-1.46-4.62-5.28V21.43c0-3.28.8-5.28,5.06-5.28h9.47c4.26,0,5.07,2,5.07,5.28Zm8.3-5.36c0-7.72-4.33-9.54-11.62-9.54h-13c-7.28,0-11.62,1.82-11.62,9.54v7.87c0,7.72,4.34,9.55,11.62,9.55h13c7.29,0,11.62-1.83,11.62-9.55V18.92Z" fill="#115194" fill-rule="evenodd"/><path d="M101.78,20.05c0,1.57-.73,2.81-2.62,2.81H86.59V16.23H98.47c2.43,0,3.31,1,3.31,2.8v1.02ZM100.54,9.67h-22V36h8.09V29.41H102.7c5.72,0,7.43-4.51,7.43-8.45V18.7c0-5.17-1.86-9-9.55-9" fill="#115194" fill-rule="evenodd"/><path d="M124,21.43c0-3.28.8-5.28,5.06-5.28h9.48c4.26,0,5.06,2,5.06,5.28v2.85c0,3.82-.8,5.28-4.63,5.28H128.63c-3.83,0-4.63-1.46-4.63-5.28V21.43Zm3.32,14.91h13c7.29,0,11.63-1.83,11.63-9.55V18.92c0-7.72-4.34-9.54-11.63-9.54h-13c-7.29,0-11.62,1.82-11.62,9.54v7.87c0,7.72,4.33,9.55,11.62,9.55" fill="#115194" fill-rule="evenodd"/><path d="M8.71,50.4H5.35c-1.5,0-1.81-.56-1.81-2.06V47.23c0-1.27.31-2.06,2-2.06H9c.93,0,1.47.21,1.47.95v.29h3.16c0-2.91-.56-3.88-5.05-3.88H4.83C2,42.53.3,43.24.3,46.25v3.07C.3,52.33,2,53,4.83,53H9.92c3.17,0,3.79-1.36,3.79-3.09V49H10.56c0,1.28-.42,1.42-1.85,1.42" fill="#115194" fill-rule="evenodd"/><path d="M27.31,48.81h7.67V46.68H27.31V45.03h8.1V42.64H24.15V52.93H35.59V50.46H27.31V48.81Z" fill="#115194" fill-rule="evenodd"/><path d="M56.87,50.12h-.02l-5.93-7.48H46.03V52.93h3.15V45.45h.03l5.93,7.48h4.89V42.64H56.87Z" fill="#115194" fill-rule="evenodd"/><path d="M69.94,45.2h4.44v7.73h3.15V45.2h4.44V42.64H69.94V45.2Z" fill="#115194" fill-rule="evenodd"/><path d="M101.41,46.62c0,.74-.31,1.08-1.17,1.08H95V45.2h5c1,0,1.45.17,1.45,1.08l-.04.34Zm0-4H91.87V52.93H95V50.25h5c1,0,1.3.37,1.3,1.45v1.23h3.15V51.18c0-1.69-.78-2.1-1.72-2.27h0c1.45-.34,1.76-1.15,1.76-2.53V45.7c0-1.85-.65-3.06-3.08-3.06" fill="#115194" fill-rule="evenodd"/><path d="M119.76,48.9l2-3.87,2,3.87Zm-.05-6.26-5.57,10.29h3.52l.92-1.82H125l1,1.82h3.51l-5.66-10.29h-4.14Z" fill="#115194" fill-rule="evenodd"/><path d="M145.88,46.53c-3.38,0-3.77,0-3.77-.9,0-.56.48-.8,1.2-.8h3.49c1.45,0,1.53.32,1.53,1.07h3.16v-.33c0-1.81-.34-3-4-3H143.1c-4,0-4.14,1.43-4.14,3.3,0,2.52.54,3.1,5.29,3.1,4.06,0,4.43,0,4.43,1s-.68.86-1.35.86h-3.87c-.91,0-1.35-.08-1.36-1.18H139v.71c0,2.24,1.14,2.77,4,2.77h3.83c4.19,0,5.13-.45,5.13-3.22,0-3-1.14-3.3-6-3.29" fill="#115194" fill-rule="evenodd"/></g></g></svg>