<?xml version="1.0" encoding="UTF-8"?>
<svg version="1.1" viewBox="0 0 2048 1692" width="916" height="757" xmlns="http://www.w3.org/2000/svg">
<path transform="translate(1827,10)" d="m0 0h34l21 2 26 6 21 8 23 12 14 10 15 13 8 8 9 11 11 16 8 14 8 19 6 21 3 15 1 9 1 20v1303l-2 19-4 20-9 27-9 19-11 18-11 14-9 10-4 5-8 7-10 9-18 12-18 10-19 8-17 5-21 4-7 1-18 1h-1799l-9-2-9-5-7-8-4-10v-1326l4-11 7-8 8-5 7-2 1757-1 1-272 4-10 7-8 7-5zm33 63-1 4v1131l1 76 27 6 20 7 18 8 18 11 12 9 14 12 4 2v-1150l-2-18-5-19-7-17-10-16-12-14-14-11-13-8-17-7-17-4zm-729 297-1056 1v1252l1 1h1753l20-1 25-5 16-6 16-8 17-12 13-12 9-11 9-13 8-16 5-13 3-12 2-13v-32l-4-20-6-18-11-21-10-14-11-12-11-10-15-10-17-9-17-6-21-4-24-2-10-3-9-6-6-9-2-5-1-6v-944l-12-1z"/>
<path transform="translate(966,492)" d="m0 0h17l19 2 19 4 18 6 21 10 15 10 10 8 10 9 8 8 11 14 10 16 10 21 5 15 4 18 2 15v9l38 1 8 3 7 6 5 8 1 4v227l73-1v-121l4-11 5-6 9-5 5-1 31-1 4-10 34-102 15-43 5-10 4-5 8-5 8-2 11 1 8 4 7 7 5 11 16 47 14 42 14 41 8 23 1 1 33 1 10 4 6 5 5 9 1 6v563l36 1 10 3 9 7 5 9 1 3v12l-4 9-7 8-8 4-8 2h-1236l-10-4-6-5-6-10-1-4v-12l3-8 8-9 8-4 5-1h35v-414l4-10 7-8 8-4 47-16 60-20 41-14 93-31 76-26 28-9v-109l2-13 5-8 8-7 5-2 7-1h32l4-30 6-21 5-13 8-16 10-16 12-14 8-9 11-9 12-9 17-10 19-8 16-5 22-4zm-4 56-20 4-14 5-15 8-13 10-12 12-10 14-8 15-5 15-3 17v9l19 1h208v-11l-3-16-7-19-8-14-8-10-9-10-14-11-16-9-19-7-17-3zm449 149-14 41-7 21v2h43l-2-9-12-37-6-17zm-608 16-1 1v292l1 344 116-1 1-105 5-9 5-4 7-3h78l9 5 5 6 2 7 1 103h116v-635zm530 103v90l31 1 10 4 6 5 5 10 1 423h105v-532zm-590 41-132 44-41 14-111 37-20 7v390l83 1h155l70-1v-492zm461 104v385l1 3h148v-387l-15-1z"/>
<path transform="translate(173,453)" d="m0 0h204l11 4 10 9 4 8 1 3v14l-4 10-6 7-12 6-10 1h-48l-114-1v172l-3 10-6 8-7 6-9 3h-12l-10-4-7-6-6-11-1-4v-212l6-12 8-7z"/>
<path transform="translate(175,1291)" d="m0 0h7l10 3 8 6 5 6 4 9 1 131v36l169 1 10 4 9 8 5 10 1 5v7l-3 10-6 9-9 6-6 2h-209l-9-4-8-7-5-10-1-3v-205l4-9 6-8 12-6z"/>
<path transform="translate(587,990)" d="m0 0h9l9 3 8 6 5 8 2 7v204l-3 9-8 9-8 4-4 1h-12l-10-5-7-8-4-10v-206l4-9 7-8 8-4z"/>
<path transform="translate(494,990)" d="m0 0h12l8 3 10 9 4 9v209l-5 10-5 5-8 5-4 1h-12l-9-4-6-5-5-8-2-11 1-202 3-8 7-8 8-4z"/>
<path transform="translate(679,990)" d="m0 0h8l9 3 6 4 6 7 3 7v209l-5 10-5 5-8 5-4 1h-13l-10-5-6-7-4-9v-210l5-9 7-7z"/>
<path transform="translate(1071,907)" d="m0 0h14l9 4 5 4 5 8 2 7v80l-4 11-6 7-10 5-10 1-9-2-9-6-6-9-2-9v-78l4-10 7-8z"/>
<path transform="translate(1074,747)" d="m0 0h7l10 3 8 6 5 8 2 8v77l-2 8-6 10-10 6-4 1h-12l-10-4-7-7-4-8-1-5v-76l2-9 6-10 9-6z"/>
<path transform="translate(971,906)" d="m0 0h9l9 3 7 5 6 10 1 3v86l-4 9-6 7-8 4-5 1h-8l-10-3-9-8-4-8-1-3v-85l5-10 5-5 8-5z"/>
<path transform="translate(868,906)" d="m0 0h10l10 4 7 6 4 7 1 4v85l-3 8-6 8-10 5-4 1h-8l-10-3-9-8-4-8-1-3v-85l5-10 7-7 6-3z"/>
<path transform="translate(1071,1066)" d="m0 0h14l10 5 7 8 3 6 1 5v77l-3 10-4 6-7 6-9 3h-11l-8-3-6-4-6-9-2-7v-79l3-9 4-6 7-6z"/>
<path transform="translate(865,1066)" d="m0 0h15l10 5 7 8 3 7 1 25v32l-1 28-4 10-7 7-10 4-6 1-10-2-8-4-6-7-4-9v-83l3-9 8-9z"/>
<path transform="translate(867,747)" d="m0 0h10l9 3 9 8 4 8 1 3v84l-4 10-7 7-9 4h-14l-8-3-8-7-4-8-1-3v-84l4-10 5-6 9-5z"/>
<path transform="translate(973,747)" d="m0 0 11 1 9 5 7 8 3 9v82l-3 8-6 8-9 5-4 1h-10l-11-4-6-5-6-12v-85l5-10 7-7 7-3z"/>
<path transform="translate(968,1066)" d="m0 0h15l10 5 7 8 3 8v84l-3 8-6 7-6 4-7 2h-11l-10-4-7-6-4-8-1-3v-84l4-9 7-8z"/>
<path transform="translate(1257,1090)" d="m0 0h44l10 2 8 5 7 8 3 10-1 11-5 9-8 7-8 3-9 1h-37l-12-2-9-6-5-6-4-10v-9l4-11 7-7 9-4z"/>
<path transform="translate(1254,997)" d="m0 0h49l10 3 9 6 6 10 1 11-2 9-6 8-8 6-7 2h-52l-9-3-9-8-4-8-1-4v-8l3-9 4-6 8-6z"/>
<path transform="translate(1252,1184)" d="m0 0h55l8 3 9 8 4 9v15l-5 9-8 7-7 3h-57l-10-5-7-8-3-8v-12l4-9 6-7 7-4z"/>
<path transform="translate(1428,1185)" d="m0 0h36l1 1v51h-48v-51z"/>
<path transform="translate(1417,856)" d="m0 0h47v51l-1 1h-45l-1-1z"/>
<path transform="translate(1427,998)" d="m0 0h36l1 1v51h-47v-51z"/>
<path transform="translate(1435,1092)" d="m0 0 29 1v51h-47v-51z"/>
</svg>
