<?xml version="1.0" encoding="UTF-8"?>
<!DOCTYPE svg PUBLIC "-//W3C//DTD SVG 1.1//EN" "http://www.w3.org/Graphics/SVG/1.1/DTD/svg11.dtd">
<svg xmlns="http://www.w3.org/2000/svg" version="1.1" width="512px" height="512px" style="shape-rendering:geometricPrecision; text-rendering:geometricPrecision; image-rendering:optimizeQuality; fill-rule:evenodd; clip-rule:evenodd" xmlns:xlink="http://www.w3.org/1999/xlink">
<g><path style="opacity:0.99" fill="#fff" d="M 118.5,-0.5 C 122.5,-0.5 126.5,-0.5 130.5,-0.5C 136.125,1.41268 140.292,5.07934 143,10.5C 144.42,20.0862 144.92,29.7529 144.5,39.5C 174.5,39.5 204.5,39.5 234.5,39.5C 234.08,29.7529 234.58,20.0862 236,10.5C 238.708,5.07934 242.875,1.41268 248.5,-0.5C 252.5,-0.5 256.5,-0.5 260.5,-0.5C 266.125,1.41268 270.292,5.07934 273,10.5C 274.42,20.0862 274.92,29.7529 274.5,39.5C 304.833,39.5 335.167,39.5 365.5,39.5C 365.08,29.7529 365.58,20.0862 367,10.5C 369.708,5.07934 373.875,1.41268 379.5,-0.5C 383.5,-0.5 387.5,-0.5 391.5,-0.5C 397.125,1.41268 401.292,5.07934 404,10.5C 405.42,20.0862 405.92,29.7529 405.5,39.5C 420.211,39.1063 434.878,39.6063 449.5,41C 483.535,50.8635 504.202,73.0302 511.5,107.5C 511.5,151.5 511.5,195.5 511.5,239.5C 506.751,251.045 498.084,255.545 485.5,253C 478.333,251.167 473.833,246.667 472,239.5C 471.667,199.5 471.333,159.5 471,119.5C 468.5,95.6667 455.333,82.5 431.5,80C 422.84,79.5002 414.173,79.3336 405.5,79.5C 405.92,89.2471 405.42,98.9138 404,108.5C 396.78,119.726 386.947,122.56 374.5,117C 370.338,114.188 367.505,110.355 366,105.5C 365.5,96.8397 365.334,88.1731 365.5,79.5C 335.167,79.5 304.833,79.5 274.5,79.5C 274.92,89.2471 274.42,98.9138 273,108.5C 265.78,119.726 255.947,122.56 243.5,117C 239.338,114.188 236.505,110.355 235,105.5C 234.5,96.8397 234.334,88.1731 234.5,79.5C 204.5,79.5 174.5,79.5 144.5,79.5C 144.92,89.2471 144.42,98.9138 143,108.5C 135.78,119.726 125.947,122.56 113.5,117C 109.338,114.188 106.505,110.355 105,105.5C 104.5,96.8397 104.334,88.1731 104.5,79.5C 92.0593,78.9905 79.726,79.8238 67.5,82C 53.3937,87.1058 44.5604,96.9392 41,111.5C 39.8504,166.143 39.3504,220.81 39.5,275.5C 39.6667,327.5 39.8333,379.5 40,431.5C 41.4013,451.813 51.9013,464.647 71.5,470C 128.2,470.979 184.867,471.979 241.5,473C 250.989,478.437 254.489,486.603 252,497.5C 249.983,504.682 245.483,509.348 238.5,511.5C 181.5,511.5 124.5,511.5 67.5,511.5C 38.2429,506.099 17.4096,489.765 5,462.5C 2.6729,456.172 0.839566,449.838 -0.5,443.5C -0.5,331.5 -0.5,219.5 -0.5,107.5C 6.79813,73.0302 27.4648,50.8635 61.5,41C 75.7887,39.6092 90.122,39.1092 104.5,39.5C 104.08,29.7529 104.58,20.0862 106,10.5C 108.708,5.07934 112.875,1.41268 118.5,-0.5 Z"/></g>
<g><path style="opacity:0.95" fill="#fff" d="M 118.5,189.5 C 139.319,188.469 147.486,198.136 143,218.5C 136.547,228.986 127.38,232.153 115.5,228C 105.014,221.547 101.847,212.38 106,200.5C 108.708,195.079 112.875,191.413 118.5,189.5 Z"/></g>
<g><path style="opacity:0.95" fill="#fff" d="M 205.5,189.5 C 226.319,188.469 234.486,198.136 230,218.5C 223.547,228.986 214.38,232.153 202.5,228C 192.014,221.547 188.847,212.38 193,200.5C 195.708,195.079 199.875,191.413 205.5,189.5 Z"/></g>
<g><path style="opacity:0.95" fill="#fff" d="M 292.5,189.5 C 313.319,188.469 321.486,198.136 317,218.5C 310.547,228.986 301.38,232.153 289.5,228C 279.014,221.547 275.847,212.38 280,200.5C 282.708,195.079 286.875,191.413 292.5,189.5 Z"/></g>
<g><path style="opacity:0.95" fill="#fff" d="M 379.5,189.5 C 400.319,188.469 408.486,198.136 404,218.5C 397.547,228.986 388.38,232.153 376.5,228C 366.014,221.547 362.847,212.38 367,200.5C 369.708,195.079 373.875,191.413 379.5,189.5 Z"/></g>
<g><path style="opacity:0.971" fill="#fff" d="M 511.5,375.5 C 511.5,385.5 511.5,395.5 511.5,405.5C 502.958,456.221 474.291,490.054 425.5,507C 418.741,508.715 412.075,510.215 405.5,511.5C 395.5,511.5 385.5,511.5 375.5,511.5C 327.679,503.189 294.512,476.523 276,431.5C 258.872,371.207 275.706,323.041 326.5,287C 357.617,268.841 390.617,264.508 425.5,274C 474.291,290.946 502.958,324.779 511.5,375.5 Z M 378.5,310.5 C 421.266,307.81 450.766,326.143 467,365.5C 477.048,406.379 464.548,438.212 429.5,461C 391.537,478.473 358.037,472.306 329,442.5C 308.163,414.903 304.83,385.237 319,353.5C 332.433,330.21 352.266,315.877 378.5,310.5 Z"/></g>
<g><path style="opacity:0.95" fill="#fff" d="M 118.5,276.5 C 139.319,275.469 147.486,285.136 143,305.5C 136.547,315.986 127.38,319.153 115.5,315C 105.014,308.547 101.847,299.38 106,287.5C 108.708,282.079 112.875,278.413 118.5,276.5 Z"/></g>
<g><path style="opacity:0.95" fill="#fff" d="M 205.5,276.5 C 226.319,275.469 234.486,285.136 230,305.5C 223.547,315.986 214.38,319.153 202.5,315C 192.014,308.547 188.847,299.38 193,287.5C 195.708,282.079 199.875,278.413 205.5,276.5 Z"/></g>
<g><path style="opacity:0.98" fill="#fff" d="M 384.5,329.5 C 396.986,327.32 405.486,331.986 410,343.5C 410.5,352.494 410.666,361.494 410.5,370.5C 431.043,367.473 440.543,376.14 439,396.5C 437.167,403.667 432.667,408.167 425.5,410C 411.833,410.667 398.167,410.667 384.5,410C 377.333,408.167 372.833,403.667 371,396.5C 370.333,378.833 370.333,361.167 371,343.5C 373.017,336.318 377.517,331.652 384.5,329.5 Z"/></g>
<g><path style="opacity:0.95" fill="#fff" d="M 118.5,363.5 C 139.319,362.469 147.486,372.136 143,392.5C 136.547,402.986 127.38,406.153 115.5,402C 105.014,395.547 101.847,386.38 106,374.5C 108.708,369.079 112.875,365.413 118.5,363.5 Z"/></g>
<g><path style="opacity:0.95" fill="#fff" d="M 205.5,363.5 C 226.319,362.469 234.486,372.136 230,392.5C 223.547,402.986 214.38,406.153 202.5,402C 192.014,395.547 188.847,386.38 193,374.5C 195.708,369.079 199.875,365.413 205.5,363.5 Z"/></g>
</svg>
