<?xml version="1.0" encoding="UTF-8"?>
<svg version="1.1" viewBox="0 0 2000 1992" width="501" height="498" xmlns="http://www.w3.org/2000/svg">
<path transform="translate(778,11)" d="m0 0h156l67 3 58 4 37 4 49 7 36 7 25 7 28 11 19 9 22 12 26 15 26 16 22 14 42 28 16 11 23 16 14 10 11 8 14 10 38 28 21 16 34 25 15 10 16 9 15 6 27 8 48 13 45 14 35 12 21 8 27 11 28 13 23 12 21 13 14 10 11 9 12 11 10 10 9 11 10 13 11 17 9 16 8 20 5 17 2 12 1 14v15l-3 28-6 35v14l4 8 8 10 3 5 1 4v11l-4 12-7 10-10 8-15 6-18 5-39 7-49 5-35 2h-17l-1-10v-20l-2-22-5-24-8-24-12-25-10-16-9-12-9-11-9-10-8-7-13-11-21-14-25-13-22-8-25-6-23-3h-39l-26 4-22 6-20 8-16 8-11 6-16 11-10 8-12 11-8 8-9 11-9 12-13 21-10 21-8 24-4 18-3 23-1 25-1 8-2 2-5 1h-726l-9-1-1-1-1-29-3-24-5-22-8-24-9-19-11-18-10-14-11-13-9-10-8-7-15-12-15-10-16-9-20-9-24-8-20-4-25-3h-21l-26 3-26 6-22 8-23 11-16 10-12 9-14 12-14 14-9 11-10 14-9 15-8 16-8 21-6 21-4 26-2 24-1 2-8-1-28-8-28-10-30-13-21-11-14-10-9-9-8-14-4-17-2-22v-54l2-15 4-12 6-10 11-13 7-10 6-13 4-16 2-15 3-49 3-33 4-28 6-28 7-21 7-13 11-12 14-8 21-7 23-6 21-7 20-9 15-9 19-14 10-9 8-7 15-14 8-8 8-7 56-56 18-22 12-17 3-4h2l1-3 11-7 15-6 25-6 42-8 50-8 38-5 52-6 57-5 65-4zm102 51-1 1v16l7 58 9 68 9 66 4 21 5 13 4 6 8 7 13 4 25 2 486 20h35l13-4 9-8 2-5v-9l-4-11-8-11-14-14-11-9-10-9-14-11-13-10-36-26-12-8-10-7-24-16-20-13-24-15-22-13-29-16-23-12-16-8-26-11-30-10-33-8-35-6-39-5-46-4-32-2-30-1zm-90 1-55 2-57 4-49 5-44 6-35 6-21 5-16 6-15 8-13 10-12 11-16 16-18 22-11 15-10 15-11 19-6 15-3 11-1 12 3 11 6 8 8 7 10 5 15 5 26 5 36 5 49 5 62 5 67 4 82 4 28 1h40l6-3 5-8 1-6v-21l-4-55-4-52-8-88-3-17-1-3zm-284 312-21 3-11 4-9 6-3 4v8l6 7 12 6 20 4 14 1h23l15-1 19-4 10-4 6-4 3-5-1-7-6-7-13-6-19-4-9-1zm489 20-23 2-16 4-9 5-4 5-1 7 4 6 9 6 14 4 21 3h38l20-3 12-4 9-6 2-4-1-8-9-8-15-5-20-3-15-1zm805 12-14 1-12 4-9 7-4 7-1 4v11l4 13 7 12 9 11 8 8 14 10 15 8 18 6 18 3 30 2h40l12-2 5-4-1-8-8-16-8-12-9-11-13-13-13-10-18-11-19-9-21-7-16-3z" fill="#2054A4"/>
<path transform="translate(481,1380)" d="m0 0h54l34 3 38 6 74 14 104 21 54 11 94 20 21 6 14 7 8 6 5 5 8 9 5 9 4 9 2 10v21l-4 16-8 16-8 10-11 9-11 5-14 4-17 1-39-3-104-10-84-9-22-1h-3l4 8 11 11 11 9 15 13 11 9 16 13 13 11 11 9 14 12 10 8 13 11 11 9 17 14 14 12 16 13 10 6 14 3 73 10 75 11 233 34 121 18 30 5 14 4 15 8 10 8 9 9 9 14 5 11 3 13v24l-4 16-5 11-9 14-11 11-14 9-14 6-15 2-403 1h-218l-41-1-16-2-14-4-15-8-20-14-18-13-19-13-13-10-19-13-13-10-17-12-18-13-14-10-18-13-17-12-20-14-34-24-18-13-17-12-14-10-17-12-11-6-3-1-44-1-83-1-1-1v-312l4-3 26-8 56-15 28-7 37-8 30-5 26-3z" fill="#2054A4"/>
<path transform="translate(1446,1076)" d="m0 0h25l32 3 25 5 27 8 22 9 16 8 18 10 12 8 12 9 13 11 13 12 12 13 9 11 13 18 11 19 8 16 8 19 7 20 6 24 4 27v46l-4 30-7 28-7 20-8 19-12 22-10 16-12 16-9 11-11 12-9 9-11 9-15 12-15 10-21 12-19 9-22 8-22 6-25 5-17 2h-41l-26-3-23-5-23-7-25-10-16-8-16-9-16-11-14-11-13-12-20-20-8-10-14-19-12-21-11-22-8-21-6-19-5-25-3-23v-39l2-21 5-25 7-24 11-27 10-20 12-19 10-14 12-14 7-7 6-7 8-7 11-10 20-15 13-8 22-12 21-9 21-7 19-5 23-4zm15 84-20 3-21 6-21 10-14 10-13 11-10 11-10 14-11 21-6 15-8 26-2 9-34 1-4 8-7 22v2l41 1-1 13v28l-28 1-4 8-8 25 1 1h44l3 17 7 24 8 19 8 15 8 11 12 14 10 9 17 12 16 8 16 6 22 5 22 2 21-1 19-3 17-5 15-6 12-7 2-5-1-62-6 3-15 10-15 8-18 6-9 2-9 1h-13l-17-3-12-5-11-7-9-9-7-10-7-15-6-19-3-14h20l72-1 8-26 1-6-3-1-103-1v-41l100-1 3-5 7-26v-2l-104-1 3-12 6-17 10-18 11-13 11-8 10-5 14-4 6-1h17l17 3 18 6 17 8 9 6h1l6-57v-5l-8-5-19-7-17-5-19-2z" fill="#2054A4"/>
<path transform="translate(15,1398)" d="m0 0h160l4 1 1 4v498l-1 1h-165l-1-3v-498z" fill="#2054A4"/>
<path transform="translate(1453,1006)" d="m0 0 34 1 28 3 26 5 23 6 21 7 21 9 16 8 17 9 22 14 17 13 13 11 13 12 17 17 9 11 10 12 11 16 13 21 15 29 10 25 7 21 7 29 4 25 2 23v32l-3 34-5 28-5 21-9 27-13 30-14 25-14 21-10 13-9 11-9 10-14 15-13 12-11 9-10 8-17 12-20 12-23 12-24 10-33 11-25 6-26 4-20 2h-38l-31-3-29-5-20-5-29-10-25-11-25-13-19-12-19-14-14-12-10-9-13-12-11-12-12-14-13-18-12-19-10-18-8-16-9-21-11-33-6-29-4-27-1-17v-31l3-34 5-27 8-30 8-22 8-18 8-16 14-24 14-20 14-17 10-11 2-3h2l2-4 8-8 8-7 9-8 14-11 15-11 22-14 29-15 24-10 21-7 32-8 25-4 11-1zm-1 39-34 3-23 4-24 6-21 7-23 10-22 12-19 12-16 12-11 9-12 11-19 19-11 14-8 10-10 15-10 17-8 16-8 19-10 29-5 22-4 27-2 24v21l3 29 6 31 8 27 9 24 10 21 14 23 10 14 11 14 11 12 7 8 9 9 8 7 15 12 14 10 16 10 18 10 21 10 21 8 25 7 25 5 29 3h42l27-3 28-6 26-8 20-8 26-13 23-14 16-12 14-11 7-7 8-7 10-10 7-8 11-13 13-18 8-13 12-23 9-20 11-33 6-28 3-25 1-17v-17l-2-29-4-24-6-25-10-29-9-20-9-17-10-16-12-17-11-13-9-11-15-15-8-7-18-14-24-16-21-12-29-13-27-9-30-7-21-3-24-2z" fill="#2054A4"/>
<path transform="translate(376,559)" d="m0 0h39l21 4 17 5 18 8 16 9 14 10 14 12 11 12 11 15 12 21 8 20 5 19 2 12 1 17v11l-2 25-6 24-9 22-12 20-13 17-17 17-18 13-16 9-18 8-19 6-22 4-22 1-23-2-23-5-25-10-18-10-16-12-16-15-10-12-9-13-9-16-7-16-5-15-3-14-2-19v-19l2-19 4-20 5-15 8-18 8-14 10-14 11-12 6-7 11-9 17-12 15-8 20-8 20-5zm8 98-12 3-16 8-10 8-9 10-9 16-4 12-1 7v18l4 16 7 14 8 10 10 9 10 6 12 5 14 3h14l19-5 12-6 13-10 8-9 7-12 4-12 2-17-1-15-4-14-8-15-12-13-11-8-16-7-9-2z" fill="#2054A4"/>
<path transform="translate(1558,559)" d="m0 0h41l22 4 21 7 21 10 14 9 14 11 8 7 7 8 12 15 11 18 8 17 6 18 4 20 1 12v27l-2 18-5 21-8 20-10 19-8 11-11 14-13 13-16 12-19 11-15 7-22 7-23 4h-33l-24-4-17-5-15-6-19-10-14-10-14-12-14-15-12-17-10-18-8-21-4-14-4-29v-21l5-29 5-17 9-21 8-14 10-14 12-13 12-12 15-11 19-11 11-5 21-7 16-3zm11 98-16 4-15 8-12 11-7 9-6 10-5 15-1 4v22l5 18 8 14 9 10 8 7 12 7 16 5 7 1h15l16-4 16-8 13-11 2-4h2l8-13 5-14 2-12v-14l-3-15-5-12-6-9-9-10-7-6-10-6-12-5-10-2z" fill="#2054A4"/>
</svg>
