<?xml version="1.0" encoding="UTF-8"?>
<svg version="1.1" viewBox="0 0 2048 925" width="611" height="276" xmlns="http://www.w3.org/2000/svg">
<path transform="translate(629,163)" d="m0 0h110l56 3 37 3 38 5 31 6 40 10 22 8 19 9 27 16 21 13 19 12 30 20 17 12 18 13 19 14 12 9 17 13 16 12 18 13 11 8 1 1v98l-1 93-25 6-17 6-23 12-14 10-13 11-14 14-9 12-9 15-8 16-6 15-6 21-3 18-1 34-2 1h-489l-88-1-1-1-1-36-4-23-6-20-7-16-8-14-12-17-11-12v-2l-3-1v-2l-4-2-10-9-16-11-23-12-25-9-18-4-8-1h-35l-19 3-21 6-19 8-17 10-13 10-13 12-11 11-11 15-12 21-7 17-6 20-5 31-1 15-2 1-37-11-21-8-19-9-13-8-10-9-7-8-5-12-2-11-1-24v-28l1-15 3-10 6-10 11-14 5-11 4-17 3-29 3-39 3-28 4-22 4-15 5-12 7-10 8-7 15-6 36-9 19-7 14-8 12-9 13-11 13-12 8-8 8-7 30-30 7-8 8-8 9-11 14-18 7-8 8-5 19-5 56-10 46-7 43-5 55-5 49-3zm61 39-15 1-1 1 1 16 9 72 6 43 6 40 3 11 5 10 5 4 12 5 22 2 59 3 218 9 80 4h54l7-3 7-6 3-8-1-9-4-8-8-10-8-8-14-11-18-14-18-13-16-12-44-29-17-11-21-13-22-12-17-9-27-12-15-6-24-8-29-6-41-6-38-4-33-2-36-1zm-81 1-38 2-70 6-53 6-31 5-16 5-14 7-11 9-12 11-15 15-11 14-10 13-12 21-6 16-2 9v9l4 10 4 5 11 7 15 5 26 5 46 6 41 4 51 3 106 5h19l8-4 5-7 1-4v-25l-3-45-5-59-5-48-2-5-1-1zm-224 242-16 3-9 5-5 6-1 5 3 6 9 6 16 5 15 2h23l16-3 13-5 7-6-1-6-6-7-12-6-16-4-9-1zm375 15-18 2-11 4-7 6-2 7 3 7 9 6 16 4 9 1h33l17-4 11-6 3-4-1-7-4-5-9-5-12-4-19-2z" fill="#D90B0B"/>
<path transform="translate(1305,14)" d="m0 0h594l16 2 12 5 10 8 6 9 4 9 1 6 1 30v186l-1 151-3 7-14 17-11 13-11 14-10 12-3 5h-2l-1-413-2-4-3-1-29-1h-570l-6 3-2 3v764l2 5 6 1h111l490-1 3-1 1-197 9-11 16-21 6-6 5 1 14 6 4 3v240l-1 11-6 12-9 10-12 6-14 3-24 1h-608l-14-2-11-4-9-7-7-9-5-10-1-4-1-472v-336l2-12 6-12 8-9 10-6 14-3z" fill="#D90B0B"/>
<path transform="translate(300,592)" d="m0 0 23 1 16 3 20 7 13 7 13 9 12 11 11 11 9 13 9 16 6 15 4 15 2 12v27l-4 22-6 18-10 19-9 12-11 12-8 8-16 11-17 9-18 6-16 3-7 1h-18l-25-4-16-5-12-5-14-8-16-13-9-9-10-13-9-15-6-14-4-16-3-21v-26l3-19 5-16 9-19 12-17 11-12 11-10 15-10 15-7 20-6 11-2zm-4 76-15 4-11 6-10 9-8 13-4 14v21l5 16 7 11 6 7 10 7 8 4 10 3 7 1h9l14-3 14-7 12-11 7-11 4-11 2-14-1-15-4-13-7-11-10-10-16-8-11-2z" fill="#D90B0B"/>
<path transform="translate(1204,596)" d="m0 0 3 1v75l-12 8-8 7-7 11-4 9-3 15 1 16 4 13 6 11 7 7 15 10 1 1v77l-9-1-17-5-18-8-13-9-12-11-11-12-11-16-8-17-5-16-3-16-1-9v-22l2-16 6-21 10-21 10-14 11-13 13-11 11-7 14-7 17-6z" fill="#D90B0B"/>
<path transform="translate(1975,412)" d="m0 0 5 1 17 13 10 8 13 11 4 4-2 6-3 7 6 2 5 5 4 9v7l-3 10-8 14-14 19-12 16-14 19-12 16-10 13-8 9-7-4-5-4 1-4 9-13 9-12 14-18 10-13 14-18 10-14 8-12 1-9-3-10-3 1-10 13-8 10-24 32-13 18-13 17-8 11-11 14-2 1-17-12-13-10-14-11-7-6 7-11 11-14 16-21 12-16 10-13 14-19 13-17 10-13z" fill="#D90B0B"/>
<path transform="translate(1864,560)" d="m0 0 4 1 11 9 19 14 13 11 1 2-6 9-14 18-10 13-14 17-13 16-11 13-9 11-13 16-14 17-11 13-8 10-13 14-6-2-13-9-10-9-1-3 7-14 14-22 29-44 58-87z" fill="#D90B0B"/>
<path transform="translate(1559,274)" d="m0 0h249l17 1 5 4 3 6v8l-4 6-4 3-7 1h-281l-7-2-5-6-1-2v-8l4-7 4-3z" fill="#D90B0B"/>
<path transform="translate(1558,459)" d="m0 0 266 1 6 3 4 6v10l-4 6-4 3h-292l-7-5-3-7 1-7 5-7 4-2z" fill="#D90B0B"/>
<path transform="translate(1538,649)" d="m0 0h195l45 1 1 3-8 14-7 10h-224l-9-2-5-6-1-2v-7l5-8 2-2z" fill="#D90B0B"/>
<path transform="translate(1457,421)" d="m0 0h7l6 3 4 5 1 7-4 7-14 14-1 2h-2l-2 4-58 58-5 2h-10l-7-5-7-8-11-12-12-12-8-11v-7l4-6 4-3 6-1 9 4 21 21 5 6 5-1 30-30 2-3h2l1-3h2l2-4 23-23z" fill="#D90B0B"/>
<path transform="translate(1457,609)" d="m0 0h7l6 3 4 5 1 7-6 9-34 34-2 3h-2l-2 4-35 35-8 2-8-1-8-7-7-8-25-25-4-6v-6l3-6 5-4 7-1 8 4 25 25v2l4-1 12-11 17-17 5-6 5-4 2-3h2l2-4 18-18z" fill="#D90B0B"/>
<path transform="translate(1458,234)" d="m0 0 8 1 5 4 3 6-1 7-6 8-23 23-1 2h-2l-1 3-46 46-6 2h-6l-8-5-16-17-21-21-3-5v-6l5-8 5-3h6l9 6 17 17 7 8 4 1 27-27 7-8 15-15 7-8 9-8z" fill="#D90B0B"/>
<path transform="translate(2e3 393)" d="m0 0h8l10 5 13 11 5 5 3 4v8l-4 8-3 2-17-12-16-13-8-7 1-4z" fill="#D90B0B"/>
<path transform="translate(1744,756)" d="m0 0 5 2 13 10-2 4-16 8-5 1 1-10z" fill="#D90B0B"/>
</svg>
