<?xml version="1.0" encoding="UTF-8"?>
<svg version="1.1" viewBox="0 0 2020 1320" width="505" height="330" xmlns="http://www.w3.org/2000/svg">
<path transform="translate(796,26)" d="m0 0h150l69 3 50 4 44 5 44 7 28 6 25 7 30 11 27 13 23 13 18 10 21 13 25 16 17 11 19 12 43 30 72 52 55 42 19 14 15 10 15 8 29 9 48 13 47 14 40 13 34 13 30 13 19 10 14 7 17 10 17 12 10 8 14 12 12 12 18 22 12 18 11 19 7 16 5 16 3 16 2 22v9l-4 34-5 33v13l7 11 4 5 5 9 1 4v8l-4 13-6 10-9 8-16 7-28 7-32 5-38 4-41 3h-21l-1-1-1-34-3-26-6-24-7-20-9-19-11-18-13-17-12-14-15-15-14-11-18-12-23-12-20-8-16-5-19-4-24-3h-29l-23 3-25 6-20 7-22 11-20 13-14 11-10 9-14 14-11 14-13 18-8 15h-3l-4-25-7-30-7-23-11-28-13-26-12-20-8-12-11-15-9-11-8-10-12-13-8-8-8-7-13-11-18-13-27-18-23-13-22-10-16-6v-2l77 3 163 7 86 4h14l13-2 8-5 5-5 2-6v-10l-4-10-8-11-17-17-11-9-13-11-13-10-20-15-18-13-20-14-54-36-20-12-28-17-28-15-19-10-22-11-27-11-27-9-32-8-35-6-38-5-48-4-59-3-31-1h-45l-2 1-1 4 1 18 6 50 13 97 7 47 5 20 7 14 6 5-1 3-31 9-27 10-29 14-20 11-18 12-15 11-13 10-12 11-8 7-13 13-7 8-12 14-12 16-8 12-9 14-10 18-12 25-9 24-6 19-7 29-4 23-2 27-1 21v14l3 41 3 17v5h-25l-2-3-1-30-3-24-5-24-7-20-7-16-9-17-8-12-14-18-14-15-12-11-16-12-18-11-17-9-26-10-22-6-28-4h-38l-27 4-22 6-16 6-21 10-15 9-14 10-12 11-18 18-9 11-10 14-9 15-8 16-8 19-7 23-3 15-5 43-2 1-26-8-27-9-29-12-21-10-16-10-12-11-6-7-6-12-3-12-2-17-1-21v-34l1-16 3-14 7-14 11-14 8-10 7-14 4-17 2-21 2-40 4-44 4-30 5-23 6-18 7-13 8-10 8-7 16-8 30-8 26-8 21-9 14-8 14-10 11-9 14-12 13-12 7-7 8-7 52-52 1-2h2l2-4 9-9 9-11 14-18 9-11 9-7 12-6 18-5 39-8 52-9 49-7 66-7 73-6 48-3zm-24 52-47 2-55 4-50 5-45 6-35 6-23 6-15 6-16 10-10 8-10 9-18 18-9 11-11 13-12 17-7 11-12 23-6 18-1 7v13l4 11 7 9 11 7 15 6 22 5 49 7 46 5 63 5 52 3 96 4 56 2h9l10-4 4-5 3-7v-27l-7-93-4-51-5-50-3-17-2-3zm-261 313-22 2-14 3-12 5-6 5-2 4v9l3 5 8 6 10 4 15 3 19 2h26l21-2 12-3 10-5 5-4 3-6-1-7-6-7-10-6-20-5-14-2zm1284 34-10 2-8 4-8 9-3 9v14l3 10 6 11 9 11 6 7 11 9 15 10 16 7 15 4 21 3 35 2h21l14-1 9-3 3-4-1-8-5-12-8-14-9-11-11-12-10-9-14-10-13-8-22-10-19-6-15-3-10-1z" fill="#D90B0B"/>
<path transform="translate(988,364)" d="m0 0h47l27 3 32 7 21 6 28 11 29 14 25 15 17 12 11 9 10 9 13 12 10 10 7 8 11 13 13 18 13 21 14 27 8 19 10 30 5 21 4 25 3 31v27l-4 36-5 24-6 23-10 28-12 26-10 18-12 19-14 18-9 11-12 13-19 19-11 9-19 14-19 12-16 9-17 9-19 8-27 9-25 6-30 5-20 2h-41l-29-3-30-6-22-6-21-7-20-9-20-10-16-10-17-12-14-11-7-5-5 1-16 16-7 8-9 10-9 11-2 2 1 5 4 7 2 9v16l-2 8-5 10-7 9-11 12-205 205-8 7-12 8-14 5-10 2h-13l-16-4-12-7-12-11-8-7-11-12-9-14-4-10-1-5v-19l3-11 5-10 7-9 3-4h2l2-4 24-24 6-5 79-79h2l2-4 6-5 5-6 7-6 28-28 5-6 56-56 11-7 11-4 7-1h9l12 2 11 5 5-1 15-14 25-25h2l2-4 1-5-13-18-12-19-12-22-9-19-9-25-7-26-5-25-4-35v-34l3-29 5-28 8-30 7-19 9-20 12-23 12-19 14-19 13-15 5-6h2l2-4 15-15 8-7 16-13 17-12 15-9 14-8 28-13 27-10 24-7 24-5 22-3zm9 68-21 2-24 4-29 8-18 7-25 12-18 11-19 14-15 13-19 19-9 11-9 12-13 20-11 21-9 21-8 26-4 19-3 24v39l4 30 6 25 8 24 11 24 9 16 8 12 13 17 11 12 9 10 8 7 11 10 13 10 18 11 18 10 20 9 19 7 27 7 25 4 11 1h32l26-3 25-5 26-8 21-9 23-12 21-14 13-10 14-12 17-17 9-11 10-13 12-19 13-25 9-24 6-22 4-22 2-17v-40l-2-22-5-25-9-29-11-25-12-21-11-16-8-10-9-10-7-8-16-15-17-13-18-12-18-10-19-9-21-8-26-7-24-4-24-2z" fill="#D90B0B"/>
<path transform="translate(373,581)" d="m0 0h31l24 4 22 7 18 8 18 11 17 14 16 16 10 13 9 15 9 19 6 19 5 27 1 10v18l-2 17-4 20-6 20-12 25-10 14-7 9-9 10h-2v2l-8 7-17 13-18 10-20 8-21 6-17 3-12 1h-11l-20-2-21-4-18-6-21-10-12-8-11-8-14-12-10-11-10-13-11-19-8-18-4-13-4-22-1-7v-38l5-28 6-18 7-16 13-22 10-13 7-8h2l2-4 8-7 12-9 14-9 21-10 18-6 22-4zm4 97-14 3-16 8-11 9-9 10-8 14-4 13-1 7v20l3 16 6 14 10 13 9 8 15 9 15 5 6 1h23l15-4 9-4 11-7 12-12 8-12 6-16 2-12v-16l-2-12-5-14-8-13-11-12-13-8-11-5-14-3z" fill="#D90B0B"/>
<path transform="translate(1571,581)" d="m0 0h23l22 3 16 4 22 8 19 10 14 10 11 9 14 14 11 15 9 15 8 17 8 24 4 21 1 11v27l-3 23-7 24-8 18-9 16-10 14-11 12-11 11-19 14-21 11-18 7-21 5-24 3h-12l-19-2-25-5-16-5-21-10-15-10-13-10-8-7v-2l-4-2-7-8-10-13-9-15-8-18-6-19-4-19-2-23 1-21 4-24 4-15 5-14 8-16 8-13 8-11 11-13 9-9 13-10 15-10 21-10 21-7 21-4zm5 97-14 2-13 5-10 6-10 8-9 11-8 16-4 20v15l4 18 5 11 7 11 11 11 14 9 12 5 17 3 18-1 15-4 16-8 13-12 8-11 6-13 3-12 1-7v-19l-3-14-5-11-7-11-9-10-13-9-8-4-14-4-9-1z" fill="#D90B0B"/>
<path transform="translate(938,493)" d="m0 0 10 1 8 4 6 7 2 6v7l-3 9-4 5-10 5-16 7-13 7-18 12-13 11-6 6h-2l-2 4-9 10-10 15-11 23-6 19-3 15-6 11-6 5-2 1h-17l-8-4-4-5-3-7v-9l3-16 7-21 9-20 9-16 12-17 9-11 7-7 7-8h2v-2l8-7 15-12 17-11 15-8 13-5z" fill="#D90B0B"/>
</svg>
