<svg width="1920" height="723" viewBox="0 0 1920 723" fill="none" xmlns="http://www.w3.org/2000/svg">
<g opacity="0.1">
<path d="M45.6797 109.231L91.5455 183.089V73.8489L45.6797 0V109.231Z" stroke="#484848" stroke-miterlimit="10"/>
<path d="M45.6797 658.497L91.5455 732.356V623.116L45.6797 549.267V658.497Z" stroke="#484848" stroke-miterlimit="10"/>
<path d="M45.6797 292.32L91.5455 366.178V256.938L45.6797 183.089V292.32Z" stroke="#484848" stroke-miterlimit="10"/>
<path d="M45.6797 475.409L91.5455 549.267V440.027L45.6797 366.178V475.409Z" stroke="#484848" stroke-miterlimit="10"/>
<path d="M0 73.8489V183.089L45.6786 109.231V0L0 73.8489Z" stroke="#484848" stroke-miterlimit="10"/>
<path d="M0 623.116V732.356L45.6786 658.497V549.267L0 623.116Z" stroke="#484848" stroke-miterlimit="10"/>
<path d="M0 256.938V366.178L45.6786 292.32V183.089L0 256.938Z" stroke="#484848" stroke-miterlimit="10"/>
<path d="M0 440.027V549.267L45.6786 475.409V366.178L0 440.027Z" stroke="#484848" stroke-miterlimit="10"/>
<path d="M776.91 109.231L822.776 183.089V73.8489L776.91 0V109.231Z" stroke="#484848" stroke-miterlimit="10"/>
<path d="M776.91 658.497L822.776 732.356V623.116L776.91 549.267V658.497Z" stroke="#484848" stroke-miterlimit="10"/>
<path d="M776.91 292.32L822.776 366.178V256.938L776.91 183.089V292.32Z" stroke="#484848" stroke-miterlimit="10"/>
<path d="M776.91 475.409L822.776 549.267V440.027L776.91 366.178V475.409Z" stroke="#484848" stroke-miterlimit="10"/>
<path d="M731.234 73.8489V183.089L776.913 109.231V0L731.234 73.8489Z" stroke="#484848" stroke-miterlimit="10"/>
<path d="M731.234 623.116V732.356L776.913 658.497V549.267L731.234 623.116Z" stroke="#484848" stroke-miterlimit="10"/>
<path d="M731.234 256.938V366.178L776.913 292.32V183.089L731.234 256.938Z" stroke="#484848" stroke-miterlimit="10"/>
<path d="M731.234 440.027V549.267L776.913 475.409V366.178L731.234 440.027Z" stroke="#484848" stroke-miterlimit="10"/>
<path d="M411.293 109.231L457.159 183.089V73.8489L411.293 0V109.231Z" stroke="#484848" stroke-miterlimit="10"/>
<path d="M411.293 658.497L457.159 732.356V623.116L411.293 549.267V658.497Z" stroke="#484848" stroke-miterlimit="10"/>
<path d="M411.293 292.32L457.159 366.178V256.938L411.293 183.089V292.32Z" stroke="#484848" stroke-miterlimit="10"/>
<path d="M411.293 475.409L457.159 549.267V440.027L411.293 366.178V475.409Z" stroke="#484848" stroke-miterlimit="10"/>
<path d="M365.617 73.8489V183.089L411.296 109.231V0L365.617 73.8489Z" stroke="#484848" stroke-miterlimit="10"/>
<path d="M365.617 623.116V732.356L411.296 658.497V549.267L365.617 623.116Z" stroke="#484848" stroke-miterlimit="10"/>
<path d="M365.617 256.938V366.178L411.296 292.32V183.089L365.617 256.938Z" stroke="#484848" stroke-miterlimit="10"/>
<path d="M365.617 440.027V549.267L411.296 475.409V366.178L365.617 440.027Z" stroke="#484848" stroke-miterlimit="10"/>
<path d="M1142.71 109.231L1188.58 183.089V73.8489L1142.71 0V109.231Z" stroke="#484848" stroke-miterlimit="10"/>
<path d="M1142.71 658.497L1188.58 732.356V623.116L1142.71 549.267V658.497Z" stroke="#484848" stroke-miterlimit="10"/>
<path d="M1142.71 292.32L1188.58 366.178V256.938L1142.71 183.089V292.32Z" stroke="#484848" stroke-miterlimit="10"/>
<path d="M1142.71 475.409L1188.58 549.267V440.027L1142.71 366.178V475.409Z" stroke="#484848" stroke-miterlimit="10"/>
<path d="M1599.88 109.231L1645.74 183.089V73.8489L1599.88 0V109.231Z" stroke="#484848" stroke-miterlimit="10"/>
<path d="M1599.88 658.497L1645.74 732.356V623.116L1599.88 549.267V658.497Z" stroke="#484848" stroke-miterlimit="10"/>
<path d="M1599.88 292.32L1645.74 366.178V256.938L1599.88 183.089V292.32Z" stroke="#484848" stroke-miterlimit="10"/>
<path d="M1599.88 475.409L1645.74 549.267V440.027L1599.88 366.178V475.409Z" stroke="#484848" stroke-miterlimit="10"/>
<path d="M1096.85 73.8489V183.089L1142.71 109.231V0L1096.85 73.8489Z" stroke="#484848" stroke-miterlimit="10"/>
<path d="M1096.85 623.116V732.356L1142.71 658.497V549.267L1096.85 623.116Z" stroke="#484848" stroke-miterlimit="10"/>
<path d="M1096.85 256.938V366.178L1142.71 292.32V183.089L1096.85 256.938Z" stroke="#484848" stroke-miterlimit="10"/>
<path d="M1096.85 440.027V549.267L1142.71 475.409V366.178L1096.85 440.027Z" stroke="#484848" stroke-miterlimit="10"/>
<path d="M1554.2 73.8489V183.089L1599.87 109.231V0L1554.2 73.8489Z" stroke="#484848" stroke-miterlimit="10"/>
<path d="M1554.2 623.116V732.356L1599.87 658.497V549.267L1554.2 623.116Z" stroke="#484848" stroke-miterlimit="10"/>
<path d="M1554.2 256.938V366.178L1599.87 292.32V183.089L1554.2 256.938Z" stroke="#484848" stroke-miterlimit="10"/>
<path d="M1554.2 440.027V549.267L1599.87 475.409V366.178L1554.2 440.027Z" stroke="#484848" stroke-miterlimit="10"/>
<path d="M228.578 109.231L274.444 183.089V73.8489L228.578 0V109.231Z" stroke="#484848" stroke-miterlimit="10"/>
<path d="M228.578 658.497L274.444 732.356V623.116L228.578 549.267V658.497Z" stroke="#484848" stroke-miterlimit="10"/>
<path d="M228.578 292.32L274.444 366.178V256.938L228.578 183.089V292.32Z" stroke="#484848" stroke-miterlimit="10"/>
<path d="M228.578 475.409L274.444 549.267V440.027L228.578 366.178V475.409Z" stroke="#484848" stroke-miterlimit="10"/>
<path d="M182.902 73.8489V183.089L228.581 109.231V0L182.902 73.8489Z" stroke="#484848" stroke-miterlimit="10"/>
<path d="M182.902 623.116V732.356L228.581 658.497V549.267L182.902 623.116Z" stroke="#484848" stroke-miterlimit="10"/>
<path d="M182.902 256.938V366.178L228.581 292.32V183.089L182.902 256.938Z" stroke="#484848" stroke-miterlimit="10"/>
<path d="M182.902 440.027V549.267L228.581 475.409V366.178L182.902 440.027Z" stroke="#484848" stroke-miterlimit="10"/>
<path d="M959.625 109.231L1005.68 183.089V73.8489L959.625 0V109.231Z" stroke="#484848" stroke-miterlimit="10"/>
<path d="M959.625 658.497L1005.68 732.356V623.116L959.625 549.267V658.497Z" stroke="#484848" stroke-miterlimit="10"/>
<path d="M959.625 292.32L1005.68 366.178V256.938L959.625 183.089V292.32Z" stroke="#484848" stroke-miterlimit="10"/>
<path d="M959.625 475.409L1005.68 549.267V440.027L959.625 366.178V475.409Z" stroke="#484848" stroke-miterlimit="10"/>
<path d="M913.945 73.8489V183.089L959.624 109.231V0L913.945 73.8489Z" stroke="#484848" stroke-miterlimit="10"/>
<path d="M913.945 623.116V732.356L959.624 658.497V549.267L913.945 623.116Z" stroke="#484848" stroke-miterlimit="10"/>
<path d="M913.945 256.938V366.178L959.624 292.32V183.089L913.945 256.938Z" stroke="#484848" stroke-miterlimit="10"/>
<path d="M913.945 440.027V549.267L959.624 475.409V366.178L913.945 440.027Z" stroke="#484848" stroke-miterlimit="10"/>
<path d="M594.195 109.231L640.061 183.089V73.8489L594.195 0V109.231Z" stroke="#484848" stroke-miterlimit="10"/>
<path d="M594.195 658.497L640.061 732.356V623.116L594.195 549.267V658.497Z" stroke="#484848" stroke-miterlimit="10"/>
<path d="M594.195 292.32L640.061 366.178V256.938L594.195 183.089V292.32Z" stroke="#484848" stroke-miterlimit="10"/>
<path d="M594.195 475.409L640.061 549.267V440.027L594.195 366.178V475.409Z" stroke="#484848" stroke-miterlimit="10"/>
<path d="M548.332 73.8489V183.089L594.198 109.231V0L548.332 73.8489Z" stroke="#484848" stroke-miterlimit="10"/>
<path d="M548.332 623.116V732.356L594.198 658.497V549.267L548.332 623.116Z" stroke="#484848" stroke-miterlimit="10"/>
<path d="M548.332 256.938V366.178L594.198 292.32V183.089L548.332 256.938Z" stroke="#484848" stroke-miterlimit="10"/>
<path d="M548.332 440.027V549.267L594.198 475.409V366.178L548.332 440.027Z" stroke="#484848" stroke-miterlimit="10"/>
<path d="M1325.43 109.231L1371.3 183.089V73.8489L1325.43 0V109.231Z" stroke="#484848" stroke-miterlimit="10"/>
<path d="M1325.43 658.497L1371.3 732.356V623.116L1325.43 549.267V658.497Z" stroke="#484848" stroke-miterlimit="10"/>
<path d="M1325.43 292.32L1371.3 366.178V256.938L1325.43 183.089V292.32Z" stroke="#484848" stroke-miterlimit="10"/>
<path d="M1325.43 475.409L1371.3 549.267V440.027L1325.43 366.178V475.409Z" stroke="#484848" stroke-miterlimit="10"/>
<path d="M1782.59 109.231L1828.46 183.089V73.8489L1782.59 0V109.231Z" stroke="#484848" stroke-miterlimit="10"/>
<path d="M1782.59 658.497L1828.46 732.356V623.116L1782.59 549.267V658.497Z" stroke="#484848" stroke-miterlimit="10"/>
<path d="M1782.59 292.32L1828.46 366.178V256.938L1782.59 183.089V292.32Z" stroke="#484848" stroke-miterlimit="10"/>
<path d="M1782.59 475.409L1828.46 549.267V440.027L1782.59 366.178V475.409Z" stroke="#484848" stroke-miterlimit="10"/>
<path d="M1279.56 73.8489V183.089L1325.43 109.231V0L1279.56 73.8489Z" stroke="#484848" stroke-miterlimit="10"/>
<path d="M1279.56 623.116V732.356L1325.43 658.497V549.267L1279.56 623.116Z" stroke="#484848" stroke-miterlimit="10"/>
<path d="M1279.56 256.938V366.178L1325.43 292.32V183.089L1279.56 256.938Z" stroke="#484848" stroke-miterlimit="10"/>
<path d="M1279.56 440.027V549.267L1325.43 475.409V366.178L1279.56 440.027Z" stroke="#484848" stroke-miterlimit="10"/>
<path d="M1736.91 73.8489V183.089L1782.59 109.231V0L1736.91 73.8489Z" stroke="#484848" stroke-miterlimit="10"/>
<path d="M1736.91 623.116V732.356L1782.59 658.497V549.267L1736.91 623.116Z" stroke="#484848" stroke-miterlimit="10"/>
<path d="M1736.91 256.938V366.178L1782.59 292.32V183.089L1736.91 256.938Z" stroke="#484848" stroke-miterlimit="10"/>
<path d="M1736.91 440.027V549.267L1782.59 475.409V366.178L1736.91 440.027Z" stroke="#484848" stroke-miterlimit="10"/>
<path d="M137.223 109.231L183.088 183.089V73.8489L137.223 0V109.231Z" stroke="#484848" stroke-miterlimit="10"/>
<path d="M137.223 658.497L183.088 732.356V623.116L137.223 549.267V658.497Z" stroke="#484848" stroke-miterlimit="10"/>
<path d="M137.223 292.32L183.088 366.178V256.938L137.223 183.089V292.32Z" stroke="#484848" stroke-miterlimit="10"/>
<path d="M137.223 475.409L183.088 549.267V440.027L137.223 366.178V475.409Z" stroke="#484848" stroke-miterlimit="10"/>
<path d="M91.5469 73.8489V183.089L137.226 109.231V0L91.5469 73.8489Z" stroke="#484848" stroke-miterlimit="10"/>
<path d="M91.5469 623.116V732.356L137.226 658.497V549.267L91.5469 623.116Z" stroke="#484848" stroke-miterlimit="10"/>
<path d="M91.5469 256.938V366.178L137.226 292.32V183.089L91.5469 256.938Z" stroke="#484848" stroke-miterlimit="10"/>
<path d="M91.5469 440.027V549.267L137.226 475.409V366.178L91.5469 440.027Z" stroke="#484848" stroke-miterlimit="10"/>
<path d="M868.645 109.231L914.323 183.089V73.8489L868.645 0V109.231Z" stroke="#484848" stroke-miterlimit="10"/>
<path d="M868.645 658.497L914.323 732.356V623.116L868.645 549.267V658.497Z" stroke="#484848" stroke-miterlimit="10"/>
<path d="M868.645 292.32L914.323 366.178V256.938L868.645 183.089V292.32Z" stroke="#484848" stroke-miterlimit="10"/>
<path d="M868.645 475.409L914.323 549.267V440.027L868.645 366.178V475.409Z" stroke="#484848" stroke-miterlimit="10"/>
<path d="M822.777 73.8489V183.089L868.643 109.231V0L822.777 73.8489Z" stroke="#484848" stroke-miterlimit="10"/>
<path d="M822.777 623.116V732.356L868.643 658.497V549.267L822.777 623.116Z" stroke="#484848" stroke-miterlimit="10"/>
<path d="M822.777 256.938V366.178L868.643 292.32V183.089L822.777 256.938Z" stroke="#484848" stroke-miterlimit="10"/>
<path d="M822.777 440.027V549.267L868.643 475.409V366.178L822.777 440.027Z" stroke="#484848" stroke-miterlimit="10"/>
<path d="M502.84 109.231L548.706 183.089V73.8489L502.84 0V109.231Z" stroke="#484848" stroke-miterlimit="10"/>
<path d="M502.84 658.497L548.706 732.356V623.116L502.84 549.267V658.497Z" stroke="#484848" stroke-miterlimit="10"/>
<path d="M502.84 292.32L548.706 366.178V256.938L502.84 183.089V292.32Z" stroke="#484848" stroke-miterlimit="10"/>
<path d="M502.84 475.409L548.706 549.267V440.027L502.84 366.178V475.409Z" stroke="#484848" stroke-miterlimit="10"/>
<path d="M457.16 73.8489V183.089L502.839 109.231V0L457.16 73.8489Z" stroke="#484848" stroke-miterlimit="10"/>
<path d="M457.16 623.116V732.356L502.839 658.497V549.267L457.16 623.116Z" stroke="#484848" stroke-miterlimit="10"/>
<path d="M457.16 256.938V366.178L502.839 292.32V183.089L457.16 256.938Z" stroke="#484848" stroke-miterlimit="10"/>
<path d="M457.16 440.027V549.267L502.839 475.409V366.178L457.16 440.027Z" stroke="#484848" stroke-miterlimit="10"/>
<path d="M1234.07 109.231L1279.94 183.089V73.8489L1234.07 0V109.231Z" stroke="#484848" stroke-miterlimit="10"/>
<path d="M1234.07 658.497L1279.94 732.356V623.116L1234.07 549.267V658.497Z" stroke="#484848" stroke-miterlimit="10"/>
<path d="M1234.07 292.32L1279.94 366.178V256.938L1234.07 183.089V292.32Z" stroke="#484848" stroke-miterlimit="10"/>
<path d="M1234.07 475.409L1279.94 549.267V440.027L1234.07 366.178V475.409Z" stroke="#484848" stroke-miterlimit="10"/>
<path d="M1691.42 109.231L1737.28 183.089V73.8489L1691.42 0V109.231Z" stroke="#484848" stroke-miterlimit="10"/>
<path d="M1691.42 658.497L1737.28 732.356V623.116L1691.42 549.267V658.497Z" stroke="#484848" stroke-miterlimit="10"/>
<path d="M1691.42 292.32L1737.28 366.178V256.938L1691.42 183.089V292.32Z" stroke="#484848" stroke-miterlimit="10"/>
<path d="M1691.42 475.409L1737.28 549.267V440.027L1691.42 366.178V475.409Z" stroke="#484848" stroke-miterlimit="10"/>
<path d="M1188.39 73.8489V183.089L1234.07 109.231V0L1188.39 73.8489Z" stroke="#484848" stroke-miterlimit="10"/>
<path d="M1188.39 623.116V732.356L1234.07 658.497V549.267L1188.39 623.116Z" stroke="#484848" stroke-miterlimit="10"/>
<path d="M1188.39 256.938V366.178L1234.07 292.32V183.089L1188.39 256.938Z" stroke="#484848" stroke-miterlimit="10"/>
<path d="M1188.39 440.027V549.267L1234.07 475.409V366.178L1188.39 440.027Z" stroke="#484848" stroke-miterlimit="10"/>
<path d="M1645.55 73.8489V183.089L1691.42 109.231V0L1645.55 73.8489Z" stroke="#484848" stroke-miterlimit="10"/>
<path d="M1645.55 623.116V732.356L1691.42 658.497V549.267L1645.55 623.116Z" stroke="#484848" stroke-miterlimit="10"/>
<path d="M1645.55 256.938V366.178L1691.42 292.32V183.089L1645.55 256.938Z" stroke="#484848" stroke-miterlimit="10"/>
<path d="M1645.55 440.027V549.267L1691.42 475.409V366.178L1645.55 440.027Z" stroke="#484848" stroke-miterlimit="10"/>
<path d="M319.938 109.231L365.991 183.089V73.8489L319.938 0V109.231Z" stroke="#484848" stroke-miterlimit="10"/>
<path d="M319.938 658.497L365.991 732.356V623.116L319.938 549.267V658.497Z" stroke="#484848" stroke-miterlimit="10"/>
<path d="M319.938 292.32L365.991 366.178V256.938L319.938 183.089V292.32Z" stroke="#484848" stroke-miterlimit="10"/>
<path d="M319.938 475.409L365.991 549.267V440.027L319.938 366.178V475.409Z" stroke="#484848" stroke-miterlimit="10"/>
<path d="M274.258 73.8489V183.089L319.936 109.231V0L274.258 73.8489Z" stroke="#484848" stroke-miterlimit="10"/>
<path d="M274.258 623.116V732.356L319.936 658.497V549.267L274.258 623.116Z" stroke="#484848" stroke-miterlimit="10"/>
<path d="M274.258 256.938V366.178L319.936 292.32V183.089L274.258 256.938Z" stroke="#484848" stroke-miterlimit="10"/>
<path d="M274.258 440.027V549.267L319.936 475.409V366.178L274.258 440.027Z" stroke="#484848" stroke-miterlimit="10"/>
<path d="M1051.36 109.231L1097.03 183.089V73.8489L1051.36 0V109.231Z" stroke="#484848" stroke-miterlimit="10"/>
<path d="M1051.36 658.497L1097.03 732.356V623.116L1051.36 549.267V658.497Z" stroke="#484848" stroke-miterlimit="10"/>
<path d="M1051.36 292.32L1097.03 366.178V256.938L1051.36 183.089V292.32Z" stroke="#484848" stroke-miterlimit="10"/>
<path d="M1051.36 475.409L1097.03 549.267V440.027L1051.36 366.178V475.409Z" stroke="#484848" stroke-miterlimit="10"/>
<path d="M1508.71 109.231L1554.39 183.089V73.8489L1508.71 0V109.231Z" stroke="#484848" stroke-miterlimit="10"/>
<path d="M1508.71 658.497L1554.39 732.356V623.116L1508.71 549.267V658.497Z" stroke="#484848" stroke-miterlimit="10"/>
<path d="M1508.71 292.32L1554.39 366.178V256.938L1508.71 183.089V292.32Z" stroke="#484848" stroke-miterlimit="10"/>
<path d="M1508.71 475.409L1554.39 549.267V440.027L1508.71 366.178V475.409Z" stroke="#484848" stroke-miterlimit="10"/>
<path d="M1005.49 73.8489V183.089L1051.36 109.231V0L1005.49 73.8489Z" stroke="#484848" stroke-miterlimit="10"/>
<path d="M1005.49 623.116V732.356L1051.36 658.497V549.267L1005.49 623.116Z" stroke="#484848" stroke-miterlimit="10"/>
<path d="M1005.49 256.938V366.178L1051.36 292.32V183.089L1005.49 256.938Z" stroke="#484848" stroke-miterlimit="10"/>
<path d="M1005.49 440.027V549.267L1051.36 475.409V366.178L1005.49 440.027Z" stroke="#484848" stroke-miterlimit="10"/>
<path d="M1462.65 73.8489V183.089L1508.71 109.231V0L1462.65 73.8489Z" stroke="#484848" stroke-miterlimit="10"/>
<path d="M1462.65 623.116V732.356L1508.71 658.497V549.267L1462.65 623.116Z" stroke="#484848" stroke-miterlimit="10"/>
<path d="M1462.65 256.938V366.178L1508.71 292.32V183.089L1462.65 256.938Z" stroke="#484848" stroke-miterlimit="10"/>
<path d="M1462.65 440.027V549.267L1508.71 475.409V366.178L1462.65 440.027Z" stroke="#484848" stroke-miterlimit="10"/>
<path d="M685.742 109.231L731.421 183.089V73.8489L685.742 0V109.231Z" stroke="#484848" stroke-miterlimit="10"/>
<path d="M685.742 658.497L731.421 732.356V623.116L685.742 549.267V658.497Z" stroke="#484848" stroke-miterlimit="10"/>
<path d="M685.742 292.32L731.421 366.178V256.938L685.742 183.089V292.32Z" stroke="#484848" stroke-miterlimit="10"/>
<path d="M685.742 475.409L731.421 549.267V440.027L685.742 366.178V475.409Z" stroke="#484848" stroke-miterlimit="10"/>
<path d="M639.875 73.8489V183.089L685.741 109.231V0L639.875 73.8489Z" stroke="#484848" stroke-miterlimit="10"/>
<path d="M639.875 623.116V732.356L685.741 658.497V549.267L639.875 623.116Z" stroke="#484848" stroke-miterlimit="10"/>
<path d="M639.875 256.938V366.178L685.741 292.32V183.089L639.875 256.938Z" stroke="#484848" stroke-miterlimit="10"/>
<path d="M639.875 440.027V549.267L685.741 475.409V366.178L639.875 440.027Z" stroke="#484848" stroke-miterlimit="10"/>
<path d="M1416.97 109.231L1462.65 183.089V73.8489L1416.97 0V109.231Z" stroke="#484848" stroke-miterlimit="10"/>
<path d="M1416.97 658.497L1462.65 732.356V623.116L1416.97 549.267V658.497Z" stroke="#484848" stroke-miterlimit="10"/>
<path d="M1416.97 292.32L1462.65 366.178V256.938L1416.97 183.089V292.32Z" stroke="#484848" stroke-miterlimit="10"/>
<path d="M1416.97 475.409L1462.65 549.267V440.027L1416.97 366.178V475.409Z" stroke="#484848" stroke-miterlimit="10"/>
<path d="M1874.32 109.231L1920 183.089V73.8489L1874.32 0V109.231Z" stroke="#484848" stroke-miterlimit="10"/>
<path d="M1874.32 658.497L1920 732.356V623.116L1874.32 549.267V658.497Z" stroke="#484848" stroke-miterlimit="10"/>
<path d="M1874.32 292.32L1920 366.178V256.938L1874.32 183.089V292.32Z" stroke="#484848" stroke-miterlimit="10"/>
<path d="M1874.32 475.409L1920 549.267V440.027L1874.32 366.178V475.409Z" stroke="#484848" stroke-miterlimit="10"/>
<path d="M1371.29 73.8489V183.089L1416.97 109.231V0L1371.29 73.8489Z" stroke="#484848" stroke-miterlimit="10"/>
<path d="M1371.29 623.116V732.356L1416.97 658.497V549.267L1371.29 623.116Z" stroke="#484848" stroke-miterlimit="10"/>
<path d="M1371.29 256.938V366.178L1416.97 292.32V183.089L1371.29 256.938Z" stroke="#484848" stroke-miterlimit="10"/>
<path d="M1371.29 440.027V549.267L1416.97 475.409V366.178L1371.29 440.027Z" stroke="#484848" stroke-miterlimit="10"/>
<path d="M1828.45 73.8489V183.089L1874.32 109.231V0L1828.45 73.8489Z" stroke="#484848" stroke-miterlimit="10"/>
<path d="M1828.45 623.116V732.356L1874.32 658.497V549.267L1828.45 623.116Z" stroke="#484848" stroke-miterlimit="10"/>
<path d="M1828.45 256.938V366.178L1874.32 292.32V183.089L1828.45 256.938Z" stroke="#484848" stroke-miterlimit="10"/>
<path d="M1828.45 440.027V549.267L1874.32 475.409V366.178L1828.45 440.027Z" stroke="#484848" stroke-miterlimit="10"/>
</g>
</svg>
