<?xml version="1.0" encoding="UTF-8"?>
<svg version="1.1" viewBox="0 0 2044 1672" width="511" height="418" xmlns="http://www.w3.org/2000/svg">
<path transform="translate(725,46)" d="m0 0 4 2 4 10 15 54 12 41 15 53 8 29 15 53 5 15 3 4v2l4 2 7 3h12l40-11 56-16 51-15 52-15 34-10 8-2h6l5 13 16 55 14 50 17 59 16 57 17 59 23 81 18 62 10 35 16 55 12 42 10 34 17 59 20 68 8 28 15 52 14 48 21 73 13 45 16 54 8 28 2 9-8 4-76 22-47 14-228 68-231 68-55 16-64 19-71 21-51 15-55 16-66 19-35 10h-5l-4-8-10-36-16-55-15-52-20-68-22-76-10-36-58-203-19-67-15-52-32-112-15-53-13-44-32-111-19-66-16-54-16-57-12-42-11-38-15-53-10-33-7-26 1-4 29-9 53-15 94-28 180-53 82-24 57-17 52-15 56-16 65-19 43-13zm-294 230-8 4-7 8-15 28-45 90-10 19-12 24-7 13-6-2-23-13-15-9-21-12-11-5h-8l-9 4-7 8-3 10 2 10 4 6 9 7 25 15 24 14 25 14 16 8 4 1h8l9-4 5-5 5-8 12-23 39-78 12-22 33-66 3-9v-13l-5-8-5-4-5-2zm522 181-26 7-57 17-68 20-41 12-29 9-54 16-41 12-50 15-126 37-63 19-41 12-45 13-16 6-5 4-4 9v14l4 8 5 4 9 4h7l21-5 28-8 26-8 74-22 58-17 60-18 244-72 42-12 46-14 35-10 20-6 9-6 4-6 2-12-2-10-8-9-7-3zm39 133-27 7-44 13-43 13-166 49-58 17-24 7-72 22-94 27-46 14-47 14-27 8-10 5-5 6-2 6v13l5 10 7 5 3 1h14l29-8 49-15 130-38 60-18 42-12 167-50 82-24 29-9 38-11 19-6 8-4 7-8 2-6v-12l-4-8-7-6-5-2zm38 133-18 4-110 32-53 16-35 10-29 9-47 14-81 24-149 44-79 24-33 10-16 5-9 5-5 6-2 6v10l3 8 4 5 6 4 4 1h10l21-5 49-15 34-10 40-12 87-26 78-23 35-10 29-9 105-31 23-7 55-16 60-18 31-9 10-5 6-7 2-5v-13l-4-8-7-6-6-2zm37 132-23 6-240 71-31 9-29 9-64 19-88 26-34 10-29 9-25 7-32 10-47 14-11 4-7 5-4 7-1 4v11l4 8 7 6 4 2h16l25-7 30-9 67-20 141-42 108-32 35-10 56-17 138-41 42-12 10-5 5-4 3-6 1-4v-10l-4-9-8-7-6-2zm37 133-34 9-53 16-42 12-97 29-37 11-29 9-28 8-40 12-62 18-53 16-111 33-44 13-21 7-6 4-5 8-1 3v11l4 8 4 5 7 4 3 1h8l14-3 44-13 34-10 33-10 41-12 39-12 25-7 34-10 56-17 52-15 147-44 39-12 47-14 42-12 12-6 5-7 2-11-2-9-6-9-8-4zm-256 221-15 3-51 15-48 14-55 16-100 30-48 14-35 10-10 5-5 6-2 5v13l3 8 7 7 9 3 11-1 23-6 90-27 124-36 60-18 48-14 8-4 6-7 3-9-1-10-4-8-7-6-10-3z" fill="#2054A4"/>
<path transform="translate(1104,17)" d="m0 0 10 2 59 16 162 46 61 17 275 78 56 16 80 23 24 7 2 2-2 12-18 64-16 55-14 48-11 37-10 32-1 4v16l4 8 7 5 21 7 53 15 48 14 112 32 12 4 3 2-1 10-15 53-19 67-14 50-10 37-15 52-13 47-18 64-14 50-13 47-23 81-23 82-15 53-20 70-19 67-13 47-18 63-19 66-14 50-6 19-2 2-7-1-205-58-200-57-73-21-146-41-31-9-15-5-2-1 1-3 28-9 73-21 58-17 29-9 31-9 40-12 49-14 68-20 9-5h2l2-4 3-7v-16l-8-29-12-41-11-40 1-5 31 8 176 50 29 8 5 1h10l10-5 4-5 2-7v-11l-4-9-8-6-19-6-57-16-53-15-73-21-62-17-7-3-3-4-17-57-9-33-1-10 10 2 41 12 53 15 48 14 56 16 43 12 66 19 16 2 9-3 5-4 4-8 1-10-4-11-6-5-16-6-248-71-62-18-30-9-5-5-8-26-10-36-8-28-1-7 9 1 25 7 49 14 52 15 61 17 167 48 40 11 5 1h12l8-4 4-5 3-9v-8l-4-10-9-6-25-8-150-43-69-20-78-22-59-17-44-12-11-4-3-3-6-19-9-32-10-36-2-12 4-1 32 9 35 10 230 66 34 10 56 16 87 25 13 3h10l8-4 6-7 2-7v-8l-4-10-6-5-10-4-294-85-71-20-42-12-82-23-22-7-4-4-11-36-15-54-1-9 9 1 101 29 57 16 136 39 136 39 55 16 48 14 29 8h11l8-4 5-5 3-7v-12l-4-8-6-5-33-11-98-28-238-69-71-20-97-28-54-15-11-4-4-4-5-16-16-55-15-51-12-43-18-63-16-57-12-42-4-8-9-8-12-8-17-12 1-9 7-25 19-68 9-33zm340 242-9 3-18 10-28 17-26 16-40 24-28 17-20 12-6 4-4 1-2-5-10-19-10-21-8-16-7-13-7-6-4-2h-11l-10 5-6 7-2 7 1 10 5 12 22 44 11 23 10 19 5 6 10 4h7l13-5 14-8 27-16 29-17 23-14 21-13 29-17 40-25 10-9 3-6v-12l-5-10-9-6z" fill="#2054A4"/>
<path transform="translate(1876,242)" d="m0 0 4 2 10 18 24 46 12 22 16 31 10 19 30 56 16 31 12 22 16 29 7 14v2l-7-1-31-9-43-13-55-16-82-24-4-3 2-10 17-59 10-35 15-52 14-49 6-20z" fill="#2054A4"/>
<path transform="translate(774,36)" d="m0 0 6 1 21 12 20 12 104 60 24 14 25 14 21 12 27 15 24 14 13 8v4l-32 8-31 9-54 16-90 26-7 2h-6l-4-10-14-51-10-34-19-66-12-42z" fill="#2054A4"/>
<path transform="translate(284,1223)" d="m0 0 2 1 1 6h2v6l3 1 1 5 2 4h-2l1 7 2 1v3l1 5 2 2 2 4 2 7v4l1 5 2 2v3h2l1 4-1 3h2l1 7 5 7 1 10 2 6v11l2 1-2 2v2h2l2 5 3 9v4l1 10h2l-1 6 4 1 1 7h2v7l3 3 1 7v2h3v9h2l1 5h2l1 3v12h2l1 4-1 4 4 1v8l2 7 1 6-1 3 2 2 1 4 2 7v2h2l-1 8h3l2 7 2 1 1 9v3h2l3 8 1 2v6l3 1 1 5v5h2l3 9v10l2 1 1 9 2 1-1 5 2 6v4h2l4 8v3l3 1 4 2 2-1 4 1 7-4h10v2h5l-3 2-32 9h-5l-4-8-10-36-16-55-15-52-20-68-22-76-10-36-13-46 1-2z" fill="#2054A4"/>
<path transform="translate(31,249)" d="m0 0 3 1-1 3-9 3h-3v-2l-4 1v3l-3 3h-2l3 7-1 4 2 6 2 7 3 9v4h2v7h2l3 7 2 3v9l2 6v2h2v2l2 1v3 2l3 1v9l1 10h2l2 7 2 2-1 7 2 4v8l3 1 2 6 2 2 1 5-1 3 2 9 3 6 1 3 2 2 2 18 2 1 2 8 2 1 1 5-1 5 2 7-1 3 2 1 2 7h1v7l3 6v7l2 1v4l1 5 3 1-1 4 3 6 1 9 2 9h2l3 14 4 11v4l2 1-1 3 4 4 2 11 2 7 1 3-1 3 2 2-1 2h3v2l2 1 2 15 3 9 2 1-1 2 2 1v7l1 3v6 3l2 5v5h2l1 7-1 1v5h-2l-14-48-19-66-16-54-16-57-12-42-11-38-15-53-10-33-7-26 1-4z" fill="#2054A4"/>
<path transform="translate(451,320)" d="m0 0 2 1-1 5h-2v2l2 1-3 9h-2l1 3-2 6h-2l-2 9h-2l-1 7-3 2-1 8-3 1-2 6-2 1-2 7-3 2v3l-4 1-1 4-5 8-2 2-2 6h-2l-1 6-1 2h-3l1 3-2 5h-2l-1 6-1 2h-2l-2 9-3 6v3h-2l-1 9-4 2v6l-4 5v3l-4 1v4h-2l-1 4-2 6-7 6-6 9-2 1 1-5 15-29 39-78 12-22z" fill="#2054A4"/>
<path transform="translate(1104,17)" d="m0 0 10 2 59 16 116 33-1 3-9-3-6 1-6-2v-2h-4l-6-2v-2h-5l-4-1-8-1-6-4h-5v-2l-9-1-8-1-5-3-6-1v-2l-9-1-3 1-6-2v-2l-7-1-3-1v-2l-12-2h-4l-8-2-13-1-5-2v-2h-4v-2l-4 1v-2l-10-2-3 1v2h-2l-2 7-4 10h2l-1 6-1 2h-2v9l-3 3-2 1-3 9h-2v5l1 2-3 9-2 3-2 7-2 2-1 6 2 1-1 4h-2l-1 7-3 9-4 2 2-9 19-68 9-33z" fill="#2054A4"/>
<path transform="translate(183,872)" d="m0 0h2l4 6 1 4h-2v2l2 1v3l2 5 2 6 2 1v6l2 1 1 3-1 1v6l2 1 1 4 1 6 3 1 1 7 1 3-1 6 2 1v3l1 1v5l4 1 1 7-1 2h2l-1 8 2 1 2 10 3 1 1 6-1 2 2 1h-2l2 10v2h2v5l3 2 1 8 2 1h-2l2 10v2h2v6l2 1 2 5v3l2 1h-3v2l2 1-2 1 1 2-1 2h2l1 5 2 1-5 2-16-57-15-52-15-53-8-28z" fill="#2054A4"/>
<path transform="translate(1401,1202)" d="m0 0 13 3-2 1v2l-3 1 2 5 2 9v6l2 5-2 5h2l3 9 2 8 2 5-1 6 6 2v3h-2l3 8 3 9 3 7 2 5v3h2v6l-2 2 3 7-2 5 2 4-1 7h-2l-1 5-1 2h-2l-1 3-5-2 4-7 1-3v-16l-8-29-12-41-11-40z" fill="#2054A4"/>
<path transform="translate(239,1066)" d="m0 0 4 3 2 5v3l2 1h-3l2 6 1 6h2l1 5 2 1v6l2 1 1 4v9l2 2 1 5 3 2 1 7v4 5l2 1-1 4h2l3 5 2 4 1 5 1 7-1 2 2 1-1 3 2 2 1 2 2 2v6l2 3v14h2v7h2l2 5v3l-2 1-1 5-2-3-15-53-12-42-15-53z" fill="#2054A4"/>
<path transform="translate(1220,576)" d="m0 0 9 1 3 2h-2l2 11v6l2 1-1 11h2v9l2 1-2 3h2l1 7 5 10v6h2l2 6v2h2l-1 9h2l3 7h2l1 6 4 2v2h3v2l3-1 1 2h3l2 4-12-3-11-4-4-9-10-34-14-50z" fill="#2054A4"/>
<path transform="translate(1355,1044)" d="m0 0 10 2 10 3-4 5-3 5v8l2 7h-2l1 6h2v5l3 7-1 5 2 6 1 5 2 1 1 5 3 10-1 3 2 1 2 3 1 5 3 1 3 11-3 2-5-3-4-9-9-31-14-49-2-9z" fill="#2054A4"/>
<path transform="translate(774,36)" d="m0 0 6 1 21 12-2 4h-6l-2 6v14l4 8 1 8 3 6-1 5 1 4 1 6v3l1 3-2 3-2 1-12-42-11-41z" fill="#2054A4"/>
<path transform="translate(1168,393)" d="m0 0 3 2 1 5-1 3 3 1v5l2 1h-2l4 5v5l2 1 1 10h2l4 14v3h2l2 7-1 4h2l2 9 2 7 1 4v3l4 2-1 9 3 3-1 9 2 1 1 4 1 5h2l1 6h2l1-2 4 4v2l-8-2-5-3-4-10-10-36-20-68-3-12z" fill="#2054A4"/>
<path transform="translate(1309,889)" d="m0 0 9 1 11 3-3 3-5 2v6l1 4-2 5 2 2 1 6 1 3 2 4-1 7h2v5h2l2 6v5l2 3-2 2 2 2 2 7 3 8v5h2v2h2l2 5 3 3v2l3 1-2 2-9-3-3-4-8-26-10-36-8-28z" fill="#2054A4"/>
<path transform="translate(1848,339)" d="m0 0 2 2v9l-4 5v7h-2l-1 9-2 9-3 4-2 7-2 4v7l-5 12-1 6h-2l1 6v12l-2 3h-2v2l3 1-1 5-3 6h-2v9h2l1 6h2l-1 3-9-2-4-3 2-10 17-59 10-35 7-24z" fill="#2054A4"/>
<path transform="translate(1545,1604)" d="m0 0 13 2 7 2 4 3 10 1 7 1 4 1v2h6l8 3 5 1 3 2v2l4-1 9 1 6 2 8 2 14 6 4 1 7 1 4 3 9 1 3 2v3l2 1-7-1-77-22-54-15z" fill="#2054A4"/>
<path transform="translate(1136,282)" d="m0 0 3 1 1 5-1 3 3 1 3 7 2 4 1 1 3 4 1 4-3 1 2 1v2l2 1-1 7 4 2v6h2l1 8v10l4 9h-2l2 8 1 5-2 1v2l3 1 3 10v3h-4l-18-64-11-39z" fill="#2054A4"/>
<path transform="translate(2e3 474)" d="m0 0 3 4 13 24 10 18 6 12v2l-7-1-31-9-43-13-14-4 1-2 10 2 8 2 1-2 7 5 9-1 5 1 7 3 7 2 5 1 1 2 4 2 1 2h14l2 1 2-1-2-10-2-1-3-7-2-1-1-5-3-1-3-10-1-3h-2l-1-6-2-4z" fill="#2054A4"/>
<path transform="translate(140,721)" d="m0 0 4 4-2 6 3 1 3 6v3h3l-1 4 4 4v8l2 1 2 5 2 13v3 2l2 2 1 2 2 2v6l1 2-1 2 2 1h-2l2 10v2h2v7h2l2 7 1 12 2 5-4 1-15-54-14-47-5-19z" fill="#2054A4"/>
<path transform="translate(1270,739)" d="m0 0 3 3 2 5-1 4 2 2 2 7 1 1v7l3 1 1 7h2v6 3l2 3v5l2 5-1 1 2 2-1 6h2l1 7v2h3l-2 7 2 1-1 2 2 1v2l9 5 1 4-9-2-5-4-6-19-9-32-10-36 1-4z" fill="#2054A4"/>
<path transform="translate(1224,285)" d="m0 0 5 1 4 4 4 7 2 4v3h3l1 7 9 18v4l3 1 1 7 4 2-1 2 3 1-1 2 3 2v2h3v2l10-2 3 4-11 7h-4l-8-14-14-28-11-23-6-10z" fill="#2054A4"/>
<path transform="translate(1100,174)" d="m0 0 2 1 7 2 2 5 4 8v5l3 2-1 13h2l1 10h2l2 7 1 7-2 2h-2l-13-45-4-8-8-7z" fill="#2054A4"/>
<path transform="translate(1958,560)" d="m0 0 16 4 42 12 5 3-1 10-2 7-3-2v-13l-3-3-16-2-6-3-5-1v-2l-6 1-6-2h-7l-6-5-3-1z" fill="#2054A4"/>
<path transform="translate(1939,505)" d="m0 0 10 2 8 2 1-2 7 5 9-1 5 1 7 3 7 2 5 1 1 2 4 2 2 4-10-2-43-13-14-4z" fill="#2054A4"/>
<path transform="translate(811,165)" d="m0 0h4v3l2 2v5l5 9 3 10v3l2-1v8l2 2-2 2 2 2-1 5-3 1-14-48z" fill="#2054A4"/>
<path transform="translate(1719,1642)" d="m0 0h3l-2 9-3 5-7-1-28-8 2-1v-3l8 1 9 4 7 2 8-4z" fill="#2054A4"/>
<path transform="translate(828,217)" d="m0 0 3 1 3 6-1 7 4 8v5l2 3v7h2l1 4-3 1-1 2-5-15-7-26 1-2z" fill="#2054A4"/>
<path transform="translate(1396,1146)" d="m0 0h2l2 3 3-2 3 1 1 2h3v2h9l3 3h4l6 3-1 3-17-4-22-6 3-4z" fill="#2054A4"/>
<path transform="translate(1864,283)" d="m0 0h2l1 7-3 7-3 6 2 1-1 3v3l-3 4-2 3v5l-3-1-1 4-1-3 11-38z" fill="#2054A4"/>
<path transform="translate(1876,242)" d="m0 0 4 2 2 4-4 1v6l-1 4-2 1-2 7-3 3v8h-3l-2 4-1-2 11-37z" fill="#2054A4"/>
<path transform="translate(1122,238)" d="m0 0 5 1 1 7 4 11v7l1 5 3 6-1 2-3-1-10-36z" fill="#2054A4"/>
<path transform="translate(1051,1456)" d="m0 0h2l1 4 2 3-1 1 2 1v4l-12-3-7-3 1-3z" fill="#2054A4"/>
<path transform="translate(84,234)" d="m0 0 5 1v3h-3l-1 2-7 1-1-1-8 3-4 1-3-1-6 4-6-2 3-2z" fill="#2054A4"/>
<path transform="translate(868,1222)" d="m0 0h3l5 8 1 7-3 8h-3l-1 2-3-2 3-9-1-10z" fill="#2054A4"/>
<path transform="translate(802,51)" d="m0 0 5 2 21 12-2 2h-3l-2-2-7-1v-2l-3 1v-3l-3 1-1-3h-4l-2-3z" fill="#2054A4"/>
<path transform="translate(1258,533)" d="m0 0 5 1 3-1 2 2 6 2 4 1v2l3-1v2l5 1 1 3-16-4-18-5 2-2z" fill="#2054A4"/>
<path transform="translate(1709,1107)" d="m0 0 2 1 1 3v9l-3 9-3 3h-6l5-8 2-8v-8z" fill="#2054A4"/>
<path transform="translate(1612,638)" d="m0 0h11l5 2v-2h2v2l9 2 6 3 1-2 4 5-4 1-34-10z" fill="#2054A4"/>
<path transform="translate(1381,1556)" d="m0 0 5 1 4 1 7 2 3 5-3 1-22-6 2-1v-2z" fill="#2054A4"/>
<path transform="translate(1251,58)" d="m0 0 17 4 21 6-1 3-9-3-6 1-6-2v-2h-4l-6-2v-2h-5z" fill="#2054A4"/>
<path transform="translate(1404,1564)" d="m0 0h8l2 1v2l4-1 8 2 2 6-10-2-14-4z" fill="#2054A4"/>
<path transform="translate(1461,1580)" d="m0 0 8 1 10 2h2l3 7-10-2-14-4z" fill="#2054A4"/>
<path transform="translate(1433,1572)" d="m0 0 9 1v2l4-1 7 2v2h2l1 4-10-2-14-4z" fill="#2054A4"/>
<path transform="translate(1489,1588)" d="m0 0h6l5 2 8 1 1 3h2l1 4-10-2-14-4z" fill="#2054A4"/>
<path transform="translate(1518,1596)" d="m0 0 7 1 5 1 6 1 3 3 1 4-10-2-14-4z" fill="#2054A4"/>
<path transform="translate(231,1040)" d="m0 0 4 1 2 5v3l2 1h-3v2l2 1-2 1 1 2-1 2h2l1 5 2 1-5 2-6-22z" fill="#2054A4"/>
<path transform="translate(167,814)" d="m0 0 2 1v2h2l2 7 1 12 2 5-4 1-6-22z" fill="#2054A4"/>
<path transform="translate(1056,739)" d="m0 0h3l3 5-1 7-3 6-6 5v-3l3-7z" fill="#2054A4"/>
<path transform="translate(473,1575)" d="m0 0h9l5 1-3 2-21 6h-4v-3h2l2-2v2l5-2 3-3z" fill="#2054A4"/>
<path transform="translate(1334,1545)" d="m0 0 16 2 3 1v2l3 1v3l-16-4-7-2z" fill="#2054A4"/>
<path transform="translate(457,287)" d="m0 0 3 1 1 4h2l1 4-1 4h-2v2l2 1-1 5-4 1-1 6-3-1 4-11v-13z" fill="#2054A4"/>
<path transform="translate(1394,573)" d="m0 0h8l4 1 5 2v2h3v3l-7-1-18-5v-1z" fill="#2054A4"/>
<path transform="translate(982,473)" d="m0 0 2 3 1 11-4 7-3-1 2-14v-5z" fill="#2054A4"/>
<path transform="translate(1733,961)" d="m0 0h7l1 3 3 1 1 3 2 1 1 8-3 1-6-12-6-4z" fill="#2054A4"/>
<path transform="translate(2013,603)" d="m0 0h2l-2 10-4 15-2-1v-7l2-5v-3l2-7h2z" fill="#2054A4"/>
<path transform="translate(1939,505)" d="m0 0 10 2 8 2 1-2 6 4 1 3-10-2-17-5z" fill="#2054A4"/>
<path transform="translate(1467,274)" d="m0 0 4 1 2 6-1 1-1 10h-5l1-4z" fill="#2054A4"/>
<path transform="translate(1071,131)" d="m0 0h3l1 5-1 3h-3v8l1 2-4 1-1-4z" fill="#2054A4"/>
<path transform="translate(1775,685)" d="m0 0h14l1 4 4-2v3l4-1 2 1-1 3-11-3-13-4z" fill="#2054A4"/>
<path transform="translate(828,217)" d="m0 0 3 1 3 6-2 9-1-2h-2l-3-13z" fill="#2054A4"/>
<path transform="translate(1746,674)" d="m0 0 6 1 2-1 2 2 6 2 1 4-16-4-4-2z" fill="#2054A4"/>
<path transform="translate(1660,936)" d="m0 0h7l4 4 10 3v2l-10-2-17-5v-1z" fill="#2054A4"/>
<path transform="translate(1937,554)" d="m0 0 16 4v3h-8l-6-2v-2h-2z" fill="#2054A4"/>
<path transform="translate(279,1205)" d="m0 0 2 4h2l2 5v3l-2 1-1 5-2-3-2-10z" fill="#2054A4"/>
<path transform="translate(1160,372)" d="m0 0 2 1v2l3 1 3 10v3h-4l-4-14z" fill="#2054A4"/>
<path transform="translate(1596,630)" d="m0 0 13 4 1 4-12-3-7-2v-2z" fill="#2054A4"/>
<path transform="translate(803,132)" d="m0 0 2 1 2 2 1 5h1v6l-4 1-3-10z" fill="#2054A4"/>
<path transform="translate(1569,1250)" d="m0 0 11 2 6 2-8 2h-7v-3l-3-1z" fill="#2054A4"/>
<path transform="translate(1501,606)" d="m0 0h10v2l7-1 5 3 1 3-16-4-7-2z" fill="#2054A4"/>
<path transform="translate(1584,1202)" d="m0 0 10 1 6 3 1 3-10-2-11-3z" fill="#2054A4"/>
<path transform="translate(518,1562)" d="m0 0 10 2-3 2-10 3-4-1-1-2 4-2h4z" fill="#2054A4"/>
<path transform="translate(1848,339)" d="m0 0 2 2v9l-4 4h-2l1-7z" fill="#2054A4"/>
<path transform="translate(84,234)" d="m0 0 5 1v3h-3l-1 2-7 1-1-5z" fill="#2054A4"/>
<path transform="translate(1318,77)" d="m0 0 10 2 10 3-4 1-7 1-6-3v-2h-3z" fill="#2054A4"/>
<path transform="translate(2e3 663)" d="m0 0 1 3-5 18h-2l-1-5 3-8h2l1-7z" fill="#2054A4"/>
<path transform="translate(1659,649)" d="m0 0 14 4 1 3-7-1-14-4v-1z" fill="#2054A4"/>
<path transform="translate(1965,778)" d="m0 0 1 4-5 17-2-1-1-4 4-9z" fill="#2054A4"/>
<path transform="translate(1989,689)" d="m0 0h2l-6 24h-1l-1-8 2-5h2l1-10z" fill="#2054A4"/>
<path transform="translate(1290,69)" d="m0 0 10 2 6 2-2 1-1 2-7-1-3-2v-2h-3z" fill="#2054A4"/>
<path transform="translate(584,1545)" d="m0 0 6 1-3 2-17 5-3-1 8-4 7-2z" fill="#2054A4"/>
<path transform="translate(1612,1262)" d="m0 0 11 2 3 2-4 2h-6l-4-5z" fill="#2054A4"/>
<path transform="translate(46,245)" d="m0 0 2 1v2l-5 3-4 1-4-1v-3z" fill="#2054A4"/>
<path transform="translate(1841,475)" d="m0 0h5v2l7 1 2 4-16-4z" fill="#2054A4"/>
<path transform="translate(1213,1511)" d="m0 0 10 1 5 3v2l-10-2-7-2z" fill="#2054A4"/>
<path transform="translate(1821,710)" d="m0 0 3 3-1 6-2 4-3-1 1-10h2z" fill="#2054A4"/>
<path transform="translate(1478,122)" d="m0 0 16 4-4 1-9 1z" fill="#2054A4"/>
<path transform="translate(1541,1242)" d="m0 0 10 2 3 2-4 2-6-1z" fill="#2054A4"/>
<path transform="translate(1612,923)" d="m0 0 6 2 9 1v3l2 1-10-2-10-3z" fill="#2054A4"/>
<path transform="translate(834,69)" d="m0 0 15 8-4 2h-2v-3h-2v-2l-7-1-2-2h2z" fill="#2054A4"/>
<path transform="translate(131,690)" d="m0 0 3 4 2 6h-3l1 6-2-3-2-9z" fill="#2054A4"/>
<path transform="translate(285,493)" d="m0 0 8 4-2 3-7-1z" fill="#2054A4"/>
<path transform="translate(300,444)" d="m0 0h2l3 3v2l4 1v3l-6-2-5-4h2z" fill="#2054A4"/>
<path transform="translate(800,120)" d="m0 0 3 4 1 7h-2l-1 2-3-12z" fill="#2054A4"/>
<path transform="translate(2e3 638)" d="m0 0 1 4-4 14-2-4 1-6z" fill="#2054A4"/>
<path transform="translate(1423,1155)" d="m0 0 5 1 4 3-1 2-10-2v-3z" fill="#2054A4"/>
<path transform="translate(1517,895)" d="m0 0 9 3 2 1v2l-10-2-3-2z" fill="#2054A4"/>
<path transform="translate(1613,780)" d="m0 0 8 1 5 5-12-3-3-2z" fill="#2054A4"/>
<path transform="translate(1746,198)" d="m0 0 9 2-1 4h-6z" fill="#2054A4"/>
<path transform="translate(176,846)" d="m0 0 3 2 1 4h-3l2 5-2 2-3-12z" fill="#2054A4"/>
<path transform="translate(1653,791)" d="m0 0 9 2 2 4-12-3z" fill="#2054A4"/>
<path transform="translate(1816,218)" d="m0 0 12 3v3h-6l-3-3-3-1z" fill="#2054A4"/>
<path transform="translate(811,165)" d="m0 0h4v3l2 2-1 5h-3z" fill="#2054A4"/>
<path transform="translate(1450,114)" d="m0 0 9 2-1 4h-6z" fill="#2054A4"/>
<path transform="translate(1422,106)" d="m0 0 12 3-4 3-6-1v-3h-2z" fill="#2054A4"/>
<path transform="translate(456,1582)" d="m0 0 3 3-13 4-3-1 5-3 8-1z" fill="#2054A4"/>
<path transform="translate(1173,1499)" d="m0 0 9 2 4 2v2l-11-2-3-2z" fill="#2054A4"/>
<path transform="translate(1266,732)" d="m0 0 7 1-3 1 1 3-4 1-1 2-1-7z" fill="#2054A4"/>
<path transform="translate(1789,687)" d="m0 0 1 2 4-2v3l4-1 2 1-1 3-11-3z" fill="#2054A4"/>
<path transform="translate(1568,624)" d="m0 0 10 1 2 4-13-3z" fill="#2054A4"/>
<path transform="translate(1349,559)" d="m0 0 8 5-3 1-10-3 1-2z" fill="#2054A4"/>
<path transform="translate(1362,89)" d="m0 0 16 4v1l-10 1v-3l-6-2z" fill="#2054A4"/>
<path transform="translate(1671,1249)" d="m0 0h2v5l-4 4h-2l2-8z" fill="#2054A4"/>
<path transform="translate(1707,809)" d="m0 0 11 1 4 1v2l2 1-7-1-10-3z" fill="#2054A4"/>
<path transform="translate(1868,270)" d="m0 0h1l1 8h-3l-2 4-1-2 3-9z" fill="#2054A4"/>
<path transform="translate(1448,1164)" d="m0 0 9 1 3 4-13-3z" fill="#2054A4"/>
<path transform="translate(1589,1111)" d="m0 0 10 2 3 2-8-1v2l-5-1z" fill="#2054A4"/>
<path transform="translate(1561,1052)" d="m0 0 8 1 3 4-13-3z" fill="#2054A4"/>
<path transform="translate(1955,813)" d="m0 0 1 3-3 11-2-3 1-6z" fill="#2054A4"/>
<path transform="translate(1233,528)" d="m0 0 7 1 4 1v3l-13-3z" fill="#2054A4"/>
<path transform="translate(1489,888)" d="m0 0 8 1 2 4-12-3z" fill="#2054A4"/>
<path transform="translate(1421,1012)" d="m0 0 8 1 2 4-12-3z" fill="#2054A4"/>
<path transform="translate(1288,688)" d="m0 0h6l6 4-2 1-11-3z" fill="#2054A4"/>
<path transform="translate(1544,616)" d="m0 0 7 2 1 3-13-3v-1z" fill="#2054A4"/>
<path transform="translate(1829,523)" d="m0 0 7 1-2 4-6-1z" fill="#2054A4"/>
<path transform="translate(1077,252)" d="m0 0h2l2 8-4-1-2-5z" fill="#2054A4"/>
<path transform="translate(1393,98)" d="m0 0 10 2 3 2-7 1-3-1z" fill="#2054A4"/>
<path transform="translate(687,57)" d="m0 0 2 1-3 4-9-1 4-2z" fill="#2054A4"/>
<path transform="translate(1745,979)" d="m0 0h2v6l-1 2-1 5h-2z" fill="#2054A4"/>
<path transform="translate(126,680)" d="m0 0 5 5 1 4-3 1-3-8z" fill="#2054A4"/>
<path transform="translate(492,590)" d="m0 0 3 3-10 3-4-1 7-3 3 1z" fill="#2054A4"/>
</svg>
