<?xml version="1.0" encoding="UTF-8"?>
<svg version="1.1" viewBox="0 0 2048 756" width="590" height="218" xmlns="http://www.w3.org/2000/svg">
<path transform="translate(1180,4)" d="m0 0h48l66 2 38 2 43 3 59 7 40 7 36 8 24 7 24 8 27 11 23 11 23 13 23 14 12 8 16 11 18 13 21 16 10 8 11 9 10 8 15 13 14 12 30 27 22 22 8 7 12 9 48 25 27 16 22 15 10 8 14 12 9 9 11 15 12 23 12 30 9 24 5 21 2 14v71l-2 20-3 13-4 8-8 8-7 4-3-1-1-6 1-13v-21l-3-30-6-24-10-25-9-16-9-12-9-10-14-11-14-7-10-3-8-1h-17l-11 2-13 5-11 6-15 12-7 8-8 10-11 18-7 15-6 18-5 20-3 21-1 11-1 41-3 2-8 1-91 4-72 2-47 2-141 5-44 2-42 1-36 2-33 1-3-1v-59l-4-28-7-25-7-18-10-19-10-16-13-15-11-10-13-9-15-8-20-6-5-1h-32l-17 4-15 6-16 9-11 8-13 12-7 7-11 15-11 18-8 16-8 20-6 23-3 16-2 16-2 44-3 5-2 2-21 3h-25l-38-2-133-5-38-2-52-2-16-1-69-2-46-2-44-1-25-1-25-3-13-5-11-7-8-7-9-14-5-12 1-3 82-1 26-1 21-2 4-2 4 1 1 1 28 1 89 1 61 1 5-26 4-23 3-20-36-1-129-1-3-1 3-9 14-36 11-29 19-49 11-28 15-38 11-28 11-27 2-5 11-1 29-1 58-4 44-5 57-8 38-7 22-6 12-5 11-8 8-9 10-18 11-26 6-19 4-16 1-9v-12l-2-8-4-6-6-5-11-4-16-3-38-3h-119l-63 4-43 5-33 5-13 4-6 4-9 11-10 13-12 14-13 15-8 10-20 26-13 19-5 7-2 1h-20l1-4 14-18 13-17 12-14 9-11 10-11 9-11 9-12 8-16 7-16 6-7 12-6 24-6 45-8 48-7 48-6 56-6 34-3 20-2 57-4 47-3 52-3zm104 48-42 4-35 5-30 6-23 6-13 5-10 6-7 8-2 6v12l4 15 9 21 13 25 12 18 11 12 11 7 12 4 34 6 119 17 47 6 36 5h7l-1-8-12-40-16-50-12-35-9-27-11-30-2-4zm132 1 1 6 11 24 16 38 17 40 19 45 15 38 4 8 11 2 166 20 65 7 66 6h14l-2-6-6-10-8-10-9-11-7-7-7-8-7-7-8-7-11-10-11-9-9-8-11-9-16-13-17-13-13-10-20-14-20-13-17-10-18-10-16-8-20-9-28-10-28-8-28-6-31-5-31-3zm-434 204-31 4-24 5-18 5-18 8-10 6-10 8-9 9-10 14-12 23-10 26-1 5h17l54-3 35-4 22-4 17-5 17-9 12-9 9-8 9-11 10-13 11-18 6-12 2-6-1-6-6-4-3-1z" fill="#2054A4"/>
<path transform="translate(1142,446)" d="m0 0 22 1 14 4 16 8 13 10 11 11 10 13 9 15 9 21 6 21 4 22 1 14v16l-2 22-6 27-7 19-8 17-9 14-7 9-9 10-7 7-13 9-16 8-13 4-6 1h-48l-21-2-13-2-19-8-12-8-11-9v-2h-2l-11-14-9-14-7-14-5-14v-6l38-1-3-9-3-32v-25l3-27 6-23 8-21 8-15 8-12 13-15 11-10 14-9 12-6 15-4zm-3 81-11 4-9 7-7 7-7 11-6 16-3 15v23l3 15 5 14 7 12 9 10 11 7 9 2h13l10-3 10-7 7-7 8-13 5-12 4-16v-32l-4-16-7-14-7-9-9-8-10-5-4-1z" fill="#2054A4"/>
<path transform="translate(1897,445)" d="m0 0h19l12 3 12 6 11 8 11 11 10 15 7 14 7 19 4 18 2 12v39l-3 19-6 21-5 13-11 19-12 14-8 7-14 8-11 4-9 2h-33l-20-2-13-2-14-6-12-9-9-9-9-13-8-17-4-12v-3l3-1 27-2-3-14-2-21v-17l3-27 5-21 6-16 10-19 9-12 8-9 12-9 16-8zm5 68-9 5-9 8-7 12-5 14-2 12v18l2 12 5 14 7 12 7 7 7 4 7 2h7l11-4 10-9 6-9 5-12 3-12 1-9v-17l-2-14-6-15-8-11-9-6-5-2z" fill="#2054A4"/>
<path transform="translate(139,318)" d="m0 0h439l8 2 6 5 4 8v10l-5 8-7 5-4 1h-470l-7-4-6-9v-11l5-8 8-6z" fill="#2054A4"/>
<path transform="translate(454,632)" d="m0 0 11 1 47 3 83 3 67 3 35 3 1 2-8 16-10 16-8 10-7 8-11 9-10 7-17 8-15 4-14 2h-20l-39-3-16-4-16-8-11-7-13-12-10-12-10-17-6-16-3-11z" fill="#2054A4"/>
<path transform="translate(322,226)" d="m0 0h293l9 4 6 7 2 5v7l-4 8-7 6-9 3h-292l-9-4-6-8-1-10 2-7 5-6 8-4z" fill="#2054A4"/>
<path transform="translate(467,498)" d="m0 0h39l9 1 8 6 5 8v11l-4 6-6 5-4 2-12 1h-281l-7-2-5-4-5-9v-8l4-8 8-7 3-1z" fill="#2054A4"/>
<path transform="translate(423,407)" d="m0 0h117l10 3 7 6 4 7v9l-4 7-7 6-6 2h-240l-5-3-6-7-1-3v-9l3-8 4-5 5-3 4-1z" fill="#2054A4"/>
<path transform="translate(1472,638)" d="m0 0h36l-3 9-8 13-11 13-13 10-14 7-8 3-16 2h-16l-22-1-12-2-14-5-11-6-11-9-8-8-10-15-1-4 27-2 39-2 35-1z" fill="#2054A4"/>
<path transform="translate(19,499)" d="m0 0h121l7 4 6 9 1 9-4 8-9 8-9 1h-109l-9-2-6-5-3-6v-11l4-8 8-6z" fill="#2054A4"/>
<path transform="translate(1180,4)" d="m0 0h48l66 2 38 2 43 3 59 7 40 7 36 8 24 7 24 8 22 9-1 3-5-1h-6l-7-3h-3v-3l-5 1-7-3-12-6-7-3-7-2-20-5h-9l-2-2-13-2-11-3-9-1-5-2-15-2-7-2h-7l-4-2-16-1-3-1h-7l-6-1-40-4-25-1-10-1h-13l-3-1-11-1h-157l-14 1-5 1h-35l-11 1-55 3-24 1-10 2h-20l-9 1-42 3-17 2-6 1-4-3 43-4 57-4 47-3 52-3z" fill="#2054A4"/>
<path transform="translate(1229,496)" d="m0 0 4 5 8 16 6 15 5 18 4 22 1 14v16l-2 22-6 27-7 19-8 17-9 14-7 9-9 10-7 7-13 9-16 8-13 4-6 1h-48l-21-2-13-2-19-8-12-8-11-9v-2h-2l-11-14-9-14-7-14-5-14v-6l38-1-3 3h-20l-10 2 2 6 2 5 1 5 5 5 5 6 1 6 2 1-1 3h2l1 4h3v3l2 1v2l3 1 2 9 4 2v2l5 2 5 3v2l7 2 4 2 2 2h2l2 3 7 3 9 2 11 3 17 1h15l14 1 17-1 9-2 7-4 10-1 4-4h2v-2l6-4h2v-2l6-2v-2l9-6 1-2h2l1-4 8-7 3-3 4-9 2-2 3-7 4-8 4-11 4-8v-4h2l2-8h2l-1-4 1-7 3-13v-38l1-10-3-6-2-17-2-2-1-10-3-5-3-10-4-10v-3l-3-1v-5h-2l-2-5z" fill="#2054A4"/>
<path transform="translate(1962,326)" d="m0 0 8 6 13 13 11 15 12 23 12 30 9 24 5 21 2 14v71l-2 20-3 13-4 8-8 8-7 4-3-1-1-6 1-13v-21l-3-30-6-24-10-25-9-16-9-12-9-10-11-9 4-1 2 2 5 2 3 4 4 5 5 4v3l4 1 3 6 2 1v3h2l1 3 2 1 4 8 3 7 6 15 2 6 1 10 3 1h-2l3 5-1 3 3 16 1 11v9l1 19v13h6v-2l4-4 3-8 2-15 2-19 1-3 1-32-1-35-2-7-1-13-2-1v-2l-1-3v-7h-2l-2-10-3-5v-3h-2l-2-9v-2l-2-1-1-5h-2l-2-8-2-4-2-6-8-16-3-4v-2h-2l-3-9-3-1-5-6-6-5v-2l-3-1-8-8z" fill="#2054A4"/>
<path transform="translate(1917,446)" d="m0 0 8 1 9 4 12 7 10 9 8 9 9 14 6 12 7 19 4 18 2 12v39l-3 19-6 21-5 13-11 19-12 14-8 7-14 8-11 4-9 2h-33l-20-2-13-2-14-6-12-9-9-9-9-13-8-17-2-8 4 2 2 6 3 4 1 6 5 1v2h2l4 10 3 4v3l4 4 3 1 4 4 7 4 4 1 5 5 5 3 13 1 8 2h13l3 1v-2h18l10-1h3l7-1 5-3 4-2 2-2 4-1 1-2h2v-2l11-7 6-7 2-1 1-4 4-4 4-9 5-11 2-7 2-4 2-8 1-6h2l2-18 1-3 1-19v-19l-1-5 1-2-2-1-2-9-1-7-2-6-2-9-3-8-2-2v-5h-2l-2-5-5-9v-2l-3-1-4-6-1-3-3-1-4-4v-2l-3-1v-2l-4-1v-3l-6-2v-2l-9-3-7-1v-2z" fill="#2054A4"/>
<path transform="translate(631,96)" d="m0 0 2 1-11 14-10 11-9 11-11 13-9 12-10 13-13 19-5 7-2 1h-20l1-4 14-18 13-17 12-14 9-11 10-11 5-6 1 3-5 5-3 5h-2v3h-2l-1 4-3 1v2h-2l-1 3h-2v3h-2l-2 7-4 4h-2l-1 4 1 2-5 2-1 4 5 1v-2l4-3 6-9 5-5 1-3 2-1 3-5 7-4 8-7v-5l4-5 7-4 2-1 2-4 1-3h2l1-5 5-5z" fill="#2054A4"/>
<path transform="translate(675,248)" d="m0 0 2 2-2 4v7h-2l-2 9-3 1 1 8-4 3 1 4-4 2v8l-4 4-2 4-1 1v9l-4 3v4h-2l-1 8v2l-3 3v7l-3 4v3l-1 4h-3v7l-3 9-3 5-2 8-4 4h-2v5 4l-3 2-1 5-3 2v8h-2l-1 8-1 4h-2l1 4-5 5-1 7-2 5-2 7-3 1-1 5-2 9-3 4-1 4h-2l-1 7v3l1 4 2 1-1 2 95 1v1h-103l-3-1 3-9 14-36 11-29 19-49 11-28 15-38 11-28z" fill="#2054A4"/>
<path transform="translate(454,632)" d="m0 0 11 1 32 2v1l-11 1-3 1h-3l-8-2h-5l-5 4-1 4 6 14 1 3 4 2 8 13v2l3 1v4l3 1 3 6 10 10 3 2 4 2 3 3 5 2 4 4 6 2 3 3 5 1 9 3h7l3 1h12l2 2h-17l-13-2-12-3-16-8-11-7-13-12-10-12-10-17-6-16-3-11z" fill="#2054A4"/>
<path transform="translate(1293,48)" d="m0 0h72l9 2 4 4 1 4 6 12 2 7h2l-1 4h2l2 7 2 6h-2l4 11 3 5 1 7 2 3 1 7 3 6 3 9 2 7 3 8 3 13 3 1v9h2l1 6 3 5 1 5-2 5-2-3-16-50-12-35-9-27-11-30-1-4h-89l4-3z" fill="#2054A4"/>
<path transform="translate(1235,451)" d="m0 0 4 2 5 3 2 6 3 1v2l3 1 1 4 3 3v3h2l2 6h2l1 5 3 9 4 8 6 14 2 13v2l4 9 1 6-3-1 2 5 2 14v43l-1 4v4h3v2l2 1 2 2 9-1 14 1 2 2-33 1-3-1v-59l-4-28-7-25-7-18-10-19-10-16z" fill="#2054A4"/>
<path transform="translate(19,499)" d="m0 0h91v1l-77 1-14 2-3 8h-2l1 3v8l3 8 4 3h5v2l4-1 10 1 40 1h16l23-1 4-1 6 1h11l1-4h3l2-4 4-1-2 4-8 7-9 1h-109l-9-2-6-5-3-6v-11l4-8 8-6z" fill="#2054A4"/>
<path transform="translate(1413,52)" d="m0 0h8v1h-5l7 17 12 27 11 26 16 38 19 45 15 38 2 7-4-2-5-11-3-9-1-6-3-3-5-13-2-3-2-7-2-2-2-7-3-7-2-4-1-6h-2l-3-8-2-4-2-1v-8h-2l-3-11h-2l-2-4-1-4-1-6-2-1-1-5h-3l1-4-4-8-5-12-3-8-2-4-7-17-4-10z" fill="#2054A4"/>
<path transform="translate(517,501)" d="m0 0 5 3 4 5 2 4v11l-4 6-6 5-4 2-12 1h-281l-7-2-5-4-5-9v-8l4-8 5-4-2 5-4 8 3 1 2 6 4 5v2l4 2h4l1 2h4v2l10-1h10l14 1h224l3-1 11-1h12l5-5h2l2-4 1-1 1-11-2-3v-3h-2l-3-4z" fill="#2054A4"/>
<path transform="translate(1229,496)" d="m0 0 4 5 8 16 6 15 5 18 4 22 1 14v16l-2 22-4 19h-2l-1-3 1-7 3-13v-38l1-10-3-6-2-17-2-2-1-10-3-5-3-10-4-10v-3l-3-1v-5h-2l-2-5z" fill="#2054A4"/>
<path transform="translate(1766,183)" d="m0 0 6 4 10 9 8 7 12 11 8 7 23 23 8 7 12 9 9 5-1 2h-5l-1-4-5-1-6-3v-3l-3-1-1-2-4-1v-2l-4-2-4-4-3-1v-2h-2l-1-4-5-1v-2h-2l-2-3h-2l-6-7v-2l-4-1-4-8-6-6h-4v-2l-3-1-1-2-3-1-2-2-5-3-3-5v-3l-4-1z" fill="#2054A4"/>
<path transform="translate(302,410)" d="m0 0 2 1v7l-3 5 2 13 4 5 5 3h24l9 1 32 1v1h-73l-5-3-6-7-1-3v-9l3-8 4-5z" fill="#2054A4"/>
<path transform="translate(322,226)" d="m0 0h293l3 2h-99l-4 1-4-1h-150l-9 1-33 1-2-2z" fill="#2054A4"/>
<path transform="translate(420,565)" d="m0 0h75v1l-53 1-16 2 2 6 2 2v4l2 1 1 4h4v2l8 7 2 1v3l5 1 1 4-1 1 9 5-2 1-14-7-11-9-7-10-7-14-1-5z" fill="#2054A4"/>
<path transform="translate(1066,485)" d="m0 0 1 4-4 4-7 14-1 4-5 2v5l-3 3v5 3l-4 1-1 6-2 6v7l-2 2-2 5-1 7-3 15-1 3 1 1v8l1 5-2 6h-1l-1 13h-1v-25l3-27 6-23 8-21 8-15 8-12z" fill="#2054A4"/>
<path transform="translate(1793,631)" d="m0 0 4 2 2 6 3 4 1 6 5 1v2h2l4 10 3 4v3l4 4 3 1 4 4 7 4 4 1 5 5 5 3 13 1 8 2 10 1v1h-13l-20-3-14-6-12-9-9-9-9-13-8-17z" fill="#2054A4"/>
<path transform="translate(313,230)" d="m0 0 3 4-1 12 4 7 4 4 2 1 1 4-3 2 6 1v1h-9l-9-4-6-8-1-10 2-7 5-6z" fill="#2054A4"/>
<path transform="translate(1472,638)" d="m0 0h36l-3 9-8 13-11 13-13 10-14 7-8 3-7 1h-8l3-2 6-2 7-1 2-2 5-2 5-3h4l5-3 1-2h2l1-3 4-2 5-6h2l2-4 3-3h2l2-4 4-10v-4l-7-1-11 1h-11l-2-2z" fill="#2054A4"/>
<path transform="translate(1683,118)" d="m0 0 5 2 13 10 19 14 22 18 10 8 14 12-4 1-6-4v-2l-5-1-4-5-5-2-3-4v-2l-4-1v-2l-4-1-3-3v-2l-4-1-4-3-4-1-2-5-10-5-3-1-1-4-3-1v-2l-2-1-1-1-4-1-3-5-5-2z" fill="#2054A4"/>
<path transform="translate(1469,54)" d="m0 0 7 2h3l2 1v2l11-1 5 2 2 2h7l8 4h10v2l5-1 6 2 3 3 9 2 1 3 9 1 2 2 8 1v-2h2l3 3 3 1 2 6-9-3-28-10-28-8-28-6-25-4-1-2h8z" fill="#2054A4"/>
<path transform="translate(110,319)" d="m0 0h9v1l-9 2-4 6-3 4v4l2 1 3 10 1 3 6 2v2h24l11 1v2h-40l-7-4-6-9v-11l5-8z" fill="#2054A4"/>
<path transform="translate(1816,485)" d="m0 0 1 2-7 20-6 23-3 21-1 11-1 41-2-4-1-1-1-10v-20l1-2-1-5 4-12-1-10 3-9 1-6 2-10 4-9 1-8h2l1-7 2-4z" fill="#2054A4"/>
<path transform="translate(1293,48)" d="m0 0h72l9 2 4 4-1 3-3-3v-2h-89l4-3z" fill="#2054A4"/>
<path transform="translate(1124,532)" d="m0 0 3 1-8 6-8 9-6 11-5 13-3 15v23l2 11-1 5h-1v-5h-2l-2-4v-12-4l1-9-1-6 1-10 2-5 3-10 3-7 4-6 3-5 6-7 3-2z" fill="#2054A4"/>
<path transform="translate(1581,58)" d="m0 0 6 2 21 10 23 13 20 12v1h-9l-3-3-7-3-4-1-4-5-4-3-5-2 1-3-5 1-5-1v-2l-7-1-3-3-6-1-5-3-4-4z" fill="#2054A4"/>
<path transform="translate(1879,532)" d="m0 0 1 2-6 15-3 15v18l2 12 5 14 6 11-5-2-2-5-3-2-1-5-1-1v-6h-2l-3-9-1-15v-14l1-3v-7l2-1 5-12z" fill="#2054A4"/>
<path transform="translate(669,688)" d="m0 0 3 1-7 8-11 9-10 7-17 8-9 2 1-4 14-6 8-5 8-4 2-2h4l2-4 6-5 4-4z" fill="#2054A4"/>
<path transform="translate(1931,519)" d="m0 0 4 2 3 5 2 4 3 2 1 7h2l1 9h3l2 10h-2v16l1 4-5 22-4 8v3l-4 1 6-16 2-9 1-9v-17l-2-14-6-15-8-11z" fill="#2054A4"/>
<path transform="translate(840,55)" d="m0 0h25l5 1 5-1 7 1 9 1 21 1v1h-101v-1l27-1z" fill="#2054A4"/>
<path transform="translate(1196,576)" d="m0 0 3 4 2 8v11l-2 15-2 10-2 7h-2l-1 8h-2l-1 4-3 5-1 4-5 3-2-1 9-14 5-12 4-16z" fill="#2054A4"/>
<path transform="translate(1044,464)" d="m0 0 2 1-11 17-10 18-10 25-5 18-1-3-2-1h2v-7l3-8 2-9 4-6 1-5 7-14 4-2 1-5 5-7 6-10h2z" fill="#2054A4"/>
<path transform="translate(1124,89)" d="m0 0 2 1-3 8v12l4 15 7 17v2h-3l-3-6-2-6-4-10-4-14v-9l4-8h2z" fill="#2054A4"/>
<path transform="translate(1469,54)" d="m0 0 7 2h3l2 1v2l11-1 5 2 2 2h7l10 5-4 1-28-6-25-4-1-2h8z" fill="#2054A4"/>
<path transform="translate(1837,492)" d="m0 0 1 3-4 8-5 13-1 1v8h-2l-2 11v5h-2l-1 10-2 5h-1v-8l5-24 7-19z" fill="#2054A4"/>
<path transform="translate(1854,433)" d="m0 0 2 1-8 7-7 8-8 10-11 18-2 2 1-6 4-8 5-5 3-7 8-10 2-1 2-4 4-4z" fill="#2054A4"/>
<path transform="translate(1916,295)" d="m0 0 5 2 13 8 16 11 10 8-2 1-7-3v-2l-7-2-9-9-4-1-5-3v-2h-2l-1-2-8-3z" fill="#2054A4"/>
<path transform="translate(1616,75)" d="m0 0 11 6 16 9 8 5v1h-9l-3-3-7-3-4-1-4-5-4-3-5-2z" fill="#2054A4"/>
<path transform="translate(1330,645)" d="m0 0h5l-1 4 8 12 3 2v2h3l3 3v2l4 1 5 5 6 3 1 5-5-2-11-8-10-10-10-15z" fill="#2054A4"/>
<path transform="translate(517,444)" d="m0 0h30l1 2-4 1h-64v-1l25-1z" fill="#2054A4"/>
<path transform="translate(1066,485)" d="m0 0 1 4-4 4-7 14-1 4-5 2v5l-3 3h-2l1-5 9-16 7-10z" fill="#2054A4"/>
<path transform="translate(1006,553)" d="m0 0 1 4-3 23-1 16-3-3v-17l2-10 2-5 1-7z" fill="#2054A4"/>
<path transform="translate(1396,641)" d="m0 0h26v1l-5 1-30 2-7-1h-23v-1z" fill="#2054A4"/>
<path transform="translate(1674,144)" d="m0 0 4 1 4 3 5 5 4 1 3 4 5 3 5 5 5 3 2 5-6-4-18-14-14-10z" fill="#2054A4"/>
<path transform="translate(744,522)" d="m0 0h3l1 9v5l-4 2-1 8-3 6-1-4z" fill="#2054A4"/>
<path transform="translate(1756,208)" d="m0 0 3 3v2l4 1 1 3h2l3 3v2l4 2 5 4 7 8 9 10-1 2-15-16-13-12-12-10z" fill="#2054A4"/>
<path transform="translate(1802,255)" d="m0 0 3 2 3 3 4 1v2l3 3 2 6 3 4 1 5-2 2-6-11-9-11-3-5z" fill="#2054A4"/>
<path transform="translate(1042,284)" d="m0 0 2 1-2 6h-2l-2 5-2 3v5l-1 2h-2v2l-4 2-4 6-6 4 2-4 13-18z" fill="#2054A4"/>
<path transform="translate(1450,51)" d="m0 0 5 1 2 5-27-2-8-1v-1l14-1h10z" fill="#2054A4"/>
<path transform="translate(553,559)" d="m0 0 4 1 1 1 28 1v1l-18 1-20 1-9-1 1-2 9-1z" fill="#2054A4"/>
<path transform="translate(1173,534)" d="m0 0 7 6 5 5 6 9 6 15-1 5-2-3-5-14-9-14-7-7z" fill="#2054A4"/>
<path transform="translate(1019,509)" d="m0 0 1 3-6 16-4 15-1-3-2-1h2v-7l3-8 2-9z" fill="#2054A4"/>
<path transform="translate(1651,96)" d="m0 0 9 5 12 8-4 2-3-1-1-2-6-1v-2h-2l-5-6z" fill="#2054A4"/>
<path transform="translate(1890,280)" d="m0 0 16 8 9 5-4 1-6-2-4-1-1-3h-4v-2l-7-2z" fill="#2054A4"/>
<path transform="translate(818,27)" d="m0 0h5l-3 2-16 2-15 2-4 1h-17v-1l40-5z" fill="#2054A4"/>
<path transform="translate(1817,588)" d="m0 0 2 4 1 7h2v12l1 5-1 6-4-1h3l-3-14-1-10z" fill="#2054A4"/>
<path transform="translate(1095,596)" d="m0 0h1l2 21 1 8-2 1v-5h-2l-2-4v-12-4z" fill="#2054A4"/>
<path transform="translate(694,651)" d="m0 0 1 2-9 17-9 13-1-3 4-5 3-5 2-7z" fill="#2054A4"/>
<path transform="translate(553,413)" d="m0 0 5 5 3 5v9l-4 7-1-2v-6l1-5-2-10h-2z" fill="#2054A4"/>
<path transform="translate(864,22)" d="m0 0h7l-1 2-8 1-18 2h-8l-6 1h-6l3-2z" fill="#2054A4"/>
<path transform="translate(1124,532)" d="m0 0 3 1-8 6-7 8-3-1 1-5 8-7z" fill="#2054A4"/>
<path transform="translate(1429,214)" d="m0 0 4 1 3 4v4 11l-2 1-5-18z" fill="#2054A4"/>
<path transform="translate(1643,123)" d="m0 0 7 2v2h2l3 3 2 1v2l6 1 1 3h2l4 4-1 2-27-18z" fill="#2054A4"/>
<path transform="translate(1863,460)" d="m0 0 2 1-5 5h-2l-2 4-7 7-5 9-4 6h-2l2-6 9-12 8-9z" fill="#2054A4"/>
<path transform="translate(1029,616)" d="m0 0h1l1 6 2 3 1 6v8l-1 7h-2l-2-21z" fill="#2054A4"/>
<path transform="translate(619,641)" d="m0 0h20l23 1v1l-15 1h-11l-17-2z" fill="#2054A4"/>
<path transform="translate(597,117)" d="m0 0 1 3-5 5-3 5h-2v3h-2l-1 4-5 1 2-4 10-11z" fill="#2054A4"/>
<path transform="translate(615,91)" d="m0 0 2 2-2 5h-2l-2 5-2 4v2l-10 8v-3l9-11z" fill="#2054A4"/>
<path transform="translate(999,84)" d="m0 0 1 2h2l1 15v5l-3 4-1-1z" fill="#2054A4"/>
<path transform="translate(835,347)" d="m0 0h2l-3 10-4 12h-3l2-9 3-9z" fill="#2054A4"/>
<path transform="translate(631,61)" d="m0 0 2 1-6 7-5 14-3 6-3 2 3-9 5-12 6-8z" fill="#2054A4"/>
<path transform="translate(1584,92)" d="m0 0h7l1 1 7 1 7 8-2 1-16-8z" fill="#2054A4"/>
<path transform="translate(1141,158)" d="m0 0 3 4 12 20v3l-4-4-2-4-2-2-3-6v-2h-2l-3-5z" fill="#2054A4"/>
<path transform="translate(1472,638)" d="m0 0h23l-1 2-11 1h-11l-2-2z" fill="#2054A4"/>
<path transform="translate(1222,55)" d="m0 0h6l3 1 5 1v1l-23 3h-5l3-2z" fill="#2054A4"/>
<path transform="translate(1873,597)" d="m0 0 11 22-5-2-2-5-3-2-1-5-1-1v-6z" fill="#2054A4"/>
<path transform="translate(871,291)" d="m0 0 2 1-13 13-1-4 2-4 5-4z" fill="#2054A4"/>
<path transform="translate(148,505)" d="m0 0 4 5 2 6-1 8-2 2-1-4v-3h2v-2h-2l-2-6z" fill="#2054A4"/>
<path transform="translate(1066,440)" d="m0 0 2 1-17 17 1-7h2v-2l4-1 1-3z" fill="#2054A4"/>
<path transform="translate(1610,105)" d="m0 0h6l7 4v2l3-1 3 4v2l-5-2-14-8z" fill="#2054A4"/>
<path transform="translate(1371,683)" d="m0 0 9 3 8 5-3 1-14-5-2-2h2z" fill="#2054A4"/>
<path transform="translate(1837,492)" d="m0 0 1 3-4 8-5 13-3 1 3-10z" fill="#2054A4"/>
<path transform="translate(1028,589)" d="m0 0 5 2-1 7-2 3-1 13h-1z" fill="#2054A4"/>
<path transform="translate(748,502)" d="m0 0 2 1 1 8h-2l-1 4-2 5h-1l1-13z" fill="#2054A4"/>
<path transform="translate(585,320)" d="m0 0 6 4 5 9v10l-2 2-1-6 1-3-4-9-5-5z" fill="#2054A4"/>
<path transform="translate(1363,237)" d="m0 0 15 1 16 2-3 2-10-1-15-2z" fill="#2054A4"/>
<path transform="translate(1252,51)" d="m0 0 11 3v1l-11 1h-9l1-3 7-1z" fill="#2054A4"/>
<path transform="translate(1757,604)" d="m0 0 14 1-4 2h-24v-1z" fill="#2054A4"/>
<path transform="translate(622,230)" d="m0 0 4 2 4 5 2 5v7l-2 5h-1v-6h2l-1-2v-6h-2l-5-8z" fill="#2054A4"/>
<path transform="translate(552,184)" d="m0 0 3 1-2 6-6 1-1-5z" fill="#2054A4"/>
<path transform="translate(648,77)" d="m0 0 3 1-6 4-7 9-1-3 2-6h2l1-3z" fill="#2054A4"/>
<path transform="translate(1297,621)" d="m0 0 16 1 2 2h-24l3-2z" fill="#2054A4"/>
<path transform="translate(1876,273)" d="m0 0 6 2 7 4-1 3-6-2-1-2-6-2z" fill="#2054A4"/>
<path transform="translate(1771,284)" d="m0 0h14l12 1v1l-14 1h-5l-7-2z" fill="#2054A4"/>
<path transform="translate(1736,193)" d="m0 0 4 1v2h2l3 3 2 1v2l3 1 1 4-6-4-9-8z" fill="#2054A4"/>
<path transform="translate(472,634)" d="m0 0 25 1v1l-11 1-3 1h-3l-8-2z" fill="#2054A4"/>
<path transform="translate(1185,455)" d="m0 0 5 2 11 7 1 2-6-1-2-1v-2l-4-2z" fill="#2054A4"/>
<path transform="translate(1917,446)" d="m0 0 8 1 9 4 3 3-9-3-7-1v-2z" fill="#2054A4"/>
<path transform="translate(1193,418)" d="m0 0h5l5 3 7 4-1 3-16-9z" fill="#2054A4"/>
<path transform="translate(1150,71)" d="m0 0h7l1 2-16 5 2-4 6-1z" fill="#2054A4"/>
<path transform="translate(653,305)" d="m0 0h1l1 9-3 2h-3l1-5z" fill="#2054A4"/>
<path transform="translate(1733,280)" d="m0 0 20 1 1 3h-8l-13-3z" fill="#2054A4"/>
<path transform="translate(1199,59)" d="m0 0 8 1v2l-11 2h-5l4-3z" fill="#2054A4"/>
<path transform="translate(1862,266)" d="m0 0 6 2 8 4-2 3-6-2 1-3-3 1-1-3-3-1z" fill="#2054A4"/>
<path transform="translate(1206,469)" d="m0 0 7 6 5 5-1 2-9-7-3-4z" fill="#2054A4"/>
<path transform="translate(1211,427)" d="m0 0 5 2 4 2 2 6-4-2-8-6z" fill="#2054A4"/>
<path transform="translate(724,39)" d="m0 0h6l-4 2-12 3h-6l-2-2z" fill="#2054A4"/>
<path transform="translate(1158,668)" d="m0 0h2l-1 3-17 1-2-2z" fill="#2054A4"/>
<path transform="translate(1436,238)" d="m0 0 4 2 1 6-3 2-7-1v-1h6z" fill="#2054A4"/>
<path transform="translate(1120,661)" d="m0 0 5 2 6 4 9 2-3 3-12-6z" fill="#2054A4"/>
<path transform="translate(848,321)" d="m0 0 1 2-8 16-1-3 4-11z" fill="#2054A4"/>
<path transform="translate(990,139)" d="m0 0 2 2-2 8h-2v4h-2l1 3-3 1 3-10z" fill="#2054A4"/>
<path transform="translate(1044,464)" d="m0 0 2 1-9 14h-2l2-6 3-3 2-4h2z" fill="#2054A4"/>
<path transform="translate(1042,284)" d="m0 0 2 1-2 6h-2l-2 5-2 3-2-1z" fill="#2054A4"/>
<path transform="translate(1277,225)" d="m0 0 14 1 6 1-4 2-8-1-5-1z" fill="#2054A4"/>
<path transform="translate(650,53)" d="m0 0 3 1-2 2-2-1-1 2-5 2-5-1 3-2z" fill="#2054A4"/>
<path transform="translate(1107,645)" d="m0 0 4 4 6 9-4-2-7-8z" fill="#2054A4"/>
<path transform="translate(1632,114)" d="m0 0 1 2h3v2l3 1 1 4-9-5z" fill="#2054A4"/>
<path transform="translate(1937,613)" d="m0 0h2v5l-3 1v2l-5 1z" fill="#2054A4"/>
<path transform="translate(1891,518)" d="m0 0 2 1-8 7-2 2 1-6 1-2z" fill="#2054A4"/>
<path transform="translate(983,157)" d="m0 0 2 2-2 6-2 5-3 1 3-9z" fill="#2054A4"/>
<path transform="translate(663,50)" d="m0 0 4 1-5 3h-6l-2-2z" fill="#2054A4"/>
<path transform="translate(1897,445)" d="m0 0h6l-2 2-10 2-3-1v-1z" fill="#2054A4"/>
<path transform="translate(1705,277)" d="m0 0h9l10 1v1l-12 1-7-2z" fill="#2054A4"/>
<path transform="translate(1029,581)" d="m0 0 3 1v7l-3 2z" fill="#2054A4"/>
<path transform="translate(1221,485)" d="m0 0 5 5 2 5h-3v-2h-2l-3-7z" fill="#2054A4"/>
<path transform="translate(1643,123)" d="m0 0 7 2v2h2v3l-5-2-5-4z" fill="#2054A4"/>
</svg>
