<svg xmlns="http://www.w3.org/2000/svg" version="1.1" viewBox="-5.0 -10.0 110.0 135.0" fill="white" style="transform: scale(1.2)">
 <path d="m71.262 69.738v-27.816c0-0.42188-0.16797-0.82422-0.46484-1.1172-0.29688-0.29688-0.69922-0.46484-1.1172-0.46484h-8.4688c-0.875 0-1.582 0.70703-1.582 1.582v25.668c1.4492 0.9375 2.6328 2.2305 3.4414 3.75zm-28.359 9h16.188c2.5586 0 4.6328-2.0703 4.6406-4.6289 0-0.27734-0.023438-0.55469-0.070313-0.82812l23.422-4.5586-0.003906-0.003906c2.1484-0.50781 4.3672-0.64062 6.5625-0.39844 1.7891 0.30078 3.2383 1.1719 3.5898 3.1016 0.29688 1.457-0.62109 2.8906-2.0703 3.2266l-37.43 13.172c-0.75391 0.28125-1.5234 0.50391-2.3086 0.66797-0.76172 0.16406-1.5352 0.24609-2.3125 0.24219h-15.219c-1.8516 0.023437-3.6836-0.39844-5.3398-1.2305-4.2227-2.0586-9.3516-5.5-13.551-6.5-1.2695-0.30078-2.4414-0.48047-3.6211-0.64844v-20c1.2305-0.050781 2.3398-0.12109 3.3906-0.17969 4.4883-0.25 7.8984-0.44141 11.25 0.30078v-0.003906c2.8984 0.74219 5.6367 1.9961 8.0898 3.7031 2.8516 1.8008 4.7812 3 9.3906 3h4.1484c2.5312-0.015625 5.0039 0.74609 7.0898 2.1797 1.8594 1.3203 3 3 3 4.6992 0 0.70703-0.28125 1.3828-0.78125 1.8828s-1.1797 0.77734-1.8867 0.77734h-16.172c-0.55078 0-1 0.44531-1 1 0 0.55078 0.44922 1 1 1zm-39.152 4.8203h8.6211c0.27344 0 0.53516-0.10938 0.73047-0.29688 0.19531-0.19531 0.30469-0.45703 0.29688-0.73047v-25c0.003906-0.27344-0.10547-0.53125-0.29688-0.72266-0.19141-0.19922-0.45703-0.30859-0.73047-0.30859h-8.6211c-0.27734 0-0.53906 0.10938-0.73047 0.30859-0.19141 0.19141-0.30078 0.44922-0.30078 0.72266v25c-0.003906 0.27344 0.10547 0.53516 0.30078 0.73047 0.19531 0.1875 0.45703 0.29688 0.73047 0.29688zm67.898-67.758c-0.47266 0.13672-0.98047-0.097656-1.1836-0.54688-0.20703-0.45312-0.050782-0.98438 0.36328-1.2539l5.8398-2.6602h0.003906c0.48828-0.21484 1.0625-0.003906 1.2969 0.48047l2.6602 5.8398c0.17969 0.24219 0.24219 0.55469 0.16797 0.84375-0.078125 0.29297-0.28125 0.53516-0.55469 0.66016-0.27734 0.125-0.59375 0.12109-0.86328-0.015624-0.26953-0.13281-0.46484-0.38281-0.52734-0.67969l-1.6289-3.5508c-5.4805 14.391-21 21.801-34.738 26.172h-0.003906c-0.51172 0.15234-1.0547-0.125-1.2305-0.62891-0.15625-0.51953 0.125-1.0703 0.64062-1.2422 13.18-4.2188 28.379-11.219 33.559-25.148zm-17.84 49.57v-9.4805c0.003906-0.41797-0.16016-0.82031-0.45312-1.1172-0.29688-0.29688-0.69922-0.46484-1.1172-0.46484h-8.4766c-0.875 0-1.582 0.70703-1.582 1.582v8.3398c1.6719 0.73438 3.4883 1.0781 5.3086 1h4.1523c0.72656 0.003906 1.4492 0.054687 2.168 0.16016zm34.898 1 0.003907-38.371c-0.007813-0.86719-0.71094-1.5703-1.582-1.5703h-8.4805c-0.86328 0.003906-1.5625 0.70703-1.5703 1.5703v40.609l9.6406-1.8789c0.66016-0.12109 1.2812-0.24219 1.9922-0.33203z" fill-rule="evenodd"/>
</svg>