<svg xmlns="http://www.w3.org/2000/svg" version="1.1" viewBox="-5.0 -15.0 110.0 135.0" fill="white" style="transform: scale(1.3)">
 <path d="m83.48 63.809c-1.1719 2.8398-0.48047 6.1914 1.6289 9.25 0.94922 1.375 0.87891 3.2109-0.16797 4.5117-2.1445 2.707-4.5898 5.1602-7.293 7.3086-1.3008 1.0547-3.1406 1.125-4.5195 0.17188-3.1094-2.1016-6.4219-2.8008-9.2617-1.6289-2.8398 1.1719-4.6914 4-5.3984 7.7109v-0.003906c-0.29688 1.6484-1.6445 2.9023-3.3086 3.082-3.4297 0.39844-6.8906 0.39844-10.32 0-1.6641-0.17969-3.0117-1.4336-3.3086-3.082-0.71094-3.6797-2.5586-6.5312-5.3984-7.7109-2.8438-1.1797-6.1328-0.41797-9.2617 1.6328-1.3789 0.95312-3.2188 0.88281-4.5195-0.17188-2.707-2.1445-5.1523-4.5977-7.293-7.3086-1.0469-1.3008-1.1172-3.1367-0.16797-4.5117 2.1016-3.1016 2.8008-6.4102 1.6289-9.25s-4-4.6797-7.6719-5.3906l0.003906 0.003906c-1.6484-0.30078-2.9023-1.6562-3.0703-3.3203-0.39062-3.3906-0.39062-6.8125 0-10.203 0.16797-1.6641 1.4219-3.0195 3.0703-3.3203 3.6602-0.71094 6.4883-2.5586 7.6719-5.3906 1.1758-2.8281 0.47656-6.1875-1.6328-9.2461-0.94922-1.375-0.87891-3.2109 0.16797-4.5117 2.1406-2.7109 4.5859-5.1641 7.293-7.3086 1.3125-1.0391 3.1523-1.0898 4.5195-0.12109 3.1094 2.1016 6.4219 2.8008 9.2617 1.6289 2.8398-1.1719 4.6914-4 5.3984-7.7109v0.003906c0.29688-1.6484 1.6445-2.9023 3.3086-3.082 3.4297-0.39844 6.8906-0.39844 10.32 0 1.6641 0.17969 3.0117 1.4336 3.3086 3.082 0.71094 3.6797 2.5586 6.5312 5.3984 7.7109 2.8438 1.1758 6.1328 0.41797 9.2617-1.6328 1.3789-0.95312 3.2188-0.88281 4.5195 0.17188 2.7031 2.1484 5.1484 4.6016 7.293 7.3086 1.0469 1.3008 1.1172 3.1328 0.16797 4.5078-2.1016 3.1016-2.8008 6.4102-1.6289 9.25 1.1719 2.8398 4 4.6797 7.6719 5.3906h-0.003906c1.6484 0.30078 2.9023 1.6523 3.0703 3.3203 0.39062 3.3906 0.39062 6.8125 0 10.199-0.16797 1.668-1.4219 3.0234-3.0703 3.3203-3.6602 0.71094-6.4883 2.5586-7.6719 5.3906zm-12.121-2.8086-4.1484-4.1602c-0.75391-0.73828-1.0664-1.8164-0.82031-2.8398 1.3477-5.5312-0.18359-11.371-4.0781-15.527s-9.625-6.0625-15.234-5.0742c-0.37891 0.0625-0.6875 0.33594-0.79688 0.70312-0.10938 0.35156-0.011719 0.73828 0.25 1l10 10c0.53516 0.51563 0.73828 1.2852 0.52734 2l-1.7891 6.7109v-0.003906c-0.17969 0.71484-0.73828 1.2695-1.4492 1.4531l-6.6719 1.8398c-0.71094 0.20703-1.4805 0.003907-2-0.53125l-10-10c-0.26172-0.26172-0.64453-0.35937-1-0.25-0.36719 0.10938-0.63672 0.42188-0.69922 0.80078-0.96875 5.5898 0.94141 11.293 5.082 15.172 4.1367 3.8828 9.9531 5.4219 15.469 4.0977 1.0391-0.26562 2.1445 0.046875 2.8906 0.82031l4.1094 4.1484c4.4453-2.293 8.0664-5.9141 10.359-10.359zm-21.359-36.879c-6.8633 0-13.445 2.7266-18.301 7.5781-4.8516 4.8555-7.5781 11.438-7.5781 18.301s2.7266 13.445 7.5781 18.301c4.8555 4.8516 11.438 7.5781 18.301 7.5781s13.445-2.7266 18.301-7.5781c4.8516-4.8555 7.5781-11.438 7.5781-18.301s-2.7266-13.445-7.5781-18.301c-4.8555-4.8516-11.438-7.5781-18.301-7.5781z" fill-rule="evenodd"/>
</svg>