<svg fill="white" style="transform: scale(1.1)" xmlns="http://www.w3.org/2000/svg" data-name="Layer 1" viewBox="0 -10 100 125" x="0px" y="0px"><defs><style>
      .cls-1 {
        fill-rule: evenodd;
      }
    </style></defs><path class="cls-1" d="m28.835,34.604c.523-.607,1.439-.676,2.047-.153s.676,1.439.153,2.047l-7.646,8.882c-.587.682-1.636.663-2.212-.014l-4.204-4.883c-.523-.607-.454-1.524.153-2.047s1.524-.454,2.047.153l3.116,3.619,6.546-7.604h0Zm0,20.955c.523-.607,1.439-.676,2.047-.153.607.523.676,1.439.153,2.047l-7.646,8.882c-.587.682-1.636.663-2.212-.014l-4.204-4.883c-.523-.607-.454-1.524.153-2.047.607-.523,1.524-.454,2.047.153l3.116,3.619,6.546-7.604h0Zm43.088,18.484h8.146c2.085,0,3.786,1.701,3.786,3.786v8.146c0,2.085-1.701,3.786-3.786,3.786h-8.146c-2.085,0-3.786-1.701-3.786-3.786v-8.146c0-2.085,1.701-3.786,3.786-3.786h0Zm8.146,2.903h-8.146c-.483,0-.883.4-.883.883v8.146c0,.483.4.883.883.883h8.146c.483,0,.883-.4.883-.883v-8.146c0-.483-.4-.883-.883-.883h0Zm-8.146-23.858h8.146c2.085,0,3.786,1.701,3.786,3.786v8.146c0,2.085-1.7,3.786-3.786,3.786h-8.146c-2.085,0-3.786-1.701-3.786-3.786v-8.146c0-2.085,1.701-3.786,3.786-3.786h0Zm8.146,2.903h-8.146c-.483,0-.883.4-.883.883v8.146c0,.483.4.883.883.883h8.146c.483,0,.883-.4.883-.883v-8.146c0-.483-.4-.883-.883-.883h0ZM19.771,12.302h-8.691c-3.335,0-6.07,2.734-6.07,6.07v5.621h89.981v-5.621c0-3.335-2.734-6.07-6.07-6.07h-8.691v2.142c0,4.545-5.538,6.903-8.799,3.643-.934-.934-1.513-2.223-1.513-3.643v-2.142h-14.761v2.142c0,4.545-5.538,6.903-8.799,3.643-.934-.934-1.513-2.223-1.513-3.643v-2.142h-14.761v2.142c0,4.545-5.538,6.903-8.799,3.643-.934-.934-1.513-2.223-1.513-3.643v-2.142h0Zm-14.761,14.593v62.032c0,3.335,2.734,6.07,6.07,6.07h77.841c3.335,0,6.07-2.734,6.07-6.07V26.895H5.01ZM27.18,10.855v3.589c0,.618-.254,1.181-.663,1.59-1.435,1.435-3.843.38-3.843-1.59v-7.187c0-.618.254-1.181.663-1.59,1.435-1.435,3.843-.38,3.843,1.59v3.597h0Zm1.655,65.658c.523-.607,1.439-.676,2.047-.153.607.523.676,1.439.153,2.047l-7.646,8.882c-.587.682-1.636.663-2.212-.014l-4.204-4.883c-.523-.607-.454-1.524.153-2.047s1.524-.454,2.047.153l3.116,3.619,6.546-7.604h0ZM76.663,5.667c.409.409.663.972.663,1.59v7.187c0,.618-.254,1.181-.663,1.59-1.435,1.435-3.843.38-3.843-1.59v-7.187c0-1.97,2.408-3.025,3.843-1.59h0Zm-25.073,0c.409.409.663.972.663,1.59v7.187c0,.618-.254,1.181-.663,1.59-1.435,1.435-3.843.38-3.843-1.59v-7.187c0-1.97,2.408-3.025,3.843-1.59h0Zm20.333,26.466h8.146c2.085,0,3.786,1.701,3.786,3.786v8.146c0,2.085-1.7,3.786-3.786,3.786h-8.146c-2.085,0-3.786-1.701-3.786-3.786v-8.146c0-2.085,1.701-3.786,3.786-3.786h0Zm8.146,2.903c.483,0,.883.4.883.883v8.146c0,.483-.4.883-.883.883h-8.146c-.483,0-.883-.4-.883-.883v-8.146c0-.483.4-.883.883-.883h8.146Zm-34.142,39.006h8.146c2.085,0,3.786,1.701,3.786,3.786v8.146c0,2.085-1.701,3.786-3.786,3.786h-8.146c-2.085,0-3.786-1.701-3.786-3.786v-8.146c0-2.085,1.701-3.786,3.786-3.786h0Zm8.146,2.903c.483,0,.883.4.883.883v8.146c0,.483-.4.883-.883.883h-8.146c-.483,0-.883-.4-.883-.883v-8.146c0-.483.4-.883.883-.883h8.146Zm-8.146-23.858h8.146c2.085,0,3.786,1.701,3.786,3.786v8.146c0,2.085-1.701,3.786-3.786,3.786h-8.146c-2.085,0-3.786-1.701-3.786-3.786v-8.146c0-2.085,1.701-3.786,3.786-3.786h0Zm8.146,2.903c.483,0,.883.4.883.883v8.146c0,.483-.4.883-.883.883h-8.146c-.483,0-.883-.4-.883-.883v-8.146c0-.483.4-.883.883-.883h8.146Zm-8.146-23.858h8.146c2.085,0,3.786,1.701,3.786,3.786v8.146c0,2.085-1.701,3.786-3.786,3.786h-8.146c-2.085,0-3.786-1.701-3.786-3.786v-8.146c0-2.085,1.701-3.786,3.786-3.786h0Zm8.146,2.903c.483,0,.883.4.883.883v8.146c0,.483-.4.883-.883.883h-8.146c-.483,0-.883-.4-.883-.883v-8.146c0-.483.4-.883.883-.883h8.146Z"/></svg>