<svg version="1.1" xmlns="http://www.w3.org/2000/svg" viewBox="181 133 1766 788"> <path transform="translate(476,133)" d="m0 0 11 2 21 10 19 10 28 14 11 6 6-1 20-11 54-27 9-3h8l11 4 68 34 19 10 62 31 19 10 28 14 19 10 24 12 17 9 16 8 9 6 4 5 2 6v11l-5 12-14 30-11 24-16 34-11 23-26 56-8 17-13 28-10 21-13 28-10 21-13 28-16 34-18 38-13 28-17 35-13 28-32 68-12 25-8 18-8 14-7 5-7 2-9-1-8-5-5-7-6-18-19-62-16-52-8-27-14-45-1-1-18 57-12 40-12 38-11 35-10 33-5 8-5 4-4 2-8 1-9-3-6-4-6-10-13-28-10-21-8-16-13-27-11-23-12-25-19-39-11-23-12-25-14-29-16-33-18-38-22-45-16-34-12-24-13-28-15-30-11-23-16-34-18-37-6-14-1-4v-10l5-10 9-7 33-17 19-10 33-17 28-15 22-11 22-12 26-13 19-10 23-12 32-17 15-7zm182 42-42 21-3 2v2l62 32 34 18 20 10 22 12 16 8 9 6 4 5 3 7-1 11-8 17-8 14-14 25-12 21-28 50-16 28-10 18-12 21-10 18-14 24-10 18-15 26-15 27-11 19-1 2v8l7 25 15 48 12 39 10 31 15 49 3 10h3l19-40 12-26 16-33 12-26 19-40 12-25 17-36 13-28 18-39 14-29 11-24 15-33 18-38 13-28 13-27 15-33 16-33-1-4-45-23-86-44-41-21-24-12-19-10-26-13-13-7zm-182 0-16 8-19 10-22 11-22 12-47 24-27 14-53 28-33 17-11 6 2 6 8 18 19 39 13 28 14 29 13 28 22 45 17 35 13 28 21 43 11 23 16 34 22 45 13 28 8 16 22 45 14 29 11 22 3 1 6-20 30-95 22-70 5-17v-7l-8-14-9-14-10-17-15-24-10-18-15-25-13-22-17-28-32-54-18-30-11-19-17-28-12-21-8-16v-11l4-9 9-7 33-17 19-10 28-15 23-12 22-12 19-10 9-4-2-4-24-13-19-9zm90 47-26 13-23 12-22 12-30 16-22 12-20 10-19 10-3 2 1 4 12 20 17 29 8 13 12 20 8 13 15 26 8 13 19 32 16 28 9 14 17 29 15 25 10 17 5 7h2l15-26 13-23 9-16 12-21 14-25 8-14 15-27 11-19 15-27 14-24 25-45 8-13 4-9-22-12-25-13-19-10-29-15-27-14-19-10-28-14z" fill="#2054A4"></path> <path transform="translate(897,622)" d="m0 0h11l8 5 5 7 15 47 7 25 17 56 9 30 14 46 8 27 4 10 1 1h7l7-6 12-17 11-15 8-12 14-19 10-14 12-17 26-36 12-17 10-14 13-18 12-17 26-36 8-11 8-5h11l8 4 6 8 1 3v267l-4 8-5 5-3 1h-15l-6-4-4-5-2-5-1-34v-161l-1-3-8 11-14 20-26 36-11 16-14 19-11 16-10 13-13 19-9 12-10 14-14 19-10 10-16 8-4 1h-17l-13-4-10-6-7-9-6-14-13-43-9-31-13-43-20-67v-2h-2l-3 9-11 23-15 33-16 35-13 28-18 40-11 24-8 17-6 5-6 2h-8l-7-2-7-6-3-9 1-9 11-24 8-18 17-37 15-33 15-32 13-29 30-66 9-20 5-6z" fill="#2054A4"></path> <path transform="translate(1262,622)" d="m0 0h198l10 5 5 8 1 4v7l-3 8-8 7-3 1h-176v90h136l7 3 6 5 3 8v9l-4 8-6 5-5 2h-137v88l174 1 7 3 5 4 3 5 1 4v8l-3 8-8 7-3 1h-201l-8-5-5-6-2-7v-262l3-9 6-7z" fill="#29549B"></path> <path transform="translate(1511,622)" d="m0 0h83l15 2 16 4 16 6 16 8 12 8 13 11 11 11 10 13 7 11 7 14 6 17 4 16 2 15v27l-3 20-5 18-9 21-14 21-9 10-4 5-8 7-13 10-16 9-17 8-19 5-14 2h-88l-10-6-4-8-1-6v-250l1-14 4-8 6-5zm24 40v219l1 1 58-1 16-3 16-6 15-8 9-7 12-11 10-13 10-19 5-16 2-11v-30l-4-19-6-16-9-15-7-9-11-11-16-11-15-7-17-5-15-2z" fill="#2054A4"></path> <path transform="translate(1714,294)" d="m0 0h42l18 4 17 6 19 10 16 12 16 16 10 14 10 18 6 15 5 20 2 15 1 18-2 21-4 20-6 16-7 14-10 15-9 10-15 15-16 11-15 8-16 6-17 4-6 1h-35l-21-4-20-7-18-10-13-10-12-11-10-11-10-15-8-14-7-20-4-19-1-7v-33l3-18 4-15 8-19 10-17 11-14 13-13 16-12 23-12 21-6zm17 38-18 2-14 4-14 7-11 7-13 12-11 14-8 15-6 18-3 17v21l3 17 7 20 8 14 13 15 11 10 17 10 12 5 19 4h24l17-4 17-7 14-9 10-9 11-12 8-13 7-16 4-16 1-6v-27l-3-15-6-18-7-13-10-13-10-10-13-9-15-8-13-4-10-2z" fill="#2054A4"></path> <path transform="translate(1026,303)" d="m0 0h83l13 2 15 5 11 6 13 11 7 11 5 11 4 16v24l-4 16-7 14-5 7 18 18 8 14 4 10 3 16v22l-3 15-5 13-9 14-7 8-8 6-14 8-15 5-12 2h-176l-7-3-7-8-1-3v-13l5-8 7-4 3-1 40-1 134-1 13-4 9-5 6-7 5-11 1-3v-19l-5-14-6-8-8-5-13-5-6-1-113-1-8-3-7-8-1-3v-10l3-8 6-5 5-2 7-1h86l17-1 11-4 10-9 4-8 2-10v-8l-2-10-6-9-5-4-10-4-8-1h-77l-9-3-6-5-3-5-1-4v-7l3-8 8-7z" fill="#2054A4"></path> <path transform="translate(1223,303)" d="m0 0h156l8 3 6 7 2 5v10l-4 8-6 5-5 2h-132v77h96l8 4 5 6 2 5v10l-4 8-8 6-4 1h-95v77h126l10 2 6 4 4 6 1 3v9l-3 8-7 6-6 2h-154l-9-4-5-6-2-5v-243l3-8 7-6z" fill="#2054A4"></path> <path transform="translate(1825,621)" d="m0 0 10 2 8 7 4 8 12 31 25 63 10 26 11 28 12 30 21 53 9 24v11l-5 8-6 4-3 1h-12l-8-4-6-10-15-38-14-35-1-2h-55l-47 1-12 32-18 46-4 6-7 4-10 1-7-2-7-6-3-7v-9l9-25 30-78 11-28 19-49 16-42 16-41 7-7 4-2zm1 74-4 9-15 40-15 39v4l5 1h22l43-1-6-17-25-65-4-10z" fill="#2054A4"></path> <path transform="translate(1423,304)" d="m0 0h8l7 3 5 4 4 8v218h141l9 3 5 5 4 8v9l-4 8-6 5-6 2h-167l-8-4-5-6-2-5v-243l4-8 6-5z" fill="#2054A4"></path> </svg>