<?xml version="1.0" encoding="utf-8" ?>
<svg xmlns="http://www.w3.org/2000/svg" xmlns:xlink="http://www.w3.org/1999/xlink" width="1024" height="1024">
	<path fill="none" d="M0 0L1024 0L1024 1024L0 1024L0 0Z"/>
	<path fill="#088BA1" d="M116.915 393.66C116.828 393.921 116.746 394.184 116.655 394.443C116.282 395.512 115.703 396.168 114.973 397.015L115.095 398.236C116.255 397.942 115.606 398.284 115.977 397.856C116.391 397.379 116.833 396.926 117.262 396.462C118.03 396.718 117.779 396.52 118.129 396.87C115.76 399.666 112.876 402.124 110.204 404.634C109.584 403.715 108.81 402.959 108.051 402.154C110.949 399.251 113.856 396.395 116.915 393.66Z"/>
	<path fill="#45555E" d="M125.067 386.301C126.097 386.994 126.925 387.443 127.627 388.494C124.71 391.373 121.424 394.426 118.129 396.87C117.779 396.52 118.03 396.718 117.262 396.462C116.833 396.926 116.391 397.379 115.977 397.856C115.606 398.284 116.255 397.942 115.095 398.236L114.973 397.015C115.703 396.168 116.282 395.512 116.655 394.443C116.746 394.184 116.828 393.921 116.915 393.66C119.532 391.056 122.218 388.648 125.067 386.301Z"/>
	<path fill="#59AAF9" d="M77.9191 432.153C88.166 422.368 98.044 412.184 108.051 402.154C108.81 402.959 109.584 403.715 110.204 404.634C104.772 409.904 83.6588 429.357 81.2105 434.37L79.9779 435.068C79.3946 433.878 78.8453 433.101 77.9191 432.153Z"/>
	<path fill="#36F4F0" d="M301.271 78.4515C303.398 80.7886 302.576 85.6897 304.445 87.9173C307.133 91.1228 313.428 91.8057 317.31 92.5751C313.135 93.2865 308.782 93.7969 304.795 95.2574C303.867 98.0549 303.263 103.367 301.707 105.581C300.848 102.864 300.868 99.7484 299.232 97.3079C296.457 93.1681 288.856 93.3928 284.327 92.4506C289.837 91.9225 294.182 91.0708 298.936 87.9741C300.396 84.8494 301.01 81.8566 301.271 78.4515Z"/>
	<path fill="#0E19F4" d="M843.271 176.945L843.811 177.749C844.18 184.038 845.368 191.417 849.117 196.642C854.526 204.183 867.209 204.534 875.622 205.948C868.666 206.745 858.981 207.3 853.049 211.391C845.578 216.543 845.504 227.631 843.815 235.626C842.735 228.782 842.036 220.575 838.183 214.633C832.462 205.808 819.614 207.105 810.427 205.353C817.954 204.741 829.113 204.786 835.323 199.9C841.886 194.736 842.314 184.594 843.271 176.945Z"/>
	<path fill="#0E19F4" d="M910.723 280.375C913.14 284.059 912.7 295.466 918.483 303.729C926.025 314.507 941.147 314.917 952.99 316.781C943.825 318.433 934.004 318.766 925.932 323.947C914.315 331.403 915.342 343.968 912.538 355.728L912.388 356.337C910.919 347.398 909.188 336.689 903.562 329.273C895.87 319.135 879.535 318.498 867.981 317.003C877.802 315.472 890.542 314.602 898.906 308.819C908.151 302.427 908.963 290.454 910.723 280.375Z"/>
	<path fill="#263137" d="M284.758 645.089C288.349 653.06 290.112 665.422 291.903 674.15C296.064 694.422 300.209 714.917 303.021 735.426C295.092 733.818 288.661 728.589 284.253 721.976C272.097 703.744 275.095 692.224 279.323 672.257Q282.216 658.708 284.758 645.089Z"/>
	<path fill="#0E19F4" d="M117.516 730.044C117.656 729.487 117.606 729.861 117.396 728.918C116.324 728.244 115.756 727.973 115.09 726.841C115.546 724.199 117.075 722.281 118.161 719.895C120.752 714.201 116.715 709.492 114.942 704.333C114.348 702.606 113.644 700.665 114.519 698.937C114.617 698.744 114.737 698.563 114.846 698.375L114.739 698.388C115.604 698.625 115.291 698.451 116.004 698.999C117.804 700.38 119.18 701.747 121.549 701.703C127.822 705.272 154.272 722.68 158.846 723.504C158.669 729.306 158.161 735.087 158.238 740.897C158.306 746.065 158.907 751.208 158.947 756.375C147.99 751.608 127.738 737.251 117.516 730.044Z"/>
	<path fill="#263137" d="M337.972 536.324C344.312 537.755 350.834 538.374 357.247 539.435L392.856 545.687C403.542 547.658 414.314 551.237 425.05 552.535C425.186 552.552 425.323 552.566 425.46 552.581L425.266 552.991L425.179 551.785L425.483 552.506L424.267 552.622L424.027 553.247C418.203 552.992 411.745 551.077 405.913 550.121Q383.999 546.745 362.155 542.944C357.167 542.046 348.692 539.648 343.902 539.798C343.727 539.803 343.554 539.832 343.38 539.85C346.834 544.39 352.52 548.172 356.848 551.951Q366.489 560.534 376.037 569.219C386.636 578.778 396.576 589.142 407.32 598.505C409.896 600.75 412.568 602.829 415.507 604.579C424.711 610.059 435.182 612.731 445.707 614.176C457.572 615.806 551.257 626.07 555.299 623.499C553.271 616.676 504.629 588.027 496.331 582.85C486.886 576.958 477.601 570.285 467.829 564.967C466.585 564.29 465.53 563.817 464.611 562.673C473.933 565.425 484.077 571.235 492.968 575.44C507.667 582.392 522.512 589.087 536.951 596.573C547.282 601.929 557.353 607.843 567.442 613.64C576.641 618.925 587.237 624.392 595.082 631.59C556.063 629.034 442.183 627.305 413.295 609.61C401.712 602.514 391.76 591.01 382.212 581.42Q362.055 561.51 342.944 540.595C341.372 539.096 339.629 537.732 337.972 536.324Z"/>
	<path fill="#59AAF9" d="M219.015 119.821C220.166 122.835 220.414 126.76 220.996 129.956C222.773 139.713 225.472 149.782 231.136 158.074C241.843 173.747 261.978 175.377 279.122 178.543C266.039 179.766 251.112 181.089 240.065 188.885C225.346 199.274 222.557 217.511 219.695 233.953C215.036 221.499 215.144 208.151 206.801 196.988C196.015 182.555 175.353 180.238 158.84 177.898C172.533 175.19 187.568 174.139 199.408 165.987C213.801 156.079 216.046 135.694 219.015 119.821Z"/>
	<defs>
		<linearGradient id="gradient_0" gradientUnits="userSpaceOnUse" x1="799.54865" y1="151.94547" x2="730.99615" y2="88.918121">
			<stop offset="0" stop-color="#2C26CF"/>
			<stop offset="1" stop-color="#3F94E1"/>
		</linearGradient>
	</defs>
	<path fill="url(#gradient_0)" d="M766.742 54.2351C767.778 57.5964 767.858 61.7288 768.404 65.2278C769.583 72.7855 771.425 80.4596 774.237 87.5847C782.624 108.832 800.689 117.162 822.575 119.482C826.704 119.919 834.62 119.623 837.954 121.088C822.727 122.829 802.388 126.798 790.252 136.544C774.21 149.427 770.904 174.026 768.681 193.123L768.076 193.282L768.303 193.88L768.194 194.046L768.004 191.377C766.313 174.64 761.828 156.174 751.038 142.809C738.143 126.836 710.329 122.871 691.032 120.857C709.427 119.724 731.598 117.797 746.448 105.827C761.617 93.599 764.755 72.3839 766.742 54.2351Z"/>
	<path fill="#263137" d="M741.222 475.103C751.613 475.529 762.312 477.889 772.525 479.737C787.774 482.495 803.183 485.506 818.176 489.451C826.012 491.512 833.708 494.143 841.507 496.354C875.084 505.872 908.771 516.475 938.899 534.45L938.003 533.922C938.023 544.691 937.042 554.205 933.35 564.351C936.12 568.261 939.427 571.804 942.236 575.703C949.959 586.419 954.842 598.303 958.335 610.952C967.866 607.31 977.18 603.154 986.784 599.678C981.02 583.949 972.125 567.556 961.244 554.791C958.816 551.942 949.721 543.953 948.528 541.49C950.427 542.293 952.134 544.235 953.684 545.611C968.424 559.156 987.901 583.557 993.386 602.792C981.026 609.859 966.321 615.665 952.761 620.076C950.931 613.29 949.038 606.666 945.813 600.384C916.052 542.424 846.693 509.274 788.036 489.251C772.597 483.98 756.715 480.148 741.222 475.103Z"/>
	<defs>
		<linearGradient id="gradient_1" gradientUnits="userSpaceOnUse" x1="975.66864" y1="648.10425" x2="999.64166" y2="767.44049">
			<stop offset="0" stop-color="#0300F2"/>
			<stop offset="1" stop-color="#3051FB"/>
		</linearGradient>
	</defs>
	<path fill="url(#gradient_1)" d="M952.742 768.897C957.661 765.822 961.361 759.153 964.186 754.24C973.373 738.26 979.135 720.8 987.42 704.464C994.304 690.89 1003.53 678.752 1010.99 665.552C1013.46 661.179 1015.78 656.391 1016.98 651.49C1020.64 636.539 1011.94 622.045 1004.42 609.688C1004.84 609.897 1005.01 609.947 1005.39 610.319C1008.63 613.475 1011.48 619.185 1013.51 623.24C1025.33 646.906 1022.89 662.007 1021.94 687.505C1021.39 699.232 1020.97 711.254 1019.49 722.894C1020.45 732.313 1013.94 758.875 1014.92 762.378C1008.21 776.178 1001.86 791.001 988.904 800.252C982.197 791.074 975.561 784.237 966.448 777.359Q959.678 772.993 952.742 768.897Z"/>
	<path fill="#263137" d="M997.884 763.372C995.996 759.609 996.585 755.746 997.415 751.785C999.946 739.717 1010.1 692.294 1019.21 686.399C1020.65 686.42 1020.76 686.63 1021.94 687.505C1021.39 699.232 1020.97 711.254 1019.49 722.894C1018.57 727.31 1018.1 731.757 1016.93 736.128C1014.36 745.673 1008.14 756.867 999.632 762.357Q998.778 762.899 997.884 763.372Z"/>
	<path fill="#406DFD" d="M1019.49 722.894C1020.45 732.313 1013.94 758.875 1014.92 762.378C1008.21 776.178 1001.86 791.001 988.904 800.252C982.197 791.074 975.561 784.237 966.448 777.359C965.797 776.088 965.487 775.849 965.718 774.464C967.389 772.566 969.101 771.344 971.361 770.209C975.751 768.003 993.285 761.838 997.884 763.372Q998.778 762.899 999.632 762.357C1008.14 756.867 1014.36 745.673 1016.93 736.128C1018.1 731.757 1018.57 727.31 1019.49 722.894Z"/>
	<path fill="#263137" d="M252.942 776.088C257.276 775.668 261.172 776.172 265.052 778.26C280.048 786.333 285.711 814.451 290.067 829.613L298.994 860.588C283.986 866.243 269.824 867.571 254.336 863.044C233.627 856.312 217.443 841.153 205.378 823.397C209.201 820.326 212.277 816.089 215.397 812.334C222.673 803.574 237.901 783.908 246.838 778.38C248.693 777.232 250.86 776.678 252.942 776.088Z"/>
	<path fill="#263137" d="M191.279 680.317C195.62 685.171 200.928 689.294 205.718 693.71C212.131 699.623 218.32 705.801 224.541 711.915C229.269 716.562 234.303 721.15 237.704 726.909C240.272 731.258 241.687 736.07 242.484 741.033C245.66 760.809 242.66 769.939 231.342 785.767L218.415 803.771C214.036 809.747 209.778 816.277 204.655 821.623C202.926 818.36 201.12 815.137 199.425 811.857C179.051 772.438 177.937 722.11 191.279 680.317Z"/>
	<path fill="#263137" d="M191.618 679.292C196.739 665.277 205.102 652.731 215.549 642.109C234.039 623.309 252.474 618.104 278.265 617.965C279.026 624.422 280.978 631.112 282.487 637.452C280.108 649.151 277.417 660.744 274.822 672.393C273.289 679.272 272.12 686.616 269.847 693.284Q268.854 696.211 267.476 698.978Q266.099 701.744 264.362 704.301C260.719 709.606 255.498 714.77 248.891 715.782C245.457 716.308 242.076 715.704 238.914 714.312C231.445 711.025 224.624 704.8 218.209 699.813Q205.01 689.427 191.618 679.292Z"/>
	<path fill="#263137" d="M81.2105 434.37C81.51 434.224 81.8145 434.087 82.1089 433.93C87.0071 431.33 96.8594 419.84 101.261 415.414C121.262 395.299 160.774 357.412 191.576 365.185C199.846 367.271 205.903 373.031 210.016 380.271C222.428 402.122 225.773 450.312 227.192 475.815C217.352 475.445 207.503 474.84 197.666 474.541C195.454 477.164 193.303 479.398 190.407 481.3C194.823 488.908 200.896 498.531 209.072 502.341C209.132 503.577 209.051 503.714 208.134 504.589C205.077 507.507 197.73 507.932 193.762 507.913C186.898 499.91 182.427 490.147 176.731 481.331C162.673 480.15 138.183 482.009 126.028 478.468C122.723 477.505 119.698 475.822 117.44 473.189C115.042 470.39 114.149 467.169 113.553 463.604Q121.456 465.703 129.585 466.58C137.559 467.498 196.533 472.397 199.282 471.203C200.076 470.858 200.606 469.786 200.774 468.979C202.144 462.362 194.824 449.513 191.006 444.318C187.145 439.066 183.26 437.933 177.042 437C165.26 435.232 131.945 433.261 122.696 440.324C117.133 444.573 114.644 451.156 113.152 457.759C102.25 456.858 91.3736 454.003 84.1058 445.189C82.9933 443.84 81.9825 442.27 81.1722 440.728C80.4342 438.749 79.7423 437.215 79.9779 435.068L81.2105 434.37Z"/>
	<path fill="#309B94" d="M515.755 472.571C525.754 472.177 535.583 473.64 545.539 474.199C556.701 474.826 567.957 474.76 579.135 475.072C576.794 475.918 574.467 475.631 572.023 475.524C565.921 479.651 558.923 484.501 553.573 489.596C550.582 492.443 548.207 495.993 545.543 499.146C539.612 506.164 532.006 515.229 525.079 521.115C514.817 529.834 503.358 535.962 495.246 546.993C494.711 547.721 493.576 548.862 493.268 549.692C493.191 549.898 493.208 550.126 493.178 550.343C495.513 551.334 498.156 552.147 499.981 553.951L500.186 554.15C487.811 550.053 475.798 543.814 463.561 539.16Q417.449 521.273 370.302 506.326Q342.044 497.331 313.265 490.179C303.941 487.91 293.997 486.719 284.921 483.677C297.649 480.818 311.577 480.185 324.597 478.992Q364.565 475.34 404.693 474.616C417.171 474.306 429.746 473.787 442.222 474.056C453.135 473.706 464.084 473.931 475.002 473.962C482.656 473.983 490.476 473.661 498.112 474.075C505.29 473.568 512.444 473.957 519.656 473.253Q517.702 472.931 515.755 472.571Z"/>
	<path fill="#36F4F0" d="M442.222 474.056C453.135 473.706 464.084 473.931 475.002 473.962C482.656 473.983 490.476 473.661 498.112 474.075C490.237 475.821 483.646 472.632 476.434 477.952C474.008 477.206 472.102 475.58 469.767 474.838C463.131 472.73 450.152 475.795 442.222 474.056Z"/>
	<defs>
		<linearGradient id="gradient_2" gradientUnits="userSpaceOnUse" x1="31.666119" y1="599.15436" x2="141.07811" y2="515.51709">
			<stop offset="0" stop-color="#21A3C2"/>
			<stop offset="1" stop-color="#1728FB"/>
		</linearGradient>
	</defs>
	<path fill="url(#gradient_2)" d="M77.9191 432.153C78.8453 433.101 79.3946 433.878 79.9779 435.068C79.7423 437.215 80.4342 438.749 81.1722 440.728C75.8312 443.727 71.1073 447.775 65.9297 451.055C58.6083 455.694 50.8936 459.747 43.7552 464.671C48.1765 466.944 62.1022 472.721 64.8674 475.209C64.7016 475.253 64.5405 475.322 64.3701 475.34C60.8701 475.72 54.6871 470.781 51.0417 469.746C50.1587 471.23 50.2393 472.205 50.681 473.801C52.044 478.726 54.9541 482.176 57.6161 486.377C58.6405 487.993 58.8356 489.91 59.8607 491.586C62.581 496.034 66.2125 499.934 68.7849 504.471C76.0198 517.233 81.3561 531.028 88.2941 543.929C91.482 549.856 95.295 555.436 98.4479 561.386C102.954 569.89 106.785 578.748 111.194 587.309C123.756 611.705 138.05 637.012 132.35 665.473C115.616 656.957 99.2178 647.386 82.9487 638.005C71.3876 631.338 59.4465 624.115 47.1678 618.907C44.5939 597.845 37.4505 546.896 25.3718 530.486C23.8723 528.448 21.745 526.217 19.0451 526.069C17.5279 525.985 16.1521 526.749 15.0592 527.733C7.34873 534.674 4.79039 552.509 4.43042 562.236C4.31898 565.247 4.75539 568.191 4.66929 571.15L3.61201 571.667C-1.21336 555.228 2.31632 534.444 5.40471 517.801C7.87474 504.49 11.431 491.735 15.3838 478.807C16.4334 475.374 17.1303 471.559 18.7857 468.363C19.7081 466.582 20.8449 465.245 22.4883 464.085C29.4435 459.175 41.7984 456.078 49.9197 451.707C60.0576 446.25 68.4981 438.635 77.9191 432.153Z"/>
	<path fill="#0E19F4" d="M132.35 665.473C138.05 637.012 123.756 611.705 111.194 587.309C106.785 578.748 102.954 569.89 98.4479 561.386C95.295 555.436 91.482 549.856 88.2941 543.929C81.3561 531.028 76.0198 517.233 68.7849 504.471C66.2125 499.934 62.581 496.034 59.8607 491.586C58.8356 489.91 58.6405 487.993 57.6161 486.377C54.9541 482.176 52.044 478.726 50.681 473.801C50.2393 472.205 50.1587 471.23 51.0417 469.746C54.6871 470.781 60.8701 475.72 64.3701 475.34C64.5405 475.322 64.7016 475.253 64.8674 475.209C77.9597 480.595 90.6108 487.596 103.43 493.663C129.72 506.105 156.258 517.915 182.279 530.946C188.029 533.826 193.785 536.762 199.37 539.951C203.2 542.138 206.965 544.707 210.888 546.686C210.816 546.837 210.754 546.992 210.673 547.138C208.058 551.826 203.404 555.139 200.968 560.223C190.104 582.899 182.684 610.181 185.167 635.631C177.093 650.238 167.964 667.194 165.075 683.797C157.491 679.835 150.173 675.394 142.706 671.221C139.493 669.426 135.218 667.705 132.35 665.473Z"/>
	<path fill="#000" d="M85.4796 507.671C88.6299 507.483 91.6444 507.611 94.719 508.379C99.3622 509.54 109.001 513.223 111.277 517.622C111.665 518.371 111.387 518.524 111.112 519.236C109.668 520.127 108.099 519.815 106.477 519.721L96.1703 519.33C92.5187 515.189 82.5054 511.721 77.3197 508.854C80.0441 508.534 82.7654 508.074 85.4796 507.671Z"/>
	<path fill="#2B76FC" d="M503.039 149.561C539.42 147.748 577.85 152.545 612.892 162.314C618.415 163.854 625.026 165.324 630.145 167.837L630.115 168.375C633.524 169.503 639.389 170.805 642.231 172.853C642.092 172.961 641.938 173.051 641.814 173.177C640.425 174.59 640.156 177.295 639.814 179.171C637.522 191.739 639.061 203.282 639.589 215.822C640.186 230.029 640.573 244.356 641.653 258.533L643.203 280.762C643.603 286.555 644.313 292.204 644.027 298.024C643.932 299.965 644.841 301.946 645.863 303.538C645.967 303.7 646.055 303.872 646.151 304.039C641.282 304.828 614.981 287.331 611.775 289.339C593.771 281.847 575.707 274.354 557.117 268.408C544.305 264.311 531.027 261.139 517.966 257.921L517.799 257.22C512.905 255.408 506.876 256.168 502.119 253.937C501.795 252.932 501.784 253.242 501.833 252.334C502.577 238.487 501.456 222.904 500.327 209.071C499.502 198.965 492.887 158.887 495.686 151.484C496.131 150.307 501.176 150.771 503.039 149.561Z"/>
	<defs>
		<linearGradient id="gradient_3" gradientUnits="userSpaceOnUse" x1="471.67441" y1="302.1683" x2="289.94186" y2="191.92902">
			<stop offset="0" stop-color="#32D6E8"/>
			<stop offset="1" stop-color="#07FBF3"/>
		</linearGradient>
	</defs>
	<path fill="url(#gradient_3)" d="M211.489 319.205C224.889 297.655 243.702 275.289 261.304 256.989Q263.561 254.652 265.861 252.357Q268.161 250.063 270.503 247.811Q272.845 245.559 275.228 243.351Q277.611 241.144 280.035 238.98Q282.459 236.817 284.923 234.699Q287.386 232.581 289.889 230.509Q292.391 228.437 294.931 226.412Q297.472 224.386 300.049 222.408Q302.627 220.431 305.24 218.501Q307.854 216.571 310.503 214.69Q313.152 212.809 315.835 210.978Q318.519 209.146 321.236 207.365Q323.952 205.583 326.702 203.852Q329.451 202.121 332.232 200.442Q335.013 198.762 337.825 197.134Q340.637 195.507 343.478 193.931Q346.319 192.356 349.189 190.833Q352.059 189.311 354.957 187.842Q357.855 186.373 360.78 184.958Q363.704 183.543 366.654 182.182Q369.605 180.822 372.579 179.516Q375.554 178.21 378.553 176.96Q381.552 175.71 384.573 174.515Q387.594 173.321 390.637 172.182Q393.68 171.044 396.744 169.962Q399.807 168.88 402.89 167.856Q405.973 166.831 409.075 165.863Q412.176 164.896 415.295 163.986Q418.414 163.076 421.549 162.225Q424.684 161.373 427.835 160.579Q430.985 159.785 434.15 159.05Q437.314 158.315 440.492 157.639C460.99 153.114 482.026 149.981 503.039 149.561C501.176 150.771 496.131 150.307 495.686 151.484C492.887 158.887 499.502 198.965 500.327 209.071C501.456 222.904 502.577 238.487 501.833 252.334C501.784 253.242 501.795 252.932 502.119 253.937C506.876 256.168 512.905 255.408 517.799 257.22L517.966 257.921C512.036 257.878 499.315 254.54 492.702 253.525C478.477 251.341 464.22 250.198 449.868 249.348C397.116 246.226 342.319 254.243 293.282 274.294C278.741 280.239 264.438 287.603 250.675 295.155C237.174 302.564 224.524 311.063 211.489 319.205Z"/>
	<defs>
		<linearGradient id="gradient_4" gradientUnits="userSpaceOnUse" x1="867.18878" y1="318.49078" x2="652.69189" y2="354.00961">
			<stop offset="0" stop-color="#2B20CB"/>
			<stop offset="1" stop-color="#357ADC"/>
		</linearGradient>
	</defs>
	<path fill="url(#gradient_4)" d="M611.775 289.339C614.981 287.331 641.282 304.828 646.151 304.039C646.055 303.872 645.967 303.7 645.863 303.538C644.841 301.946 643.932 299.965 644.027 298.024C644.313 292.204 643.603 286.555 643.203 280.762L641.653 258.533C640.573 244.356 640.186 230.029 639.589 215.822C639.061 203.282 637.522 191.739 639.814 179.171C640.156 177.295 640.425 174.59 641.814 173.177C641.938 173.051 642.092 172.961 642.231 172.853C639.389 170.805 633.524 169.503 630.115 168.375L630.145 167.837C644.02 171.442 657.398 177.585 670.321 183.687C738.98 216.109 800.859 271.967 839.303 337.499C860.909 374.33 877.683 412.754 888.482 454.124C892.426 469.233 895.424 484.627 898.454 499.942C890.371 492.768 882.774 485.06 874.903 477.657C865.42 468.737 855.628 460.037 845.906 451.377Q828.394 435.516 810.286 420.341Q792.177 405.165 773.498 390.697Q754.82 376.229 735.599 362.49Q716.377 348.751 696.642 335.761Q668.428 317.398 638.402 302.18C632.37 299.069 626.227 296.217 620.092 293.319C617.397 292.047 614.286 290.918 611.775 289.339Z"/>
	<defs>
		<linearGradient id="gradient_5" gradientUnits="userSpaceOnUse" x1="246.57977" y1="673.05457" x2="620.4209" y2="854.85315">
			<stop offset="0" stop-color="#0900EC"/>
			<stop offset="1" stop-color="#5BFFFF"/>
		</linearGradient>
	</defs>
	<path fill="url(#gradient_5)" d="M276.568 609.629C280.732 613.019 284.944 616.185 289.634 618.819C297.3 623.126 305.792 626.266 313.92 629.611C340.466 640.535 367.997 649.277 395.098 658.739C407.634 662.15 419.871 666.614 432.249 670.544C464.312 680.726 498.766 690.167 526.279 710.421C537.53 718.703 547.655 728.795 558.38 737.766C575.571 752.144 597.409 767.591 616.762 778.719Q628.129 784.188 639.906 788.707C643.72 790.19 648.047 791.267 651.667 793.071C643.312 794.062 634.888 795.622 626.9 798.299C617.746 801.366 609.177 806.041 600.575 810.371Q582.365 819.361 564.577 829.159C558.324 832.614 551.237 838.27 544.773 840.736C536.995 843.703 475.82 838.818 463.34 837.528Q445.41 835.526 427.576 832.796C424.042 832.261 418.656 832.049 415.462 830.629C403.467 829.789 390.768 826.037 379.063 823.266C370.605 821.264 361.693 819.598 353.496 816.746C349.013 816.064 344.44 814.578 340.024 813.503Q326.317 810.164 312.571 806.992C311.872 791.113 309.26 774.816 306.87 759.111C305.876 752.579 305.289 745.456 303.575 739.094L303.021 735.426C300.209 714.917 296.064 694.422 291.903 674.15C290.112 665.422 288.349 653.06 284.758 645.089Q283.699 641.248 282.487 637.452C280.978 631.112 279.026 624.422 278.265 617.965C277.678 615.197 277.014 612.423 276.568 609.629Z"/>
	<path fill="#263137" d="M347.886 701.726C355.923 704.285 364.305 706.165 372.498 708.184C387.414 712.575 402.609 715.761 417.8 719.039Q464.188 728.997 511.05 736.402C518.079 737.514 525.166 738.138 532.188 739.228C523.501 739.912 514.609 739.074 505.919 738.538Q479.878 736.974 453.98 733.831C454.802 736.963 455.657 739.983 456.859 742.994C466.777 767.763 481.359 781.563 505.789 792.02C521.445 798.722 533.537 800.693 549.736 804.443C535.595 804.906 520.883 802.472 506.878 800.592C480.999 797.117 454.341 793.744 429.378 785.867C420.623 783.105 412.803 779.139 404.572 775.181C403.297 773.357 392.781 767.211 390.033 765.013C385.449 761.347 381.449 756.516 377.277 752.361C365.091 736.891 356.473 719.357 347.886 701.726Z"/>
	<defs>
		<linearGradient id="gradient_6" gradientUnits="userSpaceOnUse" x1="770.38403" y1="697.35339" x2="638.77728" y2="440.28879">
			<stop offset="0" stop-color="#130C0D"/>
			<stop offset="1" stop-color="#506365"/>
		</linearGradient>
	</defs>
	<path fill="url(#gradient_6)" d="M579.135 475.072C588.123 473.943 598.129 475.203 607.209 475.39Q639.364 476.192 671.529 475.998C686.067 475.931 703.893 477.026 717.817 473.103C718.06 473.263 718.3 473.428 718.547 473.583C722.22 475.892 733.132 478.218 737.944 479.763Q753.04 484.638 767.885 490.231C819.969 510.076 864.054 533.076 903.426 573.577C911.388 581.766 923.641 596.045 926.708 607.152C927.614 610.435 927.952 614.419 926.121 617.466C923.6 621.664 916.775 623.403 912.25 624.374C897.947 627.444 880.01 627.797 865.218 628.79Q800.197 632.603 735.065 632.403C707.622 632.341 679.247 632.726 652.038 628.909C642.238 627.534 633.017 625.718 624.615 620.297C617.881 615.953 611.434 611.165 604.626 606.933C594.458 600.614 583.671 594.82 573.074 589.241C556.793 580.669 540.042 572.487 523.37 564.701C515.684 561.112 507.793 557.893 500.186 554.15L499.981 553.951C498.156 552.147 495.513 551.334 493.178 550.343C493.208 550.126 493.191 549.898 493.268 549.692C493.576 548.862 494.711 547.721 495.246 546.993C503.358 535.962 514.817 529.834 525.079 521.115C532.006 515.229 539.612 506.164 545.543 499.146C548.207 495.993 550.582 492.443 553.573 489.596C558.923 484.501 565.921 479.651 572.023 475.524C574.467 475.631 576.794 475.918 579.135 475.072Z"/>
	<path fill="none" d="M789.797 549.624C790.205 554.142 792.285 567.552 790.195 570.814L788.79 570.119C787.114 564.604 788.816 555.297 789.797 549.624Z"/>
	<path fill="none" d="M788 573.635C788.915 573.716 789.799 573.873 790.702 574.04C792.368 577.194 790.46 593.081 789.848 597.317L789.816 597.478C788.087 590.643 788.438 580.874 788 573.635Z"/>
	<path fill="#263137" d="M984.545 643.705C985.295 643.625 986.048 643.545 986.802 643.517C988.195 643.467 988.935 643.787 989.913 644.774C991.542 646.417 991.909 649.869 991.949 652.036C992.076 659.044 990.486 666.74 989.138 673.632C984.242 698.671 972.485 736.459 953.934 754.908C948.615 760.199 942.575 763.353 935.514 765.747C913.439 773.23 889.024 775.422 865.994 778.358Q818.119 784.566 769.941 787.635C748.291 789.137 726.332 790.572 704.629 790.429C658.338 790.123 630.7 772.974 599.326 741.101C586.19 727.724 574.035 713.411 562.04 699.014C556.768 692.686 550.781 686.324 546.49 679.302C544.837 676.597 543.54 673.542 543.201 670.367C542.963 668.135 543.745 666.605 545.175 664.939C547.21 662.567 550.106 661.259 553.127 660.657C560.423 659.205 569.02 660.139 576.46 660.202Q592.104 660.319 607.746 660.054Q738.387 658.317 868.858 651.424C907.53 649.277 945.999 647.706 984.545 643.705Z"/>
	<path fill="url(#gradient_4)" d="M941.781 681.673C943.04 681.546 942.428 681.45 943.613 681.989C945.446 688.629 941.476 719.62 940.742 728.186C934.099 730.141 927.085 731.116 920.262 732.281Q902.921 735.294 885.466 737.563Q856.373 741.376 827.138 743.868Q797.902 746.36 768.584 747.527Q739.266 748.694 709.925 748.532Q680.584 748.371 651.28 746.882C650.614 743.698 649.755 740.531 648.983 737.369Q642.692 714.947 638.392 692.06Q709.122 696.679 779.985 695.138C834.292 694.028 888.13 690.496 941.781 681.673Z"/>
	<path fill="#263137" d="M125.067 386.301C141.637 372.646 157.158 357.492 178.065 350.59C193.865 345.375 216.657 345.59 233.563 344.62C272.256 342.399 311.524 341.017 350.267 341.968C401.465 343.225 452.558 347.803 503.51 352.719C522.497 354.55 542.015 356.657 560.06 363.162C573.245 367.915 585.511 375.434 597.49 382.604Q614.524 392.599 631.071 403.38Q662.399 423.212 693.076 444.036Q714.836 459.012 736.399 474.273C730.378 473.346 723.914 472.274 717.817 473.103C703.893 477.026 686.067 475.931 671.529 475.998Q639.364 476.192 607.209 475.39C598.129 475.203 588.123 473.943 579.135 475.072C567.957 474.76 556.701 474.826 545.539 474.199C535.583 473.64 525.754 472.177 515.755 472.571C491.487 472.655 467.139 470.995 442.84 470.882Q375.219 470.412 307.833 476.059C290.48 477.382 272.981 478.358 255.704 480.482C251.643 454.895 239.917 379.863 223.13 360.321C218.387 354.8 213.19 353.152 206.174 352.556C173.768 349.805 150.87 368.9 127.627 388.494C126.925 387.443 126.097 386.994 125.067 386.301Z"/>
	<path fill="#263137" d="M3.61201 571.667L4.66929 571.15C4.75539 568.191 4.31898 565.247 4.43042 562.236C4.79039 552.509 7.34873 534.674 15.0592 527.733C16.1521 526.749 17.5279 525.985 19.0451 526.069C21.745 526.217 23.8723 528.448 25.3718 530.486C37.4505 546.896 44.5939 597.845 47.1678 618.907C59.4465 624.115 71.3876 631.338 82.9487 638.005C99.2178 647.386 115.616 656.957 132.35 665.473C135.218 667.705 139.493 669.426 142.706 671.221C150.173 675.394 157.491 679.835 165.075 683.797C167.964 667.194 177.093 650.238 185.167 635.631C182.684 610.181 190.104 582.899 200.968 560.223C203.404 555.139 208.058 551.826 210.673 547.138C210.754 546.992 210.816 546.837 210.888 546.686L211.542 546.305C218.245 542.319 221.984 536.5 230.871 538.488C242.821 541.16 254.513 555.264 260.468 565.271C265.51 573.745 275.044 594.132 275.006 604.115C251.561 603.463 229.127 611.071 211.922 627.371C183.273 654.512 171.471 693.294 170.569 731.831C169.575 774.33 182.25 820.712 212.125 852.054C227.67 868.363 248.074 878.655 270.748 879.138Q271.74 879.152 272.732 879.141Q273.724 879.131 274.716 879.096Q275.707 879.061 276.698 879.001Q277.688 878.941 278.677 878.857Q279.665 878.772 280.651 878.664Q281.638 878.555 282.621 878.422Q283.604 878.288 284.584 878.131Q285.563 877.973 286.539 877.792Q287.514 877.61 288.485 877.404Q289.455 877.198 290.42 876.968Q291.385 876.738 292.345 876.484Q293.304 876.23 294.256 875.953Q295.209 875.675 296.154 875.374Q297.1 875.073 298.037 874.748Q298.975 874.424 299.904 874.076Q300.833 873.729 301.754 873.358Q302.674 872.988 303.585 872.594Q304.496 872.201 305.397 871.785Q306.298 871.37 307.188 870.932Q308.078 870.494 308.957 870.034Q309.837 869.574 310.704 869.092Q311.572 868.611 312.427 868.108Q313.282 867.605 314.125 867.081Q314.967 866.557 315.796 866.012Q316.626 865.468 317.441 864.903Q318.257 864.337 319.058 863.752Q319.859 863.167 320.646 862.562Q321.432 861.957 322.203 861.333Q322.974 860.709 323.73 860.066Q324.485 859.422 325.225 858.761Q325.964 858.099 326.687 857.419Q327.409 856.74 328.115 856.042Q329.858 854.324 331.511 852.52L319.107 848.657C313.062 853.025 307.078 856.713 300.378 860.029C297.65 842.466 292.576 824.861 288.253 807.609C285.987 798.569 282.807 788.976 282.557 779.629C282.293 769.758 285.034 758.062 290.875 749.974C294.268 745.276 298.673 742.061 303.575 739.094C305.289 745.456 305.876 752.579 306.87 759.111C309.26 774.816 311.872 791.113 312.571 806.992Q326.317 810.164 340.024 813.503C344.44 814.578 349.013 816.064 353.496 816.746C361.693 819.598 370.605 821.264 379.063 823.266C390.768 826.037 403.467 829.789 415.462 830.629C418.656 832.049 424.042 832.261 427.576 832.796Q445.41 835.526 463.34 837.528C475.82 838.818 536.995 843.703 544.773 840.736C551.237 838.27 558.324 832.614 564.577 829.159Q582.365 819.361 600.575 810.371C609.177 806.041 617.746 801.366 626.9 798.299C634.888 795.622 643.312 794.062 651.667 793.071C657.465 793.551 663.193 795.172 668.917 796.207Q680.714 798.295 692.686 798.73C701.131 799.079 709.664 798.749 718.115 798.6C741.968 798.179 765.542 796.627 789.32 794.804Q824.732 792.375 859.98 788.199C891.308 784.582 923.112 780.108 952.742 768.897Q959.678 772.993 966.448 777.359C975.561 784.237 982.197 791.074 988.904 800.252C1001.86 791.001 1008.21 776.178 1014.92 762.378C1015.02 764.528 1014.54 766.912 1014.24 769.045C1011.64 787.493 1007.41 804.112 991.679 815.735C973.558 829.122 939.806 837.737 917.722 843.001C868.393 854.761 818.459 861.367 767.99 865.908Q690.942 872.801 613.593 873.882C543.915 875.255 471.401 875.091 402.298 864.98C381.822 885.807 354.221 901.211 325.014 904.861C286.949 909.617 248.787 904.187 217.931 879.877C189.26 857.288 171.194 821.791 163.418 786.68C161.204 776.68 160.112 766.536 158.947 756.375C158.907 751.208 158.306 746.065 158.238 740.897C158.161 735.087 158.669 729.306 158.846 723.504C154.272 722.68 127.822 705.272 121.549 701.703C119.18 701.747 117.804 700.38 116.004 698.999C115.291 698.451 115.604 698.625 114.739 698.388L114.846 698.375C114.737 698.563 114.617 698.744 114.519 698.937C113.644 700.665 114.348 702.606 114.942 704.333C116.715 709.492 120.752 714.201 118.161 719.895C117.075 722.281 115.546 724.199 115.09 726.841C115.756 727.973 116.324 728.244 117.396 728.918C117.606 729.861 117.656 729.487 117.516 730.044C111.869 727.286 96.0212 716.368 91.2398 712.305C85.8004 719.745 79.0796 725.09 69.7193 726.471C61.9768 727.613 39.0451 727.528 31.6864 726.084C29.2 725.596 27.0234 724.792 25.0034 723.24C3.83424 706.982 3.09436 648.227 3.47882 623.441C3.76227 605.166 6.16092 590.211 3.61201 571.667Z"/>
	<defs>
		<linearGradient id="gradient_7" gradientUnits="userSpaceOnUse" x1="46.357025" y1="643.06036" x2="84.988136" y2="654.26483">
			<stop offset="0" stop-color="#29788D"/>
			<stop offset="1" stop-color="#1A45A9"/>
		</linearGradient>
	</defs>
	<path fill="url(#gradient_7)" d="M48.9956 628.074C58.2525 635.689 74.3448 643.949 85.0656 650.445C88.3434 652.431 92.1953 654.333 95.1475 656.746C92.4434 657.017 88.6856 653.903 86.212 652.764C84.0006 655.328 79.2533 663.869 79.4052 666.851C81.3374 667.91 83.0781 668.812 84.6324 670.414L84.5044 671.214L84.6672 671.544C83.7094 673.632 82.9644 674.209 80.94 675.193C70.3567 668.742 60.2055 660.876 49.9139 653.908L49.8871 653.445C48.7053 648.603 49.8224 634.875 48.9956 628.074Z"/>
	<path fill="#82F0FE" d="M49.8871 653.445L50.1981 650.039C52.3646 649.797 79.8672 668.665 84.5044 671.214L84.6672 671.544C83.7094 673.632 82.9644 674.209 80.94 675.193C70.3567 668.742 60.2055 660.876 49.9139 653.908L49.8871 653.445Z"/>
	<path fill="#59AAF9" d="M210.888 546.686L211.542 546.305C218.245 542.319 221.984 536.5 230.871 538.488C242.821 541.16 254.513 555.264 260.468 565.271C265.51 573.745 275.044 594.132 275.006 604.115C274.807 603.854 274.605 603.595 274.409 603.332C271.958 600.044 270.204 595.795 268.19 592.198C260.618 578.666 250.011 560.488 233.217 557.713C225.62 556.458 218.356 559.049 212.295 563.519C198.383 573.776 192.196 593.371 189.842 609.737Q188.266 619.99 188.516 630.36C187.433 632.128 186.399 633.963 185.167 635.631C182.684 610.181 190.104 582.899 200.968 560.223C203.404 555.139 208.058 551.826 210.673 547.138C210.754 546.992 210.816 546.837 210.888 546.686Z"/>
	<defs>
		<linearGradient id="gradient_8" gradientUnits="userSpaceOnUse" x1="53.115089" y1="693.49146" x2="116.16443" y2="688.64081">
			<stop offset="0" stop-color="#246C80"/>
			<stop offset="1" stop-color="#0B38C3"/>
		</linearGradient>
	</defs>
	<path fill="url(#gradient_8)" d="M49.9139 653.908C60.2055 660.876 70.3567 668.742 80.94 675.193C85.3041 678.198 120.372 700.084 121.549 701.703C119.18 701.747 117.804 700.38 116.004 698.999C115.291 698.451 115.604 698.625 114.739 698.388L114.846 698.375C114.737 698.563 114.617 698.744 114.519 698.937C113.644 700.665 114.348 702.606 114.942 704.333C116.715 709.492 120.752 714.201 118.161 719.895C117.075 722.281 115.546 724.199 115.09 726.841C115.756 727.973 116.324 728.244 117.396 728.918C117.606 729.861 117.656 729.487 117.516 730.044C111.869 727.286 96.0212 716.368 91.2398 712.305C89.1428 709.499 85.0107 707.471 82.1873 705.423C74.1833 699.616 64.3896 693.178 57.968 685.686C51.3444 677.957 49.0431 663.757 49.9139 653.908Z"/>
	<path fill="#0E19F4" d="M84.5044 671.214L84.6324 670.414C83.0781 668.812 81.3374 667.91 79.4052 666.851C79.2533 663.869 84.0006 655.328 86.212 652.764C88.6856 653.903 92.4434 657.017 95.1475 656.746C104.609 661.119 113.693 666.961 122.73 672.16Q142.421 683.5 162.676 693.797C161.469 700.278 160.884 712.096 159.277 717.385L158.846 723.504C154.272 722.68 127.822 705.272 121.549 701.703C120.372 700.084 85.3041 678.198 80.94 675.193C82.9644 674.209 83.7094 673.632 84.6672 671.544L84.5044 671.214Z"/>
	<path fill="#36F4F0" d="M84.6672 671.544C91.0908 674.877 97.1305 679.35 103.28 683.196L139.516 705.605C143.18 707.867 157.034 715.247 159.277 717.385L158.846 723.504C154.272 722.68 127.822 705.272 121.549 701.703C120.372 700.084 85.3041 678.198 80.94 675.193C82.9644 674.209 83.7094 673.632 84.6672 671.544Z"/>
	<path fill="#FEFEFE" d="M8.3559 592.365C8.96238 582.359 12.7537 562.301 20.7642 555.473C21.7806 554.607 23.0112 553.958 24.392 554.166C26.9963 554.56 28.8222 557.629 29.9992 559.695C36.6219 571.321 42.6215 600.545 41.6005 614.448C41.7977 616.361 42.1806 618.277 41.5637 620.136L40.8341 618.915C38.1179 619.277 34.2049 624.675 32.61 626.768C27.2208 633.843 26.4411 645.114 26.4015 653.718C27.6218 668.57 28.3977 683.293 29.072 698.171C37.4812 683.953 39.6332 666.03 41.0331 649.845C43.0035 660.55 35.7501 694.571 29.979 703.007C28.8047 704.723 26.9086 707.02 24.7207 707.36C23.1269 707.607 21.8123 706.918 20.6874 705.872C12.5474 698.301 8.0648 672.733 7.94582 662.026C7.94417 661.877 7.94982 661.728 7.95182 661.579C7.00604 656.261 6.42188 642.03 7.45165 636.641C7.27714 642.232 7.8465 648.412 8.99295 653.876C11.9373 650.839 14.5038 647.048 16.0135 643.097C18.3658 636.942 18.9052 626.989 16.1306 620.927Q12.1774 614.886 8.00586 608.993C7.5196 612.135 7.4915 615.228 7.45617 618.399C6.22389 614.322 7.34996 596.925 8.3559 592.365Z"/>
	<path fill="#263137" d="M10.1299 590.832C11.2466 583.915 14.549 564.991 20.8062 560.959C21.9988 560.19 22.6133 560.322 23.914 560.511C24.7344 561.578 24.7367 562.301 24.6405 563.611C24.4115 566.725 23.6696 569.867 23.3838 573.004C22.1754 586.27 21.326 599.858 21.5173 613.186C21.2846 615.79 21.1879 618.347 20.2346 620.807L19.4993 621.384C18.4158 620.871 18.5346 620.824 17.9446 619.877C15.9702 614.422 12.2101 609.528 8.95303 604.772C9.12627 600.12 9.6874 595.465 10.1299 590.832Z"/>
	<path fill="#263137" d="M15.421 649.65C16.6836 648.325 18.2171 645.745 19.9228 645.236C21.0454 645.698 21.4397 646.186 21.917 647.326C23.0543 650.042 22.7379 653.338 23.7789 655.848C24.9878 668.864 27.7128 682.151 27.3952 695.253C27.3339 697.782 27.2798 700.81 25.3378 702.656C24.154 702.744 23.93 702.69 22.9273 701.897C14.1367 694.946 10.9171 671.473 9.40752 660.973C11.0424 657.044 13.331 653.352 15.421 649.65Z"/>
	<path fill="#263137" d="M26.2508 559.815C36.7318 573.789 39.5213 598.088 40.6173 615.325C37.7641 618.219 32.7501 620.674 29.3321 623.036C27.0995 619.768 24.6723 616.319 24.0549 612.315L23.6141 609.6C23.674 593.074 24.3014 576.237 26.2508 559.815Z"/>
</svg>
