<?xml version="1.0" encoding="UTF-8"?>
<svg version="1.1" viewBox="0 0 2048 365" width="1777" height="317" xmlns="http://www.w3.org/2000/svg">
<path transform="translate(171,12)" d="m0 0h11l22 2 23 5h8l19-4 17-2 16-1h23l24 2 22 4 20 6 18 8 13 7 14 10 12 11 9 9 11 15 10 17 8 20 6 21 3 17 1 9v189h-55l-1-192-3-15-5-15-8-16-7-11-12-13-14-11-15-8-21-7-16-3-9-1h-26l-20 3-17 5-16 8-11 7-8 6-1 69h203l1 1v49l-1 1h-112v86l-9 10-22 18-20 12-16 7-20 6-25 4h-38l-24-3-24-6-20-8-18-10-13-10-12-11-9-10-9-13-9-16-8-20-5-18-4-27v-35l3-21 5-20 7-19 8-16 10-16 11-13 13-13 13-10 15-9 17-8 18-6 17-4 15-2zm-14 50-19 4-19 7-14 8-11 9-12 12-9 13-8 15-7 21-3 16-1 11v20l3 21 6 20 10 19 10 13 11 11 15 10 15 7 16 5 18 3h7v-245zm59 152v87l9-2 19-10 12-9 2-2v-64z" fill="#EC5425"/>
<path transform="translate(171,12)" d="m0 0h11l22 2 19 4 3 2v2l-19 8-16 9-13 10-12 12-28 6-19 7-14 8-11 9-11 11-9 13-8 15-7 21-3 16-1 11v20l3 21 6 20 10 19 10 13 10 10 15 10 15 7 16 5 18 3 17 1h11l21-3 20-7 17-9 12-9 1-1 1-64h49v86l-9 10-22 18-20 12-16 7-20 6-25 4h-38l-24-3-24-6-20-8-18-10-13-10-12-11-9-10-9-13-9-16-8-20-5-18-4-27v-35l3-21 5-20 7-19 8-16 10-16 11-13 13-13 13-10 15-9 17-8 18-6 17-4 15-2z" fill="#E61C55"/>
<path transform="translate(709,19)" d="m0 0h27l15 3 13 5 10 6 10 9v4l-12 12-4 3-4-2-14-9-11-4-6-1h-18l-12 3-14 7-8 7-7 11-4 10-1 5v21l4 13 6 10 5 6 10 7 11 5 10 2h18l16-4 6-3 1-48h27v62l-10 7-15 7-21 5h-29l-16-4-16-7-13-10-7-7-9-14-5-12-3-12v-27l4-15 8-16 9-11 9-8 13-8 13-5z" fill="#E61C55"/>
<path transform="translate(698,203)" d="m0 0h28l8 16 16 36 17 37 13 29 16 36v2h-30l-7-15-8-19v-2l-78 1-15 34-1 1h-29l3-9 17-37 16-36 16-35 12-27zm13 31-5 10-9 21-14 33v2h57l-1-5-23-54-3-7z" fill="#EC5425"/>
<path transform="translate(1477,194)" d="m0 0h28v98l8-7 10-9 16-15 14-13 8-7 1-1h33l-2 4-45 45 2 5 13 16 22 28 14 18 1 3h-33l-12-14-11-14-11-13-6-8-4 1-7 7-8 7-2 2-1 31-1 1h-26l-1-1z" fill="#EC5425"/>
<path transform="translate(1033,194)" d="m0 0h27v58l15-9 9-3 5-1h22l13 4 11 7 7 9 4 8 3 13 1 78-1 1h-27l-1-2v-59l-1-15-4-10-7-6-9-3h-14l-11 4-8 7-4 8-2 12-1 64h-27l-1-1v-163z" fill="#EC5425"/>
<path transform="translate(1185,11)" d="m0 0h26l1 1 1 97 10-9 15-14 10-9 16-15 5-4h33l-6 7-41 41 1 4 8 10 14 18 13 16 10 13 6 8v1h-34l-13-16-11-14-12-14-5-5-8 7-11 11-1 31h-27z" fill="#E61C55"/>
<path transform="translate(1379,239)" d="m0 0h23l12 3 13 7 10 9 7 11 4 9 2 9v21h-93l5 12 8 9 10 5 9 2h13l11-3 8-4 7-5 7 7 7 9-1 4-11 8-11 5-13 3h-23l-13-3-16-8-10-9-7-9-5-11-2-8-1-16 2-14 5-13 8-11 7-7 10-6 9-4zm6 22-10 3-9 6-6 8-3 8v4h67l-2-10-6-9-8-6-7-3-5-1z" fill="#EC5425"/>
<path transform="translate(1358,56)" d="m0 0h20l15 3 12 6 8 7 5 8 4 14 1 8v74h-26l-2-11-9 7-9 4-11 2h-14l-13-3-10-5-6-5-5-7-3-10v-12l3-10 7-9 10-6 11-3 6-1h43l-2-12-5-8-6-4-6-2-14-1-13 2-12 5-8 4-10-18 1-4 16-8 16-4zm-3 70-7 3-5 6-1 9 4 8 10 5h17l9-3 9-7 4-7v-14z" fill="#E61D54"/>
<path transform="translate(938,56)" d="m0 0h19l14 3 10 4 9 7 7 10 4 13 1 9v74h-26l-1-1-1-10-9 7-9 4-11 2h-14l-13-3-10-5-9-9-4-8-1-4v-14l4-11 6-7 10-6 11-3 7-1h42l-2-12-5-8-8-5-12-2-14 1-13 4-12 6-10-18 1-4 16-8 16-4zm-5 70-6 3-5 6-1 9 4 8 10 5 12 1 12-3 9-6 4-5 2-4v-14z" fill="#E61D54"/>
<path transform="translate(1990,238)" d="m0 0 16 1 13 3 11 6 7 6 6 10 4 16v79h-26v-13l-11 9-11 4-5 1h-21l-13-4-11-7-7-10-3-10v-9l3-10 6-9 9-6 10-4 16-2 36-1-2-11-4-7-7-5-7-2h-19l-11 3-14 7h-2l-9-16-1-4 9-6 16-6 11-2zm-9 70-8 3-5 5-1 3v10l7 8 9 3h12l10-3 9-6 6-9v-14z" fill="#EC5425"/>
<path transform="translate(1712,240)" d="m0 0h27l1 1 1 73 4 11 8 7 10 3h9l11-3 8-6 5-8 2-6 1-7 1-65h27l1 1v117l-1 1h-26v-14l-10 8-11 5-8 2h-20l-14-4-11-7-7-8-5-10-3-11-1-14v-65z" fill="#EC5425"/>
<path transform="translate(947,239)" d="m0 0h24l11 3 14 7 9 9 4 6v3l-19 11-4-2-7-7-11-5-13-1-10 2-10 6-6 7-4 9-1 5v15l3 10 6 9 10 7 6 2 13 1 9-2 10-6 7-8 10 5 11 7-2 5-6 8-9 7-8 4-14 4h-23l-17-5-12-7-9-8-7-10-5-12-2-8v-22l4-13 6-11 9-10 10-7 10-5z" fill="#EC5425"/>
<path transform="translate(1075,10)" d="m0 0h17l11 3 5 3-1 5-5 14-4 1-5-2h-15l-6 4-3 7v13l32 1v21l-1 1h-31l-1 95h-27l-1-94-18-1-1-1v-21l19-1 1-15 4-13 6-8 8-7 10-4z" fill="#E61C55"/>
<path transform="translate(1622,214)" d="m0 0h28v27h31l1 1v21h-32l1 62 4 8 6 3h13l6-3 3 1 6 15-1 5-8 4-8 2h-19l-10-3-8-5-5-5-5-8-3-13v-63h-19v-22h19z" fill="#EC5425"/>
<path transform="translate(1253,214)" d="m0 0h27v27h31l1 1v21h-32l1 60 3 8 5 4 2 1h13l9-3 7 17-2 4-8 4-7 2h-20l-12-4-8-6-5-6-4-9-1-4v-68h-20v-22h20z" fill="#EC5425"/>
<path transform="translate(1929,238)" d="m0 0 3 1v25l-2 1h-8l-12 3-6 4-5 5-5 10-1 4-1 67-1 1h-26l-1-1v-117l1-1h25l1 1v14l5-5 9-6 10-4z" fill="#EC5425"/>
<path transform="translate(878,238)" d="m0 0 4 1v25l-3 1h-8l-13 4-6 4-5 6-4 10-1 69-1 1h-27v-119h26v15l8-7 8-5 9-3z" fill="#EC5425"/>
<path transform="translate(1644,56)" d="m0 0h8v26l-13 1-12 4-9 8-5 12-1 10-1 59h-27v-118h27v14l7-6 8-5 8-3z" fill="#E61C55"/>
<path transform="translate(878,56)" d="m0 0h8l1 1v25l-13 1-10 3-8 5-6 10-2 7-1 7-1 61h-27v-118h26v15l8-7 8-5 8-3z" fill="#E61C55"/>
<path transform="translate(1185,240)" d="m0 0h27l1 1v117l-1 1h-27z" fill="#EC5425"/>
<path transform="translate(1120,58)" d="m0 0h28v118h-27l-1-1z" fill="#E61C55"/>
<path transform="translate(1520,58)" d="m0 0h27v118h-27l-1-4v-83z" fill="#E61D54"/>
<path transform="translate(1731,200)" d="m0 0h77v17h-77z" fill="#EC5425"/>
<path transform="translate(1528,5)" d="m0 0h11l6 3 5 6 1 2v11l-4 6-5 4-3 1h-11l-6-3-5-6-2-9 3-8 7-6z" fill="#E61D54"/>
<path transform="translate(1129,5)" d="m0 0h10l8 4 4 5 1 4v7l-3 6-5 5-5 2h-11l-8-5-4-8v-7l3-6 7-6z" fill="#E61E54"/>
<path transform="translate(1191,188)" d="m0 0h15l6 4 4 6v11l-4 7-7 4h-13l-6-4-4-5-1-2v-10l4-6z" fill="#EC5425"/>
</svg>
