<svg version="1.1" xmlns="http://www.w3.org/2000/svg" viewBox="254 254 1002 446"> <path transform="translate(416,254)" d="m0 0h9l16 8 31 16 6-2 33-17 9-5h8l34 17 19 10 28 14 19 10 28 14 19 10 16 9 3 3 1 6-6 16-12 27-13 31-19 45-15 35-23 54-27 63-17 40-11 26-6 9-8 5-10 1-8-3-7-6-5-15-25-86-6-21-3 9-17 62-13 47-3 6-5 4-2 1-9-1-7-6-17-35-18-38-15-31-11-23-16-34-19-39-13-28-23-47-11-23-16-33-5-11v-7l5-6 39-20 23-12 41-21 27-14zm3 22-26 13-19 10-78 40-19 10-1 3 18 36 11 23 15 31 11 23 16 34 15 31 13 28 21 43 13 28 19 39h2l16-58 19-68-2-5-17-29-17-28-19-32-9-15-19-32-13-21-16-27v-7l3-5 18-10 45-23 19-10 11-6v-2l-27-14zm104 0-17 9-10 5 3 3 33 17 52 27 6 4 3 4v8l-13 24-12 21-16 29-13 23-15 27-16 29-14 25-5 9 1 8 16 54 18 61 5 16 2 2 3-3 13-30 23-54 20-46 18-42 20-47 24-56 16-38 5-12v-2l-36-18-19-10-38-19-19-10-36-18zm-51 27-39 20-27 14-29 15-2 1 2 5 13 22 27 45 17 28 9 16 17 28 15 25 3 1 16-29 30-54 26-46 16-28 6-10-1-3-27-14-19-10-27-14-23-12z" fill="#2054A4"></path> <path transform="translate(661,533)" d="m0 0 7 1 4 5 17 55 18 60 7 23 3 3 6-2 12-16 14-20 26-36 12-17 13-18 24-34 5-4h6l5 4 1 2v154l-5 5-6 1-5-3-2-3-1-121-9 13-13 18-12 17-26 36-12 17-11 15-7 7-11 4h-8l-8-3-5-4-4-8-32-106-3-8-11 25-32 70-13 28-5 5-9-1-3-4v-8l13-28 15-33 17-37 13-29 10-22z" fill="#2054A4"></path> <path transform="translate(868,533)" d="m0 0h113l5 3 2 4-1 7-5 5-102 1v54l80 1 6 5v8l-4 5-3 1h-80l1 53 102 1 6 5v8l-5 5-3 1h-110l-7-3-2-4v-153l3-5z" fill="#2054A4"></path> <path transform="translate(1011,533)" d="m0 0h40l16 2 15 5 14 8 13 11 8 10 7 12 6 18 1 5v25l-4 16-8 16-8 11-9 9-15 10-12 5-13 3-10 1h-42l-5-3-2-4v-152l2-5zm10 19v129h36l13-3 14-7 10-8 7-8 6-10 5-13 1-5v-21l-4-14-7-13-11-12-10-7-11-5-12-3z" fill="#2054A4"></path> <path transform="translate(1133,345)" d="m0 0 16 1 14 4 16 8 10 8 8 8 9 14 6 14 3 14v22l-4 16-5 12-8 12-7 8-13 10-16 8-12 3-8 1h-12l-15-3-12-5-12-7-12-11-10-14-7-16-3-13-1-15 2-17 5-15 6-11 8-10 10-10 13-8 16-6zm0 19-13 2-12 5-9 6-10 10-7 12-4 12-1 5v20l4 15 7 13 11 12 11 7 13 5 4 1h19l13-4 11-6 10-9 6-7 8-16 3-15v-12l-4-16-7-13-9-10-8-7-14-7-7-2z" fill="#2054A4"></path> <path transform="translate(733,352)" d="m0 0h51l13 4 11 8 7 11 3 12v9l-3 12-8 13 5 2 8 9 6 12 2 10v11l-3 12-6 11-8 8-12 6-9 2h-101l-6-3-3-5 1-6 5-5 9-1 97-1 8-5 5-6 2-6v-14l-5-10-8-6-12-2-64-1-5-5-1-6 3-5 3-2 10-1h50l9-2 8-7 4-11-1-10-4-6v-2l-5-2-6-2-51-1-5-4-1-2v-7l5-5z" fill="#2054A4"></path> <path transform="translate(847,352)" d="m0 0h88l5 3 2 4v6l-5 6h-79v48h57l5 4 1 5-2 6-3 3h-58v48h78l5 4 1 2v6l-2 4-6 3h-86l-5-2-3-3-1-3v-136l3-6z" fill="#2054A4"></path> <path transform="translate(1186,533)" d="m0 0 7 1 4 4 52 130 7 18v7l-5 5h-8l-4-5-16-40-3-7h-61l-4 8-15 40-5 4h-7l-5-5v-7l21-55 22-57 14-36 3-4zm2 34-5 12-18 46v2h48l-6-16-11-28-6-15z" fill="#2054A4"></path> <path transform="translate(957,353)" d="m0 0h8l5 5v127h85l5 4 1 2v6l-4 5-5 2h-91l-7-3-2-3v-139l3-5z" fill="#2054A4"></path> </svg>