<?xml version="1.0" encoding="UTF-8"?>
<svg version="1.1" viewBox="0 0 1244 927" width="1244" height="927" xmlns="http://www.w3.org/2000/svg">
<path transform="translate(838,4)" d="m0 0 6 1 6 9 6 18 5 21 6 11 6 9 6 15 6 9 7 3 45 8 18 3h8l5-1h7l8 4h17l4 4 5 13 3 5 13 11 9 9 7 8 8 8 21 14 10 9 15 15 8 7 5 4 6 9 8 16 9 15 11 9 23 11 14 5 15 2 2 3 2 14v10l-2 11-3 6-8 11-3 9 3 7v8l-7 8-3 8-2 8-5 12-3 9 7 2 5 2h9l8-2 30 5 8 3 5 6 1 5-4 8-3 3-16 5-6 5-4 6-5 23-4 6-3 2-7-1-17-8h-3l-4 5h-9l-15-4h-12l-2 4-2 5-1 15-4 11-9 17-9 10-9 4-18 4h-14l-5-1-9 3-2 9-14 16v9l1 10-3 3-8 6-1 3v22l-2 9v13l5 14 1 4v9l-4 8-9 8-9 6-3 7-1 19-3 10-10 14-4 7v10l1 1h11l13-6 6 1 3 4 2 9 4 1 5 5 6 10 1 6-3 4v16l-3 7-6 5h-7l-5-1-2 4-3 3h-9l-17-3-7-4-5-6-1-2v-7l8-4-5-5 1-7 8-2-6-8-8-11-5 5-7 9-5 3-4 1h-16l-14-4-4 16-4 10-7 9h-2v2l-9 6-6 2h-8l-17-6h-13l-7 3-1 3v5l-5 4h-2l3 12 4 10 1 5v7l-3 7-5 5-8 2h-13l-4-4-1-5-6 3-15 4-11 8-13 12-11 8-3 1h-10l-4-1-13-1-4-5-4-10-3-4v-2l-10-1-17 8-5 1h-14l-10-5-6 1-10 6-6 2-5-2-5 1-3 2-12 2-10 4h-7l-14-8-9-5-7-2 1-6-6-7v-9l7-7v-11l-5-24-4-12-3-4-5-2-5-5-7-10-8-6-18-8-14-11-4-3-6 1-2 1h-8l-5-5-1-6 2-8h-7l-4-4-2-8-9 1-13-6-7 1-2 5-7 9-4-1-3-5-12-22-3-7-2-12v-12l2-23 4-18-1-18 4-7 1-5 1-4 11-9 4-5 5-4 3-4 1-9-2-13-3-11-5-3-9-5-3-3v-6l-2-5h-16l-5-6-5-16-4-15-4-6-12 3-7 2h-12l-17-2h-19l-14 4-5 5-4 3-7 1-8-3-5-6-1-2-1-11-2-1-5 3-3 2-6-1-16-8-7-5-14-4-5-4-4-5-12-9-7-4-21-1-7-4-7-9-6-11-5-8-6-3-2 4-13 11-4 3h-2v-21l4-2-1-6-4-7-2-7-8 9-4-1-2-3v-5l11-22 2-6-3-22-3-10-4-6-1-17-5-12-1 18-2 13-1 15-4 10-2 6 3 6-1 5-8 16-3 12-6 10-5 7-1 8-3 1-16-4 1-6 8-14 7-12 10-26 3-11 3-12 2-26v-20l-1-28-4-25-2-11-2-10-7-11-10-15-5-11-2-11 1-16 5-12 6-9 7-7 10-6 11-4 17-1 2-13 6-12 11-12 7-6 8-4 10-1 14-10 9-7 14-9 20-2 28-13 27-13 26-12 10-1 7 3 11 7 34-1 26-1 17 4 8 6 6 7 9-2 17-7 12-7 10-6 7-1 5 3 5 5 8 18 4 8 6 5 6-1 5-3 5-5-1-6 8-4 19-5h8l15 6 16 7 10 3 10-5 9-4h25l3 3 1 7 14-3h12l21 7 11 7 14 10 5 3h9l16-8 11-5 6-1 12 6 10 7 3 1 14-7 8-7 13-18 8-8 15-8 14-6h7l2 1 1-10zm-568 15-16 7-8 5-4 5-9 5 1 5 4 6 2 15 8 17 2 8-3 3-4 2-14 28-3 1h-10l-5 3-1 3-12 1-8 7-4 8-4 10-6 10-8 4-1 3v23l6 14-1 5-7 8-11 10v4h8l5-4h3l3 10 3 5 1 6h12l9-1 3 2v15l8 20 6 9 8 9 7 1 15-2h9l5-5 2-12 2-2h10l9-5 16-3h12l3 2 12 2 5 1 14-4 7-6-1-6v-19l-2-9 4-4 12-6v-13l1-3 10-3 8-15 2-5 3-6-4-4-6 3-5-1-4-4-3-5 1-5 5-4v-7l-2-13 10-3 5-2 3-3-1-10v-6l-2-1-12 5-7 3-7-1-11 4-8-2-3-2-2-5-4-4 1-7-8-3 3-23 4-7 9-11v-6l-2-3 4-10 3-2 13 1 5-4v-7l-2-4v-7l-3-1h-19l-22 1h-25l-10-6-6-3zm569-9-3 12-5 1-5-1-18 8-10 5-8 8-10 14-8 9-10 6-8 4-7-1-6-3-13-9-3-1-12 5-17 9-4 2-1 9-2 3v5l6 2 1 7h-7v-2l-5-3v-10l3-9-3-3-11-6-17-13-16-6-11-3-12 2-10 1-6-1v-8l-2-1-21 1-16 8h-7l-16-6-23-10-19 4-7 3-1 6-8 8-10 4-7-1-6-5-6-12-7-17-5-4-6 1-15 9-24 10-5 2h-6l-5-3-7-8h-5l1 5v9l-4 6-3 2h-14l-3 4 1 5v7l-3 6-8 10-3 8-2 13 7 4h2v7l3 4 2 5 2 2 6-1 4-2h13l8-5 7-2 9 1v14l4 5 1 4-6 2-6 4-9 2 1 17-1 3-4 3 1 5 3 3 3-1 3-4 4-1v2h2l2 4 5 5 1 4-4 2-3 7-6 8-3 8-4 3-7 2v13l-7 6-9 4 2 6v20l1 11-4 2-6 5 1 5 1 1h-6l-1-4-16 1-15-3-6-2-19 3-10 5-10 1-2 12-5 6-2 1h-11l-15 2-3 5-5 5-7 3 3 7 3 13 5 13 3 10 8-1 15 8 8 4 1 1v7h-2l-3 11-3 4v2l-4 2-7 8-10 13 3 2 14 5 12 6 4 8 5 15v3l9-3 7 1 6 5h9l10 2 2 2v7l-5 12v7l28 4 8-1 12-4h8l1 1h9l5 4 10-1 13-3 14-6 13-2 7 2 6-1 9-5h9l46 9 12 2 13-1 6-2 3-10 6-11v-20l3-4v-3h-9l-4 1h-8l-4-6-6-1-3 1h-16l-5-1-1-4-3-7-12 2-4-1-9 4h-10l-3-2 1-7 2-4-8-6h-2l-1-3-3-1-9 10-1 1h-6l-4-8-7-7-3-7 1-12h-9l-5-3-1-2v-14l3 1 1 2 1 9 1 1h10l2 1 1 3 1 16 5 6 5 5 1 3h2v-2l4-2 4-9 5 2 5 5 11 9 1 1v5l-3 2v2l5 1 8-3 1-1 10 1 6-3 5 1 5 6 2 5h26l5 5 4 2 5-2h10l5 5 1 4-4 6-1 21-6 12-1 5 8 8 5 3h11l5 3 4 7-2 5-9 3-4 8-1 1h-14l-5 3-1 3 9 3 5 6 1 4-5-1-4-5-12-3 1-8 2-4 6-2h14l5-9 8-3-1-5-1-1-15-1-9-7-3-2-12 1h-15l-20-4-24-4-10-2h-9l-9 6-9-1-7-1-13 3-11 5-13 3-10 1-6-2 1 9 5 19 4 6 13 1 10 8-1 7 12 6 4 6 4 16 1 5v9l-3 7-9 10-5 5-7 6-2 8-4 6v22l-2 10-2 9-1 9v23l2 9 6 13h2l1 5 6 9 2-1 4-8 6-4h6l11 6 5 1h6l4 4 2 6 11 3v7l-1 6 2 3h6l4-2 6 1 8 6 11 8 17 8h3l2-8v-11l5-15 6-7 7-4 5-1-1-7 1-3 5-2 12-5 1-12 3-5 11-9 8-6h5l6 7h2l1 3 4 2 5-1 2-2v-9l-3-8h-7l1-7 4 2 5 1 4 9 1 5v7l-2 6h18l3 1 6-4v7l-5 2-4 1-4-2h-18l-8-4-7-4-6-7-5 3-14 11-2 3v15l-9 2-9 4 1 3 2 1v6l-12 2-7 6-5 13-1 15-1 11 7 10 6 7 6 2 2 5 4 8 5 20 1 7v16l-7 10 3 6 3 3 2 5 8 4 16 10 6-1 11-4 9-2 4-2h7l4 2 15-9 6-1 12 6h8l12-3 12-6h9l6 3 6 8 4 10 11 1 7 2 7-1 8-6 10-9 13-10 10-5 12-3 3-2h6l4 8 3 1 15-3 3-5v-9l-6-17-1-11 7-6v-6l5-4-2-5-3-9-10-6-1-6 4-6 19-19 7-9 3-17 2-7 11-4 1-5v-7l-1-4-8 1-13 5-11 7h-12l-3 2h-7l-2-2v-9l-5-3-5-1-19 8h-12l-17-3v-18l-3-3-2-1 2-12-3-3-8 1h-10l-6-4-3-3h-8l-16 4-10 2-9-3h-6l-5 3v5l3 3v5l-8 3-10 1v-2l6-2 6-3-2-6 1-6 3-3 7-3 8 1 4 2 9-1 20-5h8l8 7 19-1 3-2 2-16 3-3h7l2-7-2-3-2-13v-8l4-5 11-4 2-4 7-1 6 1 1-4 3-15 4-12 4-4 15-9 6-10 2-1-1-5-5-5-15-3-11-9-14-9-4-3 1-4 8-12 12-9-1-7-8-5-2-9-9 1-4-3-2-12-5-5-4-5-2-7 1-5 2-3-11-6-4-17-4-9v-9l2-12 2-8-4-4-4-9-6-5-4-2-5 4-9-2-7-8-14 7-10 1-5 4h-5l-1-1v-8l1-7-7-8-4-5h-12l-4-2-4-15-5-1-25 12-11 8-6 7-4 6-6-1-9-2-2-5 1-8 1-4-6-4-5 1-4 4-3 4-10-1-8-4-11-9-4-3-11 7-5 1-4-4-2-7-2-2-13 1-7 3-4 5-5 8-9 6-28 11-6 1-5-2-2-2-1-5h-8l-13 3v-5l17-3h6l6 9 7-1 24-10 9-6 7-11 4-4 8-2h14l4 2 3 5 1 4 5-1 9-6 4 1 11 9 7 5 5 2h4l3-5 7-4h6l6 4 4 2v7l-2 4v4l7 2h3l6-8 8-7 14-8 16-8 3-3 3-5v-2h2l4-10 1-1 7-1 5-3 4-1-1-9v-11l6-4v-9l-2-10-3-5-2-7-3-1h9l1 5 4 10v19l-6 6 1 7 1 3v10l-10 3-8 3-7 12v3l4 2 2 5 2 10 1 1 10-1 6 4 9 11 1 2 1 9 15-1 11-6 5-1 10 10 3-1 1-3 7 1 10 7 4 5 3 6 14-2 7-8 8-20 1-1h6l4 2 3-1-5-6v-4l8-4 1-2v-18l3-5 5-4-1-7-9-8-1-3 3-3 9-1 2 2h3l-1-5-3-2-1-7v-8l19 1 7-1 5 2 4-4h11l7-3h17l6 4 7 9 2 4 15-5 15-6 9 1v-10l10-6-1 6-4 2v10l-2 3-12-1-24 9-3 1h-8l-2-1-1-7-7-8-4-1h-10l-8 3h-10l-5 5-12-2-2 1h-14v6l5 4 1 4-3 6h-7l-1-1h-5l2 3h2l5 10v6l-7 6-1 2v18l-1 4 14 11 11 9 7 8 1 7-5 2-1 2v6l4 5 2 1 13 1 2 4 1 3 5-1 4-2 7-1 2 14 2 1 8-1h9l-1 8 11 11 7-1 5 1 2 3-1 6-4 6v3l11 4 9 6 1 4-11 7-8 6-5 2-1 11-1 4 12 5 5 5 3 9 13 3 7 3 8-1 27-9 15-4 7-1h9l2 3 10 2 1-7 5-5-1-6 5-6-9-6-12-13-5-6-1-3v-12l2-4 7-5 5-7 5-17h3l13 8 5-1 4-3 4 2 5 7 9-1 3 3 2 4 5-3 4-5 5-5 11-2 11 2 7 5 1 2-1 9-1 1v5l4 1 3-2h6l9 5 4 2 25 2h9l19-5 14-8 8-4 9-1 5 2 2 4 3 5 5-2 3-3v-6l-5-4-28-5h-8l-7 2h-7l-14-5-3-4v-7l8-18 4-15 7-8 1-3-3-6v-9l3-7 10-14 2-7v-18l-2-8-14-2-16-6-16-8-10-6-8-7-11-19-4-9-6-10-13-12-8-7-5-6-8-7-7-5-2 3-2 12-9 11-4 5-8 16v-11l6-11 4-4v-2l3-1 4-6v-9l2-7-11-8-8-7-16-17-10-9-7-6-7-18h-15l-10-5-8 1-9 1-64-11-11-4-6-7-5-11-4-10-9-13-6-21-5-17-4-9-2-4zm-614 30-28 13-13 5-14 1-10 4-17 13-11 8-14 3-9 6-10 10-7 14-2 9v4l11 4 9 6 5 4 7 10 4 8 2 8v17l-4 13-8 14-7 10-13 20-9 14-5 5-4 1-5-2-7-10-1-2h-2l-2-4 1 11 2 7 3 3 1 2h2l2 6 4 8 3 14 7 21 1 5v11l4 8 5 19 2 19-3 6-4 5-2 5 1 3 5-3h4l1 11 6 14v6l-4 4 1 4 8-6v-2l5-2h7l7 8 8 13 6 8 5 4 16 1 8 2 9 5 7 6h2l1 3 9 7 13 4 11 8 9 3 2 2 4-1 5-3h7l3 4 1 11 5 6 8 1 10-8 15-5 7-1 1-1 2-10 4-10v-3l-11-2h-7l-7-5-6 1-6 5h-6l-1-7v-7l-6-16-10-5-14-5-6-2-1-1 1-8 4-5v-2h2l7-8v-2l3-1 8-10 2-11 1-3-12-5-8-4-3 2h-6l-3-6-4-16-4-7-3-14-3-4 1-5 12-6-1-5-4-4h-2l-1-3h-2l-2-4-6-10-8-21v-13l-15 2h-10l-1-1 1-10-4-5-1-2h-17l-1-1v-7l6-8 10-9 5-6-5-9-2-7v-26l1-3 9-3 6-10 4-9 2-7 10-9 12-2 6-6 13-1 4-6 10-22 5-2v-5l-9-17-2-15-4-6-1-1v-7zm-155 111-9 5-2 3-1 37 9 6 5 2h12l10-4 7-7 4-11v-10l-4-10-4-5-8-5-3-1zm-18 19v15h1v-15zm8 75m7 47v13h1v-13zm0 28-2 11-2 23-1 5 2 1 1-2 2-25 1-2v-11zm720 27 3 4h2v6l-2 3h-8l-6-3-8 20v2h-2l-7 8-4 1-5 1-4 6-3 10v15l5 10 2 11 1 2 12 5 1 5-5 4 1 6 10 10 1 11 1 2 11-2 3 9 5 5 4 5 1 3v7l-11 9-4 4v2h-2l-2 7 13 8 11 9 15 4 6 5 4 6-1 5-5 5-4 6-6 5-9 5-4 5-4 14-1 1-1 11-2 5-6 1-8-1-2 4-11 4-2 2v9l2 9 1 1v12l-5 5h-5l-1 1-2 13-1 2v18l2 3v7l-1 6 2 3 13 2h10l10-4 5-3h9l9 4 2 2 1 7 2 1 4-2 10 1 10-7 14-5 10-2h5l1 5v16l-1 3-3 2-8 2-2 4-2 15-4 8-8 10-3 2v2l-4 2-6 6v2l-4 2-2 4 3 3 6 3 4 9 3 6h12l10 2 14 5 9-3 8-6 6-7 5-11 4-15 3-3 9 1 11 3 13-1 5-3 4-6 5-6 3-2h6l10 13 9 12v2l-2 1-9 1-1 2 3 3 3 2-1 5-8 4 2 4 5 5 9 3 15 2 6-6 13-1 3-3 1-3v-19h2l1-4-3-4-4-8-2-1h-4l-3-8-2-7-6 2-8 4-4 1h-9l-5-3-2-2v-13l5-9 8-10 3-6 3-28 4-7 16-12 3-4 1-3v-8l-3-10-3-9v-12l2-7v-25l2-5 7-6 3-2v-6l-1-2v-9l3-6 8-7 4-5 3-10 9-5h10l9 1 22-5 6-3 7-8 8-15 4-11v-11l3-9 5-7 5-2h9l19 5 4-1 4-5 7 1 18 8 4-1 3-10 3-14 4-8 8-7 7-3-1-5-5-4-9 3-13 8-11 4-11 3h-27l-16-3-8-5-7 1-4 1-6-2-1-2v-9l2-3-1-5-4-3-4-1h-9l-6 2-7 9-2 2-6 1-5-2-2-4-8 1-4-1-2-6-2-2-3 3h-7l-11-5-3 8-6 12-4 2-6 7v6l4 6 9 10 4 5 10 7h2l-1 6-5 4v2l2 1-1 5-5 4 1 8-2 2h-7l-11-2-3-3-11 1-23 6-21 7h-9l-9-3-14-2-2-11-4-4-12-4-2-2 1-9 1-12 10-5 10-8-1-4-5-2-10-2-1-8 3-6 2-5-11 1-5-5-8-7-1-7h-16l-2-1-1-12-6 2-5 2-6-1v-7l-1-1h-9l-6-2-4-4-2-4v-10l5-4-1-4-4-5-17-13-7-5zm-725 14m-1 2 1 2zm-1 2 1 2zm-1 4-8 23-5 12-12 21v3l5 1 4-8 7-10 3-7 2-9 6-12 3-4-1-3-2-1-1-6z" fill="#73AAE9"/>
<path transform="translate(838,4)" d="m0 0 6 1 6 9 6 18 5 21 6 11 6 9 6 15 6 9 7 3 45 8 18 3h8l5-1h7l8 4h17l4 4 5 13 3 5 13 11 9 9 7 8 8 8 21 14 10 9 15 15 8 7 5 4 6 9 8 16 9 15 11 9 23 11 14 5 15 2 2 3 2 14v10l-2 11-3 6-8 11-3 9 3 7v8l-7 8-3 8-2 8-5 12-3 9 7 2 5 2h9l8-2 30 5 8 3 5 6 1 5-4 8-3 3-16 5-6 5-4 6-5 23-4 6-3 2-7-1-17-8h-3l-4 5h-9l-15-4h-12l-2 4-2 5-1 15-4 11-9 17-9 10-9 4-18 4h-14l-5-1-9 3-2 9-14 16v9l1 10-3 3-8 6-1 3v22l-2 9v13l5 14 1 4v9l-4 8-9 8-9 6-3 7-1 19-3 10-10 14-4 7v10l1 1h11l13-6 6 1 3 4 2 9 4 1 5 5 6 10 1 6-3 4v16l-3 7-6 5h-7l-5-1-2 4-3 3h-9l-17-3-7-4-5-6-1-2v-7l8-4-5-5 1-7 2-1h6l-1 2 7 1v1l-9 1v3l5 2 1 5-5 4-5 1 4 6 8 4 16 3h5l2-4 2-2 13-1 3-5v-17l1-2h2l-1-5-6-11h-5l-3-5-2-11-14 7-4 1h-9l-5-3-3-3v-13l5-9 8-10 3-6 3-28 4-7 7-6 9-6 3-4 1-3v-8l-3-10-3-9v-12l2-7v-25l2-5 8-7 2-1v-6l-1-2v-9l3-6 7-7h2l1-3h2l3-12 10-6h10l9 1 22-5 6-3 6-7 8-15 4-11v-11l3-9 6-8 5-2h9l19 5h3l5-6 7 1 18 8h3l3-10 3-14 4-8 9-8 4-2h3l-2-5-5-3-8 3-13 8-11 4-11 3h-27l-16-3-8-5-7 1-4 1-7-3-1-2v-9l2-3-1-5-7-3h-9l-6 2-6 8-3 3-6 1-5-2-2-4-8 1-4-2-4-7-3 3h-7l-11-5-4 12-5 7-8 7-1 2v6l4 6 9 10 5 5 10 7 1 4-4 5-3 3 3 1-1 5-5 4 1 8-3 3h-7l-11-2-3-3-11 1-23 6-21 7h-9l-9-3-14-2-2-4-1-8-3-3-12-4-3-3 1-9 1-12 14-8 6-5v-3l-5-2-10-2-2-4 1-8 5-8-11 2-5-5-9-8v-7l-5 1h-11l-3-2v-12l-11 5-6-1-1-1v-6l3-1 3 1 5-1 4-2h7l2 7 1 7 9-1h9l1 4-1 5 10 10 7-1 6 2 2 3-1 6-5 9 9 2 10 6 3 4-2 4-10 6-8 6-5 1v11l-1 4 11 4 6 6 2 8 13 3 7 3 8-1 27-9 15-4 7-1h9l2 4 8 1 2 1v-7l5-5-1-6 5-6-8-5-13-14-5-6-1-3v-12l3-5 6-4 5-7 5-17 3-2 9 6 5 3 5-1 4-3 4 2 5 7 9-1 4 4 2 3 6-5 4-6 6-3 8-1 11 2 8 6 1 2-1 9-1 1v5l4-1 2-1h6l9 5 4 2 25 2h9l19-5 14-8 8-4 9-1 5 3 4 5 1 3 5-2 2-2v-6l-4-3-28-5h-8l-7 2h-7l-14-5-4-5v-7l8-18 4-15 7-8 1-3-3-6v-9l3-7 10-14 2-7v-18l-1-8h-9l-14-4-29-14-10-8-4-5-10-17-4-9-6-10-12-11-8-7-5-5v-2l-3-1-5-5-7-5-2 6-2 10-11 12-8 16-3 4v-13l6-11 3-4h2v-2l5-5 1-2v-9l2-7-13-9-12-12-7-8-7-7-10-8-4-5-5-14v-2l-6 1h-9l-10-5-8 1-9 1-64-11-11-4-7-8-5-11-4-10-9-13-6-21-5-17-4-9-1-4h-2l-2 12-2 2-9-1-18 8-10 5-7 7-10 14-9 10-10 6-8 4-7-1-6-3-13-9-3-1-12 5-17 9-3 1-1 9-2 3-1 5h5l2 2v7h-7v-2l-4-1-2-2v-10l3-9-8-5-9-6-13-10-16-6-11-3-12 2-10 1-7-2v-8l-22 1-16 8h-7l-16-6-23-10-19 4-6 2-1 6-9 9-10 4-7-1-7-6-6-12-7-17-4-3-6 1-15 9-24 10-5 2h-6l-6-4-6-7-5-1 2 5v9l-4 6-4 3h-14l-2 3 1 5v7l-3 6-8 10-3 8-2 13 8 4 1 5-4 1v6l-5-2 1-7-7-2-1-4 3-20 4-7 9-11v-6l-2-3 4-10 4-3 13 1 4-3v-7l-2-4 1-7h-22l-22 1h-25l-10-6-6-3-9 1-19 9-6 7-11 6h-2l1 6-3-2v-6l-9 3-23 11-11 4-14 1-10 4-17 13-11 8-14 3-9 6-9 9-7 14-3 13 7 1 12 7 7 6 7 10 4 8 2 8v17l-4 13-8 14-7 10-13 20-9 14-4 5-6 2-5-2-7-9-1-4h-2l-2-4v-3l-3 1-1-6-6-7-7-11-10-15-5-11-2-11 1-16 5-12 6-9 7-7 10-6 11-4 17-1 2-13 6-12 11-12 7-6 8-4 10-1 14-10 9-7 14-9 20-2 28-13 27-13 26-12 10-1 7 3 11 7 34-1 26-1 17 4 8 6 6 7 9-2 17-7 12-7 10-6 7-1 5 3 5 5 8 18 4 8 6 5 6-1 5-3 5-5-1-6 8-4 19-5h8l15 6 16 7 10 3 10-5 9-4h25l3 3 1 7 14-3h12l21 7 11 7 14 10 5 3h9l16-8 11-5 6-1 12 6 10 7 3 1 14-7 8-7 13-18 8-8 15-8 14-6h7l2 1 1-10zm-768 147-9 5-2 3-1 37 9 6 5 2h12l10-4 7-7 4-11v-10l-4-10-4-5-8-5-3-1zm-18 19v15h1v-15z" fill="#73AAE9"/>
<path transform="translate(67,129)" d="m0 0h18l12 2 12 7 7 6 7 10 4 8 2 8v17l-4 13-8 14-7 10-13 20-9 14-4 5-6 2-5-2-7-9-1-4h-2l-2-4v-3l-3 1-1-6-6-7-7-11-10-15-5-11-2-11 1-16 5-12 6-9 7-7 10-6zm3 22-9 5-2 3-1 37 9 6 5 2h12l10-4 7-7 4-11v-10l-4-10-4-5-8-5-3-1zm-18 19v15h1v-15z" fill="#31A7EA"/>
<path transform="translate(661,404)" d="m0 0h16l13 4 10 6 8 7 7 11 4 10 1 4v17l-4 13-10 16-10 15-10 16-10 14-3 3h-7l-5-5-8-11-12-19-17-26-4-9-2-9v-13l4-14 6-10 10-10 12-7zm4 22-9 3-7 5-5 8-2 6v10l4 10 3 4h2v2l12 6h12l9-4 6-5 5-8 1-4v-11l-4-10-4-5-8-5-7-2z" fill="#31A7EA"/>
<path transform="translate(685,105)" d="m0 0h12l16 4 11 7 10 10 6 12 2 5 1 6v14l-4 13-11 18-7 10-19 29-5 6-2 1h-6l-6-5-9-14-10-15-17-26-4-9-2-7v-18l6-16 6-8h2l2-4 10-7 13-5zm-1 23-10 5-6 8-3 7v11l4 10 10 9 6 2h13l8-3 7-6 5-10 1-3v-8l-4-10-7-8-9-4z" fill="#33A8EA"/>
<path transform="translate(944,531)" d="m0 0h9l12 2 12 6 10 9 6 8 4 9 2 6 1 13-2 12-4 9-7 12-8 12-9 14-8 12-7 10-3 2h-6l-6-5-15-23-13-20-9-14-4-11-1-3v-18l4-13 6-9 8-9 10-6 10-4zm0 22-10 4-7 6-5 10v14l5 10 8 7 8 3h11l10-4 5-5 5-7 2-7v-7l-3-9-4-6-7-6-8-3z" fill="#31A7EA"/>
<path transform="translate(976,228)" d="m0 0h14l12 3 11 6 10 9 6 9 4 9 1 5v19l-3 10-6 10-7 11-26 39-5 5h-6l-7-6-7-11-26-39-7-14-1-5v-20l3-10 7-11 8-8 11-7zm4 22-10 3-9 8-4 9v13l3 8 5 6 9 5 3 1h13l9-4 5-4 4-6 2-6v-12l-4-10-8-7-7-3z" fill="#32A8EA"/>
<path transform="translate(486,63)" d="m0 0h16l15 5 10 7 5 5 7 9 4 10 1 4v20l-3 10-7 12-32 48-4 4-5 1-5-2-7-9-11-17-18-27-6-10-3-10v-20l4-11 6-10 9-9 10-6zm3 22-9 3-9 8-4 9v12l4 10 9 8 7 3h12l10-4 5-4 5-9 1-3v-13l-4-9-7-7-11-4z" fill="#32A8EA"/>
<path transform="translate(538,557)" d="m0 0h17l15 5 10 7 8 8 7 13 2 8v18l-3 10-6 11-34 51-3 3-5 1-5-2-8-10-9-14-20-30-7-14-1-4v-22l3-9 6-10 5-6 13-9 11-4zm4 22-11 4-5 4-5 8-1 4v13l3 7 4 6 10 6 3 1h12l9-4 8-7 4-10v-10l-4-11-9-8-9-3z" fill="#32A8EA"/>
<path transform="translate(691,712)" d="m0 0 15 2 12 5 10 8 7 8 5 10 3 11v14l-4 13-7 12-32 48-4 4h-8l-7-8-11-17-22-33-4-8-3-10v-17l3-10 7-12 9-9 10-6 8-3zm-5 23-8 3-8 7-5 10v12l6 12 10 7 8 2 12-1 9-6 5-6 4-10v-7l-4-11-6-7-8-4-3-1z" fill="#32A8EA"/>
<path transform="translate(332,296)" d="m0 0h19l13 4 11 7 7 7 6 9 4 11 1 5v13l-2 8-5 12-36 54-4 4h-8l-7-8-17-26-18-27-4-9-1-5v-18l3-10 7-12 9-9 12-7zm4 22-8 3-8 7-5 10v12l6 12 5 4 7 4 4 1h9l9-3 9-8 4-8 1-10-3-10-4-6-8-6-7-2z" fill="#32A8EA"/>
<path transform="translate(65,282)" d="m0 0 3 3-1 4v27l-2 12-1 26-1 5 1-1 2-25 1-2h2v-29l1-5h1v6h2l1-3 2 1-1 2-1 31-2 21-4 10-2 6 3 6-1 5-8 16-3 12-6 10-5 7-1 8-3 1-16-4 1-6 8-14 7-12 10-26 3-11 4-14 2-21 1-33h1l1 9zm-3 79m-1 2 1 2zm-1 2 1 2zm-1 4-8 23-5 12-12 21v3l5 1 4-8 7-10 3-7 2-9 6-12 3-4-1-3-2-1-1-6z" fill="#74ABE9"/>
<path transform="translate(54,233)" d="m0 0 4 5 1 5h2l3 21 3 1 1 4h2l7 14 3 14 7 21 1 5v11l4 8 5 19 2 19-3 6-4 5-2 7 4-2-4 5-3 1-1-5-2 1 1-6 5-10 2-6-3-22-3-10-4-6-1-17-5-12-1 18h-1v-25l-3 1-1-1-1 29h-1l-1-6-1 6-1 16h-1v-19l2-12v-29l1-2-1-2-1 22-2-1-1 24-2 21h-1v-13l1-11v-20l-1-28-4-25-2-11v-7zm13 59v13h1v-13z" fill="#78AAE8"/>
<path transform="translate(1008,771)" d="m0 0h2l2 6 2 1v2l4 1 5 5 6 10 1 6-3 4v16l-3 7-6 5h-7l-5-1-2 4-3 3h-9l-17-3-7-4-5-6-1-2v-7l8-4-5-5 1-7 2-1h6l-1 2 7 1v1l-9 1v3l5 2 1 5-5 4-5 1 4 6 8 4 16 3h5l2-4 2-2 13-1 3-5v-17l1-2h2l-1-5-6-11h-5l-3-5z" fill="#74AAE9"/>
<path transform="translate(396,373)" d="m0 0 5 2 1 2 1 9h10l3 2 1 3 1 18 4 2v2l4 2 2 3v3h2v-2l4-4 3-7 2-1 5 3 5 5 10 8 2 2v5l-4 2v2l3 1h-5l-1-2 1 6-4-2 1-7 2-4-6-4-6-5-11 11h-6l-2-2-3-7-7-7-3-7 2-12-9 1-6-4-1-2z" fill="#77ACE9"/>
<path transform="translate(95,395)" d="m0 0 5 1 1 11 6 14v6l-3 4h-2l1 3 6-5h2v-2l4-2 3 1-2 6-14 12-4 3h-2v-21l4-2-1-6-4-7-2-7-8 9-4-1-2-3v-5l4-8h3 1l1 5z" fill="#70A8E8"/>
<path transform="translate(70,297)" d="m0 0h1v6h2l1-3 2 1-1 2-1 31-2 21-3 7-4-1 1-7 1-17 1-6 1-29z" fill="#509CE5"/>
<path transform="translate(91,344)" d="m0 0 2 1 4 16 2 19-3 6-4 5-2 7 4-2-4 5-3 1-1-5-2 1 1-6 5-10 2-6-2-17v-9l1-2z" fill="#7EB4EB"/>
<path transform="translate(1057,187)" d="m0 0h5l-1 17-9 11-4 5-8 16-2 2v-13l6-11 3-4h2v-2l5-5 1-2v-9z" fill="#6CA6E8"/>
<path transform="translate(65,282)" d="m0 0 3 3-1 4v27l-2 12-1 26-1 4h-2l-1 7-2-2 1-14 2-21 1-33h1l1 9z" fill="#3EADEB"/>
<path transform="translate(67,331)" d="m0 0h1l-1 23-3 9-3 12-2-4-5 15-1-4-1-1-2 4-1-3 4-12 5-19h1v12l2-5h3l2-25zm-5 30m-5 2m4 0 1 2zm-1 2 1 2z" fill="#8ABBED"/>
<path transform="translate(95,395)" d="m0 0 4 1-4 2v3 5l-2-2-8 9-4-1-2-3v-5l4-8h3 1l1 5z" fill="#6DA7E8"/>
<path transform="translate(57,158)" d="m0 0h1l1 21v15h-4l-2-4 1-1v-26z" fill="#6394E2"/>
<path transform="translate(66,287)" d="m0 0 2 2 2 6-1 36h-1l-1-6-1 6-1 16h-1v-19l2-12zm1 5v13h1v-13z" fill="#FEFEFE"/>
<path transform="translate(244,30)" d="m0 0 1 3-5 5-9 5h-2v-4l-3-1 15-7z" fill="#509EE6"/>
<path transform="translate(61,336)" d="m0 0h2v17l-3 12-2-2 1-14 1-12z" fill="#3F90E2"/>
<path transform="translate(64,361)" d="m0 0 4 1-1 5-1 4 1 2v6l-4 3v-5l-2-1 1-10z" fill="#54A1E7"/>
<path transform="translate(65,282)" d="m0 0 3 3-1 4v27l-2 6h-1l-1-7v-8l1-2z" fill="#468BE1"/>
<path transform="translate(67,331)" d="m0 0h1l-1 23-3 9-3 12h-1l-1-10 2-7h3l2-25zm-5 30m-1 2 1 2zm-1 2 1 2z" fill="#FEFEFE"/>
<path transform="translate(968,801)" d="m0 0h6l-1 2 7 1v1l-9 1v3l2 1-1 3-5-2-2-2 1-7z" fill="#BDE2F7"/>
<path transform="translate(332,109)" d="m0 0 6 2 1 5-4 1v6l-5-2 1-8z" fill="#6DADEA"/>
<path transform="translate(53,370)" d="m0 0 4 5-1 6-2 5-1-4-1-1-2 4-1-3z" fill="#94C5F0"/>
<path transform="translate(337,116)" d="m0 0 3 3-1 2-1 1-1 8-2-4-4-4h3l1-5z" fill="#82CAF2"/>
<path transform="translate(64,361)" d="m0 0 4 1-1 5-1 6-2-1v-3h-2l1-6z" fill="#7EB3EB"/>
<path transform="translate(65,282)" d="m0 0 3 3-1 4-1 18h-1z" fill="#26A3E9"/>
<path transform="translate(325,98)" d="m0 0h1l1 13 1 2-4-1-1-4z" fill="#87CCF2"/>
<path transform="translate(515,567)" d="m0 0 2 1-12 12v-3l5-6z" fill="#9ED5F4"/>
<path transform="translate(326,107)" d="m0 0 6 2 1 3-5 1-2-2z" fill="#3C92E3"/>
<path transform="translate(967,803)" d="m0 0 3 1-1 6-4-1v-5z" fill="#6DA7E8"/>
</svg>
