<svg xmlns="http://www.w3.org/2000/svg" version="1.1" viewBox="-5.0 -10.0 110.0 135.0" fill="#D90B0B" style="transform: scale(1.1)">
 <path d="m27.629 84.883v-5.7617h-18.582c-0.52344 0-0.94922-0.42578-0.94922-0.94922s0.42578-0.94922 0.94922-0.94922h3.9922l-1.2812-21.609c-0.003906-0.074219-0.011718-0.14062-0.027343-0.21094-0.011719-0.058594-0.027344-0.125-0.054688-0.20312l-1.2188-3.6758-1.6172 4.9414c-0.37891 1.1523-1.2305 1.7617-2.1719 1.9258-0.42578 0.074219-0.86328 0.054687-1.2773-0.050781-0.41016-0.10547-0.80469-0.29688-1.1445-0.56641-0.75391-0.59375-1.2227-1.5391-1.0078-2.7266l3.1016-17.133c0.039062-0.70312 0.21484-1.3867 0.50781-2.0156 0.57422-1.2188 1.5938-2.2266 2.9414-2.7539l1.1406-0.44531c1.3828-0.54297 2.8594-0.47656 4.125 0.070312 0.65234 0.28125 1.2539 0.69141 1.7578 1.207l6.25 1.5078c0.24219 0.058594 0.48047 0.066406 0.70703 0.019531 0.22266-0.042968 0.4375-0.14062 0.63672-0.28906l5.3359-3.9258c0.62109-0.45703 1.3555-0.65625 2.0742-0.60547 0.71875 0.050781 1.418 0.35547 1.9727 0.89844l0.097657 0.097657c0.019531 0.019531 0.039062 0.042968 0.054687 0.0625 0.54297 0.60547 0.82812 1.3555 0.83984 2.1094 0.011719 0.78906-0.27734 1.5781-0.89453 2.2031l-0.097657 0.09375-6.6328 6.207c-0.45703 0.42969-0.98828 0.71484-1.5547 0.85547-0.57031 0.14062-1.1758 0.13281-1.7773-0.035157l-3.1992-0.88281 1.6211 3.9883c0.085937 0.21484 0.20312 0.39453 0.34375 0.53516 0.14453 0.14453 0.32031 0.26172 0.53125 0.34766l8.457 3.4961c0.44922 0.18359 0.83203 0.44141 1.1562 0.76172 0.32422 0.32422 0.57812 0.71094 0.75781 1.1602l7.3164 17.926h0.875v-12.121c0-0.52344 0.42578-0.94922 0.94922-0.94922h14.73c0.52344 0 0.94922 0.42578 0.94922 0.94922v12.121h0.875l7.3164-17.926c0.18359-0.44531 0.43359-0.83203 0.75781-1.1602 0.32031-0.32422 0.70703-0.57812 1.1562-0.76172l8.4531-3.4961c0.21094-0.085937 0.38672-0.20312 0.53125-0.34766 0.14062-0.14453 0.25781-0.32031 0.34375-0.53516l1.6211-3.9883-3.1992 0.88281c-0.60156 0.16797-1.207 0.17578-1.7773 0.035157-0.56641-0.14063-1.0977-0.42969-1.5547-0.85547l-6.582-6.1602c-0.019531-0.015624-0.035156-0.03125-0.054687-0.046874-0.027344-0.023438-0.058594-0.054688-0.09375-0.09375-0.61719-0.625-0.90625-1.4102-0.89453-2.2031 0.011718-0.77734 0.31641-1.5508 0.89453-2.168l0.097656-0.10156c0.55078-0.54297 1.2539-0.84766 1.9727-0.89844 0.71875-0.050782 1.4531 0.14844 2.0742 0.60547l5.3359 3.9258c0.19922 0.14844 0.41797 0.24609 0.64062 0.28906 0.22656 0.046875 0.46484 0.039063 0.70703-0.019531l6.25-1.5078c0.50391-0.51953 1.1016-0.92578 1.7578-1.207 1.2695-0.54297 2.7422-0.60938 4.125-0.070312l1.1406 0.44531c1.3477 0.52734 2.3672 1.5352 2.9414 2.7539 0.29687 0.62891 0.47266 1.3125 0.50781 2.0156l3.1016 17.133c0.21484 1.1875-0.25391 2.1328-1.0078 2.7266-0.33984 0.26953-0.73438 0.46094-1.1445 0.56641-0.41406 0.10547-0.85156 0.125-1.2773 0.050781-0.94141-0.16406-1.793-0.77344-2.1719-1.9258l-1.6172-4.9414-1.2188 3.6758c-0.027343 0.078125-0.042968 0.14453-0.054687 0.20312-0.011719 0.066406-0.019531 0.13672-0.023437 0.21094l-1.2812 21.605h3.9922c0.52344 0 0.94922 0.42578 0.94922 0.94922 0 0.52344-0.42578 0.94922-0.94922 0.94922h-18.582v5.7617c0 0.52344-0.42578 0.94922-0.94922 0.94922l-42.844 0.003906c-0.52344 0.003907-0.94922-0.42188-0.94922-0.94922zm-14.648-67.25c-1.9531 0-3.7227 0.79297-5.0039 2.0742s-2.0742 3.0508-2.0742 5.0039c0 1.9531 0.79297 3.7227 2.0742 5.0039s3.0508 2.0742 5.0039 2.0742 3.7227-0.79297 5.0039-2.0742 2.0742-3.0508 2.0742-5.0039c0-1.9531-0.79297-3.7227-2.0742-5.0039-1.2773-1.2812-3.0469-2.0742-5.0039-2.0742zm3.6641 3.418c0.9375 0.9375 1.5156 2.2305 1.5156 3.6602 0 1.4297-0.57812 2.7227-1.5156 3.6602s-2.2305 1.5156-3.6602 1.5156-2.7227-0.57812-3.6602-1.5156-1.5156-2.2305-1.5156-3.6602c0-1.4297 0.57812-2.7227 1.5156-3.6602s2.2305-1.5156 3.6602-1.5156c1.4258 0 2.7227 0.57812 3.6602 1.5156zm1.5234 15.199 1.5586 3.8281 4.6055 1.2695c0.28125 0.078125 0.5625 0.082032 0.82031 0.019532 0.26172-0.066407 0.50391-0.19922 0.71484-0.39844l6.6328-6.207c0.011719-0.011719 0-0.003907 0.039062-0.039063 0.24219-0.24609 0.35938-0.55078 0.35156-0.85156-0.003906-0.30078-0.12109-0.60156-0.34375-0.85938l-0.082031-0.085938c-0.21875-0.21484-0.49219-0.33594-0.77734-0.35547-0.28516-0.019531-0.57422 0.058594-0.82031 0.24219l-5.3359 3.9258c-0.42969 0.31641-0.89844 0.52734-1.3867 0.625-0.48828 0.097657-1 0.085938-1.5234-0.042969zm-8.7148 12.246-2.0078-6.0547-2.3398 12.941c-0.074219 0.40234 0.074219 0.71875 0.31641 0.91016 0.12109 0.097656 0.27344 0.16797 0.44141 0.21094 0.16016 0.039063 0.32422 0.050782 0.48047 0.023438 0.29297-0.050782 0.56641-0.25391 0.69531-0.64453zm5.4844 28.727h2.8672l1.8633-18.266c0.054687-0.54297 0.21875-1.0352 0.48047-1.4688 0.26172-0.4375 0.625-0.80859 1.0742-1.1055 0.44922-0.30078 0.9375-0.48437 1.4414-0.55859 0.50391-0.070313 1.0195-0.027344 1.5352 0.13281l3.918 1.2148c0.52344 0.16406 0.98047 0.42578 1.3594 0.77734 0.37891 0.35156 0.67578 0.78906 0.875 1.3008l4.418 11.262h3.9883l-7.0234-17.219c-0.085937-0.21484-0.20312-0.39062-0.34375-0.53516-0.14453-0.14453-0.32031-0.26172-0.53125-0.34766l-8.457-3.4961c-0.44922-0.18359-0.83594-0.44141-1.1562-0.76562-0.32422-0.32422-0.57812-0.71484-0.75781-1.1602l-4.2969-10.566c-0.36328-0.89453-1.0547-1.5586-1.8828-1.9141-0.82812-0.35547-1.7891-0.39844-2.6875-0.046874l-1.1406 0.44531c-0.87891 0.34375-1.543 1-1.918 1.7891-0.37109 0.79297-0.44922 1.7227-0.15234 2.6211l5.0664 15.285c0.046876 0.14453 0.085938 0.28906 0.11328 0.44141 0.027344 0.14453 0.046875 0.29297 0.054687 0.45312zm4.7695 0h7.9219v-5.7617c0-0.52344 0.42578-0.94922 0.94922-0.94922h4.1562l-4.1484-10.574c-0.09375-0.24219-0.23047-0.44531-0.39844-0.60156-0.16797-0.16016-0.37891-0.27734-0.625-0.35547l-3.918-1.2148c-0.24219-0.074219-0.48438-0.097656-0.71094-0.066406-0.22656 0.03125-0.44922 0.11719-0.66016 0.25781-0.21094 0.14062-0.37891 0.3125-0.49609 0.50781-0.12109 0.19922-0.19531 0.42578-0.21875 0.67578zm23.961-48.66v24.695c0 0.52344 0.42578 0.94922 0.94922 0.94922h10.762c0.52344 0 0.94922-0.42578 0.94922-0.94922l0.003906-24.695h2.7891c0.35156 0 0.68359-0.097656 0.96875-0.26953 0.29297-0.17969 0.53125-0.44141 0.68359-0.76562 0.15625-0.33203 0.19141-0.67578 0.13281-1.0078-0.058594-0.32422-0.20703-0.62891-0.41797-0.87891l-9.125-10.871c-0.17578-0.21094-0.39453-0.35938-0.63672-0.46094-0.23437-0.097656-0.48047-0.14062-0.72656-0.14062s-0.49219 0.046875-0.72656 0.14062c-0.24219 0.10156-0.46094 0.25391-0.63672 0.46094l-9.1211 10.875c-0.21094 0.25391-0.35938 0.55469-0.41797 0.87891-0.058594 0.33203-0.023437 0.67578 0.13281 1.0078 0.15234 0.32422 0.39062 0.58594 0.68359 0.76562 0.28516 0.17578 0.61719 0.26953 0.96875 0.26953zm-2.5352-1.8984h3.4883c0.52344 0 0.94922 0.42578 0.94922 0.94922v24.695h8.8633v-24.695c0-0.52344 0.42578-0.94922 0.94922-0.94922h3.4883l-8.8711-10.57zm45.887-7.5195c-1.4297 0-2.7227 0.57812-3.6602 1.5156s-1.5156 2.2305-1.5156 3.6602c0 1.4297 0.57812 2.7227 1.5156 3.6602s2.2305 1.5156 3.6602 1.5156c1.4297 0 2.7227-0.57812 3.6602-1.5156s1.5156-2.2305 1.5156-3.6602c0-1.4297-0.57812-2.7227-1.5156-3.6602-0.9375-0.93359-2.2344-1.5156-3.6602-1.5156zm-5.0039 0.17188c-1.2812 1.2812-2.0742 3.0508-2.0742 5.0039 0 1.9531 0.79297 3.7227 2.0742 5.0039s3.0508 2.0742 5.0039 2.0742 3.7227-0.79297 5.0039-2.0742 2.0742-3.0508 2.0742-5.0039c0-1.9531-0.79297-3.7227-2.0742-5.0039s-3.0508-2.0742-5.0039-2.0742c-1.957 0.003906-3.7266 0.79687-5.0039 2.0742zm-1.7422 20.762 1.5586-3.8281-4.4531 1.0742c-0.52344 0.125-1.0352 0.14062-1.5234 0.042969-0.49219-0.097657-0.95703-0.30469-1.3867-0.625l-5.3359-3.9258c-0.24609-0.18359-0.53906-0.26172-0.82031-0.24219s-0.55859 0.14062-0.77734 0.35547c-0.039062 0.039062-0.035156 0.035156-0.046875 0.042968-0.24609 0.26172-0.37891 0.58594-0.38281 0.89844-0.003907 0.30078 0.10938 0.60547 0.35547 0.85156l0.042968 0.039063 0.046875 0.046875 6.582 6.1602c0.21094 0.19922 0.45703 0.33203 0.71875 0.39844 0.25781 0.0625 0.53516 0.058593 0.82031-0.019532zm12.281 2.3633-2.0078 6.0547 2.418 7.3828c0.12891 0.38672 0.39844 0.58984 0.69531 0.64453 0.15625 0.027343 0.32031 0.019531 0.48047-0.023438 0.16797-0.042969 0.31641-0.11328 0.44141-0.21094 0.24219-0.19141 0.39062-0.50391 0.31641-0.91016zm-25.289 28.066h4.1562c0.52344 0 0.94922 0.42578 0.94922 0.94922v5.7617h7.9219l-1.8438-18.078c-0.023438-0.25-0.10156-0.47656-0.21875-0.67578-0.11719-0.19531-0.28516-0.36719-0.49609-0.50781s-0.43359-0.22656-0.66016-0.25781c-0.22656-0.03125-0.46875-0.011719-0.71094 0.066406l-3.918 1.2148c-0.24609 0.074219-0.45703 0.19531-0.625 0.35547-0.16797 0.15625-0.30469 0.35937-0.39844 0.60156zm14.93 6.7148h2.8672l1.2891-21.719c0.007813-0.16016 0.027344-0.30859 0.054688-0.45312 0.03125-0.15234 0.066406-0.29688 0.11719-0.44141l5.0664-15.285c0.29688-0.89844 0.21875-1.832-0.15234-2.6211s-1.0391-1.4453-1.918-1.7891l-1.1406-0.44531c-0.89844-0.35156-1.8594-0.30859-2.6875 0.046875s-1.5195 1.0195-1.8828 1.9141l-4.2969 10.559c-0.17969 0.44531-0.43359 0.83203-0.75781 1.1602-0.32031 0.32422-0.70703 0.57812-1.1562 0.76562l-8.457 3.4961c-0.21094 0.085938-0.38672 0.20312-0.53125 0.34766-0.14062 0.14453-0.25781 0.32031-0.34375 0.53516l-7.0234 17.211h3.9883l4.418-11.262c0.19922-0.51172 0.49609-0.94531 0.875-1.3008 0.37891-0.35156 0.83594-0.61328 1.3594-0.77734l3.918-1.2148c0.51562-0.16016 1.0312-0.20312 1.5352-0.13281 0.50391 0.070313 0.98828 0.25781 1.4414 0.55859 0.44922 0.30078 0.8125 0.67188 1.0742 1.1055 0.26172 0.43359 0.42578 0.92578 0.48047 1.4688zm-52.668-4.8164v11.523h40.945v-11.523h-13.105c-0.52344 0-0.94922-0.42578-0.94922-0.94922l-0.003907-12.121h-12.828v12.121c0 0.52344-0.42578 0.94922-0.94922 0.94922z" fill-rule="evenodd"/>
</svg>