<svg xmlns="http://www.w3.org/2000/svg" version="1.1" viewBox="68 107 1480 1036"><path transform="translate(1385,107)" d="m0 0h58l20 1 13 2 5 5 3 7 4 36 8 96 3 33 3 74 3 54 5 66 7 86 9 92 3 45 9 103 5 47 3 47 1 12 1 38v25l-2 11-4 13-11 17-8 10-16 17-17 16-18 18-8 7-12 11-14 11-13 11-10 9-18 10-6 2-15 2-9 2h-244l-12-6-3-7-3-19-3-50-6-81-2-31-6-60-8-87-1-22h-651l-13-3-7-5-5-9-1-8 4-10 11-15 9-11 32-32 11-9 8-8 4-5 14-11 7-7 8-7 9-8 18-11 16-8 10-4 19-4 22-2 351-1 42-2 15-2 10-6 10-9 12-12 8-7 7-7 7-8 16-13 17-17h2l2-4h2l2-4 9-9 10-13 6-14 2-10v-15l-4-45-3-45v-32l3-9 5-12 11-15 8-9 8-7 13-12 9-9 8-7 13-12 9-9 8-7 11-11 14-11 47-47 8-7 13-13 11-9 10-7 11-4 17-3z" fill="#D90B0B"></path><path transform="translate(384,853)" d="m0 0h330l36 2 11 2 9 5 3 4v33l-8 20-10 19-12 16-12 14-6 8-15 16-11 12-17 17-3 4h-2l-2 4h-2l-2 4h-2l-1 3-5 5h-2l-2 4-8 8h-2l-1 3-6 5-7 8h-2l-2 4h-2l-2 4h-2l-2 4h-2l-2 4h-2l-1 3-8 7-10 9-26 20-19 11-14 5-11 3h-443l-5-2-10-9-2-5 6-11 7-11 12-16 12-13 13-13 8-7 16-16 11-9 15-13 5-4 2-3h2l1-3 6-5 7-8 4-4h2l1-3 20-20 8-7 10-9 8-7 13-13 8-7 8-8 14-11 15-13 9-7 13-10 14-9 10-5 18-6z" fill="#595857"></path><path transform="translate(1122,108)" d="m0 0h62l17 1 9 5 5 5 1 3v13l-5 10-10 13-8 10-7 8-6 5-23 23-11 9-16 16-8 7-15 14-13 12-8 7-23 23-9 11-7 10-4 8-1 4v13l3 44 2 4 1 32v57l-6 15-9 10-8 7-22 10-19 5-48 4-20 1-65 2-23 1h-146l-38-4-17-3-7-3-1-2v-18l3-9 7-11 10-10 9-11 15-15 11-9 8-8 8-7 16-16 8-7 13-11 15-13 10-8 14-13 11-9 10-9 11-9 8-7 7-8 8-8 15-12 7-8 15-15 8-7 16-16 8-7 4-5h2l2-4 8-8 8-7 7-7 1-2h2l2-4 6-6h2v-2l8-7 7-7 7-8 3-3h2l2-4 9-8h2l2-4 6-7 13-10 12-8 10-6 17-6 25-3 17-2z" fill="#595857"></path><path transform="translate(1127,340)" d="m0 0h1l5 35 4 30 1 14 1 46-1 11-5 12-9 12-7 9h-2l-2 4h-2l-2 4-28 28-8 7-15 14-7 6-17 17-11 9-8 4-12 4-27 2-62 2h-327l-15 2-16 6-17 9-11 7-15 11-12 11-14 12-11 10-8 7-13 13h-2l-1 3-6 5-12 12-1 2h-2v2h-2l-2 4-8 9-1 2h-2l-2 4-5 11v9l4 9 7 4 11 1h218l98 1v1l-117 1-35 1-7 1h-160l-13-3-7-5-5-9-1-8 4-10 11-15 9-11 32-32 11-9 8-8 4-5 14-11 7-7 8-7 9-8 18-11 16-8 10-4 19-4 22-2 351-1 42-2 15-2 10-6 10-9 12-12 8-7 7-7 7-8 16-13 17-17h2l2-4h2l2-4 9-9 10-13 6-14 2-10v-15l-4-45-3-45z" fill="#C31C17"></path><path transform="translate(1385,107)" d="m0 0h58l20 1 13 2 5 5 3 7 4 36 8 96 3 33 3 74 3 54 5 66 7 86 9 92 3 45 9 103 5 47 1 17v12h-1l-2-6-2-8-2-10-5-49-1-18-2-16-3-32-1-29v-14l1-3-4-14-3-31-2-19-3-38-2-15-2-25-1-30-4-33-3-30-2-53-4-41-2-23v-71l-3-21-2-13-3-24-1-17-1-31-4-23-3-14v-8l-2-10-71-1-39 1-15 2-9 3-12 8-13 11-4 4h-2v2l-8 7-57 57-8 7-10 9-12 11-7 6-1 2h-2v2l-8 7-3 3h-2v2l-8 7-20 18-15 15-7 10-7 14-6 16h-1l-1-9 3-9 5-12 11-15 8-9 8-7 13-12 9-9 8-7 13-12 9-9 8-7 11-11 14-11 47-47 8-7 13-13 11-9 10-7 11-4 17-3z" fill="#C21C18"></path><path transform="translate(1544,892)" d="m0 0h1l2 21 1 38v25l-2 11-4 13-11 17-8 10-16 17-17 16-18 18-8 7-12 11-14 11-13 11-10 9-16 9h-9l4-3 12-6 9-7h2v-2l9-7 6-5 3-3 11-9 11-10 8-7 5-5 7-6 2-3h2l2-4 9-9 7-8h2l2-4 9-9 1-2h2l2-4 13-17 5-10 4-11 3-53v-22z" fill="#C11C18"></path><path transform="translate(1079,777)" d="m0 0h2l1 2 3 27 4 42 6 58 1 6 2 31 6 74 1 30 4 53 3 20 5 18 3 2-6-1-5-5-3-15-2-23-2-35-6-81-2-31-6-60-8-87z" fill="#B52521"></path><path transform="translate(1364,1140)" d="m0 0h12l-3 2-6 1h-244l-1-2h200z" fill="#FEFEFE"></path><path transform="translate(1103,1039)" d="m0 0h1l2 23 4 47 4 19 3 10 3 2-6-1-5-5-3-15-2-23-2-35z" fill="#BF1D19"></path><path transform="translate(1364,1140)" d="m0 0h12l-3 2-6 1h-45l1-2z" fill="#FEFEFE"></path><path transform="translate(1079,777)" d="m0 0h2l1 2v10l-2 1-1-4z" fill="#C1201C"></path><path transform="translate(1397,1132)" d="m0 0h7l-3 3-5 1h-6l4-3z" fill="#D90B0B"></path><path transform="translate(1365,1140)" d="m0 0h11l-3 2-13 1 4-2z" fill="#D90B0B"></path></svg>