<svg xmlns="http://www.w3.org/2000/svg" version="1.1" viewBox="-2.0 -10.0 110.0 135.0"  style="transform: scale(1.1)" fill="#fff">
 <g>
  <path d="m95.078 56.965-41.875-41.875c-0.27734-0.27734-0.64844-0.37109-0.92969-0.37109-0.37109 0-0.64844 0.09375-0.83594 0.37109l-6.5 6.5c1.1133 1.4844 1.9492 3.0625 2.6914 4.7344 1.0195 2.5078 1.4844 5.1992 1.4844 7.9844 0 2.5078-0.46484 5.1992-1.4844 7.8008-2.6016 6.6836-8.6367 11.699-15.691 13.094-1.3906 0.27344-2.6914 0.36719-4.082 0.36719h-1.3008c-2.7852-0.1875-5.3867-0.92969-7.8008-2.043-1.3008-0.64844-2.5078-1.3945-3.6211-2.2266l-5.6641 5.6641c-0.27734 0.27734-0.37109 0.64844-0.37109 0.92969 0 0.37109 0.1875 0.64844 0.37109 0.92969l6.1289 6.1289c0.55859 0.55859 1.3008 0.55859 1.8555 0l6.0352-6.0352 0.003907 27.293c0 0.64844 0.64844 1.3008 1.3008 1.3008h19.59c0.64844 0 1.3008-0.64844 1.3008-1.3008v-16.062h13.094l-0.003906 16.062c0 0.64844 0.64844 1.3008 1.3008 1.3008h19.59c0.64844 0 1.3008-0.64844 1.3008-1.3008v-27.297l6.0352 6.0352c0.55859 0.55859 1.3008 0.55859 1.8555 0l6.1289-6.1289c0.55859-0.55469 0.55859-1.3008 0.09375-1.8555z"/>
  <path d="m13.648 47.586c0.83594 0.92969 1.7656 1.7656 2.7852 2.5078 0.92969 0.74219 2.043 1.3945 3.0625 1.8555 2.2266 1.0195 4.5508 1.6719 7.1484 1.8555h1.1133c1.3008 0 2.5078-0.09375 3.7148-0.37109 6.5938-1.3008 11.977-5.8477 14.391-11.977 0.83594-2.2266 1.3945-4.6406 1.3945-7.1484 0.09375-2.6016-0.46484-5.0156-1.3008-7.3359-0.55859-1.4844-1.3945-2.8789-2.3203-4.1797-1.0195-1.4844-2.3203-2.7852-3.7148-3.8984-3.3438-2.6016-7.5195-4.1797-12.07-4.1797-1.1133 0-2.1367 0.09375-3.25 0.27734-9.2812 1.582-16.336 9.5664-16.336 19.316 0 3.3438 0.83594 6.5938 2.4141 9.2852 0.83203 1.4844 1.8555 2.7852 2.9688 3.9922zm2.1367-15.133c0.09375-0.64844 0.55859-1.0195 1.1133-1.4844 0.37109-0.27734 0.83594-0.27734 1.1133-0.27734 0.83594 0 1.5781 0.37109 2.043 1.1133l1.207 2.1367 1.4844 2.6914 2.7852-2.1367 10.77-8.2656c0.1875-0.1875 0.37109-0.27734 0.55859-0.37109 0.37109-0.1875 0.74219-0.27734 1.0195-0.27734h0.09375c0.64844 0 1.1133 0.27734 1.5781 0.83594 0.09375 0.09375 0.09375 0.1875 0.1875 0.27734 0.27734 0.46484 0.46484 0.92969 0.46484 1.4844-0.1875 0.55859-0.37109 1.0195-0.64844 1.3945-0.09375 0.1875-0.27734 0.37109-0.46484 0.46484l-5.5703 4.3633-8.0781 6.3125-0.83594 0.64844-0.46484 0.65234-0.46484 0.37109c-0.37109 0.37109-1.0195 0.64844-1.5781 0.64844-0.27734 0-0.74219-0.09375-1.207-0.37109-0.27734-0.1875-0.55859-0.37109-0.74219-0.83594v-0.18359l-2.9727-5.293-1.207-2.1367c-0.18359-0.46484-0.37109-1.207-0.18359-1.7617z"/>
 </g>
</svg>