<svg xmlns="http://www.w3.org/2000/svg" version="1.1" viewBox="-5.0 -20.0 110.0 135.0" style="transform: scale(1.2)" fill="#fff">
 <path d="m75.527 52.488c-3.4844-2.4883-7.8242-5.5742-11.586-7.7266-5.7227-3.2734-6.8125-2.4453-6.8242-2.4453-6.6836 5.6367-12.211 8.6172-15.895 8.6172-0.64453 0.007812-1.2852-0.10156-1.8906-0.32422-1.4141-0.54297-2.3945-1.8438-2.5312-3.3516-0.58984-4.4141 3.918-11.184 11.066-16.754-1.1953-1.3203-3.1094-1.0195-6.9766-0.058594-3.3008 0.82031-6.9961 1.7383-10.613 0.48828l-13.16 20.621c0.19141 0.23828 0.39844 0.45703 0.625 0.66016l0.13281-0.14453v-0.003906c1.4258-1.6211 3.6328-2.3242 5.7344-1.8242 1.6328 0.38672 3.0547 1.3867 3.9727 2.793 2.207-1.5625 5.0352-1.957 7.5898-1.0664 2.0078 0.77734 3.4141 2.6055 3.6523 4.7461 2.2148-0.36719 4.4688 0.38281 6.0273 2 1.3438 1.5703 1.6875 3.8203 1.0156 6.4336 2.6055 0.89062 4.1758 2.3125 4.6797 4.25 0.69922 2.6875-1.5547 6.1758-2.4961 7.4727 3.5547 2.4023 6.3984 3.332 8.2734 2.6914l-0.003907-0.003906c1.2266-0.53125 2.1484-1.582 2.5156-2.8672l-6.5859-4.6797h0.003906c-0.32812-0.21875-0.55078-0.5625-0.62109-0.94922-0.070312-0.39062 0.019532-0.78906 0.24609-1.1094 0.22656-0.32422 0.57812-0.53906 0.96484-0.59766 0.39062-0.0625 0.78906 0.035156 1.1055 0.27344l7.3438 5.2227c1.8477 0.80859 3.3125 0.95703 4.3594 0.4375l-0.003906-0.003906c1.1562-0.74609 1.9609-1.9297 2.2344-3.2773l-11.805-7.7031c-0.67578-0.44141-0.86719-1.3477-0.42578-2.0234 0.44141-0.67969 1.3477-0.87109 2.0273-0.42969l12.445 8.1211c1.2344 0.37891 2.5742 0.22656 3.6953-0.41797 0.78516-0.71875 1.2539-1.7148 1.3125-2.7773l-15.652-10.586c-0.32812-0.21484-0.55469-0.55078-0.63281-0.93359-0.074218-0.38672 0.003906-0.78516 0.22266-1.1094 0.21875-0.32422 0.55859-0.54688 0.94531-0.61719 0.38281-0.074219 0.78125 0.011719 1.1016 0.23828l16.141 10.906c1.9922 0.58203 4.1484 0.16406 5.7773-1.1211 0.80469-1.0469 1.1523-2.3711 0.96484-3.6758-0.28125-1.3281-1.4023-2.6211-3.332-3.8438-1.2461-0.77734-3.0508-2.0586-5.1367-3.5469zm-20.297-12.406c-8.1211 6.8555-13.074 8.4844-14.848 7.8008-0.41797-0.16016-0.69141-0.5625-0.6875-1.0078-0.33984-2.5547 2.8242-8.8164 10.922-14.789 6.7148-3.8672 8.4062-3.0391 10.75-1.8906v0.003907c1.6562 0.90625 3.4883 1.4414 5.3711 1.5625 1 0.058593 2.0039 0.035156 3-0.074219l13.695 21.465c-0.21484 0.28516-0.49609 0.51562-0.82031 0.66797-0.12891-0.085937-0.25781-0.17187-0.39062-0.25781-1.1797-0.73438-2.9492-1.9922-5-3.4531-10.754-7.668-18.625-12.863-22-10.02zm15.746-11.898c-0.35547-0.5625-0.19141-1.3086 0.36719-1.6641l8.3984-5.3594h0.003906c0.26953-0.17188 0.59766-0.23047 0.91016-0.16406 0.3125 0.070312 0.58203 0.26172 0.75781 0.53125l17.109 26.82c0.17187 0.26953 0.23047 0.59766 0.16016 0.91016-0.066406 0.3125-0.25781 0.58203-0.52734 0.75391l-8.3984 5.3594c-0.5625 0.35547-1.3086 0.19141-1.668-0.36719zm-23.262 41.949c0.21484 0.82813-0.46875 2.9297-2.1641 5.1953-1.5938 2.1289-3.2578 3.3008-4.0156 3.3242-2.0781 0.066406-3.2812-0.67969-3.9102-2.457l2.207-2.6797 4.7109-5.7227c1.8438 0.55469 2.9062 1.332 3.1719 2.3398zm-10.141 1.5234-2.375 2.8789c-2 0.41016-3.5312 0.30078-4.4375-0.32812-0.67188-0.52344-1.1094-1.293-1.2227-2.1367l8.7578-12.344c2.0195-0.33203 3.5469-0.03125 4.332 0.89063 0.82422 0.96875 0.85547 2.7031 0.09375 4.7852-2.168 2.6289-3.8828 4.7148-5.1484 6.2539zm-10.352-1.3828c-1.2852 0.097656-2.5586-0.29297-3.5703-1.0898-0.78906-0.86328-1.2148-1.9961-1.1992-3.1641 3.9805-4.7578 5.4453-8.1445 5.9688-9.8828v0.003906c1.4688-1.5156 3.6641-2.0742 5.6758-1.4453 1.2773 0.53516 2.0469 1.8516 1.8906 3.2266zm-7.0391-6.0977c-1.1875 0.35547-2.4609 0.23047-3.5586-0.33984-0.70312-0.65234-1.0977-1.5742-1.082-2.5352-0.19531-2.2578 1.5547-4.1211 3.4141-6.0938 0.36719-0.39062 0.74609-0.79297 1.1016-1.1953h0.003906c0.71875-0.82812 1.8359-1.1836 2.8984-0.91797 1.2188 0.29688 2.1992 1.1953 2.6094 2.3828-0.50391 1.5547-1.8438 4.4805-5.3828 8.6992zm-8.2695-9.9062c-0.36328 0.5625-1.1055 0.72656-1.668 0.36719l-8.3945-5.3555c-0.27344-0.17188-0.46094-0.44531-0.53125-0.75781-0.070312-0.3125-0.011718-0.64063 0.16016-0.91016l17.109-26.82h0.003906c0.17188-0.26562 0.44531-0.45703 0.75781-0.52344 0.085938-0.019531 0.17578-0.03125 0.26563-0.03125 0.22656 0 0.44922 0.066407 0.64062 0.1875l8.3984 5.3594c0.55859 0.35938 0.72266 1.1016 0.37109 1.6641z" fill-rule="evenodd"/>
</svg>