<svg xmlns="http://www.w3.org/2000/svg" version="1.1" viewBox="-5.0 -10.0 110.0 135.0" style="transform: scale(1.2)" fill="#fff">
 <path d="m42.32 53.664h14.477c1.1914 0 2.1641 0.97266 2.1641 2.1641s-0.97266 2.1641-2.1641 2.1641h-14.477c0.21875-0.68359 0.33594-1.4102 0.33594-2.1641s-0.11719-1.4805-0.33594-2.1641zm-15.723 7.1953h-10.621l1.1523 7.8438zm-12.285-2.8672h14.477c-0.21875-0.68359-0.33594-1.4102-0.33594-2.1641s0.11719-1.4805 0.33594-2.1641h-14.477c-1.1914 0-2.1641 0.97266-2.1641 2.1641s0.97266 2.1641 2.1641 2.1641zm21.242-9.2695c1.9531 0 3.7227 0.79297 5.0078 2.0703h10.426c0.066407-0.3125 0.10156-0.63281 0.10156-0.95703 0-2.5-2.0352-4.5352-4.5352-4.5352l-0.11328 0.003907c-0.46094 0.007812-0.90234-0.19922-1.1797-0.57031-0.27734-0.37109-0.36328-0.85156-0.22266-1.293 0.10938-0.34375 0.16406-0.70312 0.16406-1.0664 0-1.9609-1.5977-3.5586-3.5586-3.5586-1.4023 0-2.3789 0.54297-2.9844 1.6562-0.51562 0.94922-0.57422 1.957-0.57422 1.9688-0.027344 0.50391-0.31641 0.96094-0.76172 1.1992-0.44531 0.23828-0.98438 0.22266-1.4141-0.039063-0.59766-0.36328-1.9648 0.22266-2.3633 0.74609-0.32031 0.42578-0.85547 0.63672-1.3828 0.55078-0.52734-0.089844-0.96094-0.46094-1.1289-0.97266-0.47656-1.4688-1.8359-2.457-3.3828-2.457-1.9609 0-3.5586 1.5977-3.5586 3.5586 0 0.20312 0.019531 0.41016 0.054688 0.61719 0.066406 0.375-0.019532 0.76172-0.24219 1.0742-0.21875 0.3125-0.55469 0.52344-0.92969 0.58594-1.707 0.28906-2.9453 1.7539-2.957 3.4883h10.523c1.2852-1.2773 3.0547-2.0703 5.0078-2.0703zm-4.2344 7.1055c0 2.3359 1.8984 4.2344 4.2344 4.2344 2.3359 0 4.2344-1.8984 4.2344-4.2344s-1.8984-4.2344-4.2344-4.2344c-2.3359 0-4.2344 1.8984-4.2344 4.2344zm19.703 10.184c0-0.79297 0.64453-1.4336 1.4336-1.4336h2.1328l0.54688-3.7148h-14.57c-1.2852 1.2773-3.0547 2.0703-5.0078 2.0703-1.8242 0-3.4922-0.69141-4.7539-1.8281l-13.184 10.926 2.1289 14.473c0.26953 1.8438 1.8789 3.2344 3.7422 3.2344h25.559c1.0742-1.6641 1.9727-3.7539 1.9727-5.25zm2.8672 4.5078h26.289v-3.0742h-26.289zm-19.785-37.469c-1.0547 0-1.9141 0.85938-1.9141 1.9141 0 1.0547 0.85938 1.9141 1.9141 1.9141 1.0547 0 1.9141-0.85938 1.9141-1.9141 0-1.0547-0.85938-1.9141-1.9141-1.9141zm34.969 31.523v-54.688c0-0.76562-0.22266-1.3867-0.64844-1.793-0.36328-0.34766-0.85547-0.53906-1.3906-0.53906s-1.0312 0.19141-1.3906 0.53906c-0.42188 0.41016-0.64844 1.0273-0.64844 1.793v54.691h4.0742zm-15.184 19.91c0 2.1758-1.1992 4.8672-2.3203 6.6562-0.24219 0.39062-0.55078 0.84375-0.91406 1.3086h3.6797c2.3008 0 4.832-4.168 4.832-7.9648 0-0.79297 0.64453-1.4336 1.4336-1.4336 0.79297 0 1.4336 0.64453 1.4336 1.4336 0 2.7852-1.0391 5.8164-2.707 7.9648h2.4414c2.3008 0 4.832-4.168 4.832-7.9648 0-0.79297 0.64453-1.4336 1.4336-1.4336 0.79297 0 1.4336 0.64453 1.4336 1.4336 0 2.7852-1.0391 5.8164-2.707 7.9648h2.4414c2.3008 0 4.832-4.168 4.832-7.9648 0-0.79297 0.64453-1.4336 1.4336-1.4336 0.79297 0 1.4336 0.64453 1.4336 1.4336 0 2.7852-1.0391 5.8164-2.707 7.9648h1.1484c2.3008 0 4.832-4.168 4.832-7.9648v-11.098h-26.289v11.098zm-6.5391-52.816c1.8164 0 3.2891-1.4766 3.2891-3.2891s-1.4766-3.2891-3.2891-3.2891-3.2891 1.4766-3.2891 3.2891 1.4766 3.2891 3.2891 3.2891zm-11.332-9.2578c2.6992 0 4.8945-2.1953 4.8945-4.8945s-2.1953-4.8945-4.8945-4.8945-4.8945 2.1953-4.8945 4.8945 2.1953 4.8945 4.8945 4.8945zm-18.891 46.297-5.4297 4.4648c-0.41797-0.20703-0.89062-0.32812-1.3906-0.32812-1.7305 0-3.1406 1.4102-3.1406 3.1406s1.4102 3.1406 3.1406 3.1406c1.7305 0 3.1406-1.4102 3.1406-3.1406 0-0.17188-0.019531-0.33984-0.042969-0.50391l4.2109-3.4609-0.48828-3.3164zm72.68-25.754c-0.72266-0.26953-1.293-0.83594-1.5586-1.5586l-1.1211-3.0234-1.1211 3.0234c-0.26953 0.72266-0.83984 1.293-1.5586 1.5586l-3.0234 1.1211 3.0234 1.1211c0.72266 0.26953 1.293 0.83594 1.5586 1.5586l1.1211 3.0234 1.1211-3.0234c0.26953-0.72266 0.83594-1.293 1.5586-1.5586l3.0234-1.1211zm-13.148-6.2695 1.1602 3.1289 1.1602-3.1289c0.27734-0.74609 0.86719-1.3359 1.6172-1.6172l3.1289-1.1602-3.1289-1.1602c-0.74609-0.27734-1.3359-0.86719-1.6172-1.6172l-1.1602-3.1289-1.1602 3.1289c-0.27734 0.74609-0.86719 1.3359-1.6172 1.6172l-3.1289 1.1602 3.1289 1.1602c0.74609 0.27734 1.3359 0.86719 1.6172 1.6172zm2.0039 15.547-0.84375-2.2695-0.84375 2.2695c-0.19922 0.54297-0.62891 0.97266-1.1719 1.1719l-2.2695 0.84375 2.2695 0.84375c0.54297 0.19922 0.97266 0.62891 1.1719 1.1719l0.84375 2.2695 0.84375-2.2695c0.19922-0.54297 0.62891-0.97266 1.1719-1.1719l2.2695-0.84375-2.2695-0.84375c-0.54297-0.19922-0.97266-0.62891-1.1719-1.1719z"/>
</svg>