<svg xmlns="http://www.w3.org/2000/svg" xmlns:xlink="http://www.w3.org/1999/xlink" version="1.1" x="0px" y="0px" viewBox="0 0 512 640" style="enable-background:new 0 0 512 512;" xml:space="preserve"><style type="text/css">
	.st0{fill-rule:evenodd;clip-rule:evenodd;}
</style><path d="M359.41,417.46h34.78c3.03-0.11,5.22,2.04,5.22,4.79v31.83l0,0c0,2.64-2.15,4.79-4.79,4.79h-34.78c-0.14,0-0.28,0-0.43,0  H168.69c-0.6,0.03-1.19-0.03-1.76-0.23l-50.91-15.87c-4.54-1.39-4.54-7.8-0.06-9.18l50.97-15.93v0.03c0.45-0.14,0.94-0.23,1.42-0.23  H359.41z M364.65,427.04v22.25h25.14v-22.25H364.65z M355.04,449.29v-22.25H169.12l-35.63,11.11l35.63,11.14H355.04z M322.3,128.64  h16.19c16.81-25.85,54.65-25.85,71.49,0h16.16c2.66,0,4.82,2.13,4.82,4.79v36.82c0,2.64-2.15,4.79-4.82,4.79h-16.16  c-16.84,25.85-54.68,25.85-71.49,0H322.3c-2.64,0-4.79-2.15-4.79-4.79v-36.82C317.51,130.76,319.67,128.64,322.3,128.64  L322.3,128.64z M350.71,128.64h47.03C384.83,115.54,363.63,115.54,350.71,128.64L350.71,128.64z M397.73,175.04h-47.03  C363.63,188.14,384.83,188.14,397.73,175.04L397.73,175.04z M421.34,138.25h-94.22v27.18h94.22V138.25z M93.94,321.7  c-6.32,0-6.32-9.61,0-9.61h85.72c6.32,0,6.32,9.61,0,9.61H93.94z M93.94,296.67c-6.32,0-6.32-9.61,0-9.61h85.72  c6.32,0,6.32,9.61,0,9.61H93.94z M93.94,271.64c-6.32,0-6.32-9.61,0-9.61h85.72c6.32,0,6.32,9.61,0,9.61H93.94z M222.64,189.64  c-6.32,0-6.32-9.61,0-9.61h61.4c6.32,0,6.32,9.61,0,9.61H222.64z M222.64,164.64c-6.32,0-6.32-9.61,0-9.61h61.4  c6.32,0,6.32,9.61,0,9.61H222.64z M222.64,139.61c-6.32,0-6.32-9.61,0-9.61h61.4c6.32,0,6.32,9.61,0,9.61H222.64z M413.95,341.4  c2.13,0,3.97-1.39,4.59-3.4c0.26-0.85,0.26-1.7,0.08-2.47c0.08-0.37,0.11-0.71,0.11-1.11v-9.58c0-2.13-1.36-4-3.4-4.62  c-3.09-0.91-6.21,1.36-6.21,4.62v6.94h-4.79c-2.13,0-3.97,1.36-4.59,3.4c-0.94,3.09,1.36,6.21,4.59,6.21H413.95z M409.13,296.02  c0,2.1,1.39,3.97,3.4,4.59c3.09,0.91,6.21-1.36,6.21-4.59v-9.61c0-2.13-1.36-3.97-3.4-4.59c-3.09-0.94-6.21,1.36-6.21,4.59V296.02z   M409.13,257.58c0,2.13,1.39,3.97,3.4,4.59c3.09,0.94,6.21-1.36,6.21-4.59v-9.61c0-2.13-1.36-3.97-3.4-4.59  c-3.09-0.94-6.21,1.36-6.21,4.59V257.58z M404.05,233.83c2.13,0,3.97-1.36,4.59-3.4c0.94-3.09-1.36-6.21-4.59-6.21h-9.61  c-2.13,0-3.97,1.39-4.59,3.43c-0.94,3.09,1.36,6.18,4.59,6.18H404.05z M365.62,233.83c2.13,0,3.97-1.36,4.59-3.4  c0.94-3.09-1.36-6.21-4.59-6.21h-9.61c-2.13,0-3.97,1.39-4.59,3.43c-0.91,3.09,1.36,6.18,4.59,6.18H365.62z M327.18,233.83  c2.13,0,4-1.36,4.62-3.4c0.91-3.09-1.36-6.21-4.62-6.21h-9.61c-2.1,0-3.97,1.39-4.59,3.43c-0.91,3.09,1.36,6.18,4.59,6.18H327.18z   M288.77,233.83c2.1,0,3.97-1.36,4.59-3.4c0.91-3.09-1.36-6.21-4.59-6.21h-9.61c-2.13,0-4,1.39-4.59,3.43  c-0.94,3.09,1.36,6.18,4.59,6.18H288.77z M250.33,233.83c2.13,0,3.97-1.36,4.59-3.4c0.94-3.09-1.36-6.21-4.59-6.21h-9.61  c-2.13,0-3.97,1.39-4.59,3.43c-0.94,3.09,1.36,6.18,4.59,6.18H250.33z M232.19,244.52c0-2.13-1.39-3.97-3.4-4.59  c-3.09-0.91-6.21,1.36-6.21,4.59v9.61c0,2.13,1.39,3.97,3.4,4.59c3.09,0.94,6.21-1.36,6.21-4.59V244.52z M232.19,282.95  c0-2.13-1.39-3.97-3.4-4.59c-3.09-0.94-6.21,1.36-6.21,4.59v9.61c0,2.13,1.39,3.97,3.4,4.59c3.09,0.94,6.21-1.36,6.21-4.59V282.95z   M232.19,321.39c0-2.13-1.39-3.97-3.4-4.59c-3.09-0.94-6.21,1.36-6.21,4.59V331c0,2.1,1.39,3.97,3.4,4.59  c3.09,0.91,6.21-1.36,6.21-4.59V321.39z M250.61,331.79c-2.13,0-3.97,1.36-4.59,3.4c-0.94,3.09,1.36,6.21,4.59,6.21h9.61  c2.1,0,3.97-1.39,4.59-3.4c0.91-3.09-1.36-6.21-4.59-6.21H250.61z M289.02,331.79c-2.1,0-3.97,1.36-4.59,3.4  c-0.91,3.09,1.36,6.21,4.59,6.21h9.61c2.13,0,4-1.39,4.62-3.4c0.91-3.09-1.36-6.21-4.62-6.21H289.02z M327.46,331.79  c-2.13,0-3.97,1.36-4.59,3.4c-0.91,3.09,1.36,6.21,4.59,6.21h9.61c2.13,0,3.97-1.39,4.59-3.4c0.94-3.09-1.36-6.21-4.59-6.21H327.46z   M365.9,331.79c-2.13,0-3.97,1.36-4.59,3.4c-0.94,3.09,1.36,6.21,4.59,6.21h9.61c2.13,0,3.97-1.39,4.59-3.4  c0.94-3.09-1.36-6.21-4.59-6.21H365.9z M180.54,223.74c2.1,0,3.97-1.39,4.59-3.43c0.91-3.09-1.36-6.18-4.59-6.18h-9.61  c-2.13,0-4,1.36-4.62,3.4c-0.91,3.09,1.36,6.21,4.62,6.21H180.54z M175.72,202.85c0,2.13,1.39,3.97,3.4,4.59  c3.09,0.94,6.21-1.36,6.21-4.59v-9.61c0-2.13-1.39-3.97-3.4-4.59c-3.09-0.91-6.21,1.36-6.21,4.59V202.85z M175.72,164.41  c0,2.13,1.39,4,3.4,4.62c3.09,0.91,6.21-1.36,6.21-4.62v-9.61c0-2.1-1.39-3.97-3.4-4.59c-3.09-0.91-6.21,1.36-6.21,4.59V164.41z   M175.72,126c0,2.1,1.39,3.97,3.4,4.59c3.09,0.91,6.21-1.36,6.21-4.59v-9.61c0-2.13-1.39-4-3.4-4.59c-3.09-0.94-6.21,1.36-6.21,4.59  V126z M156.73,116.16c2.1,0,3.97-1.36,4.59-3.4c0.91-3.09-1.36-6.21-4.59-6.21h-9.61c-2.13,0-4,1.39-4.59,3.4  c-0.94,3.09,1.36,6.21,4.59,6.21H156.73z M118.29,116.16c2.13,0,3.97-1.36,4.59-3.4c0.94-3.09-1.36-6.21-4.59-6.21h-9.61  c-2.13,0-3.97,1.39-4.59,3.4c-0.94,3.09,1.36,6.21,4.59,6.21H118.29z M87.88,114.6c0-2.13-1.36-3.97-3.4-4.59  c-3.09-0.94-6.18,1.36-6.18,4.59v9.61c0,2.1,1.36,3.97,3.4,4.59c3.09,0.91,6.18-1.36,6.18-4.59V114.6z M87.88,153.04  c0-2.13-1.36-4-3.4-4.62c-3.09-0.91-6.18,1.36-6.18,4.62v9.58c0,2.13,1.36,4,3.4,4.62c3.09,0.91,6.18-1.36,6.18-4.62V153.04z   M87.88,191.45c0-2.1-1.36-3.97-3.4-4.59c-3.09-0.91-6.18,1.36-6.18,4.59v9.61c0,2.13,1.36,3.97,3.4,4.59  c3.09,0.94,6.18-1.36,6.18-4.59V191.45z M94.06,214.13c-2.13,0-3.97,1.36-4.59,3.4c-0.94,3.09,1.36,6.21,4.59,6.21h9.61  c2.13,0,3.97-1.39,4.59-3.43c0.94-3.09-1.36-6.18-4.59-6.18H94.06z M132.49,214.13c-2.13,0-3.97,1.36-4.59,3.4  c-0.94,3.09,1.36,6.21,4.59,6.21h9.61c2.13,0,3.97-1.39,4.59-3.43c0.91-3.09-1.36-6.18-4.59-6.18H132.49z M465.76,82.4v284.74  c0,2.66-2.15,4.79-4.82,4.79H51.06c-2.64,0-4.79-2.13-4.79-4.79V82.4c0-2.64,2.15-4.79,4.79-4.79h409.89  C463.61,77.61,465.76,79.77,465.76,82.4L465.76,82.4z M456.15,362.35V87.22H55.87v275.13H456.15z M501,88.92v271.7  c0,19.7-16.1,35.8-35.8,35.8H46.83c-19.73,0-35.83-16.1-35.83-35.8V88.92c0-19.7,16.1-35.8,35.83-35.8H465.2  C484.9,53.12,501,69.22,501,88.92L501,88.92z M491.39,360.62V88.92c0-14.4-11.79-26.19-26.19-26.19H46.83  c-14.4,0-26.22,11.79-26.22,26.19v271.7c0,14.4,11.82,26.19,26.22,26.19H465.2C479.6,386.82,491.39,375.02,491.39,360.62  L491.39,360.62z"/><text x="0" y="527" fill="#000000" font-size="5px" font-weight="bold" font-family="'Helvetica Neue', Helvetica, Arial-Unicode, Arial, Sans-serif">Created by SeeMoo</text><text x="0" y="532" fill="#000000" font-size="5px" font-weight="bold" font-family="'Helvetica Neue', Helvetica, Arial-Unicode, Arial, Sans-serif">from the Noun Project</text></svg>