<svg xmlns="http://www.w3.org/2000/svg" version="1.1" viewBox="-5.0 -10.0 110.0 135.0">
 <path d="m85.852 31.699h-79.363v51.91h80.863c1.6953 0 3.2305-0.6875 4.3398-1.793 1.1094-1.1094 1.793-2.6445 1.793-4.3398 0-1.6953-0.6875-3.2344-1.793-4.3398-1.1133-1.1055-2.6484-1.7969-4.3398-1.7969-0.82812 0-1.5-0.67188-1.5-1.5zm-65.559 45.906c0.82812 0 1.5 0.67188 1.5 1.5s-0.67188 1.5-1.5 1.5h-9.3008c-0.82813 0-1.5-0.67188-1.5-1.5l0.007812-9.3008c0-0.82422 0.66797-1.4922 1.4922-1.4922 0.82422 0 1.4922 0.66797 1.4922 1.4922v7.8008zm0-42.906c0.82812 0 1.5 0.67188 1.5 1.5s-0.67188 1.5-1.5 1.5h-7.8086v7.8008c0 0.82422-0.66797 1.4922-1.4922 1.4922-0.82422 0-1.4922-0.66797-1.4922-1.4922l-0.007812-9.3008c0-0.82812 0.67187-1.5 1.5-1.5zm41.344 6.1289v-0.20312l-1.4336-1.4336h-9.3516l-1.4375 1.4375v0.19922zm-15.223 0v-0.82031c0-0.38281 0.14453-0.76953 0.4375-1.0625l2.3164-2.3164c0.27344-0.27344 0.64453-0.4375 1.0625-0.4375h10.59c0.38281 0.003906 0.76172 0.14844 1.0547 0.4375l2.2422 2.2422c0.31641 0.27344 0.51953 0.67969 0.51953 1.1367v0.82031h2.1797c0.82812 0 1.5 0.67188 1.5 1.5v35.285c0 0.82812-0.67188 1.5-1.5 1.5h-41.297c-0.82812 0-1.5-0.67188-1.5-1.5v-23.594c0-0.73047 0.52344-1.3398 1.2148-1.4727l17.496-5.0703v-5.1484c0-0.82812 0.67188-1.5 1.5-1.5zm-3.6797 9.7578-15.711 4.5508v20.973h15.711v-25.527zm22.586-6.7578h-19.582v32.285h19.586v-32.285zm-33.098 30.301c-0.82812 0-1.5-0.67188-1.5-1.5s0.67188-1.5 1.5-1.5h5.3164c0.82813 0 1.5 0.67188 1.5 1.5s-0.67187 1.5-1.5 1.5zm0-5.3398c-0.82812 0-1.5-0.67187-1.5-1.5 0-0.82812 0.67188-1.5 1.5-1.5h5.3164c0.82813 0 1.5 0.67188 1.5 1.5 0 0.82813-0.67187 1.5-1.5 1.5zm0-5.3398c-0.82812 0-1.5-0.67188-1.5-1.5s0.67188-1.5 1.5-1.5h5.3164c0.82813 0 1.5 0.67188 1.5 1.5s-0.67187 1.5-1.5 1.5zm0-5.3398c-0.82812 0-1.5-0.67188-1.5-1.5s0.67188-1.5 1.5-1.5h5.3164c0.82813 0 1.5 0.67188 1.5 1.5s-0.67187 1.5-1.5 1.5zm25.23 16.367c-0.82812 0-1.5-0.67187-1.5-1.5 0-0.82812 0.67188-1.5 1.5-1.5h4.4258c0.82812 0 1.5 0.67188 1.5 1.5 0 0.82813-0.67188 1.5-1.5 1.5zm0-6.5039c-0.82812 0-1.5-0.67188-1.5-1.5s0.67188-1.5 1.5-1.5h4.4258c0.82812 0 1.5 0.67188 1.5 1.5s-0.67188 1.5-1.5 1.5zm0-6.5039c-0.82812 0-1.5-0.67188-1.5-1.5s0.67188-1.5 1.5-1.5h4.4258c0.82812 0 1.5 0.67188 1.5 1.5s-0.67188 1.5-1.5 1.5zm0-6.5c-0.82812 0-1.5-0.67188-1.5-1.5s0.67188-1.5 1.5-1.5h4.4258c0.82812 0 1.5 0.67188 1.5 1.5s-0.67188 1.5-1.5 1.5zm0-6.5039c-0.82812 0-1.5-0.67188-1.5-1.5s0.67188-1.5 1.5-1.5h4.4258c0.82812 0 1.5 0.67188 1.5 1.5s-0.67188 1.5-1.5 1.5zm-8.2734 26.008c-0.82813 0-1.5-0.67188-1.5-1.5s0.67187-1.5 1.5-1.5h4.4258c0.82812 0 1.5 0.67188 1.5 1.5s-0.67188 1.5-1.5 1.5zm0-6.5039c-0.82813 0-1.5-0.67188-1.5-1.5s0.67187-1.5 1.5-1.5h4.4258c0.82812 0 1.5 0.67188 1.5 1.5s-0.67188 1.5-1.5 1.5zm0-6.5039c-0.82813 0-1.5-0.67188-1.5-1.5s0.67187-1.5 1.5-1.5h4.4258c0.82812 0 1.5 0.67188 1.5 1.5s-0.67188 1.5-1.5 1.5zm0-6.5c-0.82813 0-1.5-0.67188-1.5-1.5s0.67187-1.5 1.5-1.5h4.4258c0.82812 0 1.5 0.67188 1.5 1.5s-0.67188 1.5-1.5 1.5zm0-6.5039c-0.82813 0-1.5-0.67188-1.5-1.5 0-0.82813 0.67187-1.5 1.5-1.5h4.4258c0.82812 0 1.5 0.67187 1.5 1.5 0 0.82812-0.67188 1.5-1.5 1.5zm-44.188-19.77h80.863v-13.77c0-0.82422 0.66797-1.4922 1.4883-1.5 0.60938-0.050781 1.1836-0.050781 1.7148-0.007813 2.1641 0.17969 3.9219 1.0625 5.1992 2.4062 1.2617 1.3281 2.0234 3.0938 2.2109 5.043 0.054688 0.57812 0.0625 1.1641 0.019531 1.7422v54.863c0 2.5156-1.0234 4.8008-2.6758 6.4531-1.6602 1.6562-3.9414 2.6797-6.4609 2.6797h-82.363c-0.82812 0-1.5-0.67187-1.5-1.5v-54.91c0-0.82812 0.67188-1.5 1.5-1.5zm83.863 39.762c1.7656 0.29297 3.3633 1.0938 4.6328 2.2422l0.007813-48.266c0.035156-0.45703 0.035156-0.89063-0.003906-1.2891-0.12109-1.2812-0.60938-2.4258-1.4062-3.2617-0.77344-0.8125-1.8672-1.3555-3.2344-1.4766v52.051z"/>
<text x="0.0" y="117.5" font-size="5.0" font-weight="bold" font-family="Arbeit Regular, Helvetica, Arial-Unicode, Arial, Sans-serif" fill="#000000">Created by Imron Sadewo</text><text x="0.0" y="122.5" font-size="5.0" font-weight="bold" font-family="Arbeit Regular, Helvetica, Arial-Unicode, Arial, Sans-serif" fill="#000000">from Noun Project</text></svg>