<svg width="120" height="20" viewBox="0 0 120 20" fill="none" xmlns="http://www.w3.org/2000/svg">
    <path d="M20 7.24a.811.811 0 0 0-.81-.811h-6.333L10.763.539a.81.81 0 0 0-1.526 0l-2.094 5.89H.81a.811.811 0 0 0-.52 1.433L5 11.786l-2.11 7.189a.8.8 0 0 0 1.254.86L10 15.357l5.856 4.478a.801.801 0 0 0 1.254-.86L15 11.785l4.709-3.923A.812.812 0 0 0 20 7.24Z" fill="#D90B0B"/>
    <path d="M45 7.24a.811.811 0 0 0-.81-.811h-6.333L35.763.539a.81.81 0 0 0-1.526 0l-2.094 5.89H25.81a.811.811 0 0 0-.52 1.433L30 11.786l-2.11 7.189a.8.8 0 0 0 1.254.86L35 15.357l5.856 4.478a.801.801 0 0 0 1.254-.86L40 11.785l4.709-3.923A.812.812 0 0 0 45 7.24Z" fill="#D90B0B"/>
    <path d="M70 7.24a.811.811 0 0 0-.81-.811h-6.333L60.763.539a.81.81 0 0 0-1.526 0l-2.094 5.89H50.81a.811.811 0 0 0-.52 1.433L55 11.786l-2.11 7.189a.8.8 0 0 0 1.254.86L60 15.357l5.856 4.478a.801.801 0 0 0 1.254-.86L65 11.785l4.709-3.923A.812.812 0 0 0 70 7.24Z" fill="#D90B0B"/>
    <path d="M95 7.24a.811.811 0 0 0-.81-.811h-6.333L85.763.539a.81.81 0 0 0-1.526 0l-2.094 5.89H75.81a.811.811 0 0 0-.52 1.433L80 11.786l-2.11 7.189a.8.8 0 0 0 1.254.86L85 15.357l5.856 4.478a.801.801 0 0 0 1.254-.86L90 11.785l4.709-3.923A.812.812 0 0 0 95 7.24Z" fill="#D90B0B"/>
    <path d="M120 7.24a.811.811 0 0 0-.811-.811h-6.332l-2.094-5.89a.81.81 0 0 0-1.526 0l-2.094 5.89H100.81a.811.811 0 0 0-.52 1.433L105 11.786l-2.11 7.189a.8.8 0 0 0 1.254.86L110 15.357l5.856 4.478a.8.8 0 0 0 1.254-.86l-2.11-7.19 4.709-3.923A.813.813 0 0 0 120 7.24Z" fill="#D90B0B"/>
</svg>

