<svg xmlns="http://www.w3.org/2000/svg" version="1.1" viewBox="-5.0 -10.0 110.0 135.0" fill="#2054A4" style="transform: scale(1.2)">
 <path d="m25.438 67.219h-4.7656c-0.72266 0-1.3086 0.58594-1.3086 1.3086v4.7656c0 0.72266 0.58594 1.3086 1.3086 1.3086h4.7656c0.72266 0 1.3086-0.58594 1.3086-1.3086v-4.7656c0-0.72266-0.58594-1.3086-1.3086-1.3086zm-1.3086 4.7656h-2.1445v-2.1445h2.1445zm5.5781-23.055c0-0.72266 0.58594-1.3086 1.3086-1.3086h32.711c0.72266 0 1.3086 0.58594 1.3086 1.3086 0 0.72266-0.58594 1.3086-1.3086 1.3086h-32.711c-0.72266 0-1.3086-0.58594-1.3086-1.3086zm0-16.926c0-0.72266 0.58594-1.3086 1.3086-1.3086h32.711c0.72266 0 1.3086 0.58594 1.3086 1.3086s-0.58594 1.3086-1.3086 1.3086h-32.711c-0.72266 0-1.3086-0.58594-1.3086-1.3086zm0-12.164c0-0.72266 0.58594-1.3086 1.3086-1.3086h32.711c0.72266 0 1.3086 0.58594 1.3086 1.3086s-0.58594 1.3086-1.3086 1.3086h-32.711c-0.72266 0-1.3086-0.58594-1.3086-1.3086zm0 4.7656c0-0.72266 0.58594-1.3086 1.3086-1.3086h32.711c0.72266 0 1.3086 0.58594 1.3086 1.3086 0 0.72266-0.58594 1.3086-1.3086 1.3086h-32.711c-0.72266 0-1.3086-0.58594-1.3086-1.3086zm60.488 30.73c-0.14453-0.46484-0.53516-0.80859-1.0117-0.89844l-2.9102-0.53516c0.23828-0.48828 0.15234-1.0938-0.25-1.4961-0.40625-0.40625-1.0078-0.48828-1.4961-0.25l-0.53516-2.9102c-0.089844-0.47656-0.43359-0.86719-0.89844-1.0117s-0.97266-0.019531-1.3164 0.32422l-5.1055 5.1055c-0.30469 0.30469-0.44141 0.73828-0.36328 1.1641l0.84766 4.5977-0.67969 0.67969c-0.47266-0.40625-0.96484-0.78906-1.4805-1.1445v-45.973c0-2.1719-1.7695-3.9414-3.9414-3.9414h-57.371c-2.1719 0-3.9414 1.7695-3.9414 3.9414v68.387c0 2.1719 1.7695 3.9414 3.9414 3.9414h38.461c3.2109 3.4688 7.7969 5.6445 12.883 5.6445 9.6797 0 17.555-7.875 17.555-17.555 0-4.3711-1.6055-8.3711-4.2578-11.449l0.67969-0.67969 4.5977 0.84766c0.078126 0.015625 0.16016 0.023438 0.23828 0.023438 0.34375 0 0.67969-0.13672 0.92578-0.38281l5.1055-5.1055c0.34375-0.34375 0.46875-0.85156 0.32422-1.3164zm-76.512 27.355c-0.72656 0-1.3203-0.59375-1.3203-1.3203v-68.383c0-0.72656 0.59375-1.3203 1.3203-1.3203h57.371c0.72656 0 1.3203 0.59375 1.3203 1.3203v44.469c-2.2383-1.0352-4.7266-1.6133-7.3477-1.6133-9.6797 0-17.555 7.875-17.555 17.555 0 3.4102 0.98047 6.5977 2.668 9.293zm66.281-9.293c0 8.2383-6.6992 14.938-14.938 14.938-8.2344 0-14.938-6.6992-14.938-14.938 0-8.2344 6.6992-14.938 14.938-14.938 3.6484 0 6.9922 1.3164 9.5898 3.4961l-2.4336 2.4336c-1.9648-1.5664-4.4531-2.5039-7.1523-2.5039-6.3477 0-11.512 5.1641-11.512 11.512 0 6.3477 5.1641 11.512 11.512 11.512s11.512-5.1641 11.512-11.512c0-2.7031-0.9375-5.1875-2.5039-7.1523l2.4336-2.4336c2.1797 2.5977 3.4961 5.9414 3.4961 9.5898zm-15.863 0.92578c0.25391 0.25391 0.58984 0.38281 0.92578 0.38281 0.33594 0 0.66797-0.12891 0.92578-0.38281l1.7852-1.7852c0.085938 0.27344 0.13281 0.55859 0.13281 0.85938 0 1.5703-1.2773 2.8477-2.8477 2.8477-1.5703 0-2.8477-1.2773-2.8477-2.8477 0-1.5703 1.2773-2.8477 2.8477-2.8477 0.30078 0 0.58984 0.046875 0.85937 0.13281l-1.7852 1.7852c-0.51172 0.51172-0.51172 1.3398 0 1.8516zm3.75-5.6016c-0.82422-0.5-1.793-0.78906-2.8242-0.78906-3.0117 0-5.4648 2.4492-5.4648 5.4648 0 3.0117 2.4492 5.4648 5.4648 5.4648 3.0117 0 5.4648-2.4492 5.4648-5.4648 0-1.0352-0.28906-2-0.78906-2.8242l2.4648-2.4648c1.0977 1.4805 1.75 3.3086 1.75 5.2891 0 4.9023-3.9883 8.8906-8.8906 8.8906s-8.8906-3.9883-8.8906-8.8906c0-4.9023 3.9883-8.8906 8.8906-8.8906 1.9805 0 3.8086 0.65234 5.2891 1.75zm11.156-13.695 2.8555-2.8555 0.39453 2.1484-2.8555 2.8555zm4.3945 4.3906-2.1445-0.39453 2.8555-2.8555 2.1445 0.39453zm-53.695-22.648c0-0.72266 0.58594-1.3086 1.3086-1.3086h32.711c0.72266 0 1.3086 0.58594 1.3086 1.3086 0 0.72266-0.58594 1.3086-1.3086 1.3086h-32.711c-0.72266 0-1.3086-0.58594-1.3086-1.3086zm0 7.3984c0-0.72266 0.58594-1.3086 1.3086-1.3086h32.711c0.72266 0 1.3086 0.58594 1.3086 1.3086 0 0.72266-0.58594 1.3086-1.3086 1.3086h-32.711c-0.72266 0-1.3086-0.58594-1.3086-1.3086zm16.836 16.926c0 0.72266-0.58594 1.3086-1.3086 1.3086h-14.219c-0.72266 0-1.3086-0.58594-1.3086-1.3086s0.58594-1.3086 1.3086-1.3086h14.219c0.72266 0 1.3086 0.58594 1.3086 1.3086zm0 12.199c0 0.72266-0.58594 1.3086-1.3086 1.3086h-14.219c-0.72266 0-1.3086-0.58594-1.3086-1.3086 0-0.72266 0.58594-1.3086 1.3086-1.3086h14.219c0.72266 0 1.3086 0.58594 1.3086 1.3086zm0-4.7656c0 0.72266-0.58594 1.3086-1.3086 1.3086h-14.219c-0.72266 0-1.3086-0.58594-1.3086-1.3086s0.58594-1.3086 1.3086-1.3086h14.219c0.72266 0 1.3086 0.58594 1.3086 1.3086zm0-12.195c0 0.72266-0.58594 1.3086-1.3086 1.3086h-14.219c-0.72266 0-1.3086-0.58594-1.3086-1.3086 0-0.72266 0.58594-1.3086 1.3086-1.3086h14.219c0.72266 0 1.3086 0.58594 1.3086 1.3086zm-21.105-37.801h-4.7656c-0.72266 0-1.3086 0.58594-1.3086 1.3086v4.7656c0 0.72266 0.58594 1.3086 1.3086 1.3086h4.7656c0.72266 0 1.3086-0.58594 1.3086-1.3086v-4.7656c0-0.72266-0.58594-1.3086-1.3086-1.3086zm-1.3086 4.7656h-2.1445v-2.1445h2.1445zm1.3086 19.562h-4.7656c-0.72266 0-1.3086 0.58594-1.3086 1.3086v4.7656c0 0.72266 0.58594 1.3086 1.3086 1.3086h4.7656c0.72266 0 1.3086-0.58594 1.3086-1.3086v-4.7656c0-0.72266-0.58594-1.3086-1.3086-1.3086zm-1.3086 4.7617h-2.1445v-2.1445h2.1445zm1.3086 7.3984h-4.7656c-0.72266 0-1.3086 0.58594-1.3086 1.3086v4.7656c0 0.72266 0.58594 1.3086 1.3086 1.3086h4.7656c0.72266 0 1.3086-0.58594 1.3086-1.3086v-4.7656c0-0.72266-0.58594-1.3086-1.3086-1.3086zm-1.3086 4.7656h-2.1445v-2.1445h2.1445zm1.3086-29.09h-4.7656c-0.72266 0-1.3086 0.58594-1.3086 1.3086v4.7656c0 0.72266 0.58594 1.3086 1.3086 1.3086h4.7656c0.72266 0 1.3086-0.58594 1.3086-1.3086v-4.7656c0-0.72266-0.58594-1.3086-1.3086-1.3086zm-1.3086 4.7656h-2.1445v-2.1445h2.1445z"/></svg>