<svg preserveAspectRatio="xMidYMid meet" viewBox="0 0 886.2399999999999 880" xmlns="http://www.w3.org/2000/svg" version="1.0" style="max-height: 500px" width="886.2399999999999" height="880">

<g stroke="none" fill="#2054A4" transform="translate(0.000000,880.000000) scale(0.100000,-0.100000)">
<path d="M5086 8723 c-4 -4 -64 -11 -134 -15 -70 -4 -158 -12 -197 -18 -131&#10;-20 -252 -42 -335 -60 -30 -7 -73 -16 -95 -20 -22 -4 -67 -15 -100 -25 -33 -9&#10;-76 -21 -95 -25 -117 -28 -280 -77 -335 -100 -11 -5 -38 -14 -60 -20 -22 -7&#10;-69 -24 -105 -38 -36 -14 -103 -39 -151 -57 -109 -42 -412 -188 -509 -247 -41&#10;-25 -104 -60 -140 -78 -36 -18 -86 -47 -112 -66 -25 -18 -76 -51 -112 -73 -73&#10;-44 -194 -130 -415 -295 -267 -199 -408 -323 -636 -556 -215 -219 -240 -249&#10;-499 -590 -233 -306 -518 -792 -635 -1080 -24 -58 -49 -118 -56 -135 -52 -117&#10;-163 -456 -206 -630 -6 -22 -15 -54 -20 -71 -5 -17 -9 -39 -9 -50 0 -11 -7&#10;-47 -16 -79 -17 -67 -38 -212 -59 -415 -18 -163 -21 -736 -5 -884 16 -158 41&#10;-317 56 -366 7 -25 13 -54 13 -65 -1 -28 44 -187 98 -345 88 -259 225 -553&#10;337 -724 53 -81 187 -262 242 -326 76 -90 250 -261 354 -348 63 -54 117 -100&#10;120 -103 11 -13 230 -158 295 -196 91 -53 285 -152 355 -182 30 -13 79 -34&#10;108 -47 55 -25 192 -74 277 -100 28 -9 75 -24 105 -34 30 -10 107 -31 170 -46&#10;63 -15 153 -40 200 -57 47 -16 110 -30 140 -32 30 -1 68 -8 83 -14 16 -6 50&#10;-11 76 -11 26 0 52 -5 58 -11 16 -16 579 -23 713 -9 58 6 139 14 180 18 41 4&#10;85 13 98 20 12 7 31 10 41 7 23 -7 192 22 205 35 6 6 23 10 40 10 16 0 43 5&#10;60 10 17 6 85 24 151 41 157 39 157 39 320 92 181 59 350 122 397 147 20 11&#10;42 20 48 20 6 0 35 11 63 24 29 14 90 41 137 62 47 20 90 40 95 44 6 5 64 36&#10;130 70 139 72 206 109 220 120 6 4 33 20 60 35 28 15 79 46 115 70 36 23 100&#10;63 142 89 43 26 84 53 90 59 7 7 25 21 39 32 15 11 60 45 100 76 245 185 651&#10;563 854 795 165 189 307 369 412 524 28 41 72 102 97 135 26 33 49 71 52 85 4&#10;14 17 39 29 55 12 17 34 53 48 82 15 28 31 54 37 58 6 4 24 34 41 68 18 34 39&#10;73 49 87 23 34 150 279 150 290 0 5 13 37 29 72 59 126 192 494 222 613 58&#10;232 97 422 114 565 3 30 13 91 20 135 37 220 54 884 27 1090 -6 44 -15 118&#10;-20 165 -21 183 -120 560 -168 637 -8 12 -14 30 -14 40 0 10 -9 33 -20 51 -11&#10;18 -20 37 -20 43 0 5 -24 60 -54 122 -92 192 -252 433 -465 702 -76 96 -262&#10;286 -341 348 -36 28 -87 71 -115 95 -51 45 -180 133 -318 216 -63 38 -339 176&#10;-352 176 -2 0 -41 17 -87 39 -45 21 -150 60 -233 85 -82 26 -158 52 -167 57&#10;-10 5 -31 9 -47 9 -16 0 -42 5 -58 11 -15 7 -48 15 -73 20 -25 4 -112 19 -195&#10;34 -82 15 -197 31 -255 36 -58 5 -143 13 -190 17 -115 11 -474 15 -484 5z&#10;m884 -2148 c230 -60 389 -201 505 -449 137 -291 179 -577 163 -1091 -10 -351&#10;-38 -601 -98 -910 -87 -445 -345 -1121 -571 -1498 -90 -149 -260 -398 -347&#10;-507 -103 -128 -281 -310 -371 -378 -199 -149 -336 -169 -452 -64 -127 114&#10;-224 331 -329 737 -65 249 -102 352 -144 401 -29 34 -38 38 -93 42 -56 4 -62&#10;2 -97 -28 -20 -18 -47 -51 -61 -74 -28 -49 -72 -199 -115 -396 -69 -311 -192&#10;-580 -317 -690 -148 -130 -316 -68 -609 224 -215 214 -367 415 -572 754 -121&#10;201 -169 300 -275 567 -111 279 -138 362 -212 643 -115 441 -165 815 -165&#10;1248 0 556 82 937 251 1164 164 222 360 310 688 310 98 0 131 -4 192 -24 174&#10;-57 303 -116 544 -251 289 -162 461 -242 652 -305 266 -87 408 -120 676 -160&#10;145 -21 365 -28 393 -12 13 7 3 14 -52 32 -205 67 -458 182 -534 243 -50 39&#10;-64 105 -33 157 21 36 69 63 163 90 41 11 161 50 265 85 222 75 378 119 490&#10;139 112 20 390 21 465 1z"/>
<path d="M11455 5591 c-95 -24 -143 -71 -230 -222 -26 -46 -60 -104 -75 -129&#10;-36 -59 -147 -250 -245 -420 -43 -74 -155 -265 -250 -425 -95 -159 -184 -311&#10;-197 -336 -31 -55 -158 -275 -243 -419 -103 -174 -228 -392 -255 -445 -34 -67&#10;-35 -146 -2 -193 68 -94 236 -107 332 -24 48 40 83 90 139 196 23 44 57 105&#10;75 135 53 90 122 215 129 234 6 16 45 17 621 17 610 0 615 0 626 -20 13 -25&#10;42 -129 70 -255 47 -209 86 -290 158 -332 40 -24 57 -28 117 -27 81 1 118 17&#10;163 68 57 65 54 118 -19 357 -23 74 -43 143 -46 154 -3 11 -23 81 -45 155 -45&#10;154 -42 142 -101 355 -47 168 -76 265 -133 455 -89 295 -101 335 -173 575 -16&#10;55 -44 153 -61 219 -53 203 -86 265 -160 303 -49 24 -147 37 -195 24z m58&#10;-642 c10 -46 32 -131 48 -189 17 -58 51 -181 74 -275 24 -93 51 -197 60 -230&#10;40 -148 76 -282 81 -302 l6 -23 -471 0 c-259 0 -471 2 -471 5 0 2 13 24 29 47&#10;16 24 53 88 84 143 30 55 94 170 142 255 49 85 99 175 113 200 14 25 72 128&#10;128 228 57 101 104 186 104 190 0 12 34 42 44 39 6 -2 19 -41 29 -88z"/>
<path d="M16735 5591 c-47 -12 -87 -36 -126 -78 -37 -38 -197 -302 -459 -753&#10;-75 -129 -181 -309 -235 -400 -94 -159 -177 -300 -282 -480 -154 -264 -199&#10;-341 -292 -497 -118 -200 -131 -228 -131 -283 0 -69 48 -133 122 -164 129 -54&#10;270 24 351 193 22 47 59 117 82 156 24 38 67 115 96 170 l54 100 627 3 626 2&#10;10 -32 c5 -18 19 -69 30 -113 103 -398 107 -406 185 -458 73 -48 184 -44 255&#10;10 77 58 89 127 48 260 -14 43 -52 173 -85 288 -32 116 -67 233 -75 260 -9 28&#10;-20 64 -26 80 -5 17 -27 93 -49 170 -22 77 -46 163 -55 190 -26 83 -98 328&#10;-106 360 -5 17 -34 116 -65 220 -31 105 -70 235 -85 290 -100 359 -126 426&#10;-185 471 -50 38 -153 53 -230 35z m48 -597 c5 -21 33 -124 62 -229 29 -104 67&#10;-244 84 -310 38 -148 116 -439 129 -482 6 -17 8 -34 4 -37 -9 -10 -942 -7&#10;-942 3 0 5 18 30 39 56 22 26 42 60 46 74 4 14 26 60 49 101 24 41 55 96 69&#10;123 15 26 53 91 85 145 32 53 73 124 91 157 18 33 36 65 41 70 8 10 76 133&#10;150 270 23 44 47 86 53 93 16 21 31 8 40 -34z"/>
<path d="M23575 5585 c-43 -23 -65 -45 -85 -85 -23 -46 -26 -59 -54 -256 -14&#10;-93 -36 -245 -50 -339 -36 -235 -42 -280 -78 -525 -17 -118 -34 -240 -38 -270&#10;-13 -89 -50 -346 -66 -465 -31 -227 -45 -333 -63 -454 -17 -114 -1 -173 63&#10;-229 41 -36 87 -47 156 -39 59 7 97 26 139 67 37 38 55 97 75 245 22 167 107&#10;750 126 870 46 286 67 431 91 618 7 63 16 97 23 94 6 -2 24 -28 40 -58 16 -30&#10;72 -128 126 -219 54 -91 138 -235 187 -320 50 -85 112 -191 138 -235 179 -298&#10;479 -802 515 -864 101 -175 206 -232 342 -185 96 32 112 73 159 407 50 360 62&#10;434 104 667 8 47 24 146 35 220 11 74 25 167 31 205 6 39 14 97 19 130 5 33&#10;21 132 35 220 15 88 35 214 45 280 11 66 27 165 35 220 21 126 14 190 -25 244&#10;-48 66 -68 75 -163 69 -90 -6 -127 -20 -168 -65 -54 -57 -65 -99 -99 -348 -7&#10;-49 -18 -128 -26 -175 -12 -73 -38 -260 -75 -535 -5 -38 -15 -108 -23 -155 -8&#10;-47 -32 -208 -53 -358 -31 -220 -41 -272 -53 -270 -8 2 -32 39 -55 83 -22 44&#10;-90 163 -151 265 -120 200 -173 291 -224 385 -40 75 -185 321 -257 436 -29 47&#10;-53 89 -53 93 0 4 -38 69 -83 144 -46 76 -117 193 -157 261 -41 68 -97 149&#10;-126 180 l-52 56 -88 3 c-67 2 -96 -1 -119 -13z"/>
<path d="M29507 5589 c-93 -22 -138 -68 -251 -260 -43 -74 -122 -208 -176&#10;-299 -53 -91 -119 -203 -145 -250 -27 -47 -74 -128 -105 -180 -124 -207 -323&#10;-543 -412 -700 -53 -91 -117 -201 -143 -245 -26 -44 -55 -93 -65 -110 -9 -16&#10;-63 -105 -119 -198 -140 -231 -150 -293 -60 -370 65 -56 155 -72 240 -42 74&#10;26 129 93 224 270 26 50 54 99 60 110 7 11 26 45 43 75 59 109 83 148 96 159&#10;9 8 191 10 627 9 l614 -3 23 -85 c13 -47 30 -112 38 -145 72 -288 72 -288 123&#10;-343 63 -68 167 -82 259 -36 122 61 129 141 36 420 -13 40 -42 139 -65 220&#10;-139 509 -295 1051 -394 1369 -36 114 -47 154 -96 345 -54 209 -103 273 -221&#10;291 -73 10 -80 10 -131 -2z m43 -582 c0 -13 9 -50 19 -83 29 -89 68 -226 74&#10;-254 2 -14 19 -79 37 -145 49 -182 141 -536 147 -567 l5 -28 -459 0 c-253 0&#10;-463 3 -466 7 -4 3 0 17 9 31 9 13 56 98 105 188 49 90 114 205 144 255 30 50&#10;55 93 55 94 0 2 39 71 88 153 48 83 114 201 147 261 41 75 66 111 78 111 11 0&#10;17 -8 17 -23z"/>
<path d="M18820 5570 c-234 -5 -247 -6 -282 -28 -47 -29 -83 -72 -97 -114 -6&#10;-18 -20 -98 -31 -178 -18 -129 -41 -278 -70 -467 -6 -35 -14 -92 -20 -128 -5&#10;-36 -14 -93 -20 -127 -5 -35 -16 -117 -25 -183 -8 -66 -20 -147 -25 -180 -13&#10;-80 -44 -295 -69 -475 -11 -80 -30 -206 -42 -280 -25 -160 -34 -267 -25 -315&#10;8 -40 55 -99 97 -121 23 -12 116 -14 571 -14 490 0 554 2 658 20 515 87 877&#10;379 1053 850 104 279 128 677 58 965 -102 419 -473 699 -1016 766 -112 14&#10;-350 17 -715 9z m720 -406 c126 -26 201 -56 292 -117 95 -63 127 -98 181 -197&#10;47 -87 72 -172 88 -304 11 -95 11 -127 -4 -266 -27 -234 -59 -357 -130 -490&#10;-55 -103 -172 -236 -261 -296 -110 -75 -297 -130 -485 -144 -192 -14 -621 -13&#10;-621 2 0 6 5 37 10 67 6 31 24 155 40 276 17 121 40 279 51 350 21 136 42 282&#10;59 400 23 161 81 544 90 594 6 30 10 71 10 92 0 23 6 41 14 46 8 4 144 7 303&#10;5 215 -2 307 -6 363 -18z"/>
<path d="M26089 5571 c-48 -10 -104 -46 -136 -88 -22 -29 -28 -49 -31 -102 -4&#10;-76 12 -110 74 -157 l37 -29 391 -1 391 -2 -4 -58 c-2 -32 -8 -70 -13 -84 -5&#10;-14 -13 -54 -18 -90 -4 -36 -15 -114 -24 -175 -9 -60 -20 -141 -26 -180 -5&#10;-38 -18 -131 -30 -205 -11 -74 -29 -200 -39 -280 -19 -140 -36 -266 -102 -730&#10;-17 -118 -31 -244 -32 -280 -2 -61 0 -69 32 -109 44 -55 99 -80 174 -81 88 0&#10;158 36 202 103 41 63 48 99 100 482 20 143 45 316 55 385 11 69 31 199 45 290&#10;14 91 30 193 35 228 24 153 47 306 55 362 3 25 15 103 26 174 10 70 19 145 19&#10;165 0 20 6 46 13 59 l12 23 400 2 c369 2 403 3 435 21 70 37 105 89 116 170 9&#10;59 -9 105 -57 152 l-40 39 -1012 1 c-557 1 -1028 -1 -1048 -5z"/>
<path d="M13240 5559 c-87 -35 -132 -112 -155 -265 -8 -54 -19 -126 -24 -159&#10;-5 -33 -30 -204 -56 -380 -26 -176 -51 -347 -56 -380 -5 -33 -14 -94 -19 -135&#10;-6 -41 -17 -115 -25 -165 -8 -49 -26 -166 -39 -260 -14 -93 -32 -217 -41 -275&#10;-54 -372 -55 -378 -44 -429 13 -61 37 -93 94 -126 l43 -26 569 3 568 4 121 26&#10;c283 63 526 196 722 397 122 126 200 260 261 449 88 268 113 600 66 877 -38&#10;231 -155 431 -338 578 -162 130 -341 206 -597 254 -69 13 -176 17 -555 19&#10;-297 2 -479 -1 -495 -7z m935 -389 c78 -11 211 -53 265 -83 67 -37 140 -98&#10;180 -150 116 -154 165 -372 142 -625 -26 -275 -84 -464 -185 -605 -152 -212&#10;-370 -332 -647 -357 -142 -12 -647 -13 -654 -1 -3 5 8 103 24 217 16 115 35&#10;245 41 289 5 44 14 103 19 130 5 28 16 100 24 160 9 61 27 182 41 270 14 88&#10;30 189 35 225 16 119 60 444 66 493 l6 47 286 0 c158 0 319 -5 357 -10z"/>
<path d="M21363 5549 c-55 -21 -98 -67 -114 -122 -15 -53 -48 -252 -84 -507&#10;-14 -102 -30 -214 -36 -250 -5 -36 -34 -240 -64 -455 -30 -214 -57 -406 -60&#10;-425 -54 -349 -85 -577 -85 -626 0 -97 30 -148 110 -190 33 -17 79 -18 785&#10;-15 l750 2 42 43 c49 51 68 108 60 185 -7 63 -29 99 -78 123 -31 17 -82 18&#10;-616 18 -378 0 -584 4 -588 10 -3 6 1 54 9 108 8 53 23 149 31 212 9 63 21&#10;142 26 175 5 33 14 96 20 140 6 44 15 90 20 102 l8 22 563 3 563 3 45 25 c65&#10;37 100 99 101 179 1 72 -15 102 -72 136 -33 19 -55 20 -584 23 -302 2 -553 7&#10;-557 11 -4 3 -1 51 7 106 8 55 30 215 50 355 20 140 39 256 43 257 4 2 277 4&#10;607 5 659 3 626 0 687 65 36 38 48 73 48 145 0 44 -6 70 -21 95 -41 66 -1 63&#10;-821 62 -716 0 -745 -1 -795 -20z"/>
</g>
</svg>