<?xml version="1.0" standalone="no"?>
<!DOCTYPE svg PUBLIC "-//W3C//DTD SVG 20010904//EN"
 "http://www.w3.org/TR/2001/REC-SVG-20010904/DTD/svg10.dtd">
<svg version="1.0" xmlns="http://www.w3.org/2000/svg"
 width="327.000000pt" height="229.000000pt" viewBox="0 0 327.000000 229.000000"
 preserveAspectRatio="xMidYMid meet">

<g transform="translate(0.000000,229.000000) scale(0.100000,-0.100000)"
fill="#2054A4" stroke="none">
<path d="M845 1970 c-23 -9 -465 -748 -465 -777 0 -29 29 -50 203 -153 137
-80 161 -91 181 -82 15 6 91 125 220 341 108 182 198 331 200 331 2 0 24 -9
50 -21 45 -19 48 -20 109 -3 34 9 73 19 87 21 19 3 94 -34 295 -147 149 -83
274 -155 279 -160 5 -5 6 -20 2 -34 -10 -40 -40 -33 -208 49 -145 71 -155 74
-197 66 -35 -7 -57 -22 -115 -80 l-72 -71 -173 25 c-176 26 -201 24 -215 -11
-11 -28 -7 -43 17 -58 29 -19 308 -59 375 -54 51 5 57 8 127 78 l75 74 157
-77 c177 -86 215 -94 273 -54 81 55 93 167 24 228 -23 20 -511 294 -573 322
l-43 19 -88 -23 c-80 -20 -89 -21 -110 -6 -12 8 -28 26 -34 39 -7 14 -80 65
-181 126 -93 56 -172 102 -175 101 -3 0 -14 -4 -25 -9z m187 -208 c72 -43 77
-48 64 -67 -7 -11 -93 -154 -190 -318 -97 -164 -180 -296 -184 -294 -56 31
-204 122 -208 128 -3 5 79 150 182 324 l188 315 35 -21 c20 -12 71 -42 113
-67z"/>
<path d="M2400 1883 c-37 -15 -335 -185 -342 -196 -4 -7 -8 -21 -8 -32 0 -11
86 -174 190 -362 105 -188 190 -348 190 -356 0 -20 -171 -183 -250 -239 -36
-25 -216 -132 -400 -237 -283 -162 -340 -191 -364 -187 -33 7 -56 23 -56 40 1
6 84 60 185 119 114 67 186 116 190 128 9 27 -20 69 -46 69 -12 0 -92 -42
-178 -94 -193 -116 -229 -134 -279 -142 -51 -8 -82 8 -82 44 0 25 15 35 217
137 278 142 273 138 273 173 0 33 -16 52 -45 52 -12 0 -132 -56 -267 -125
-135 -69 -252 -125 -260 -125 -20 0 -60 39 -56 56 2 8 102 63 224 122 122 59
228 113 238 121 30 25 10 91 -29 91 -7 0 -111 -47 -231 -105 -120 -58 -227
-105 -239 -103 -23 3 -32 40 -13 55 7 6 84 48 171 93 87 46 161 89 164 96 3 8
2 25 -1 39 -13 50 -42 43 -233 -53 -158 -79 -181 -94 -200 -128 -13 -22 -23
-52 -23 -67 0 -37 22 -87 49 -111 15 -14 21 -31 21 -60 0 -54 28 -98 84 -131
35 -21 48 -35 56 -63 20 -77 66 -112 150 -113 45 -2 53 -5 65 -30 8 -15 31
-40 51 -56 30 -22 49 -28 103 -31 l66 -4 330 189 c182 104 362 210 400 235 77
52 199 157 265 231 23 26 47 47 52 47 22 0 339 183 349 201 8 16 5 31 -17 72
-70 135 -398 719 -411 732 -15 16 -28 17 -53 8z m135 -360 c72 -130 151 -275
178 -323 l47 -88 -111 -61 c-62 -34 -115 -58 -120 -54 -18 19 -349 628 -346
637 3 9 205 126 217 126 3 0 64 -107 135 -237z"/>
</g>
</svg>
