<?xml version="1.0" standalone="no"?>
<!DOCTYPE svg PUBLIC "-//W3C//DTD SVG 20010904//EN"
 "http://www.w3.org/TR/2001/REC-SVG-20010904/DTD/svg10.dtd">
<svg version="1.0" xmlns="http://www.w3.org/2000/svg"
 width="922.000000pt" height="767.000000pt" viewBox="0 0 922.000000 767.000000"
 preserveAspectRatio="xMidYMid meet">

<g transform="translate(0.000000,767.000000) scale(0.100000,-0.100000)"
fill="#2054A4" stroke="none">
<path d="M5410 7284 c-330 -41 -560 -106 -825 -235 -280 -136 -433 -245 -651
-464 -199 -199 -347 -409 -476 -675 -115 -235 -168 -399 -210 -640 -18 -107
-18 -746 1 -855 33 -195 109 -406 250 -695 38 -79 51 -102 116 -212 53 -90 85
-157 80 -170 -6 -15 -374 -378 -980 -968 -105 -102 -272 -264 -371 -360 -99
-96 -287 -278 -419 -405 -909 -872 -1057 -1016 -1053 -1025 6 -17 330 -340
340 -340 6 0 41 28 77 62 201 190 510 484 701 668 14 14 75 72 135 130 112
106 279 267 530 510 77 75 275 266 440 425 274 265 406 393 823 800 79 77 147
142 153 143 8 3 105 -61 119 -79 18 -22 239 -160 342 -213 301 -154 578 -229
951 -257 184 -14 468 5 632 41 22 5 65 14 95 21 30 6 66 15 80 19 14 4 45 13
70 20 129 36 293 101 425 167 373 187 828 638 1023 1014 191 369 296 836 278
1244 -5 120 -25 300 -40 370 -33 147 -86 329 -116 400 -33 79 -46 109 -78 175
-172 356 -440 678 -772 927 -466 349 -1113 526 -1670 457z m451 -508 c133 -20
186 -32 348 -78 258 -73 472 -185 654 -341 196 -169 365 -371 489 -588 50 -87
62 -110 103 -201 21 -48 70 -205 83 -263 53 -250 61 -562 21 -790 -23 -129
-30 -160 -63 -265 -150 -479 -629 -991 -1110 -1184 -166 -67 -258 -91 -487
-126 -99 -15 -439 -12 -541 5 -537 88 -997 377 -1286 806 -193 289 -307 578
-347 882 -19 149 -19 240 0 397 90 728 471 1264 1120 1580 190 92 307 131 500
165 99 18 401 18 516 1z"/>
<path d="M5184 5676 c-3 -7 -4 -38 -2 -67 l3 -54 785 -5 785 -5 3 -412 2 -413
55 0 55 0 -2 483 -3 482 -838 3 c-703 2 -838 0 -843 -12z"/>
<path d="M4910 5340 l0 -70 785 0 785 0 0 -415 0 -415 70 0 70 0 0 485 0 485
-855 0 -855 0 0 -70z"/>
<path d="M5487 5122 l-847 -2 2 -483 3 -482 850 0 850 0 3 479 c1 264 -1 482
-5 485 -5 3 -389 5 -856 3z m100 -112 c56 -25 126 -98 157 -164 78 -165 47
-383 -71 -501 -148 -148 -346 -98 -446 113 -30 64 -32 73 -32 187 0 114 2 123
31 186 62 129 154 199 264 199 33 0 72 -8 97 -20z"/>
<path d="M5452 4889 c-45 -13 -108 -79 -123 -129 -8 -27 -21 -45 -35 -50 -18
-7 -34 -29 -34 -46 0 -2 8 -4 18 -4 31 0 33 -12 7 -36 -31 -29 -32 -44 -1 -44
20 0 25 -7 34 -43 31 -122 143 -191 254 -156 40 13 43 17 50 58 4 24 5 47 3
52 -3 4 -26 -1 -51 -12 -52 -24 -91 -19 -122 14 -24 25 -44 72 -35 81 4 3 32
6 64 6 55 0 69 8 69 41 0 5 -31 9 -70 9 -56 0 -70 3 -70 15 0 12 15 15 79 15
63 0 80 3 85 16 12 31 5 34 -74 34 -91 0 -98 8 -53 60 24 29 30 31 77 28 28
-3 59 -8 68 -12 12 -6 21 0 32 23 26 49 21 59 -36 76 -58 17 -87 18 -136 4z"/>
</g>
</svg>
