<svg fill="#D90B0B" xmlns="http://www.w3.org/2000/svg" data-name="Layer 1" x="0px" y="0px" viewBox="1 10.98 98 78.02"><title>Artboard 19</title><path d="M94,32.21l-1.89,0a8.61,8.61,0,0,0-5.71,2.55C84,28.67,80.89,21.79,79,19c-3.41-4.9-8.38-6.27-11.82-6.87A98.84,98.84,0,0,0,50,11h0a98.84,98.84,0,0,0-17.15,1.11c-3.44.6-8.41,2-11.82,6.87-1.92,2.76-5,9.64-7.42,15.7a8.61,8.61,0,0,0-5.71-2.55L6,32.21a5.06,5.06,0,0,0-5,5c0,1.07,0,2.22,0,3.63A5.27,5.27,0,0,0,6.18,46l2.2,0h.29q-.39.51-.74,1A21.44,21.44,0,0,0,4.41,59.41V83.85A5.11,5.11,0,0,0,9.5,89h6.61a5.11,5.11,0,0,0,5.11-5.11V80H78.78v3.84A5.11,5.11,0,0,0,83.89,89H90.5a5.11,5.11,0,0,0,5.11-5.11V59.41A21.44,21.44,0,0,0,92.06,47q-.36-.53-.74-1h.29l2.2,0A5.27,5.27,0,0,0,99,40.83c0-1.41,0-2.56,0-3.63A5.06,5.06,0,0,0,94,32.21ZM49.53,68.74a4.06,4.06,0,1,1,4.06-4.06A4.06,4.06,0,0,1,49.53,68.74Zm4.41-18.65c-.1,0-.38.17-.38.34v2.31a4,4,0,0,1-8.08,0V50.43a8.5,8.5,0,0,1,5.86-8,5.65,5.65,0,0,0,3.85-5.55,5.8,5.8,0,0,0-5.72-5.49,5.63,5.63,0,0,0-5.06,3.21,4,4,0,1,1-7.28-3.51,13.66,13.66,0,0,1,12.29-7.78h.08A13.85,13.85,0,0,1,63.26,36.66,13.68,13.68,0,0,1,53.94,50.09Z"></path></svg>