<svg xmlns="http://www.w3.org/2000/svg" version="1.1" viewBox="-5.0 -10.0 110.0 115.0">
 <path d="m6.8398 14.871 7.1211 31.469 4.5781 0.16016-6.5781-24.039c-0.21094-0.78906 0.26172-1.6211 1.0508-1.8281l0.19141-0.039062c9.9102-1.3398 20.109-0.73047 30.59 1.8086 10.441 2.5312 21.148 6.9883 32.141 13.371 0.42188 0.23828 0.67188 0.64844 0.73047 1.1016l2.1211 11.738 11.969 0.41016c-1.4805-3.4297-3.5117-6.5781-5.9883-9.4609-4.7812-5.5586-11.219-10.102-18.531-13.711-18.422-9.1016-42.27-12.289-59.391-10.98zm14.219 62.801 48.262 0.30078c0.82813 0 1.4883 0.67969 1.4883 1.5 0 0.82812-0.67188 1.4883-1.5 1.4883l-47.578-0.30078 1.0781 4.75h64.852c4.7695-9.9492 6.4102-18.68 5.6797-26.281-0.23828-2.4805-0.73047-4.8281-1.4492-7.0781l-14.352-0.5h-0.12109l-62.781-2.1914 6.4219 28.309zm55.09 3.3398c-0.82813 0-1.4883-0.67969-1.4883-1.5 0-0.82812 0.67969-1.4883 1.5-1.4883l6.9688 0.039062c0.82031 0.011719 1.4883 0.67969 1.4805 1.5 0 0.82812-0.67188 1.4883-1.5 1.4883zm-28.5-49.988c0.57812-0.58984 1.5312-0.58984 2.1211 0 0.57812 0.57812 0.57812 1.5391 0 2.1211l-11.039 11.031c-0.57812 0.58984-1.5312 0.58984-2.1211 0-0.57812-0.57812-0.57812-1.5312 0-2.1211zm-13 0c0.57812-0.58984 1.5391-0.58984 2.1211 0 0.58984 0.57812 0.58984 1.5391 0 2.1211l-5.0508 5.0586c-0.58984 0.57812-1.5391 0.57812-2.1289 0-0.57812-0.58984-0.57812-1.5391 0-2.1289zm-7.8906 23.238h12.898c1.2305 0 2.3594 0.5 3.1719 1.3086 0.80859 0.82031 1.3086 1.9414 1.3086 3.1719 0 1.2383-0.5 2.3594-1.3086 3.1719-0.80859 0.80859-1.9414 1.3203-3.1719 1.3203h-12.898c-1.2305 0-2.3516-0.51172-3.1719-1.3203-0.80859-0.80859-1.3086-1.9297-1.3086-3.1719 0-1.2305 0.5-2.3516 1.3086-3.1719 0.82031-0.80859 1.9414-1.3086 3.1719-1.3086zm12.898 3h-12.898c-0.39844 0-0.78125 0.17188-1.0391 0.42969-0.26953 0.26953-0.44141 0.64844-0.44141 1.0508 0 0.41016 0.17188 0.78125 0.44141 1.0508 0.26172 0.26953 0.64062 0.44141 1.0391 0.44141h12.898c0.39844 0 0.78125-0.17188 1.0508-0.44141 0.26172-0.26953 0.42969-0.64062 0.42969-1.0508 0-0.39844-0.17188-0.78125-0.42969-1.0508-0.26953-0.26172-0.64844-0.42969-1.0508-0.42969zm-18-10.648 54.059 1.8906-1.8906-10.488c-10.531-6.0508-20.781-10.289-30.75-12.699-9.5117-2.3086-18.77-2.9688-27.781-1.9688l6.3594 23.27zm-1.5117 40.621-16.609-73.379-0.03125-0.17969c-0.078125-0.82812 0.53125-1.5586 1.3516-1.6289 17.672-1.7109 43.148 1.4688 62.691 11.121 7.6602 3.7891 14.43 8.5703 19.48 14.449 5.1094 5.9297 8.4883 12.98 9.2812 21.238 0.80859 8.3203-1.0195 17.828-6.3281 28.621-0.21875 0.55078-0.76172 0.94141-1.3906 0.94141h-66.98c-0.67969-0.011719-1.3008-0.48047-1.4609-1.1797z"/>
</svg>