<svg xmlns="http://www.w3.org/2000/svg" xmlns:xlink="http://www.w3.org/1999/xlink" version="1.1" x="0px" y="0px" enable-background="new 0 0 33 33" xml:space="preserve" viewBox="0.5 10.8 32 11.4" style="transform: scaleX(-1);"><path d="M4.328,18.776c-0.945,0-1.712,0.766-1.712,1.712c0,0.944,0.767,1.711,1.712,1.711s1.711-0.767,1.711-1.711  C6.039,19.542,5.273,18.776,4.328,18.776z M4.328,21.354c-0.478,0-0.866-0.388-0.866-0.865c0-0.479,0.388-0.865,0.866-0.865  c0.478,0,0.865,0.387,0.865,0.865C5.193,20.966,4.805,21.354,4.328,21.354z"></path><path d="M19.771,19.66h-0.289v-1.326c0-0.255-0.207-0.462-0.461-0.462h-8.847c0-1.479,0-3.108,0-3.462  c0-0.678-0.385-0.946-0.916-0.946c-0.333,0-2.492,0-3.074,0s-1.082,1.09-1.831,2.587c0,0-1.026,0.321-2.417,0.829  c-0.935,0.342-0.912,1.252-0.912,1.751c0,0.234,0,0.652,0,1.029H0.731c-0.127,0-0.231,0.104-0.231,0.231v0.692  c0,0.128,0.104,0.23,0.231,0.23h1.451c-0.016-0.106-0.027-0.215-0.027-0.326c0-1.199,0.975-2.174,2.173-2.174S6.5,19.289,6.5,20.488  c0,0.111-0.011,0.22-0.027,0.326h7.978c-0.016-0.106-0.027-0.215-0.027-0.326c0-1.199,0.975-2.174,2.174-2.174  c1.198,0,2.173,0.975,2.173,2.174c0,0.111-0.011,0.22-0.027,0.326h1.027c0.127,0,0.23-0.103,0.23-0.23v-0.692  C20.001,19.765,19.898,19.66,19.771,19.66z M2.827,18.354h-1.23c0-0.502,0.192-0.753,0.192-0.753  C3.135,17.518,2.827,18.354,2.827,18.354z M8.789,15.911h-3.85c0.401-0.808,0.993-1.985,1.245-1.985h2.151  c0.34,0,0.454,0.122,0.454,0.484V15.911z"></path><path d="M9.116,13.284v-0.188c0-0.255-0.207-0.462-0.461-0.462H7.924c-0.255,0-0.461,0.207-0.461,0.462v0.188  C8.109,13.284,8.796,13.284,9.116,13.284z"></path><path d="M16.598,18.776c-0.946,0-1.712,0.766-1.712,1.712c0,0.944,0.766,1.711,1.712,1.711c0.945,0,1.711-0.767,1.711-1.711  C18.309,19.542,17.543,18.776,16.598,18.776z M16.598,21.354c-0.479,0-0.866-0.388-0.866-0.865c0-0.479,0.387-0.865,0.866-0.865  c0.478,0,0.865,0.387,0.865,0.865C17.463,20.966,17.075,21.354,16.598,21.354z"></path><path d="M22.048,15.352c-0.64-0.369-1.457-0.15-1.826,0.488c-0.369,0.64-0.15,1.456,0.49,1.826c0.639,0.369,1.456,0.149,1.825-0.489  C22.906,16.537,22.687,15.721,22.048,15.352z M21.042,17.094c-0.324-0.188-0.435-0.6-0.248-0.923s0.6-0.434,0.923-0.247  c0.323,0.187,0.434,0.6,0.247,0.923C21.778,17.17,21.365,17.279,21.042,17.094z"></path><path d="M29.59,19.707c-0.64-0.371-1.457-0.151-1.826,0.487c-0.369,0.64-0.15,1.457,0.49,1.826c0.639,0.369,1.456,0.149,1.825-0.489  C30.448,20.892,30.229,20.074,29.59,19.707z M28.584,21.448c-0.324-0.188-0.435-0.601-0.248-0.924  c0.187-0.323,0.6-0.434,0.924-0.246c0.323,0.186,0.433,0.599,0.247,0.922C29.32,21.524,28.907,21.634,28.584,21.448z"></path><path d="M32.5,19.843l-0.876-0.76c0,0-0.805-2.59-1.736-3.128c-0.304-0.175-2.505-1.445-2.884-1.664  c-0.379-0.22-3.993-0.181-3.993-0.181s-1.678-0.514-2.417-0.636c-0.738-0.123-1.625,1.237-1.552,1.987l0.773,0.446  c0.031-0.081,0.067-0.162,0.112-0.239c0.463-0.802,1.491-1.076,2.292-0.614c0.801,0.463,1.077,1.491,0.614,2.292  c-0.045,0.077-0.096,0.149-0.151,0.217l4.675,2.699c0.031-0.082,0.067-0.161,0.112-0.239c0.463-0.802,1.491-1.077,2.292-0.614  c0.801,0.462,1.077,1.491,0.614,2.293c-0.019,0.03-0.039,0.06-0.059,0.09c0.404,0.098,0.887,0.198,0.979,0.138  C31.458,21.822,32.224,20.847,32.5,19.843z M20.659,14.503c-0.208-0.12-0.673-0.389-0.673-0.389  c0.293-0.311,0.511-0.337,0.511-0.337C21.324,14.229,20.868,14.624,20.659,14.503z M27.147,16.585l-3.7-2.137  c1.544-0.006,3.143,0.044,3.398,0.146l1.088,0.629L27.147,16.585z M27.489,16.782l0.787-1.362l0.757,0.438  c0.544,0.313,1.169,1.717,1.498,2.681L27.489,16.782z M31.541,20.685c-0.125-0.073-0.169-0.233-0.096-0.358l0.186-0.322  c0.073-0.127,0.233-0.17,0.359-0.097l0.134,0.076c-0.106,0.289-0.244,0.567-0.386,0.815L31.541,20.685z"></path><path d="M14.474,17.411l3.204-5.402c0.207-0.367,0.094-0.823-0.244-1.06c-0.338-0.238-0.806-0.188-1.08,0.133l-5.186,6.329H14.474z"></path><path d="M19.793,16.26c-0.049-0.152-0.212-0.234-0.363-0.186c-0.152,0.05-0.234,0.212-0.186,0.362  c0.076,0.235-0.053,0.487-0.287,0.563c-0.234,0.075-0.486-0.054-0.563-0.287c-0.076-0.234,0.053-0.487,0.287-0.563  c0.152-0.049,0.235-0.212,0.186-0.364l-1.131-3.491l-0.392,0.662l0.898,2.772c-0.365,0.25-0.54,0.72-0.396,1.161  c0.174,0.536,0.752,0.832,1.289,0.658C19.671,17.375,19.967,16.797,19.793,16.26z"></path></svg>