<svg fill="#2054A4" xmlns="http://www.w3.org/2000/svg" version="1.1" viewBox="14.63 5.01 70.75 89.99">     <path d="m33.16 74.262c-3.9609 0-6.9648 3.5664-6.2891 7.4688l2.293 13.27h15.629l-5.5898-16.414c-0.88281-2.5859-3.3086-4.3242-6.043-4.3242z"></path>     <path d="m33.16 70.262c2.6953 0 5.1836 1.1523 6.9219 3.0547 0-0.007812 0.003907-0.015625 0.007813-0.023437 0.60547-5.0547-1.9844-28.426-6.8008-36.109-4.8164-7.6836-9.293-12.121-9.293-12.121s2.5742-14.207 1.6289-17.363c-1.0859-3.6133-9.3438-3.7031-10.055 0.41016l-0.94141 17.504s9.6875 38.309 11.969 47.344c1.7461-1.7188 4.0938-2.6914 6.5703-2.6914z"></path>     <path d="m84.547 76.074c-2.5664-2.2188-15.598 1.9531-19.512-0.78516-3.9141-2.7383-16.539-7.6953-23.453-3-0.46484 0.31641-0.88281 0.76953-1.2461 1.3164 0.73437 0.87109 1.3203 1.8867 1.7031 3.0117l3.7695 11.066h37.098s4.2031-9.3906 1.6406-11.605z"></path>     <path d="m46.492 90.684 1.4727 4.3164h28.613c2.2109 0 4-1.7891 4-4v-0.31641z"></path> </svg>