<svg fill="#D90B0B"  xmlns="http://www.w3.org/2000/svg" version="1.1" viewBox="14.8 24.55 70.39 50.88">  <path d="m83.34 44.039h-7v5.4609h-2.3906v-4.7188c0-0.92188-0.37109-1.8086-1.0195-2.4688l-7.9297-7.9297c-0.64844-0.64844-1.5391-1.0195-2.4688-1.0195h-5.9492v-2.3906h3.7695c0.75 0 1.3516-0.60156 1.3516-1.3516v-3.7188c0-0.75-0.60156-1.3516-1.3516-1.3516h-17.648c-0.75 0-1.3516 0.60156-1.3516 1.3516v3.7188c0 0.75 0.60156 1.3516 1.3516 1.3516h3.7695v2.3906h-12.469c-1.9297 0-3.4883 1.5586-3.4883 3.4883v4.1602h-4.9805c-1.9297 0-3.4883 1.5586-3.4883 3.4883v6.0898h-2.3906v-7.1484c0-1.3398-1.0898-2.4297-2.4297-2.4297-1.3398 0-2.4297 1.0898-2.4297 2.4297v7.1484c0 1.2812 1 2.3281 2.2617 2.4219-1.2617 0.10156-2.2617 1.1484-2.2617 2.4297v7.1484c0 1.3398 1.0898 2.4297 2.4297 2.4297 1.3398 0 2.4297-1.0898 2.4297-2.4297v-7.1484h2.3906v6.0898c0 1.9297 1.5586 3.4883 3.4883 3.4883h4.9805l11 9.3906c0.64844 0.64844 1.5391 1.0195 2.4688 1.0195h26.48c1.9297 0 3.4883-1.5586 3.4883-3.4883v-8.6484h2.3906v5.0508h7s1.8398-1.2617 1.8398-11.949c0-10.691-1.8398-12.359-1.8398-12.359z"></path> </svg>