<svg fill="#2054A4" xmlns="http://www.w3.org/2000/svg" version="1.1" viewBox="14.06 6.25 71.84 87.48">  <g fill-rule="evenodd">   <path d="m69.723 31.672c0.60156-0.89453 1.8164-1.1328 2.7109-0.52734 0.89453 0.60156 1.1328 1.8164 0.52734 2.7109l-2.8203 4.1875 1.25 2.1641 3.1875-1.8398c0.93359-0.53906 2.1289-0.21875 2.668 0.71484 0.53906 0.93359 0.21875 2.1289-0.71484 2.668l-4.875 2.8164c-0.93359 0.53906-2.1289 0.21875-2.668-0.71484l-2.8359-4.9102c-0.37109-0.64453-0.34375-1.4492 0.070312-2.0664l3.5-5.1992z"></path>   <path d="m64.047 89.426c0-1.0781-0.875-1.9531-1.9531-1.9531h-46.078c-1.0781 0-1.9531 0.875-1.9531 1.9531v2.3438c0 1.0781 0.875 1.9531 1.9531 1.9531h46.078c1.0781 0 1.9531-0.875 1.9531-1.9531v-2.3438z"></path>   <path d="m64.047 8.1992c0-1.0781-0.875-1.9531-1.9531-1.9531h-46.078c-1.0781 0-1.9531 0.875-1.9531 1.9531v2.3438c0 1.0781 0.875 1.9531 1.9531 1.9531h46.078c1.0781 0 1.9531-0.875 1.9531-1.9531v-2.3438z"></path>   <path d="m60.922 16.402v67.168h-43.738v-67.168zm-4.4023 7.418c0-1.0352-0.41016-2.0273-1.1445-2.7617-0.73047-0.73047-1.7266-1.1445-2.7617-1.1445h-27.121c-1.0352 0-2.0273 0.41016-2.7617 1.1445-0.73047 0.73047-1.1445 1.7266-1.1445 2.7617v14.84c0 1.0352 0.41016 2.0273 1.1445 2.7617 0.73047 0.73047 1.7266 1.1445 2.7617 1.1445h27.121c1.0352 0 2.0273-0.41016 2.7617-1.1445 0.73047-0.73047 1.1445-1.7266 1.1445-2.7617zm-14.293 33.707c-0.72266-1.0977-1.9492-1.7539-3.2617-1.7539s-2.5391 0.66016-3.2617 1.7539c-1.1719 1.7773-2.6992 4.2539-3.7344 6.5078-0.80469 1.7461-1.293 3.3984-1.293 4.6016 0 4.5742 3.7148 8.2891 8.2891 8.2891 4.5742 0 8.2891-3.7148 8.2891-8.2891 0-1.2031-0.49219-2.8555-1.293-4.6016-1.0352-2.2539-2.5625-4.7305-3.7344-6.5078z"></path>   <path d="m25.492 25.773c0-1.0781 0.875-1.9531 1.9531-1.9531h23.215c1.0781 0 1.9531 0.875 1.9531 1.9531v10.934c0 1.0781-0.875 1.9531-1.9531 1.9531h-23.215c-1.0781 0-1.9531-0.875-1.9531-1.9531v-10.934z"></path>   <path d="m37.281 62.359c0.35156-0.59766 0.99219-0.96484 1.6836-0.96484s1.332 0.36719 1.6836 0.96484c0.63672 1.0781 1.2617 2.2188 1.7617 3.3086 0.52344 1.1406 0.9375 2.1875 0.9375 2.9727 0 2.418-1.9648 4.3828-4.3828 4.3828-2.418 0-4.3828-1.9648-4.3828-4.3828 0-0.78516 0.41406-1.832 0.9375-2.9727 0.5-1.0859 1.125-2.2305 1.7617-3.3086z"></path>   <path d="m75.914 27.332c0.65625 0.85547 0.49609 2.082-0.35547 2.7383-0.85547 0.65625-2.082 0.49609-2.7383-0.35547l-4.4883-5.8359-8.0469-1.8672c-1.0508-0.24219-1.7031-1.293-1.4609-2.3438 0.24219-1.0508 1.293-1.7031 2.3438-1.4609l8.7305 2.0234c0.44141 0.10156 0.83203 0.35547 1.1055 0.71094l4.9141 6.3867z"></path>   <path d="m60.895 65.793c-1.0742 0.09375-2.0234-0.69922-2.1172-1.7734s0.69922-2.0234 1.7734-2.1172c0 0 4.4336-0.33594 7.1094 2.4688 1.1641 1.2227 2.0625 3.0195 2.0625 5.7266 0 3.9648-0.16797 9.668 0.9375 13.594 0.24219 0.86328 0.54297 1.6289 0.95312 2.2305 0.39453 0.57422 0.89453 0.96875 1.6055 0.96875 1.5078 0 2.2969-1.1992 2.8906-2.7969 1.3164-3.5391 1.4062-8.9727 1.4062-13.996v-24.637c0-1.0781 0.875-1.9531 1.9531-1.9531s1.9531 0.875 1.9531 1.9531v24.637c0 5.5117-0.20703 11.469-1.6484 15.355-1.2461 3.3555-3.3867 5.3438-6.5508 5.3438-3.1836 0-5.2734-2.332-6.3203-6.043-1.1914-4.2344-1.0859-10.379-1.0859-14.652 0-1.418-0.37109-2.3906-0.98438-3.0312-1.4688-1.543-3.9375-1.2695-3.9375-1.2695z"></path>   <path d="m85.879 37.52-1.6133 9.4102c-0.16016 0.9375-0.97266 1.6211-1.9258 1.6211h-5.3516c-0.89844 0-1.6797-0.61328-1.8945-1.4844l-1.6797-6.8047-4.7266-8.1875c-0.53906-0.93359-0.21875-2.1289 0.71484-2.668l7.543-4.3555c0.93359-0.53906 2.1289-0.21875 2.668 0.71484l6.0312 10.449c0.22656 0.39453 0.30859 0.85547 0.23438 1.3047z"></path>  </g> </svg>