<svg fill="#D90B0B" xmlns="http://www.w3.org/2000/svg" xmlns:xlink="http://www.w3.org/1999/xlink" xmlns:sketch="http://www.bohemiancoding.com/sketch/ns" version="1.1" x="0px" y="0px" viewBox="5 26 90 53.7"><title>26 copy</title><desc>Created with Sketch.</desc><g stroke="none" stroke-width="1" fill="#D90B0B" fill-rule="evenodd" sketch:type="MSPage"><path d="M92.1970279,65.2699234 L92.1064771,65.3000226 C90.3098801,65.8979609 88.3349639,65.1867078 87.3371355,63.5775356 C83.628856,57.5973943 79.3097386,53.5661168 77.9451545,52.3656875 C77.6886784,52.1400695 77.616592,51.7720491 77.7665824,51.4649861 L82.9026798,40.9466857 C83.1346211,40.4719268 83.7692349,40.3747998 84.1354848,40.7557198 C91.1326775,48.0308881 93.8547636,55.9523053 94.8945792,60.4631474 C95.3690852,62.522038 94.2017904,64.602681 92.1970279,65.2699234 M12.5822075,63.5575537 C11.6056256,65.1553438 9.6658674,65.8797496 7.87761721,65.3237985 L7.87711134,65.3235456 C5.78407453,64.6727439 4.58541575,62.4914328 5.13175527,60.3688026 C10.9459712,37.7814576 30.547672,26 50.6324785,26 C58.8571647,26 65.1221107,28.2799557 67.6565191,29.3749112 C68.2063997,29.6124171 68.274945,30.3628752 67.7791925,30.6990257 L52.1708289,41.2787893 C52.0403145,41.3673165 51.8845066,41.412086 51.7266752,41.4080391 C28.8550312,40.8060539 16.6182907,56.9539277 12.5822075,63.5575537 M50.436201,72.0260692 C46.9264754,72.0260692 44.081463,69.1810567 44.081463,65.6715841 C44.081463,62.1618586 46.9264754,59.3168461 50.436201,59.3168461 C53.9456736,59.3168461 56.790686,62.1618586 56.790686,65.6715841 C56.790686,69.1810567 53.9456736,72.0260692 50.436201,72.0260692 M82.6550564,26.626267 C82.4362677,26.626267 82.2088792,26.6907654 81.9931256,26.8372147 C70.9881784,34.3124546 60.0378651,41.8494106 48.9600725,49.2045063 C45.4488294,51.5358079 40.7068047,54.1491319 38.2272833,57.6350816 C34.3156441,63.1341406 35.3015846,71.3284745 40.1065901,75.8881331 C40.2659391,76.0391353 40.4293351,76.1873551 40.596778,76.3327928 C40.764221,76.4779774 40.9341933,76.6186093 41.106442,76.7546883 C43.5753401,78.7073462 46.6176419,79.7001159 49.6859959,79.7001159 C51.4137946,79.7001159 53.1491814,79.3857177 54.7962938,78.7505981 C60.1815321,76.6750138 62.3335028,72.1181375 64.7110914,67.2491395 C71.0458475,54.2761053 77.3806037,41.3030711 83.7153598,28.3300369 C84.1314378,27.4781519 83.4502839,26.6265199 82.6550564,26.626267" fill="#D90B0B" sketch:type="MSShapeGroup"></path></g></svg>