<svg  fill="#D90B0B"  xmlns="http://www.w3.org/2000/svg" xmlns:xlink="http://www.w3.org/1999/xlink" version="1.1" x="0px" y="0px" enable-background="new 0 0 100 100" xml:space="preserve" viewBox="9.92 27.19 80.17 45.63"><path d="M84.351,27.186H24.445l-0.053,0.001c-0.181,0.008-4.454,0.223-7.012,3.207c-1.845,2.154-7.459,8.7-7.462,29.15  c-0.014,0.4-0.024,2.805,1.555,4.455c0.906,0.949,2.173,1.449,3.662,1.449h4.853c0-4.893,3.966-8.857,8.858-8.857  c4.892,0,8.859,3.965,8.859,8.857h25.237c0-4.893,3.967-8.857,8.857-8.857c4.893,0,8.859,3.965,8.859,8.857h3.691  c3.162,0,5.734-2.572,5.734-5.734V32.921C90.085,29.759,87.513,27.186,84.351,27.186z M29.504,40.643  c-5.964,0-6.584,4.801-6.584,4.801h-9.347c1.112-5.812,3.015-10.308,5.694-13.433c1.774-2.07,4.941-2.323,5.213-2.34h5.024V40.643z   M43.831,40.643H32.858V29.67h10.973V40.643z M57.29,40.643H46.315V29.67H57.29V40.643z M70.747,40.643H59.773V29.67h10.974V40.643z   M84.204,40.643H73.231V29.67h8.282c0,0,2.69,0.103,2.69,2.711S84.204,40.643,84.204,40.643z"></path><circle cx="71.8" cy="65.447" r="7.368"></circle><circle cx="28.846" cy="65.447" r="7.368"></circle></svg>