<svg xmlns="http://www.w3.org/2000/svg" version="1.1" viewBox="14.83 5.53 70.35 88.95">     <path d="m40.73 8.8125c0-0.92969 0.75781-1.6875 1.6836-1.6875 0.92969 0 1.6875 0.75781 1.6875 1.6875v0.68359h1.6016v-0.68359c0-1.8125-1.4727-3.2852-3.2852-3.2852-1.8086 0-3.2852 1.4727-3.2852 3.2852v0.68359h1.6016z"></path>     <path d="m31.148 17.082h22.535c0.125 0 0.23047-0.10156 0.23047-0.23047v-5.5273c0-0.125-0.10156-0.23047-0.23047-0.23047l-22.535 0.003906c-0.125 0-0.23047 0.10156-0.23047 0.23047v5.5273c0 0.125 0.10547 0.22656 0.23047 0.22656z"></path>     <path d="m79.918 67.348h-18.227c-0.34766 4.9531-3.8789 7.1562-5.2539 7.8281 0.089844 4.1172 1.2617 7.7891 3.4961 10.973 0.046875 0.046874 0.082031 0.10156 0.11719 0.16016 1.0078 1.4062 2.2227 2.7148 3.6445 3.9219 3.0898 2.6211 6.2227 3.9102 7.1133 4.2461 0.89062-0.33594 4.0234-1.6211 7.1133-4.2461 4.6836-3.9766 7.1211-9.0391 7.2539-15.055-1.3789-0.67578-4.9102-2.875-5.2578-7.8281zm-0.54688 8.1133-9.1562 9.9414c-0.14844 0.16016-0.35547 0.25391-0.57031 0.25781h-0.015625c-0.21094 0-0.41406-0.085937-0.56641-0.23438l-4.1875-4.1875c-0.3125-0.3125-0.3125-0.82031 0-1.1328l1.832-1.832c0.29688-0.29688 0.77344-0.3125 1.0938-0.035157l1.5195 1.3281 7.0586-7.3008c0.15625-0.16016 0.37109-0.25 0.59375-0.24219 0.22266 0.003906 0.43359 0.10547 0.58203 0.27344l1.832 2.0938c0.26562 0.30859 0.26172 0.76953-0.015625 1.0703z"></path>     <path d="m55.367 73.902c0.19141-0.066406 4.75-1.7461 4.75-7.3555 0-0.44141 0.35937-0.80078 0.80078-0.80078h9.0859v-47.266c0-1.9062-1.5508-3.4609-3.4609-3.4609h-11.031v1.832c0 1.0078-0.82031 1.8281-1.8281 1.8281l-22.535 0.003906c-1.0078 0-1.8281-0.82031-1.8281-1.8281v-1.832l-11.031-0.003907c-1.9062 0-3.4609 1.5508-3.4609 3.4609v63.953c0 1.9062 1.5508 3.4609 3.4609 3.4609l39.59-0.003906c-1.7578-2.9062-3.0508-6.6133-3.0508-11.234 0-0.33984 0.21484-0.64453 0.53906-0.75391zm-32.18-48.969h13.344c0.44141 0 0.80078 0.35938 0.80078 0.80078s-0.35938 0.80078-0.80078 0.80078l-13.344-0.003906c-0.44141 0-0.80078-0.35938-0.80078-0.80078 0-0.44141 0.35938-0.79688 0.80078-0.79688zm0 8.8945h38.461c0.44141 0 0.80078 0.35938 0.80078 0.80078s-0.35938 0.80078-0.80078 0.80078l-38.461-0.003907c-0.44141 0-0.80078-0.35938-0.80078-0.80078 0-0.4375 0.35938-0.79688 0.80078-0.79688zm0 8.8945h38.461c0.44141 0 0.80078 0.35938 0.80078 0.80078 0 0.44141-0.35938 0.80078-0.80078 0.80078h-38.461c-0.44141 0-0.80078-0.35938-0.80078-0.80078 0-0.44141 0.35938-0.80078 0.80078-0.80078zm0 8.8945h38.461c0.44141 0 0.80078 0.35937 0.80078 0.80078 0 0.44141-0.35938 0.80078-0.80078 0.80078h-38.461c-0.44141 0-0.80078-0.35938-0.80078-0.80078 0-0.44141 0.35938-0.80078 0.80078-0.80078zm-0.80078 9.6953c0-0.44141 0.35938-0.80078 0.80078-0.80078h38.461c0.44141 0 0.80078 0.35938 0.80078 0.80078s-0.35938 0.80078-0.80078 0.80078h-38.461c-0.44141 0-0.80078-0.35938-0.80078-0.80078z"></path>     </svg>