<svg xmlns="http://www.w3.org/2000/svg" xmlns:xlink="http://www.w3.org/1999/xlink" version="1.1" x="0px" y="0px" style="enable-background:new 0 0 100 100;" xml:space="preserve" viewBox="1.3 22.8 97.3 54.57"><g><path d="M89.3,53.1c-6-3.9-13.1-6.2-20.2-7c-7.2-0.8-14.5,0.1-21.4,2.1c-6.9,2-13.5,5.4-19.1,9.9c-2.8,2.3-5.4,4.8-7.7,7.6   c-2.3,2.8-4.2,5.9-5.8,9.2c-0.4,0.9-0.1,1.9,0.8,2.3c0.9,0.4,1.9,0.1,2.4-0.8l0,0c1.5-3,3.4-5.8,5.5-8.4c2.1-2.6,4.6-5,7.2-7.1   c5.3-4.2,11.4-7.4,17.8-9.5c6.5-2.1,13.3-3,20.1-2.5c6.8,0.5,13.5,2.3,19.4,5.7c0.5,0.3,1,0.1,1.3-0.3C89.9,54,89.8,53.4,89.3,53.1   z"></path><path d="M14.1,31.5c-7.1,0-12.8,5.7-12.8,12.8c0,7.1,12.8,23.8,12.8,23.8S27,51.4,27,44.3C27,37.3,21.2,31.5,14.1,31.5z M14.1,51.9   c-4.1,0-7.5-3.4-7.5-7.5s3.4-7.5,7.5-7.5s7.5,3.4,7.5,7.5S18.3,51.9,14.1,51.9z"></path><path d="M98.6,32.6c0-5.4-4.4-9.8-9.8-9.8c-5.4,0-9.8,4.4-9.8,9.8c0,5.4,9.8,18.2,9.8,18.2S98.6,38.1,98.6,32.6z M83.1,32.6   c0-3.2,2.6-5.7,5.7-5.7s5.7,2.6,5.7,5.7c0,3.2-2.6,5.7-5.7,5.7S83.1,35.8,83.1,32.6z"></path></g></svg>