<svg  fill="#2054A4"  xmlns="http://www.w3.org/2000/svg" version="1.1" viewBox="13.38 9.98 73.24 80.03">  <path d="m24.113 60.945c-4.8789-10.031-6.5352-21.887-5.9844-34.848-0.011718-0.42969 0.25781-0.83203 0.6875-0.97656l30.871-10.195c0.19531-0.066406 0.41406-0.070312 0.625 0l30.871 10.195c0.38281 0.125 0.66797 0.47656 0.68359 0.90625 0.55859 12.984-1.0938 24.867-5.9844 34.914-4.9102 10.098-13.062 18.316-25.473 23.91-0.25 0.11328-0.55078 0.12109-0.82031 0-12.414-5.5938-20.562-13.812-25.477-23.906zm9.3828-12.609 9.6836 11.918c1.4102 1.7383 4 2.0039 5.7344 0.59375l0.003907-0.003906c0.26172-0.19531 0.50781-0.42578 0.72266-0.69141l7.1797-8.8359 2.5039-3.082 7.1797-8.8359c1.4102-1.7383 1.1445-4.3242-0.59375-5.7344-1.7383-1.4102-4.3242-1.1445-5.7383 0.59375l-7.168 8.8203-0.011718 0.015625-2.5039 3.082-4.1211 5.0742-6.543-8.0547c-1.4102-1.7383-4-2.0039-5.7383-0.59375-1.7344 1.4062-2.0039 3.9961-0.58984 5.7344zm-19.836-25.684c-1.168 17.121 1.3203 31.191 7.2852 42.32 6.0352 11.266 15.664 19.551 28.699 24.969 0.12109 0.050782 0.23828 0.074219 0.35547 0.074219s0.23828-0.023437 0.35938-0.074219c13.035-5.418 22.66-13.703 28.699-24.969 5.9648-11.129 8.4531-25.199 7.2852-42.32-0.015625-0.23438-0.09375-0.44141-0.22266-0.60938s-0.3125-0.29688-0.53516-0.36719l-35.238-11.633c-0.12109-0.039063-0.23828-0.058594-0.34766-0.058594-0.11328 0-0.22656 0.019531-0.34766 0.058594l-35.23 11.637c-0.22266 0.074218-0.40625 0.20312-0.53516 0.36719-0.12891 0.16016-0.21094 0.37109-0.22656 0.60547zm6.4375 4.1523c-0.45703 12.398 1.168 23.719 5.8164 33.273 4.6562 9.5664 12.367 17.387 24.09 22.77 11.723-5.3789 19.434-13.199 24.09-22.77 4.6484-9.5547 6.2734-20.875 5.8125-33.273l-29.902-9.875z" fill-rule="evenodd"></path> </svg>