<svg fill="#D90B0B" xmlns="http://www.w3.org/2000/svg" xmlns:xlink="http://www.w3.org/1999/xlink" version="1.1" x="0px" y="0px" viewBox="0 0 100 125" style="enable-background:new 0 0 100 100;" xml:space="preserve"><path d="M80,5c-5.5,0-10,4.5-10,10c0,3.7,2,6.9,5,8.7V45H55V23.7c3-1.7,5-5,5-8.7c0-5.5-4.5-10-10-10S40,9.5,40,15  c0,3.7,2,6.9,5,8.7V45H25V23.7c3-1.7,5-5,5-8.7c0-5.5-4.5-10-10-10S10,9.5,10,15c0,3.7,2,6.9,5,8.7v52.7c-3,1.7-5,5-5,8.7  c0,5.5,4.5,10,10,10s10-4.5,10-10c0-3.7-2-6.9-5-8.7V55h20v21.3c-3,1.7-5,5-5,8.7c0,5.5,4.5,10,10,10s10-4.5,10-10  c0-3.7-2-6.9-5-8.7V55h30V23.7c3-1.7,5-5,5-8.7C90,9.5,85.5,5,80,5z"/></svg>