<svg xmlns="http://www.w3.org/2000/svg" version="1.1" viewBox="-5.0 -10.0 110.0 115.0">
 <path d="m74.812 54.484h-5.0859c-0.52734 0-0.95312 0.42578-0.95312 0.95312s0.42578 0.95312 0.95312 0.95312h5.0859c0.52734 0 0.95312-0.42578 0.95312-0.95312s-0.42969-0.95312-0.95312-0.95312z"/>
 <path d="m96.113 44.172-9.8008-4.7266c-0.64844-0.3125-1.2148-0.74609-1.6836-1.2891l-12.164-14.016c-0.91406-1.0508-2.2344-1.6562-3.625-1.6562h-62.863c-2.6484 0-4.8008 2.1523-4.8008 4.8008l-0.003906 36.504c0 2.6484 2.1523 4.8008 4.8008 4.8008h3.332c0.089843 2.5938 1.25 4.9141 3.0586 6.5391l-5.5781 0.003906c-0.65625 0-1.1914 0.53125-1.1914 1.1914 0 0.65625 0.53125 1.1914 1.1914 1.1914h86.426c0.65625 0 1.1914-0.53125 1.1914-1.1914 0-0.65625-0.53125-1.1914-1.1914-1.1914h-6.4414c1.8047-1.625 2.9648-3.9453 3.0586-6.5391h4.1953c2.6484 0 4.8008-2.1523 4.8008-4.8008v-15.297c0.003906-1.832-1.0625-3.5273-2.7109-4.3242zm-31.359-19.305h4.0781c0.70312 0 1.3672 0.30469 1.8281 0.83203l1.4688 1.6953h-5.0039c-1.6992 0-3.0859 1.3828-3.0859 3.0859v29.082h-42.43c-0.96484-0.33984-1.9961-0.53516-3.0742-0.53516s-2.1094 0.19531-3.0742 0.53516h-11.906v-1.6406h2.8008c1.3555 0 2.457-1.1016 2.457-2.457v-5.5469c0-1.3555-1.1016-2.457-2.457-2.457l-2.8008-0.003907v-20.172c0-1.3359 1.0859-2.418 2.418-2.418zm-37.211 41.344c-0.37109-1.6289-1.1758-3.0898-2.2812-4.2695h38.785v4.2695zm-23.984-10.672v-5.6992h2.7969c0.042969 0 0.074219 0.035156 0.074219 0.074218v5.5469c0 0.042968-0.035157 0.074218-0.074219 0.074218zm-0.003906 8.25v-1.8477h8.2578c-1.1094 1.1758-1.9102 2.6406-2.2812 4.2695h-3.5586c-1.332 0-2.418-1.0859-2.418-2.4219zm8.1172 4.4805c0-3.7852 3.0781-6.8633 6.8633-6.8633s6.8633 3.0781 6.8633 6.8633c0 3.7852-3.0781 6.8633-6.8633 6.8633s-6.8633-3.0781-6.8633-6.8633zm13.035 6.8633c1.8047-1.625 2.9648-3.9453 3.0586-6.5391h43.605c0.089844 2.5938 1.25 4.9141 3.0586 6.5391zm55.895 0c-3.7852 0-6.8633-3.0781-6.8633-6.8633 0-3.7852 3.0781-6.8633 6.8633-6.8633 3.7852 0 6.8633 3.0781 6.8633 6.8633 0 3.7852-3.082 6.8633-6.8633 6.8633zm13.426-8.9219h-4.4219c-0.9375-4.1094-4.6172-7.1875-9.0078-7.1875s-8.0664 3.0781-9.0078 7.1875h-5.168v-35.73c0-0.38672 0.31641-0.70312 0.70312-0.70312h7.0703l2.5938 2.9883 6.0312 6.9492c0.68359 0.78906 1.5078 1.418 2.4492 1.8711l9.8008 4.7266c0.83203 0.40234 1.3672 1.2578 1.3672 2.1797v7.043h-2.0547c-1.3711 0-2.4844 1.1133-2.4844 2.4844v2.9453c0 1.3711 1.1133 2.4844 2.4844 2.4844h2.0547v0.33984c0.007812 1.3359-1.0781 2.4219-2.4102 2.4219zm2.4141-8.2891v3.1484h-2.0547c-0.054688 0-0.10156-0.046874-0.10156-0.10156l0.003906-2.9453c0-0.054688 0.046876-0.10156 0.10156-0.10156z"/>
 <path d="m10.66 48.152h44.676c2.332 0 4.2305-1.8984 4.2305-4.2305v-10.008c0-2.332-1.8984-4.2305-4.2305-4.2305l-44.676 0.003906c-2.332 0-4.2305 1.8984-4.2305 4.2305v10.008c0 2.3281 1.8984 4.2266 4.2305 4.2266zm44.676-2.3828h-44.676c-1.0195 0-1.8477-0.82812-1.8477-1.8477v-6.5781h48.371v3.1445h-22.52c-0.65625 0-1.1914 0.53125-1.1914 1.1914 0 0.65625 0.53125 1.1914 1.1914 1.1914h22.52v1.0508c0 1.0195-0.82812 1.8477-1.8477 1.8477zm-44.676-13.703h44.676c1.0195 0 1.8477 0.82812 1.8477 1.8477v1.0508h-48.371v-1.0508c0-1.0195 0.82812-1.8477 1.8477-1.8477z"/>
 <path d="m78.074 37.043c-0.22656-0.25391-0.54688-0.39453-0.88672-0.39453h-7.4648c-0.65625 0-1.1914 0.53125-1.1914 1.1914v13.664c0 0.65625 0.53125 1.1914 1.1914 1.1914h14.934c0.65625 0 1.1914-0.53125 1.1914-1.1914v-5.3516c0-0.29297-0.10938-0.57812-0.30469-0.79688zm5.3906 13.27h-12.551v-11.281h5.7422l6.8047 7.5781z"/>
 <path d="m54.641 55.438c0 0.65625 0.53125 1.1914 1.1914 1.1914l5.0859-0.003906c0.65625 0 1.1914-0.53125 1.1914-1.1914 0-0.65625-0.53125-1.1914-1.1914-1.1914h-5.0859c-0.66016 0.003906-1.1914 0.53516-1.1914 1.1953z"/>
 <path d="m80.602 63.863c-2.4297 0-4.4062 1.9766-4.4062 4.4062 0 2.4297 1.9766 4.4062 4.4062 4.4062 2.4297 0 4.4062-1.9766 4.4062-4.4062-0.003906-2.4297-1.9805-4.4062-4.4062-4.4062zm0 6.4297c-1.1133 0-2.0234-0.90625-2.0234-2.0234 0-1.1172 0.90625-2.0234 2.0234-2.0234 1.1172 0 2.0234 0.90625 2.0234 2.0234 0 1.1133-0.91016 2.0234-2.0234 2.0234z"/>
 <path d="m18.535 63.863c-2.4297 0-4.4062 1.9766-4.4062 4.4062 0 2.4297 1.9766 4.4062 4.4062 4.4062 2.4297 0 4.4062-1.9766 4.4062-4.4062-0.003906-2.4297-1.9766-4.4062-4.4062-4.4062zm0 6.4297c-1.1172 0-2.0234-0.90625-2.0234-2.0234 0-1.1172 0.90625-2.0234 2.0234-2.0234 1.1133 0 2.0234 0.90625 2.0234 2.0234 0 1.1133-0.91016 2.0234-2.0234 2.0234z"/>
</svg>